<mxfile host="app.diagrams.net" modified="2021-09-28T16:26:39.642Z" agent="5.0 (iPad; CPU OS 15_0 like Mac OS X) AppleWebKit/605.1.15 (KHTML, like Gecko) CriOS/94.0.4606.52 Mobile/15E148 Safari/604.1" etag="Fjfqn5SQFnC72ztTyIWl" version="15.3.7" type="github">
  <diagram id="hKN0tpEbe_HMFekNahES" name="Page-1">
    <mxGraphModel dx="1240" dy="949" grid="1" gridSize="10" guides="1" tooltips="1" connect="1" arrows="1" fold="1" page="1" pageScale="1" pageWidth="1169" pageHeight="827" math="0" shadow="0">
      <root>
        <mxCell id="0" />
        <mxCell id="1" parent="0" />
        <mxCell id="-SmzEimIzvcL1KyQb9cA-1" value="" style="group" vertex="1" connectable="0" parent="1">
          <mxGeometry x="760" y="319.99999999999994" width="86" height="128.14" as="geometry" />
        </mxCell>
        <mxCell id="-SmzEimIzvcL1KyQb9cA-2" value="" style="shape=image;imageAspect=0;aspect=fixed;verticalLabelPosition=bottom;verticalAlign=top;strokeColor=#000000;fillColor=none;image=data:image/png,iVBORw0KGgoAAAANSUhEUgAAAV0AAAIICAYAAADNIz1uAAAgAElEQVR4Xux9B7xfRZX/+f1eSSEVQhIgdBKS0JSSACIIRCnrYgLo2hu7y1oQVLp1UYi7gEhbV11dVsACGroCofcAIjVNAin0ICUhkPZ+v//nTj1z5ky59/d7CfB/+ezKe+/OnTlzyvecOXNmbg36/vVxoI8DfRzo48A640BtnY3UN1AfB/o40MeBPg5AH+j2KUEfB/o40MeBdciBdoPucTWAqc11OIG+ofo40MeBPg5EOVCgXAFKOWin20kQWwIAXwSANe3kcA4ZueP1B6g9OPmr1+4AXZ1Qc4kX89VgLAatATQJOnu8UX+oFW0zeWaIdV5wRhZNirFF95gDiUHymMV1QphhuCF7NHxIDFBzuJgpFo8PivFGCKofxWNJUJrZlXmhJ2tkW4OmEEbxXzInbxCsRb4NhclWT9Q4cpSmFL5QVKWQRjGUXDJZjN4u8QZlNKcjhlLXeMxEfX5kiM5aIh1STIToB1aHgmV4hgElyNMN3RGiWPyoBilEA1o3JIe1nkR1VBDYhKZ824ED/YugT4nf6csMXYNmvQZzLz/hjdefeeRQALizpGCjzcvxJz7yB0dNPPTqbT50bH8iGmPExt60wSumUEXBv2dFzegFyerAWyGNxMpHQRhbVBKU3bGjtFCdSzFBK6EBDAKMasq1ArzKzD/EbOoBEUv1GJpVDrcDvHR4QXDOUSv1Pm1fjCmNSTlLRhddx674EJSZah3iu6NTSqM5uvHkke5o+vE8gvrA0ZhCz8C4BkSoJxB+LcITylgOGTjZpvoNYAYrqxSyBXUr4JxUf3YqrpPih7OK/8Yri+GxX//LOQDwjRRpZZ63DXQ7ugaev+PHz/vqgA3HWGdpwJV6dYw4Wjti2q+iQQE8yusZX1b4NBwIhEEHGwJ+Q/pFSocP3DpQwhGZBAPkW3UIjaQQMzYdWIjRFbBYWMGwpsZpNqXxoHFkBKwgiRiP26dppeIAO0esmDpOIGsTNSOLPBTcsWzM9APgoaMYC+ByToqdDveQSSHItcah5Scok0GzdTsOiMsGDr+ItVi6rD5IuVMvhHVaDmL5ZjvldMvIDoG40RHCL6uXdDxNn0+HlbLmh6sfHH9kb0qvNPlqyq6Oc3ZCIxUZYwqOIH3EeqtlgNnv65Nvyy5gaZ5jgolAnWWbddoaSVxdd+2tZ81bMOfK76xY/uxjowBgBe256u/tAt0hw7fc44Vxh31vQL3eAQB1aNZ0gI+4bpRML2HU8CgENtNG4GKFZUVle1XjKER0oy8ytrFo+XdsRgZ+sOUK7ZUgp/9JJbLva5XHDdz2CiS18PES1+tbUmHmK39TGKz7saKmwqOBAA7MnGEJpNGgSbLAzluAhNFrN8mRExDRIEqu7fBS1uqBnrsEY0sHxiLTnwZYwkcjE6ITzt+xxSjPZ8DF0z0L5DRWch2+7JTzM1gWclqGeMRavSBG63hnhYOIRgIVNCAZYf3jIIhCFEcL9X5mDG0LjvNHdox4mZKfC7huukg6YA3etiWmNT5Pm6bgkrlUjlJwGLOkfj53/8Ww+J5LfgoAX64KsvS9doHuL7f+wDFfHLXLoQqgqCoqj4eNXUVrlnGBkKhdMyXRKCfQmBI4zxgj14aEIzeXdC4OChtpaNpaGUPGXZZdfHSWs+eA5OXkSnkKMN0xGm27PH3Ia1WWK4E5KEjFqwIO1PKMirrIqjSW7yesiUofA/rNuROX/zwtubLP5YDfn+fSVFd29WQWhiZn7a8infHVC81aB8w69+Cnm42eyQCwNJfGWLs8/YiPtClA1z17HXf1lnJBoQNBtaQxAnTiLiYh6S9RzLApow49T72nBvANvYIpZ4zFKR+rkBl9ad7kve8qJf9OaPOM4YWbnI/EdrE4OKBUZu4hGaRkk3reDrPJcHl4HjqqD3tSGUpz/9R0DFBa9ECtlXzFrrCKoPUCX9sffq+pltl4zKjO5fI00c4bI7df3hmEwdxdWzmAqxynWWnFIwCAWh1emXfr2nl/nv4xALiiHdrTDtD9zNhDvv1/I8btI/sKKU87qE32UU6Iye5KN1jf4/sE85FI6Yn1vdBGDpilczCibONgfV21zIE3l70Is3/7tZvXvPXalJY7SxcGpYfoP3iTByYeeebu3UNHoM2o9HvRFm3CrpxuctqUnU1y+VaC8e1OJ+C55M5dxEVmM6ksN1KOoPX+1lUPNLKSAb+b8y9DS/nEQJne421zZS9nGE43pXS9CsVlaNP90w2xKn0YWvHLzSY0oAnzrzmt8epT904EgHlV5oTfaTXS3WfE9gfcud3BJ8oAN7CMCjOgJdaoYls/2d4qU6iW5UYmZXNX1OjiCizz4rHNg/x5o42szJdy5hY1zkQePJMM28wZzB85h97YmGXflxSU12e3usFCiANzWat2lWLIOAFQnkpJV4onqeelZZx4gc4jaackxULKrDz3gvt7fdH9MOfK794BAAcAQE8rc2kFdOsAcNvuR136/q7BG7GA4DEl4DHF5PQuPZpNkomtzNwJ+dw8mNetmkhIqVLK5jwn1QvIW1WeTYkUcMBwIm7RyQlKz1oN/EPakKslIfbQBEoTaubQQzqnnJKdjX60juSIKR/WvPEjwozSSipMMEhK+9IHgWixlnIX6n3eqVeIydE8bEmfqnxJplXy+ceaccCAg/ZLVnJmdPGDDFAatTo89D8ff3nNG68cCACP5mhBqE0roLvr4E13nrnDx/5zQ12MxwmM3R1PMp0nt5ooWmHP+n+3N9ML8dmtR26X8SLrX0QtUeCuZNOpiipSqfJOS5Nq08shututHjwYo5WDGnDFywvh0UuOPh4Azm5lii2Abv27O37iJ/8+aNS4tub7cpYxlSdMpEUj6dLKmSX9Mr3ybdO7tGU5UoYmt++sKZclJ7t9dbq5IRyHRmpz1xNJ2cP2ZsPs6D+4+CizKsifyfrQPcyLNavegLlXfuvFN56fuykANPIpd1tWBd0BG4ya8OyEqT8c3jVgA9GjNIdQ2UtYCO01oxQbKo6WLe2K/afIVs+DxuAM69PQG5sdKZIrG67idfL9rDAoIo9smaZm2nvPW9amZPld79EuQaF3wLeXqea7L8rsajV4+tYL4MVHrvlnAPhlVTqqgu6PNt31Eydt8f7PosMQARIqaE6FV6rOP/peO+loZ1+a6Cp9VnmHjRJRfj4JkHl36PSKDG1AkNd9K/zRGGNWUOTQch4F4VZhPyPBjZb758ilLH/KzqEsP8u2Z+khneTywevLCtScjlu9cgX85b8PfwwA9gSAN8vyo2hfBXSHQa3r3slfu3p8Xbxd/E+VbiLkVvSQQYF5QtCXKaVzaC6VXBRZYvYJjWqLwiGCY2ysrIhVtCxj59t0ayJdXfJdnitl3ij4INZo5lo8IvFe3n8oJ4fcmbnt9G+pt+mKKLVCim1MhVa9KRpkgJywy4r44KtuDjU+Aiy86ay3Xnh85mEAcFMVc6iClodsd/DxV48YP6VTnYYIOpuqqB6aCHI85AxGeeax0VtC2EllSEV0jLLYvLI9V5IzjlTOsmdR3FKx1Djcc/ZvTtTr0mQN3l40E1NUmmevotTte6eaXhVvcXdXhMr9SskxiyTbiDZPyTzKOyNMfRVn2aClDZLBZV+qu9I6k8XDMK0rXl4Ej17yb78HaHy8yoxKg27nwI1m7HjkmdP6D9/E3FgZViZ6WQwvpBZ5UGXe5d6hG3AVYvuWlD2T2tyIJrO7dLMKgqvwSpqOKIrzwlrndFSYxTuBxpxpldF96rBy+tdtSjmvMh3jtsVhiWYD5l7zvbWvP/3AVgDwbNmuyoLu5sO2nPT09h/5fke9XpTpMq/n1hm2mUN5CprXKp+J7e6vF0dm+b3+6LeGsh6iJRGJpj1nRpOIwMLRpngpUEmT0oDWaJK9t6MPZgop0lt4jiiughtV3uGolR5BLOVemn0jLLjx7D8AwEfLTqwM6BYoe832//jDQ4dvszta3pfpIpe8VtWi1fdDdLa731R/qec5IV6oj1b6zpXj+mqH5xaK/9s1/1g/7RqjHB/LRJblel5frdf5Go6dqOVrE9ZCFzz68yOWrHrztX0BYGEZzpRBzHH17o1unfSlSzfVp1uCJWJlKPDaVlXUqu9l5Ebb5Slb4ks8RsEKIYdJibY6v9ggAOfD3w78StBQlsSy7Q2PxEZd4iIozkdEdCUsOfIEEx1d6bRXF3yTLr350LKl9G4Hcovx1YV/acy78tRPAMBlZcZLWSbu60vv/dR5/9V/43Hqb2Vela8EY67UbqUaMVc1ynp62j61a5vDYEFroE6yVT7o8VN3NZBroS0QV0aQnJkrWWfZWQQ+MnUin6LWWpbVqUqjcRutOe4zk1e59lOJdmHgWUKv3H3VF1P2nHoeGvetZS/BnD+cMHvVshd2KnNYIhc5a4M2HrtowrQzNu8YMEiV2OBXeXF6dYvBS0/UjncLQouWR+Hd9Qwlripc/N7/D4v6HCBqQaRRMeSM3YocUfrOBq0la5NbGT9Hl6KRTAuDh4MCvlqmnWDO6Us7+8fBn01a4E846Y9l8dU2uFKiyLHOu/p7zVefuu9gALgxl+W5oPtPI3f4h99tM+Wr6mKa3Ndyyehrl8eBdqtf3qittKoaRbQyJvuusuZ1wcF1MUbb+dNLHb6TeZHU3WYTlr+8CB6/9OhZALAfAKzKYWMOenYXnyDe7ejLJ3UPGARNcYOTm83t7agjZyLv7jbvZNV9d0um92f3dpT924GmdUNDdAuvKB+r1eFvM76x/JXFjx8EAPfm6EMO6O698YRDr9/2oK8NFhto9E7XSMF/5eIUHZVk5qpkOimj9Ij7TEkOl9rZxtncSOQ6jF4FFMz5cxklDFzPiGizJ7UCk6fD5Q4fKJUqXeDeqkxCLM3RI6lwZU+mxNMl6CvFTkOR50jpSeCwAqUxQLPgvRgjAgcx2/HGyaOXY0jMjiux3NNTyys6Zds/OlCt+e/IwP2w7vIXn4LZvz/mh43G2u/kqGUG6NYv3OkT5355g1Fj7efPmRuZPGblcIjs7Gb3kdM3Zxi572nOVWzvzyMnkYy0Qyh4cTRVTIK8jH/HX42NidLt2zEuZ45kLPYZPtVG+tV84z5Xzu3iJ3fXc1SYo5lBqdg8ta4oK+QNP3HxO6srMX6ykKMuvUVfCkZf36WgmBVomGGI3ng3NaR47c4lzk7OoyW8sujQKJD6Qb1jN4fIcUf5jg4E8elO/EUPGUDoo//Khxkdle/L5/pDlva/UjUs8uIvdYtDYc0m9DTXwpwrv/3W8sUPbwgAK1OcTIHuhoM32/m5CVNP71fv6greIoadcYjd2AxC7Bf9qIciqs7BqtQM2/Q8Rku76Wx3f21iQeVuUvMh5lxq2zPVdy7R9HMvKXdn/DKjozxN7aI0b0brdrQ8mtrXqtrsqr2lcMisvjHuF464VvwfLL77Injugd+eBgDfS80zBboXbbH3Vz636R4fZioWUl0zz/WsM2YfX2aoVEJGPxWorPZKSVqcuIMsaa1ndsWTjGwYGrgAk52gCSo0b+PL51I0Irqy6akmBeakV3uyAJj3NPLR0VDwU0o5QZ4SdUk1klwKpGzKsNAL1B0Fdf2gcFBMKsIrvcxJ1ZAJY/3ISTXIQC0jtViGGRXarl7bhIcuOHhOE+D9APD3WBcx0N2ko9/QO/b4t99vJ0NqGp5becvQXA+jY1R/2FSEK/NKKtwv9uuUPun+OT3Q0bF5V4Uo9vP2kh6M92oY8TfnZxRlM7rsL/TRV37w16+F4qBQHUfthl40T/3VbPyepV/xmcR/0tiUTAI/awm4iozeUe/pLyUZshm8NfJHPON4hLo0hIu91+ILYsI4+HQoWsEJ3vGKKf9qP5TproYwjVxmBstb0+koRjEuVVIGFOiXy139t3ofkjWen6aJWo+ZvwymrC3onwPrAY58PEeKla7zt7R7c0Qy0XoaKhqlz0PZAayfWC8MT5DAYlhA+1Ff30GfKOIr1oN4hLFOGS/OmFEHVTRpQA2emXXx2mfuvXgqAFznox/ibeThh8d/5AdXDd96UnH8V6ETshiPs0zq0YM6nVhBoOQgjqt6kinqc38Iy6UsGJZRoDMoRmcZgG8tedTcfLtNpPSwiSDtJ/kig4aOZROzEmNxdLnt5PxlzaDvOoS5G4B3unS8JDUP9R61dOQ85eaKHlPLQRLsOmHCS1XZIkFUSVA7GDxdbEUsxLouUebPrAxMbo0ZTxKJBiNis3yn1oX0Cu2l6PygU6NpjcJLkTvmorp0VIuLS5y/Uf2kCmYb4xyjY6diXMt/RxWT42P7snKQcwh5JaUbns5gW3dhxKaVcfRAbYLIxOiVFrJGCakbOs+qRnK9FdYLI3o6NhNd4ojACNJ6QiEDaMLypQth7uXfuGPtqhVF+VjwXyjSrXd2D75vu4OP22ODYSOFyTv/cCSX07trP+4biQQHjhLj0/BjBh3jYvCIkWueifk5Vode8+JWpstwtJ81vkENyzgN+OrTfoFusqwpkwRunjlzp93Ld+IyCPPLjiidr/xn3Y8xLs7Bm/ZV6NYvq3c9Hx/jdUz+7dANn8f2q8KYbskr718oxIvCRKyfBC/Uxx19qrVMMWAHaOZowzikzNVQqfc98XvaadOwWuCnrOjx/jnOGwG0+jsuni0+1b7glp82lz87exIAPBhiZwjyNqt19FvS0bWhTN0UN4qxkVmm/ZKJ8x6OeBjBe8VVLVNnh7NogAzCIYUqAfO7owhqXWnANuRVAsarcwtRGogRO4CgFU31b6QSAn49d6SgDu28rWVLSwyrtRjvKvtmY4yaGgCnwCbnwlHCGC6mQ7wSsgo0OBfVJnEuxGeS5zD6hzvk3g3pSbYEVEPH4vWxTfRMTTbLISD9M+iSZAwhGM9Vow4TlbPIhQRjxJVyhpxO6BUisVEdJHmIpmVImER/FWruuy4v10WQ2QwnPufThEbPMmiseuMKADi8LOhOGrrlnrMmTC024zimkpk5vAlpvSYhZJ0x5c1UVkNHBuiyBizHceVhRWH/7vbPBw5UQWl0hucUV/5w/yyycdnfTAbGmuUaSFlDDjkjBuBN1yGnWKbipRydZYNDv3258eTsc/Ssimir0JIzTsh5UV2nDjRPt9IySPVDdQ23xzRqu2IS2cF4QSUBG8vhvvOPuA0A9i8Lut/cbNInz9p878/pjGoOx5NtKNNCTERTdkCQQkxIdSgrQ9Ck1VqqgKSGOkqOZgYOnKWvs4vmQaDrxHCulokjnKEwX8KwExeD5I1e7lvTxi7RmrvlCXWl2GxyVT1HCe04jDz0lgLpKCbffNdm08Aun90z+PKZfy4/Jg+spzlwZ9vw0E15z/GV44kLiaEQwtUJbBchu+ToofoS0l0/NOG1JNWO2i3W55RdJYErs0ExTk+tE2adc2BxLHjv0CU4IVovG3foDz664bg9mC0Ouv2cY/4Rlpia8xDc4dNTdCvLbvRIoAiNY4FGL1G5Ky5cs+PE7PbvlrT4BuLssquTfHYBQ02R8/76b1xbTq187XDHk8/NhhDK1vvQEoMHyxu5Xyd/12O5BsfLxJGk6YMzzTSkuJx3N//s2ymX7zpD3t2o3gyZ1t3YnLvZPjRDu8CFd0hkRYfQXedASQoyORh3ZUDrPzh+4w1au1dAIR8vukPuleqKC+++poZhkN53oG3IrWjJhWCMTZSmWB8xXvp2roxKpH96oBMeOPfA2c2mKB17hdNe1iJqADP3/tq1UwrUtgqRCffruBnHgtTfAmxzKPdNNP6NLxoFYLjMg8feY1yKH7GRc3gVm1+Z93M5UKbPMm1zxy/bLlRuF+qHg4qyY7banoZS4XCm+kiczVTvrX1vVtEZK+M63H/eIc80Gms/AAALckG3KBG7c89j/7y3LQ0intUpVFOsE8WESFTixzxRmYiRLc1w6pjw1xtpiaWbi+WOT3IFq7qoT3oXXnJcoSHqizu+LKeP+1O8EewihbBOeReZL6bIK7JUvKdFlTryRPx0ji9KV6pqolFhOS1AdLRPrTjUq96qQL1rZalrrmX/OKLzDlagcdk7GMxzdBSX6krUc6jNQLyqImOa4ALPQ+f3zfFQNXktQ60zrF4pgjDtmu96tYHet8GzXEm6hs/ISqiRaiXME9meULvI6lIVwxsdVfRjnXVkhOeHV0rMdQDOQQ3MJy2fyKEK7nCFMxOmpNOpl6Ten6Cno5tckbsRmawnR2eM9ROXr0hXtP40CqS95juvv7zg/imhCgZOMkMK0J187A0712vu0l7u7+nSN60mGFzcWZrlJnJpOgVgljbmNIl7CYt3AgitbGyhfR6ot+wDyWUf2EmIqYlaUeofA5fKeMTI9+x8cT805mH6xEDpgWbgIhRDQ8in0xiEa+f/jcosdmqJLiN9GdG550jR6qS3vKan/kIXzATkI11l6ovGtk4Jp11ol0Fw8QCJ1yF3j51x7GhAiXvW8eH7BVy6QrqQQLIIv+y2Zrzv5ElLMkZUzxwnR/FB8xPdt6Dsl7tfAesvdwoRk2UO/kAdXnr8T42nbvpJcesY+4l2DrU2r3UMvm3yMX/YRn75IOY1qUByDOOd1yalju+8GfVR3MeBPg60kwN2nwRgxQvz4bHfHXNY8U1JbgwOdHfeZIcP3bLFlG9sVDdPy0aUJFKiEVg7Z9vLF+P0AW45YbH8ehczsZdVO8p8J+KLJBTKSbB8697kAY7Uy1O2Dt4gqceC3jdfnA+P/vaYjwHA5bmgu99W+x4zc/SuH+7SpzRCF3k4C+EWrhdtVWhllye5ogis1lH6THKASx/HrUWlixhDycEnnSoLpHL9oWm2gCEuZ1y5xNZZNHkpgJ173qUj7ZAVSTE6s8mdh1mjcZelJDoJ6T0Hgrn0tIMvuXqN5egskdWD1NYGHcfm4f1tkdz5UzrKhnnmfX3bKS6xzXRIVWjVFlHwoC6OAwO8+tw8mH/Z137YAGDv1+XmdsjOHzv3Txtsur066043hHjR9qbShHJpXuYx87ahPJBXIshrzN0EIRgVU8gcRYvxlSqJyDuRr3ooIsTfnfQvVsQsbUvk5SL5zlT3qeelwCT4HT6V10R7EmzOWQ1mCoq4YMLRCUt9aB+CjhO1lYC+leFRmdw61tEcPsftPI9KNqfN6S0hSDrbgHOP2Cm7Oav69mTmbYAHuGLgwZ6kFTs7tSasePlpmPP7429Zu2bFgbmR7rQdP/bjGYM2nWhuNgpeWZcjpRaiqvzu84Sd31+c0S3301Js1gujl2FfphOS5pHaeGrvXALhQGac47799qB9XfCn98YoG4iVbZ+kvISuJvsKhlX+rXmr33wN5s44ZdGKl5/aKg906/UTd/zYOf8xaPT2LOjqXbyqQNx2xnKgnhnx0leDMooJz3vGI1g0Ys2h1ylLIjjSinKhd3tFNoIdhCeo1Ka0HpV61yZDZIVIRhUjaVSVJ140l4iwtS6mxgs9Lxc981/BYPvA+lHSfZn+SN4zDXDpFkayObbDRLXJERLKYnllL8qRka7UsblXfvvNV59+YIMs0O3sN/SKCUf8x9QNNpYgnXNZcXICJRukFK9kdy01X9+0cLJfVzSVCYBbYjJ5OQsc2zlgoq+3Az1miVwC+KrIr8w7Tm47Vhms7lEO1w63X5jryka8RSvIj1XOueJUWLbowaL8djmdnZfTHTB8izkTp00f3zVkIxOgSKVTTXM1MCo9Pg9miQtFi6amvy1ScuOgdJci2FSF6Fy9Y3uWpOlIWeduaf1legatt+CUmebW2zBKwITDeqEvwau6AYNlVwp4UKRVJfqqwisvl190wl08L/6et8HZGh3Inpkxy/AzRofbT9pOqsyJfSeQw9dtac64OCAx94pvweuLHhwHAH9Lgu7wLXZ9ffzUHw4R1znKWLdttHMdtQJUHttZh4BamedEfBUUs6wi5XjeVJ/c89Q7vSm8eNal/IaHoDUzfVB+mc3I3Kh3L+t4Bf3qDbnFbY2D8pJ88bJIVQBfdRL6+jBJd3CXD2XzDqfskqudjLlo3QWAeVd9H159+t7iKxJXpUB3wLAtdntz/LTT7TE4C+cZCTH/aj1BB3HDoWhJXzPhg32r0GIFKSdmY1wniifcacUheDJMrhByF2sWmLjcfhLco3SQrwtn5rJD+UvJAzkvm99j8tEC/JCBl84BBqKeKmEDE9U484vmfNVcUVmdPqtIw5dYn0Z3NChQ/iRRhfDc0+tYKJVva0ldS9KZRDqCOR6qozuGeQeRuwelV49cLyF3FDKPov0r8/8M8//0k3MA4Bsp0B0zdIvdlkzgQJcPUz3p5YusVYnkv+/fXFQtfu8dJXs7ciyPt+8GfuBrLkvGdXEmJZ2siWZ6YTUZdkJtnaP1Dllz4Fdq5SpcYtZSNkiqYnnsO8zqbPlLc+Dx3xx3PQAckgLdDwzdYvKtEw8/DZrNhvIizIWJGdSWZQAKirIsvkRcmNVfVqOkIWUwJmugd24jRy6xZXVqd7gN5WZeBK7vIEAQ0TuOg4aWxVcFwlePrhMaFEmFfKouye36sFrQYt0MD7S9wYdURUbK0mi+lm+PVhZqVdKoNWDWOYfcDgDFbWPOP+r4vjdm0me/P2avT6kiZNGD+0YbcSXMZDuIC67oFlxltL3jueWUsYL6P7emeDFhG+UOFvpnZXpS+tTyc27ZxWhMcJykD0NvcgAq9du9aggDQxlahLxzSspIO6kX7oZVu1ZWDuMYu6Obf/hbdLFLodoNblRfaaVFbOneshL2Ygf5UIdBV+pjD3TAA+dOuR8A9gGANZhMillXjT30Pw7baOzOUKvZjwBLAFJfG0huCvikCsXMVOjYWPFccHnu5xqZtSs+mR5d8pSYt5lBpMNcRSg7t7Lc4wA3ft9V2RHeGe2xTnI8xxeYp2aUK1vaD+uQ0AkvdlkfqHZoJYgxqXhFoD3VF9+EqjrvFD97+zkrb4WPjVoXPHDuAQbm7x4AACAASURBVHMbDdgXAJbGQHfmPsfdMGVt8RV3XeXb25S30H9Vj+1v6qwbsVejtwXaeht5W5Bdr736DphzGT2oIv0y/feaHJiOs+jKlJ8M5PBd0Flp5V6drpifygw0azV47KJPPbvitaXFt9KcsjHs2IrQ9o7JX7vhfbV6PujGGRlWmSrKhDlmx/Xv4cWX0KS47CzRklF8uLfULqkbEbn3m5pqCv2JaHSJTop+HIU73pTcWhLMbRUvZV42byPxePjuzDXHFmSJS05L50J0L+IjeeD0voJ7MkvSbenIAolMAblpsnhqKr5yyihdcmhSvYVKsAj9EjgSOlHSeG2Qw+sNi7NKJ2x1kVrCB072BfP3qgLEfFIKV4SQw1/ahuX9/qriBl1kb2yNRvK4WkV9Gbz4z9M3/3j5i4/dWFxmXqQZzD8MusMAandMPvb6nWq1pjoY0cpiI1MbM5r1lvJnDF2xCZdiKbdLW3HgvtcyOFASMzJ6XI9NMiPD9Uhh5aHf7nJiqgudC65eeeruxvxrTvMuM8eouiXUh902+ZjfbeXfo4sjAssKHG0a320eh1jG/z3lDVnJ4SSSk1Cskkj1XL6sMEVHnVrdCa2kfaE5VuqstcuHvfnzSS0UOcvrH3PO17TiWM3GjbdSSWWeM/hB63LFVRJiccusEKrBRNm5h6K6bJWI1hqrXujqg5F1Wbojd8bIQQX77Nc3sOL4c+YXaCJa9SpFiFzoXEj0K2VrQlyiJPiuBakDzirX8K0Oy56fA0/8/ljvMnMMVe8ZNfGQW7b+0HHD5f6bHjlblIpx6mMiebZWsvNQ8/RCsvpA5Q0pP/hogc/VJ7TO3yxtnCUo7M2+c8hY3+Pn0Liu21ThSXkr42aV00tOmzTHQnO0f6/BsudnwxO/P+4zAHAJ7hGD7v47HHbaTUO2nVQ3mItCFO2EcNSiycfQkcvwslOvAqtBxuRkD/OR0zppfH8ucVu5fImLO59r+S3TCmZblO81rZxlxqdt8+iJLRbyevBPWrJUJ3QGj+XF4JX3E1BPmTorAjt0h0grEki9W0bvc2WRGnO9Pte14LUmvPbsXJh32XHnNMipNAy6h+z00XP+NGizibJADF9yg8AkGGvqFX1A8K0xNJyS0OuA8lcEppA3k2I03zIKtl4Vo5cGd5ZZxRgREMjkbiVKuXRDUjaKILuZwhwKilFD9EA3Fb2s160ROTEx/4KospumlSTgvyRK5xSmJGVRNYhN0Io3yjhaZJbB/xCATlnoYFSKU32hGW3sYZk360146+9LYM6Mk+5Z/cYr7wtFulN3/NjZVwzapLi8XBWccwLKsJZS0Q2TbsF6GvxqhDldVH6DqkqU4b2jMRulLY2xB3ZYvTiNuaFKt8lgs9NdriJLBXIBBb9r51Cer4Z2HUoRvDFKT3aN8UTQq1nmLvRDMMtFtiT/mAahd3J5GwxI1IMY9sbGsE4kkMcscXrPibZpdK2qZ6ijwL6zlG1nSJCjR2KfX6Xh6CnD09T2B9Y/6X/QbS/Och0fWXSOLzozshUR5AoIxcc1K16HOTNOffbNVxaMCYHu93f46DnfG7zZBOWY16t7dgElEZRifmXIueUmwX2UlntmOjD7ConNwcylZW+QyAYmlZfLuRQmYTW3o3i7Ng8jD0uEjwSniM4lJ7ddarxqz1sZvYV36eZfNeLTbzGrGm+l3WxCo16DOTNOWbVs0UMDAaC48VHJXv3Qb9DIG8dPm/7BARtuKgt8o8uQYEzAuwgOpYxbqlpp0IJwImyNRzVqqYbr8nQxdCpbUXlM+mJ83m7dcXo16UQaGRG6E/XgTV5CZo4jLHfVIOeQfN3xjuC2AfzD0V2av6xDwqskDcI66sqk140+NR1pm6BzSb9hZxC1jWRHyQaMBpkSAj4acWwvE5NMIZY5L8dYbpjWND6Y+wOgWavD7BmnwLLFf9mouHjMA92BI7Z7csK0M7bt3mCI/NqttwQsy7S0w4i1aHVJ19ro9oOSrfbT9/7bjwNtWRS03Rza0+H6zt2+/aSNKdI8rsZrnJcuevUwSkfaonvxLXXxBYnXFz20IwA84YHuhlu8d8X4adMHNiK3IQUZyn9ySTTn8oVRsNV3PGD/k3maxmFv8iuusrWbU8IlplUjcLl/RBPyNrBXy0uzkiinAClnVCoqQ3SySpQZnadowow2ap/6ai+6EUwEACFa2qUbuPJE00bQ2eSbCd80aTl5Wc1nfWrS5mvjOUx2+lXpQJsmKdlJFiipOcvqalG+mUcZz8eF9cRsUvPgoLetDiIwn3lX/Tu88vQ9nwaASynoDhq2+XuXjz98uqEjeHuT0rxY9kEvLfU33EtXFjjcsNzldkANsxn0jMKZYlJQWAmloH3LfuQ9T8rbmAJrP99jUSRmdL5SkCPPHBhRIJVW7t3GxSmcmYM5lYvnIj233ILjOesAqkBKsrlFgNakIFB3erPD8sx5GLX0WLpCz03DtxsM2G7NZosiPVTD4NPpctT2o/a6kb7hlt7n2YMOxnCLiA7rBAeOgUuakH5riYY+7ZOaK5m5rJZwEo3uZVmcnIwdIH2lQZEJkyIpAklrjc2OimdqsngTTH/WPWevRjte/KksGRRI+zABgrr9bukTf4IFM8/9GQD8GwXdrYds/p6nJgrQ1QRbg4kF5aHULMWsUvGcSYhjMkv14MK2ejW6NchNhI2iSFjvTJShMZPsKIx5zERROJ/cM/ppMDIaLmb4fA0aulpAvSLodr7G4ZuKl0fMWESkcmeSHGXcjgMNTDTkRDmRhfKqwT6K+3ILj6uMDudnjQoj7QvhJ4VT7SzJf1lnbK5akatL6fNIAIDr7nGbzKiTbaZthHGy3ldDMOEcQLSgoxi0Y9laNtiouB/j4yJxes0mrHrzWXjoF0c5l5lr+v5h2Fbvu3b8R75rlxIZdrjOmhjDiCEYeRYEI7ed1D0dCVYvk2KDv0xlppFj9mts/TS2aMoTbs9AA4bZRWO/AO15MS6KDdakplCGylX+bpQ6CdK2fe6HGINRMWK+8cPR9EbKYmMhi0q/IcBKLZOjUWfMOVPA02Mm0jPSPHC0XETWfiRp6OKcDDEOdo6c0hsMU+ObYAwFhCndyAx63CjFDxxCWMeSjWqiG9ADs35y6G0AUNw2Jp2h+u+Z2+33teNHvPfQcLlYJhKklEYPHG7ng6eNpnR4hTmtl1ctuMlM9+ekAjzPToAli19xjfAiRA1FeigzZRVl6WgrWQCPx83TSjcNQtVHKakUlEpDhM6uO9Yvz0+woOMCLxVRVH8Uf4xEUvwgsnLSLE4tp3s7HJ8KwVeJy6sEbIBZrgwzJBksC4txOJK2y2izzmYAy/A0tlqyjRzvgoMV0URFzvouAnlnCbo9Dj037dlzAOaUFYEoBYtciiq5EghBZmt/F1NyatGRxFT9/ppmNzx07v4PNEHcq7sSo9TVu3zyF/84YOTmb6vbxXiW+FFTyABbdwCtCCUPzCRc2dM6DiSRCIPfTsq9JtvSkzpSnXpOYBMtbHP5xfDGSRHg/LHbZ0qm3PNqtbFSz7B/kwYTB84UfRTDPF4H1UbTY85D5TK7ve1IZBzNowcObfjBBF5han3G8GQ/oqCgN7W8YOecWm9VYZQrLmRjCpGb9U6Y9ZMD50ET9gOAF/GsZk4+5roptY4Oe1TPrjaNrXMJ95Q3rjKRt8M7bLJf88T1+ZUUIDbHfLimyth+ztnFsZt6yaXR46NRIoZW7lmgfRnH0H6u+D1aPrmusbfoDNpdUhtzJdca1xJrOLlziZnW2nDKQcoOpcrk6SubC0anXYU0TSRNI1t+S9mugIrndXji0s8/v3zpc0V6YZ4G3S4AuH3ysdfvJa50VEtE65FTSZMAtziurxt5t0F8fV28cznQp2RWdn288PQ4wZLslUrKQNQ4BfgvuvWCN59/5NoDAGCWBt2NarXabZO+dv2OdecuS/0YUxkpyI2Gbgq4aV4n8o6TZkp67xQHyPN17RDKhCVl2qamTftK/U77a5fNtquf6HxjIXSKUczzFM3keap5BQp675UcYmNtsvYrePKzpZRDIx4iuNRQ6YpUXl9vSuMvRSi8knEoSSsZLMM4SfJRtRo0mgAr/z4fHrnkmA8CwE269TYDN9z21p0/c+EW+FMlrUu8IJUDbr5n42H4upQE7EqOx/soxs3Nfyoazfa1dBqpMiZTBOisFqLa25I78XuWPNe1wlJNympviykLZ/cfX66jZGRm7NKFbUZrTTXqXf3Sm2L2Vmr5XJIZlqnlJJ/DLZ82UD2a2/tIMGNsxbcPbUmYL63Zp3NYXGkILhF167F17aveNMKW7eBe8AhzSgcJVjj2o7XArYHH5wh4Oyi3aWmUQjC5wruGEYoaZAfLn5sNj1/29X8EgGu1DHcduf2UW7c++PghxUfSWFR3OesnNlrTAPI2w0JdgoEZQgAx+/vZdDSUr5Ebrro8hU3gBmbKrAA858ErHgby2AYzh5/iXcoTTWHqhji6Y4/gH+/KhgxMDyNmFStVKhkVlV3eJR0t1RNHgjRcrZZKKzlFjPpBy3FAnRkgyPKYLFyhqd9o1QOqcvXAzzdV45yQvqVlSG0hAMpSufzARN+GFgHHNA0R0PKwhZBAqz2YUkkd0RfUv/7cbJhz2dc/BwC/1qD7gYmH/eDmIdvsIS4vb+30WFvRl8OZUgNUZTyNusp8Pr4UgRmNhVJXw4KM3tNNQhGoIKsX6MqVmaEr84IYdqb5XxOycQyZM4nRRLtW4qS0RGwLLBs8ZgiryvSd0xZjE1eizZc85vRcrg0NDEJ8ifeaisbDb8dcSOE8X39uDsy77Js/b0DjaK0fB+8w7aw/D9liJ7v8NidZ5CeuOKPXYGCWHGhke1RUle8FEjm4rJQLXAWBqATVOGo1luhWc1y3xVUX6G8GwRHv0DT1RfoOZ+nYMbE4CqhjCLVBay4/ZqwR0+8Obi73t6sdtHKxxxkt+OFlIB7TyIrwE6fYdXRLzm9KEPEsWlKKHYIzD1W7yM4N6RMd08RYyIq0jJ3DVaH0mjkUputptSAsZx2dCdGiLAPTozfbcQ0Z1V+qr7iO1wMGgtboQJvhOdXtqKNjDkoaepBNUD5i3aD6h23G0KdlS1dGSOdxP8Yu0MJR6xiKqW1tHqM7eGyNRY7uMDbt0EDmjyDDcZDeIqGiA8Wr5WatCStffwHmXXHyo2+99sIuGnQ/vsORZ/928JgdyrkXqRoV3lFTplro9WRPM2PMliPac844V6cvX/erKxkyE44NOw4DMOxsEXVmTo46VeCR/0p4A0I9MY5If+GOY3CA91gL8dBEvJr3mr+h16xMwlTrYfSnriNXOiiJo0MXiEZKQ3pEylvyRlbAY675N+fttTUYehzHgfU1pg5ElzLNi/pE7DjxnQDsyCE18RxtmrO+b/bn7dMT6DcVriblZPtN8iAgktCM9d99XHJ8h+l1zcoVMO+Kb724/MW5o6We1DvP3H7aj44fusk4VeMmWefNSXE0jpXIBDAAYQaivnUUbRS28HKi+FqxqfjCAb7EG92f6ZkOPZSFrUBHQAgLnSgWYVFazyV9HoeohFBHpjViqpO/xcxGDMZtdBQrukU4q+kwU1M/iCYBxcT0mI/10rb4KwIMoojmeEWEIxkhR6SAml71XzM+OrQkpq2f48NMxAk40QidYE0dUdVROKHDAr3tVM5D/u5E/jqk4OThGallnu5P5tv1F1jcFZmzIRVI0eC8urFHYl5UVw0VSD9cVyVbiMeKN0aXEO8xLwzP8IozpMfmRfRp20ImxZgoEnfUHRc2IRsyqyukRzrGM/PGHhfbPw4HMVOcXCxWWCZ+pEBHxnJBUj60EkeaVmvCGuiABVd+q/H64oeK8lxxkeMtAzfcdv/uAQOUOIrtNGVQeCD5R2dvXDJGNqJ+xT7xNDT4B31ySDZIwx/XUdm37BQN1KtuqT8r27OlLvWmx2YnfuKgIp+n7tvx8MClw7qWVuSBKeX54NNE6bAF7wZ+yjMASTX3ZSoX+x62SGqdub3nc9XnB5Yq9dgpbePps2/l64gP6OvGbjn9kLOStIvn6CQ0b0FWbhjHDG4FhB/SCQ27cnB1N4XCx0YDYMXLT8GaVcuLSPfF2oChY2ZtP3X6pH5DR5p0lYmaiKLaA3oupuN8lM19WRdmS9F4kt3oxcU81lFxXgfrkqc3yIWad5kQQ79H/4ttvYwHVP04US0u5cPHzHW0pRWG2I7uA/PD6JnWdWp/1AY0PTbeCReUcTxWfzMsoH6J0pGSk5YZhxuYdyH/R7EPiZlNV3D8oV6B9oks1ts4RPwQ4sLj09+pPIvmjC45vKX4aFZ96AxThHcIh9iMm17l0M14nMP3bBOBg2NmzvzoEgYngJmfOTlGfBe7gcvIzdInBePCAhVWjvJS/KL94tBTsrw4kdaAJsy74hRYvuShTQDghdqAoZvN2n7a6ZP6Dx3llh+Vc9jOGfWY7lErN/akdpJxkp3b3MEOIWbzIVvipsX149DB2JPpR0mSEyHLQs8hBG5UwLc3YnDiADZHVsy4Oa85bZTOORsbCjzwhitVzRDPKeZy6RAnAOB4TYGLbvAEAr+QvJy/czzj7M6ER26KBP85yGtmTjE48LA94iRydTJnPDEXQqt5D/HE2VwMTBrbm2wi66W5xW3Ij3rT1rJCMvPHkaO1Ygqhd2N9FlObPeNkWLbkYQ26Y2aNP1yCLvePlam5yxQtQXVg66VKLNtszsz3PJJof7NEjE/yPp5haENTBiY9IScutOOOIs5ghQTScF1IL/6kiuoNv9BNQ5jeFKjRvB0OlcyuLznMx1WLSDJ1ob8dlUYwOGfqh2VKIQ2w+qao+aov6FH2omxFGY7imQHLzLIy7GB9ebBu0RiQ0Q+tewQYcZUKt/vNlXu6lQNWX2n1ggYjrW/G9qk9UCdKHJhWV7daiIvQ7OVdHv7j6wwizt3TC6Uy2GZwftvOEekIUg+n8sK5dUttpCEd1ithqR+OSzWXkgnSkS1rmxPRKp40qaRwZYbsgCQrLWuYDc6Qo2WcNw0ALaAruSkcakAN5vzxRAq6Z0zqP3SkZr3rC4Lri5jPiF307UNRtDaTXUuk4Ix5TplJfueGya0ZLe0+Ga9cYUatF8piHhBlDtMjXyrFG9xZCaUO0eAcYIkVMWfoDjsPQ6NPrCkDk0jgXl/YQgzl0BENmxTwqTug+d2/AOdi/FBjmiYMDWYzlwCQuTSGq5nOkEFc9zVh/DYPDk5wDsU5b4Am5c7PBUe29iDEEIXwvuOzUGyDlBrM9kH39En9h4ySF+rQy+siCpjFrNKI5PYaFWgCqawiuxqUAxiuEcTCNd5CcI2mZEG4jxx69Pv5dJVbRoVo8P6O5pFFtyOjFJrkgHkF76loKE9vIkAgMuX6zx0zp53fJiNyMLpnI8uUTeFxZBWGDT3jx5/z7Kz8Eep8pKkUvJR+SUNtIHel+1Mhe/EfBnTPmNR/iIp0ubVWaaK0Nw7kK1EKwiG7oldklV2Bvb7/lHadNZSn0+73pnKU11Z8uN+NMizNIqSiAITBqfKgFrpwAtXsdIFUTP6EYwx820QoAVo/lWMjRl0dYWyllVNuGeSnZt8bKhEDdavHkvgYBKRod3WF/z6bg0noBUxHO2DIXcgFvgqTcaSYixty+KBXBgVDZ//xJFi25K8op6s20uSt/z5Q5gyg7NvZNPZikoyCAemYrbByx87Q9WATCp4hEMcOwlYTyyiWuzyFRrs+P/DJKfvxSPqtrVbmRt8VNCmNtnnX8McLTTZV5LHz7gIJyUzzIwTGmF9UBjmRYMt8ok5WV14ixKaxjefMKxQ70vwpBiXBK8+BxBxanAsOENGvMIhuZYtQBYOVoWpj0hJxgM2RjaYtqj9F7b6uRVCRpOZRSkd0fKppcTPKLu5JO7HcNylsJXBnl8HjI7Jl6cZopLvZrPGHF5GuTC94kJtraTlcDbTJDNYjI6wLaHZ8eMS01g0t62aUFoTaQn6zlVH73g3Fkbn6S9sxmJDD5HWAGz4Z5awiCNKKdv55yTEM6DqR7mazxk87Q9TpSg+XyFMIZ4h8Bj3MbWSu2jhFBMg/GE+SEKoTBiQmHHic8oCOmtFozmTqZaWf2eFFXtZ9H0UKOnJQPArmR5MKaifm9uFOWC9n5P5OJBrC42GPbuZKttqRStAcn5y7+2l4Dm9J4CDfMje6ke1tzqjZJRi3dHL/loqYWdanclFRo0wjEp63CThQRUyODXp5V64ER9uqc3IwHZGmwIidIaM7zspGmHkGtnidZ4Bc7OOajiyVnqZoCS09KD8x1pG5CaxoqoMaIr3gVC9sNmv7w8+YNECVjLXwPVzDLsmmEFCEPbGHBcxlN2mVTrcIJfLN6sqAa7qvVlpQdXKXfhEdzdDDVugK6VarfTrOKXMZzvmBdtCR9HPMII58SMFTFTgpOw+8PF4X44Xwz3NkmbIsO99Y+xz54ZjHxZZIOg3dsWwCDA3SIXAXikECDxmLqOKEYiOtqNM1OV0JusVGmsiWJLyRw3Bu5rEoIYtTMlKhed2cT2und0XZcMmoDIkbleuwbsg8N/MwcYoTuUnahaR8vaWbNIUgVZ4qRylp/lm+k3Jwbp5cv6N0xcg8F8ulMuNIOvWm5RNPv515Tn7dAe9YRO8wNASZ/thspYiKzG1reXkB/lClHyGGxwzPk38nxGHcj6zhDlSABHQ2VePCRtRk34XyK86HHC0Pt0Gabu2W3iuNz9ayq7fMzYkypLpQ4JwkKR55oCtzujK9wGbQhWI7Vc8KZNyrF9FKPH5zAtGg4BJQewo9vsIxfHkGsn9Bk1tUjTyaHpPqtGZs6AJzjJ2Bu8rx8U+6ypOYYAfVS398WQw9sio9bIDf6rIS7sCInophFyrQd6bBiZNccKNTKSE/iXUZBQKemjo+XI2BqwUEKYT3ztd7vZpQpKJGP9SwKntl/B16jjc+RGmku08SNy9sUEaPyOkH1YPlizoqr+gX/0G6R1d1lIfUZ5ulOtkEDREewxozd60U9HIievlPoJqD8tANyGzVDLtaobaE7NPqnt2g1gGM0RXv9hvOeTrhRXBzMBtbc79WRoCQBV2RXiCga6M1a65Y30RFr6p28IhORLR419CpCMBf3URlZUg3LD6RW8UwDRj4jJ4rwzG3amEjQfbg3Xwm3YvM5RJvhpVOp4EIRiMnYC/UYXN26Fw9BgUNSsZgNQ1qIEfxsWPBzxXiUIBzc24W5PVc/FNBmmlIwfEZAWdL1wrQyMDJDTN+nIAyBn7jG1UfmN+OfjB64Z1hQMqinaKWL7rjzuxvOGOhPQqnXwJgFPixftro1D0XaD48j5yQIwvm5jaD5c7eCVZoe0+DxzNymxv3ER9zoRWpXsF0OTzUBGEeM+lcJxZRDtB8TEufrENBl3s9o1QCexLOGgUNZhxeZ6QrXYyTk8Cmb27TQQrp45ms0zR91UikO3DYmFnbTysi3RHyykLTg29B7i1gCf9Aolm/tcsBORparhGAc5UWITIyZLqYp0EtZQ53BYbE2IyNHapU+CIbku9zHIJepqKIxWKlnbQTmSVYTR9T7KXPuXygNALsSAktXHTM0MWNzeFB7pSMzBBtMmqMLxGxbzL24fsMQwamkaVNe7emLacK6Rf3PkePxmmKU5zstXysrYfqvuMJ1hBfsLmZNh6PrXTdu6txkiVXsn67FG32DZzy09EUrgl3wQfrpItqbupQy4PENejkt0+hgn9r/aakzf6pCOTmiJyuvnthyOhZYw86eVLHoI1kHrWjDs2Gxl7jgmS0pxBZ3yibx168viJLrEAHHChIxdSfXIxZj3wb795bJSIKSe50kL1y3gIrG2pBmzqRCLqLQPRL+BCwTMerotCagoKapXG8/jJeDSBeJGYcYnCGQLVzlDOijhl1QHgjJCeRA+WA6IBhIPVDAB2DoRppxl8arHSiLVlzbCQZ8wr4SwZRvuHPgRJ3TqxYsgbrKb28g/Ha3th8VCL0wKSKlEZrh0nRR5uR6ApdZGCQHUUSjgq5wsXBjPsq/sBlTLm0rdhJmiiWE7zuChu2njhObJrQXnEbyVmYhI7dVE642FsRgYfihbljRLR1svcKY1AfJmCVzrAJDag3asL01kANFl4/HVY8/8SmAPB8raN78KxhY/ed1OwaBMuevAVqjbUwaLP3KJCtO8tjjQGiW0F14fWL+3flz/b/lUIrja/VGmqJLv/ObzIhzfTwSffNg60FY7VAY+zbiNyAEFECfOu2px9YyQKWh9MDykFgnOWg3C4uCSjiW1Wcn/HY6GfigOVY6LJ10zRWm4JNh0I81XJML+EHE67IP+kkKlZUbquRuT2ItVeKIGE6MO+FIQnyIwdwzPS1IuKbtDExNCbSZszrqeWitIFQZOdN166jySPMAwMhjh2KFrQZ6kWmcFxaXE5S3VSyzJIJw4+Aalk6sEtCgxgyyDewkF+g6RPztlrqi+fawTj06wdqEIoRgoFai9V6n9i7sDfzuag6NN5aCsuXPgXDx0+BZr0Llj15O6x9Y+nmAPCMuNpxbFGnO2wUzLvsBICOfrD94T+EOvQUn5WwpGmcVQbE3QjGysHXIBNhcB4Si4lTSo9XRkNcaXLQiGMD1xDzKNet/PwSi3omqGNNI7TJxZDC62mIe7YDhS0csuG9P9cfkVw6JgfTYU1R39QUtCaUsiL5MX/h4dFieW5BxcoxMbbGB6QMIXdC2Z4LNbn9KbORw3DKqQjgeOxsxJI0VpBuAwDldBtDt9mspV3oyJmsC6l9ua9hjrr2ksvDvHbhj3bZ96nDporChUh4dgEnpQYoQpvXF90LT9/83zD+8LOge8jGMPfKk2G5Ti8MHDpm1thpp4vDEfMuPwmgoxPGH34G1NUNy01d4AsAPYK2GnSYaFURi3dc0LoguERI6QFWSneuVv847x2Wa2pEaQucouLAsO4tnwAAIABJREFUC40ZDD5CKIW1mWpPgm5nrDzN4/U9iwuRRohOfJWkiCBidPFIYgGIBoxI57XjoFUhQvOIbpjvrWGkTnruckwJykIHSfTTUNieY7TEeJQgMbkUV+Nm6WxsLE7GMd0N2XEI82K2k/EMz8+TU55a071y6SuN3OxVkMV1jQVEFuMUnxgz6T11adhrBeje9F8w4YizoHvoKJg7oziRpnK6BeiOm3r6pH7DRsLcy08E6OiC7Q+fDh1FSkClEKDWgHEbAxy24xoY0N0F1z/RBY+/uBbeXI1mggSSBAmioFx7bGTYuFKGZe9A0Hst9p5ZWqbjGLJSBG5/Bu+rUXAJKXJSwTPBE/uzKLDpSKlEhGPzwDT/rPCQVAKEnBK7Tg7Rg3KkvqysPjl7mdojmsdYWOT7Y3i3OQByZjmt7jvFVRxmiIA+ewBHnXVArkl9KIH9HA1aNxx9MTKIy9fXabc9pZ06wFAliaXJvWtZRtB0DNdOjd9E+mz1VT71Kyj8e3gpWzk5UBszvkLpj1UjWZu91bAGfGTnJvS8tRQe//tIePCZGryxSr4l+6rBq4vvhadn/hR2OOIs6Bq6McydcTK8bkF3s1njxDHgUTDn8hOg1tkJ46dNFznBukgyAEzZrgf22rYDFj69AP768Bz4yNQPw/wXa3D5o02om6jEhifJY4SJnWfJURk9cU7R2l74uGpah1E4pehJFYIbssvcTOTUdCmqHBRn6mlMMylunM5w7wnFGy6pgm+8ZCIeJkMeTnmZNhh0qCMoc20d1GI8AUUlHRUn7ygjx12J9xUjY/qwzJy2SjEVattj4RYETDcoUpD9a6FyMkNXwblKZr5LKI2BOeKMKo4yxBjgYyTi0G/QzvXyBi1FaHmWfTUgC0Yl03aLWhg7kpvsEvQQaGBgloakBBVO8fglZpLnRVRb7EztvkUTDplQg56e1fCN474BPzn/Anhu2Wq46L4uKLICYvgawOuL7oOnZv4X7HDkWdA1ZCTMcSNdBbrDRsGcyyzoivRCswaNWh2O3rMHBnSshLvuuBXuuvNe+LevHg0jRo2Bi+6twd9XFDTRHAB3AoqwU7ySAopSIuhr3MeBPg70cQCjcjyBnuQVDswk6H5iN4D+K5+Dru4O+PfvfQe+/b3vQ5FwvXnxaFj0mqxaKJDXgK6IdEOgKyLd46HW2QXjD/8R1JpF1qL4qFodjt57Laxe/jzccN1V8PjsOfCZT38G3rv7nvCLuwFeWt6Td0lOcoLta4AdKO41O5aqHjK0bxLt7undOKd28+j/8/5CdvP/OVvE9CVvavDxXXvgqYdmwktLn4Ebr78Vph45DXbeYSI8tHwHmL+0aCVj7tcWFhtpP41HusU30mab9MKPoAYNlXepwyd2WwXbbNwNTz35JNxw/Uw4+iv/BguX9sBvHuoy7dolGG6Z6v3NSwek1cVNHSSumAh258M2d5eAc7IHlybp6J7cVxrkXYIO7/i0LNA0/7g7foUCKTqit1nFWOokXEt+7YFZImuCKT3puzTsXENHyUNpD5kusTU4bnYB12pyxQbyXS4d5dyFQASbuj2M1pZHihyi5sbf64DW1xkOOJouapOxp6y2XTRIk6D3ZPAYELsMq2DbQRMbsMfmHdBsrISvH3c8nHvB+fDycoCL7qvByrUyyi3+vbbwHlG9MFFspHGR7lRZMiZzul0wftoZIqcrVLJWg656B+y/3VrYa9seaPQ0YP5LXXDX03V49jWdR8HF4FVVRUoSK575nb0Qxv1InU3Mq5IRMXlfrKJ/8ajIv1jjQVAlCxvNq7If7mITDnDpAQCbotOpFAvc8hnPL12YTedlP1xojd7eVaANS19hV8gPF6jbsXzA0PzXeTE/9WPyung3QuW79Djm1CKaWwycsIxo3tiVnwt0FNw0H3nA8ect2uETmAhIrA4ad+ABrHjibQjLcTgwsTyweuvIVpEYkosezOQNHWcudRofuNBH9C1FNlrzMVPBEtFHF4BsCtGXUxyFMzDedIA3x3Cv5nh24MLwGAX2aLcu0cZ3slC75HvScimua5y8VRP2H78WZj90L2y03T5w+/wuePLlNVIl1NUIOtItQLerKBm7Ap1IGzhU5nR1pAsCdKeLxIKueJPs7oRGoxBhA+r1GtRrPZ5yxZb1ObeEhRgX9niFAqvktXd7F03nuABrvt6qUAzvpnLGUNAvelAgicFUmK/Z57AKrIUQ3Q009w1IK5b94Is+JFfkBoE9iC03Se0OMN0Nln0hiYh37ZlC+S66bMacSLJKWPDWhM4IaDEt2GmQAJgAlZqHWoDpXV69Be2uIdQRV+ZmIx2fasDTm1nSl/oGJJ2sdZlOO6yw4mcE7Ag8pdylfIwumtWWioQJaFqg4YMDswpxNsLcL5C4emC3U7GDoTaj9UL/nQKka0vWORsnYuFP3R+gAyurf1YVrL4a90T0VK8TYvuoqYhXLNnR8WtnzpGXU5GyWvAFL1a0/NcOVjm3Zgf0NOpQwKEsny1SrG7triwZ09ULbE63qNMdDXMuPxFVL8j0gv3nl5FEq7wjrsdhRsQN+kxTHPYYzfzd61dfQoE/tOeCkiGZ1MRIxXU/YSJDmsBGILv81laMeIp3gOPBgpMSwIavHYELJioqcbbMEWgowA5dYUijdSfiQLzQaQrH4NRqxd1FJnxGdOFo35M3J0N0fJar5JARrPznqAmuC3JyCQpsLbJGv3TMrm6wKiAnSgHQ1RclIxNASgfnr35shImB1HV2THWARhTtnFXqyTg7IyepF94/HHKigMN3OpLfOCChzOdWr5R+HVg4gYAOcJzCA7UCJ5G+cUR4Nmk0T1id+1jOHd3aiA6MCQ6K31V6YdF9ok5XpxeKOl23ZEzU6RagK9MLE4qSMXF0N5QqcCOsEOV4SaCZasBKG36paZdrjFfB5d5c162tsdl4tKrGVH0PzVkoD7oVTetBmXViZRaiaFMs1dpxrX5lYqIvummI1tJqSQqjYm2DzJMEyC2i9lxtkzFY25twPPKWOslRNfDi+jOz+kK3w7y28D54+mYFukNGwtwrCOiOnXr6pP4KdIv0ggBdtZEmqdBemH6wzl26hcFXk5irHLSd7+35zFmMZ1wUkeJxjF79jBMc/177lZbji3K5sbOmeonvtQn1xwRC5vIhHFfqdhSA8vu1I+XoCqcn3Nh8fj8lffk8RUdIVzEvcujU7d22To43C/Ri4EL6zuovwiWdYnH6ybHdPM6X04WyfYbb0xWX97tQC3R3B80zA8CrC++DhQXoHnkWdA8moFvcvTBu2umTBgwdjaoXipyuBFR+s4cRrFqOmGWGExXFFTel1vnsRDnI/JfWW0tuKdVeRSvHjxw5rJNgN2rn6W98tUOgdEOLO7XVjnFy+ginNPJ54cq2nF4Eg6le/lR9Fm8QAKZyuGzo4GwelgjMnFjLphl1eGFAl6te0KDbX+R0TwAd6RYbaQJ07SYtLrAh9PvmKgdvdTmSAwM5onHbhHr1NhnEa+q6N5QHNEaguu3lhaXkJNkQ0n/Du9Rcm/Lc4WE/5v1DJXJ47JRBpFYB/HMpSVf/fSAqq0VJWhiwofqeim3xzXgpGWEbNDaFvF+It26UbK/HUOvWllMFGmAsSLi8d3jAnOJkI0jnwB7pL7iFkud8kqGfjBjj4jAbqHykq3nyWiynK0DXSy+okjEBuu6tqcqxmN06s7gs6fWyDYFtqP6Y2UlmM4Q29lpEttaVKFAKUNoVvXobesYaEyf72hSe6hymNl+6i56qQ8W6UyV6otFnqA5Z950vlxTs0RiDVrJIQQSqFI3TjPHHBSi9yoyDSSgC9uavzSVpo6UtJZ19wRurJdkc1BEU3ebqlD7Km8i6eUPaAMtu4OFqGCf40YFRrQavPl0cjrDHgJ2NND7S1beM1RVTVUQRERq2a87G3eehu0yZiFn8yRb926PVqE7Vq90LFD4Hv/WU8JRkQr6yG5+PLuEI3OyfUDwWKNjx3duPcM2xLoczmXQ871IATJ0bkg/6oKal2Yk59ZY2+hJHZG+2gr37Ck+O1+MQ0ZT00eqRjOhGySwHxJ0dbrVQsqfddV2Z2pTCH2BlIihOVUT/ol/ZF897pt7d+SqLf4eD7NLyJqUmdhOR0uGvyqy9uHaJa9HduaSCTVRSSe//ILXXwjKTzibj2oIsh2HXL3ojTV54Q0rGMOjOFseAu9FGGrpPlyien/Pi9jWtJXFLCT+Qdy3PF6y7RNJ3gOgKOadAnl67RJkW0apQrtXDBVzyZV6ywJJjpKwsPZAlyqqVyBKqltlunScFJa+EKUuRtAHLRSkXrZl5EszFUQVOybQjHaPBza2wwU7BWaeaYlrJMuskJQsIcKQQR5eIMVWACgkRZ3XNsf0T5he9NEfILOKbeCDG+qHrgtGmt4l05dzxPo071bIju9QE0xyqWatyD1HXCtUOzWgFa1d16tAJJt4HAvMVZv1l71cW3gsL9THgwSNhzhXoasc46BYj5bMqxvT8XrAg6exI6JILGpy3Qxc7ed0ITZTGmPSUgShY9ymER07UhRxQUKkoyDoO0IKGGZPJi7Grj0DOvawSm+gLRWBpcMgUHmlm5eHPG8GaD6QhKCtzYxyzVI47Vo6T+JOyaU5z+uenWZSuBiM6Eswk9loqBwsVUwmtjFdOi9L8jvcn36crXbraKFq9SkDXKRkz1QvDRsPsy44HUJGuOJFWEzUMzr/2MahVBuSzWyqun3Iw3gwdoXQnG/M5KIpPuKaA6fkFW7FlUEl2RaMC4nBkwI43PdHcMpZmREO8za0cSTlBsqqEyckR5xhJrA114/b3JhRHPkvEHMlpxjQmqKORjaXkgKaBw13nqAFXzBlqHecj5Zffi13t5G6wuyCHAxmcz6cgmM8XG6bg6N/XZ+nUcM2HGyGbo52q+KCmQPdCmHjE2dBN63T1RtqA4S7oFnW6dQG6GnaZZIABMtdIdWTHG35J9CjPwYw3WgGVjO4zm+RFSeuaXyXKZjLnWaVZ+5x7ldHDxmhTA+vyWlISqap7I7Btpjbds7gQqSTzo+vQxeh8jje16YkBVUAcUy2UnEMgL04tiFan5OoadtBcna51KhZ0dzjibHP3gjmRZkB32Gh4Qud0D58ur3YUH51U3sYpHQtPXwYpEqidHGsJrcCeC4/kHi3VyW90LE8keUtlRDLk6JeG6OW0GApvhkR6k++0FjnZyFx5XRURcsNWUtokN1ADdWpNriD8G7eo4XhdZ+RNc8jRuV0nUlH3TFA9ZPurSEfIAMUYqE8nCovIP9fwQzzxUlZewb6ORLVTldFb3780B7ILAzToQ03dMvZfIEB36EjxuZ446KoTaTbSDQmHQbgWQI9TPLwkIYfp7WUszjFVelMJvrPF9cKUmTh5Tp2G8iLoXL9aAWjQ0beymc01lLvT4EjTGIpX3rwND8OXpUjblg1lRQdekRDa0HJdvCMiGskLmboOJ7hlc1T87XxF1/3EtnK1UouxQ1A5bfncPTuv52A26RL6o2VknYqdt94Nd7DEPNblC7x+4DsJFJmBKwlC9Znu52H9G7/0sWoLyrpeVteCUx1LOQmsr+bCI2WquNBTy9x8shFddKSrIHSQK/5L9CU3zUOX3Doo0fPw0gDcfog0PDt1HL3SZ6pVRb/pspdcaIUfcirp6KG+oErTUytAt7jw5kIJumx6oTiRVkS6l0WqFxIzSxWUp/1JRguLJQgw0LeSOOeNOWZu6VImEfQldiPNrbwn6TBEslQwzXX1X2PnijuB8ajxOAIP5VQJppsaUc0D5pPwZqWg2jjRN76ohSll4oDILrXdG5a0bRiV0ZtV6sPwoZpJvUoyRh4CYG+9iFZjerHjzZ/RL/VRQX1bmwEu59Y4N3I1vThg4K5gzD4sxXeyfFfVvl59r/XRyJV6JWLMfAhfDB3I35i3nNvs5F/V3rHcKFJRuV7VSdfLXW6DnF7JjEsL8VkGWGDczryuQDGs1fslCi7JW8ZSoDsUpRfM3QtFna5bCF5qtu1uLKSkDMzNXbMaqOLAUkU4fiSFgZRolYlqZRvr6fHiE1ua78E14b4C6nmq+NHckoVXhVrhEdKiWFybkl6C451Xm4eJq74XnWBHw9zpqh/byEnNWcnOyoSpjUSkxKiyYM9buXuJpQIQvORH4KHTI/KKKOU5tXMObbCaQF7H9gqQnJvMpExw9IedlBSTmiVGaV0HmZHTNCsdtc7xI1Lcf6jmSa8/dGDvxLwoeohkI7yb1QyEtxUBuJWpDCSSYMDSUTVCNtataqaL3+vq9K6Uag1eX1x8I+0CG+leeRK8vlh9DRhXL+BIty5uGdN1urjMBd33KpHGq930JtMulxboGIOKx12Kf7gBw3WP1FzacVghITigpfjvOW3K6i0xNE9TrePK67lsJMMZuu3DjOnQhTbvApbA5jzZuWknqeggqwurKxQYAgAVU+Ycq422ceXvN43pSoCnYloZuVqWLqKP6LY5N6gIaE4OP/KUzmnVar67wpAqiLKsjNFQPKOgu2zJ/bDgxvME6HYOGQnz8C1jHuh2dMOEYiPN3DJmPV/Q0xg9D5/sMsuUzI0nwnWiSBxY0b9xv+v8rvyUspyP/fSzPXrhRyn8XafIwDlFx9GVOUmk37GY7AQ6JFREwZe9yxNt4EkbIxG06cNDHMtWc7QPf8lA8kdUSmmbdvrCAKyiPGfe1MOh3z3n5661NQ/0fOWwOOqSf3EdLC30l/edyhypdnxcjhD37f+MddUeMdT96tQTpyOKPubQhNY157vhckaKw/hrv4RZ+vSfzTu4OOJ+pck8c6JA/VfOiTilcVRmSAZ4fDcOQ3uHKlOtpiXvBvHvwI0Bobs6kDyyKSc3VSdJkjT7ZpA4Rl2yXpkCLwfEyipg2TP3w4IbckHXOZFWMNC/03Rdex6rBiinhOgyQtXCJTGms7xWiu5W3eFkLF4Oe7pN9ntJpOLcVEHViiT0zJYSahcKfGMaajAcoyX6UoK5glGDlgZpnVHEYOLyobycFYCbzRw1pgJQ+Wc5SffeYI5XGZN2UjpunY0exXWkeiVKZeE6J0GbkQWjGwHSrJ9yvtGhXIcGHvS1joyu7fab4p4BM8vLEKcwvpr8sea/upBb9BLMxXIEtqCkCZHSuF67w/RMc3UlbxFAF6mS5VQSyJ4QoQZ0daR7pNpI86oX1NWOpmSs+FyPucQ8Y6mSYmbJBDuyTQMp7qn62IA24a9v5XE2ABQA4OW/gQHnmjc8BgFXk1Kh4SBVEzwKVWAczej33Ohbk+on9i1gupShVQkCWxNlOUddOOCzNNr4KyV/jgcxcHPbqxjFkzN1pDGJ8wCuIi7jgDH/Lb9lvxaEOanESqv0Vhf6xCWaC+dMLGddvYwDnMjfIlGEN3ssvCpYMESk4ZLySL9KnLHOiRt7oXCJnRpdrXBUkMjeAQDaPj2LPAhuXysnMlf6lEwvbD/t9EnF1Y4YdGV6gavT5U8uRdxldCNLL+VsYJHzddkQw9ojEL+XUERL6bBQwS2N84qI+Tlwau2OHosTdMvyCpzTa5gOPC52SK0rfHVJl+dBHPD1YfGQ3sYAheu57MywE8uxHd6tWID2UzrlpUXtpXpFcIwbYuY4oGspp8yMxO07CDVWB0PURquXdoAaLFs8CxbMPF98gr1zcJHTPdmt0w2Drq6/cc8by3H5CEgyQsUveqVe+iipUgFd/6a5a2pSFaRppih+xWIyRZJbwqlzVJH5sGbh1Kpy87X5DaHCjp67dZ4mlkAfmaT5KUwDngcuNXPpVIbDVDxIerCh2mjGbr67JTZRxVdd6RSxrc9VZVR6KFRVZYZHTTBdtHQrCnpIR4T8VSkUfkf2p5f17uaIqXNWRNFDJTFZsHQx136ir5ba2hJMN0Oz7NtGjBxPOIzh9l0snUQm5AIjP5eatxxPpaGSz3VaDn94VVUluC5F0k8rjEIVNnnuiwmxyF0nxnxZu/exsAhLHdAtNtJmENAVX44gdbp1840sK7KYI8mbYHmfmfPGOqkR5tGX0cr1yYlQRKtCgrftCaS3A89yNK3VNnae1Wdc/U2X+lQ/qeet8mI9vY+CAEEBN00u6I1UzJl+tNMvQHfRLFhwUxHpng2dgzf2I90CdIv0gr7acaL6MKW+8MMJjPTpIgv/NoSwYZsKVZW/Rl/QlATaSJh6ERwUprKJQbHRfZJS8n27KFtbOJGeefDrnW8XPqSn8K5s0ZIOryuOWB0VW9ykusGpXCB10EypAQrIzRKZnYjsF/2jyxh3aen0EcQUym9iF8545hlaiZg6lJqo/lm++H54MpVeKD7Bbu/T1ZeY2/SCz1C6bI4LOmjb5DVc64ykwLokuv2BGUohi1tQO0PjpY3yWCZu9DYCYxsFYT7gbJmTcfBeURtqhg5PI2yZjFt05N0Kh7umCpfDE3xay5bNhXpFR11Vk5DcuRnpwENP29LnLjKNRxdMDPVUDnh4jKOOR9FByqVUaMHoqCtle8rL12yO2hBNZk8NYZN/LJooMQnp6JZZPsYjoEUHNwX9iF00g6VTP6KZPoluz6I4N3iJw3D68+aIhTaFhU/PBeQcmpBTDok2J9WxePEV7KbcZNbpHX18OolhulIRAJYveQCevBHndIu7Fx7ZBABeqBV1uttPO2NS/6Gj5EZaRzeMm1p8gr1DXnqjuJkfdabMSTMJi90t4DJsZLBNKpcuTMSJQlL3asoecRFj4YXQ71TzIjeqee7SyRG6c3FKjpTs3PId52MYjNbQNZBGsPBySBq0UhWhQL5m217DEMOrsJ6ssiyj/S5d8s9ujaxzNBoFQxISdI5R0uqlmqmXoqpjvCKhGp/KNUBAzgcHbDXpiDANGJM5fBYicXUDfwXFJ0FOOE4D0Q3RvUYoZlJqeOejW05SXSuoHBmzHDvBtAtTdAXiA9OvVk3sLNkIhBhnAEQtr7gGGr2UmxaN5YEvrGuciriVInoU9dUOLSHt9ER/hbDl/xeQvfzZ+2CBA7reRtoZk/oPG2XuXtjqsJ/B74ZNg2ZjLTShE5rQwUrTBBraeFArOxF3KWB/wzDeUF6yCdAo3iyUSP63SJKLn5pNaIjfZVPDbMFrpCqOoSoqhBG6kCOMXhlnwabiNU2RFZ9ldvF6cUavIKBwRZoG2cJokluUT3OoyovqV/CYQhVU6iZEhxhFjC8ZUPzXpYMzDYpc5toTSbfhgZyFPlyAabO9Kn6ozSItl+JNTItzioPzVoovRibokndNg5aJ5q6Lda5cJB2SFw4dHjsopMgG+EIfPZ7+OqDUESkRq7EIJQQpFijDdARQw9Bo4in7FyybAB26VE3BijYbjxcCLkzAQQAN0aDrUbGOWp4Q/RDKUreb6uJ3jfLyZ/GbqIKivFf2bRBQPicuxZUgw0J7GKYJxVcbNBboNZfur7ikVlBba4C4K7w4RSYsWcoPc0RSJumXOlVsxBat5RsasKUWFP0UJ9KKq3Cb0LG2B65663C46Pkx8OSffiw+wS6rF7hId9goeYl5RzdsOe2n8OjwyVqOnCVH/kY5Q4Vt4BhDp9Z+c/sV0fKSNAQiwvK9xN/AGoKnRd9CNurMy3iOVJY+QXho7BhNusucNrl8i1oMEbdFsMze20koGpLSXGqYEo053uTwqzSfIuykpkf7jumR7jZED9Vl5YxYalj/Q3MK9E0d2HgRl1PlEZ69H3xYgAs5RN5Jo5DPH7sG8CjsCp9b8EmYe9V/GtAtvhyxzKYXxswqSsYGCND9JjQ7+sMWUy+Axzbcy+0bMx0zONNkspvh+VM+aZebq+sY7GLKgt0cx//Q81jAIB0ociYMsNJ5RPyRAWsOqEPGFBo/BAB0PvGAyIoU8zY2J6wEnGw4uaZknZqj1hnOEVKdDoEQpTVGJ26L9ZWCFm2H6Qz1wfGZ64faSYj+EA0hu+H0rCwWcAFvDuaFxinTXzYItdbw0e694AvzPwqzr/iRqdOV30ijOd1ho2COAN1+sMW0C+Gx4Qh0Q0CIgSWkNCGm6HepInGGwDE8BMhcv7rPmCfPEV5I6XOMC9MVAr2QU+GALBAIGHAO8SHGSwoMFCTpPJlFjXgl5AQ4Xab0hPQhRVvKWcbep/oRchw5gJpynCF75uZNnX2If9Q+qV1i24w9SznMEBhzOIDlytkWpSmGJRQTUpgYA/HUuzEe57zbBHi03/vgC/MOh9lX/AeKdE+GZUvQLWN6I23O5Sq9cPgF8MjwvWWCLBQh5hDwTmvDGdX6mEMquluXNK1rWtb1eFV4ub5pjEXaVebTyjtleJHbNrddK3S3813iYB7tfh98fu40mH3lf5pId+4VDOgOGDoK5vzheGjWu2Hrw8+Hvw5/H59eoMSWiR7bOdGqfZUVKBeV4miubH8xunP7CtGE+87tq9V3ysohpS9l+otFU2X6aaVtKLJNBSspPuTKLxV9clFwK/PtjXdjc8C21htjt6tPpItFpPu5udNgjgLdLvEJdi7SHTYK5v7hBGjWumCbw8+Dh4bt45KTqwQ54XkrfbWTSSnDqDpWWYOiEXYxLkdbavmn6eVAmVPs3P5aVXxMD6WNAqceK8SDqjJJOZeQDCiohvK+KbpCwMLNn6M1BUyp8XOep/Q2p48qbTAP9PuhlCbVpTI2XBV3KO+5fhBdj3TvA5+bcxjMveosEel2DRkFc2YUOV2cXph6xqT+w0fCvD+cCD31Lhg77Rx4cNh+7kYQNgbMWJqviSl3GSOPCa+sAnKGHtr8CbWNMZoqCpeLo0bNbVKF8tQxw6SggGmhMuNkxSk8BbwUMKRkRZ/HNoSw4wjljLETSOlUuw2NA2dqD9QGch1IDvBTx4r7DskypJ8hB5eygRDPy+o4xydOV6j+cTpPbSeGS1UcQ847iq5HuvaFz8z+B5h/zdlp0J37xxOhCV0w/oiz4L6hB+RdipVDTF+bPg70caCPAylAfRdwqKhHgTkGAAAgAElEQVThlaB7KPzt2h/DxCPOgu4i0hXVC3QjrUgv/PEEAbo7HHEm3D30wHcm6FaNbN4FAn9HTaFPTuWqPN5Rwn2XExtJwxSPCtD97OxDYf61P05EugXozjgBGtAFOx5xFtxdJtJtxYBCy/bQUrhMDoeTPbcEijDR6SJV+sItw+lSLbR85nJYeunILa+4ZSWXsoj1ESs1CuWUcX/cki7E8xQdZe2ULqVpSie2BKa0xOQa0+2YbPGSnsqczjWWVqD94DFD7+G0AX4/tEynfVIZh2STa/eYTi5lxPExhgtldSXE71b7YfotDsc+0vl++PQTh8KT150DE484E7qHjGYiXZXT1emFHcqAbi7j2z3Bd2p/64Nf62PM3pJPqAazt8Z7N/T7bpI/lsfbbV7qCgwBuo8fAk/+6RyYeOTZMr0Q2kgrBbqx6JBGXJyh0M2UVPTRqvLT5HurETPnPXMjhFA0GAKUdtIais5wdJSzEYgjbf1uGTpp9MMZUyrKLDNerv6EImQarcbozxkrFzC4yJbyu2qkys0JyzVFY+p5Dh/KtuntMUM4kTOuavNw5z7wqccPhQUCdM+C7sFcpDvtDHEMeI7YSOuErEg3pAwxA0wBdc7EqKJUMfiygm61fZl5lR0r5Uzoc91/VcDiwKY3l4Jl+RFrn8OL3pBVysGEAg7q2DhHn0oRaTvNkXvMplN85eZQBtQxnaFUERcw5DrJmFMPySdGUyRwerijAN1DYMGffxIG3fHTzpjUT2ykFaDbIXK6d71TN9LaaaR9ffVxoI8D+RzA4BVyGBxIAsDK0btB/xf/YsbqGb491F99Gmqw2m44cgFGasXB0VQmUMFBHee0mfLHAnQ//USRXjhXgi6XXjCgO+MEaDY7w6Dbl0/LV8C+lu3lQG9EoCkKucgq9U6rz1OA0Gr/7Xy/CbB2n69Ax4O/hubeX4E1D/8GOj9yGXT8bgqsOvxa6Hf5wbBi2tUw4NWHobF0LnQ+dgmsOuCH0O+mU6Hxni/Amnm/gq7xR0HP3D/D2vd9GQbccCqs/Of7oN/jF0HP4FFQ2/bDAI/8H6zY6dMw8MYTYM3B50PH4z+D7gcvgjUfOhNWbToZBt14LDTeeBnWHHExdP9iH2hM/gYsH/shGDznUqg/8jtYMfXXMHDV3wCemgPNMVtCbeFj8NYuR4tLJAd2dULP09dAx19+B2v2+DL0u/P7AuCXffhX0L9/HbpmfBHW7Pd9WL3l+2DQtV+ENR/6Gaytr4L68iWwZuM9YYNf7we1VSvsQSaUXvj0Y4fAk38OgO5AdYl5EenO+eMJABAAXaqAoaVaSqjcTjHdBcd9cLnf0HIsVCBNaDKkczupdEkU8nT673TZFjNU6pXp8iX2HI8Teg/dyi+ah3iXIyM6P47nqX5CUQblGeZxqM8QGOWkNrglNhchtQLsoWVuKDqKyDDK1kCk6Hx6IVT5g2VYNb2EiWsCrNztK7B28d3Q/8PnQ8/AnaB+x3FQby6FtR++Ejp+NhE6d5oKa3Y9BWD+r6C+8BGojZwI9TtOgbUdQwGOfQGaj/8cOq8/DtZMOQ1W7Px1GH7xJFiz0xegueZN6H7iv6Gxy7FQv+VkaOx/BsBt34HGAdOh877ToLnX1wHu+y+AiZ+BxoHfh9qNXwHY7xxozPkddNx0Mqz52DUAd0yHrh2PgLe2PgCaL9wLAzcYDWse+h/o3v1oWLvoTujcYl9Y++Zz0HHLDwA2nwS1xy6Ft7b9MPR//zdhzf0/h443lwKMmAC1p26CxrgPQc/Ef4V+V/4D9Bx5JTQe/CmsXtsJGzxyYRR0dzjyTOgqqhfwRloBuuOmThcn0oLphVzFjgmyFYVOGXcMGDkQTfVXhVYMtrH3Y+1ylkocyOfynQN1btMzxZ8cnlbhYe64ZdrF5kwA5G1/uVMOT3PalOFfou2KTQ+G7mnnQf2v/wP1A34A8MMhsObri2H1wr/CgM22hfr/7AZvfXke9H/sYmi+92joePAn8MaSpTBowU9h6VdfghFzfwG160+GN6ecAas3nwJD//pjWLHXKdA95yqo//VsgN2/BZ23nwir9psOzfvOhsb7ToWBd3wXGu//JjTv/Bl07PJxWPaB0wBuPhkG7/5F6Fl0D9RnngQrj7wKBtx5LDS3+zis3fUL0Jh/BXSvbMDKWb+E/v/0G1j73I3QvdlesHr+DdA19v0AVx8Nb3TvCN0rFkP3Eb+ElYtvhI6XHofmFvtA193nweoxk6C2x7HQ78qPQOOj18Cau8+FRvdGMOChs/JAtzgcsVgdjhCgW3yux0S6RZ3ume3N6VZVhFiUwEXHIfDhogoaOcaiAy4y45QxFD3RCINGgKGolKMpBBShqDK0KZETXcYMLhTZtdGg295VSJ/aPlCiw6r2kKKzbL8hJ1+mn1odej70nwAP/QY6RmwNzdl/BDh0OjRu/C7AlDOg4/oToKc5CDom7Ac9Y/eHjpunwxt7fwUG3X4WNFavgfr4KQBFemH8wdAx9wZY+Z5/gf7P3gSNZS8D7Hkc1F96CGp/uw5gLcDqfU8EePIG6H55DjTH7Q/NuXcDbLk71J65F1bvfhR033chNHb8GNSfmAE9u35OpD0au30eaq88AbVGJ8Cg0bDmsWsBPvwLqI3cFDoXXAWNhfcBTDkXOn61Jyx/zxdg8NwZ0LPJJGhuMBg6HpsBa0dPgsZWu0DXgxdBbZ/jAO7/b2hO+ir0zJkJtQ02hM6nb5BSQbYqN9IOhgV/Po8/HOGA7h9OBKh1qOoFciINR2jaYGPLlZhAMcikABGPlQIvDnRD/dMIj1PoFGCF5kEBPWYsXLolRAueS4wXoR3t0Jy5aJeLEEPOIZcPoT2Bdix1sRPhVhM580mBWtXnHNhztkPb5fKFc4CU1ir7MTlOn5M9l+Yz9CBCQo7byE+1Dc3PC7zQV2oCKcueWjfAyG0BGg3oeGUhNDcYCbVGA+CNZ83nq7yP9cV4R1N4NYC/FqD72EHw1PXn8xtpEnSnT+o/bCTM/sMJUKtFNtKqKl3fe30ceCdyoEzE93aZX4rm1PPYPELv0oAM98GtwEJjxPqhgR7XR8hp0cDLcQCq4xhfcp2haveXjn3gs48fBAv+jEDXSy8UJ9KK9EIR6dY7YacjzoQ7hx0oLjEXH7nURIai1xyFa0XYtH8a8eHnjOfJIa+vTQYHYqsGTiahiJuLwmKGyEVOHC1VVw2hyIyLjql+abpTNOJ2IQDh7Isz+BCIxOyC0knpwTRxtIZWkakVI40Sc1ejqfFioBviQyxy53gakwd2EMSxFKD7uQJ0VaTrXe1YRLpj1SfYi/t0od4lQVfX6erlA51IleUKZ2wh75aaMBVKDqinPLKeq1ZAChq9wYMMrHMcM40cuPc5ukOgEDMKbr4cb0I6Qp1hWVCgBs3JPDU2N7+U047xONUfB8qp5WmOTGNyjgUanOOgPAs5x9hcOVCkwRnnXGI2iHWLcwIhBxdzfDFnnuuIQmAdcPwPdOwJn3/0UHjqhgtEeoG9T3ecjnQvPx5qnd2ww9Rz4O7h6j5dzpOFvD1nADnCSRljSGkpkGDQjEUTFFxjnr2MAZYB0Ldr25Sj4SIkbGxYB0IRJGecKX6kopeYDHHfMeecehYCeGqUXMBA55fThtId4lFuABQDVwp4HL0pGZWVay7duePmtuuNcZEO3N+1E3z2oSNh4cwLxUZacThiNr17gYLu2I/8GL4/9AzxiTTx/XejjKrnJoD4xLwzSZyHUA84wIoBtunP9iyaZzCJOtCoQ00ovBld0SqGJwbJ+SJO5qF2KV8k+3LfNnRwAMOCDhcCubwV8nU+WxyTnXxX9Kq6qRU/iJ+bQifEv5QTpTJF7wl6ENlmRC7acMaRM5G62iz+z7KQRiSYRs7J1Gp2L0XREtR1Zq61QlnENDRvMtCAA27FC8Ve0acjvZgSFWxQChNtZvRa0uq05XhupiJm5+zaWyMxyoF0RXXu8CtAGbY19LN+lTNfrcc1ZDNe75qRHHZhETl4Y3shEECEKtsV6djH124D/zdvE1h44wXiPt2u4lNoPuiePqn/8NEw57LjodbRDROmnS6VRozCMCY0OhZSTOlzjBJ/UjYDdFNqLewgoaReH8FxiddBoCFfoVpD5VNIHTMIAYRBLaQZpv+Y2NUzCnz4d2c+BUjKMQpFwcPmAqej/FT2IV0wwEh4QljmqR56bqaBMM3BBxZIGWeQ0gfFG2kHiF6kS0aM7mMFeCmtpHLPbE+/5qT4EFJXQnr+IOxXowp4I4xTTsbv2FoDP6jqRzTTVkOFgt1MDAiQTTGG3mwqfXfdlrJUNaaZB2cQ+DSy5AGGMfmz/lsTXltyPzw184Lwfbo40q13dsP4aWdAvWY/BZzSzVJSLNk47l34zkLvpPoKP28D6pec99u9echvUleC28Ww0AFNNHnzd+Eg/FFj/jvm9zH2M+6PZX/MDlJ0cBrEm3Za8jn2aOhJKb3ACu3gOU5g0NOLGtmpfs2nxx+UizFiMw35bKdnDZJitz9nooERo69qz+46iHAEVxMZglcX3w9Ph0BXbKRNPX1S/2GjofgEe5HTnTDtDKipSUhExzFNWilCHk/6ArREItGN817ACnPgz9DMMRNHKXjAAOPt/BHtRjcVNUhXcRRmuidEezqO6VBtHYwx8lay4JCNs0TVzvQVslaKGJzGY+FhtGDUodAXGg057FX4mQMe/udLqKDI7wEFCb2FNdt91UYzDp2OgOlgkRmJObt8kXYlGStTAdJAinY0taRaRYyPUWxMDp2oHMjrTzSj8ue8pdYH6r1oW+65/pvpg6dFsQbxhf9eq5d+NPNGihbTcUwj/VlzCNucZhIb4cvBX108S4FucZ/uSDenK0G3uGVsNMwVoNslQVckeIr/leYTwK/oyUmhPCrU5/rQz+kz/RqF+hCuBLHELCnIat50LJcc6FfjEsTfkVKa3/HSxRiHnKeYhxCO7FGCq8qVqTwhzoU7NqH7Mp246KvppLqOf3csKOBENHmpVEvU+WcEDNw4HpSoRiLNYXinAi/iMFL0hmybI9XYn84SOekCvQy1b9LUFMbElOMI8dHVOZv68iJC6jg1WSj1HdxvQPofQWv2UdBJoQecf0vxowwdnp/gdx+ckNChCWUBQxiG6cG47PgdihdEb3TqwphwrQavLLoPFopINwq6o2De5ccDiPTCdKgXQbLQdM7tSRWXyuizuVT+tIp1G+9DvDshRSuwjPQKeusqgpcdeBGg3kioFW1lZ/kpbU4FzR6TiR5EFIhAxulfSd06UuUUjJAtmGOQwnPBETKl3QChQmrj3KrkuzUBOWgYih7KWGBmW5O7iylh6BlGwpB3zKRDehE2KZruoZQBpbur3CJFP+VXaKBUP5UJzH/R5nTj7+B2Zd8x9lSrwasLZ8HCm84XoNs1ZKR/4U0R6YrDEZefICJdAbomp5v2XZyO4JULtwjTXkU8Q0FdPhvdSET7Bo0BGFCKlp/94FbwrwdtDfufdAes6VmLhkHzqwGMHzME5j+zHBpqAjgVQNOKdBWDKDLWJtogv2UCYbW0FPGxt7qS3DFLdLPk1J2xq087PGY4+hnzxncobbYMpzu90yNXD5yjriL3dr9TCutKNc6lNLI8UcqmV19vVx7mznS9t2tB3WM6rC331UUSdNn7dHV6QYKuzulONzldjjlO2gBFZ+b0WrMhd/dUckjgd132JObaLJb0RSQt/6hLa2SElwZ5SpMGsnq9Bo1G8ZsO3RRxDYB+3f1gQL8avLZ8NTShB2p1RJACwK7uDrj6O3vDYd+7F9Y01rpgqaJgG6U2oAl1QbvENQUodRlV1006QS+d0eKlGLo47af2QGXqQuX89PtQg2IqBZki6hZ7BTYLaNIZjabis+Rj0VfhMAr+m/1VJ1VSE2wv+CTWMSjtUdUQ5My4PK79mxNBkPUTq2OJIJFTfMeRZ4A77YNbzhqdrcAcqZfu6iTWXywXnosRtB33XqovTQeVq56PNNGInRKH1C5Hi5fx3iouvujNWnRg+Wtxx9DI8ANFMBrDXilAd2YR6TKHI+yJNLmRBiKnW0S6WIVdjTOg22xCd2cddt9+I9hr7FAYN2YI/P7OZ+GZl9+E3ceNgEljB8Pf3+yBi29aBDtsMRi2HTUQhg7qhp9c+STssu0wGN7dgAN22xQG9qvDDX9ZCq+ubMLtDz8vwEb+U1MmJcAyf225rHMpXR394LMHbgYX3bQQ1q7tETua/3rwdvDz656EXcePgF23HgT/O3Ox2F38l4O3hk8duDUseXEZXHrbEvjzrBfgqEO3gs8duC3877WPwz1PvgXvGz8YXlrWgE/utxlcNet5uPzu52HyuKHwhSlbwTZjhsMf714C190n5ztl5xGw8UaDYdNhHXDonmPgD3c8Az+97imThdI077TNcPj0fmNg9wkbw3WznodLb10IL736Fhy022gYPmQAbL5hJ3xw903gstufhZ9f/zQ0mw34x8mbwic/sAUMHdQFv7l1MVxy8yLR71Ef3ByefH4V/MshW8LFty6GB+a/Dl8+dEt4/y6bwCW3LITVb66B+S+8CS+9thIO2nUkXHTTEqF8W4waCAftMhJ+NXMR9BQO0jMiq344hUQ1Qm/40DS3TufoPDh2pDhfj0So5G1TVhawQiksnKZR8YWTn9epGTeyZkFI/VEbGKf5eP8hnlpz00ek7DgbunMC6apgVum9FFJnzyy/oQHZilkaPJLjkCNJU/1ODv9DMynGem3xA/D0zOKWsUhOV1cvBEFXrBBtjlF47BrA5afsDkMGDoQiynxo4Ytw+8NvwJcO3gIGDuiGVWvXwKkXzYdTjtgKNh6+gfD6x//vXJg6eRjsPnaEiLLq9To0mg2o1+pQ7+iE393yN/jVzCWq2B4fzIgLq2BSo1mH2/9zP/jW/z4A98xbDheftAcMHTgADvv2XfDZg7aCow7cCg449U44858nwm7jRsAnfjAL/mn/TWHqXpvDj674G0zYbAB8ZPKm8Lvbn4F75i2FC7+0M6xZ2wnX/eU5uOmBF+CpF96AGd/ZB2569GX4/a2L4aIT9oD5zyyDo89/AE771A4wefzG8KPL/gYbDeyAY6ZtB0f84G5YunyVKdcYMqgLfvbV3WBNow4n/fxhuPiUyXD34y/Cab+dCz/6/E6w89bD4bTfzoMthnXBlw4bC/80/S4YMawfnPflPeD8GfNgycurYPoXd4Qb/voC/Mdls+Gus/aF1Ws64eZHX4KLb1oIX582Vji7o378IHz8/aPhwN03gUvueAn+MucF+Mm/7gJnXTEHrr73OfjigVvDRw/cGg499XYnx51vDn7LVpS00rglQaDd9HFRaWoe7aYhNV7Lzxke0znkAHhJUSXJrtJflXdioBqKgDW4a9DNSC+cEI50Fbc18cMHdcH5X9oJNhk+WCx/n31lOfzpvqXw+YPGADQ74PW3euCYnz8KP/rMONhsxAYiv3D5XUvgmVdWwdf+YRsRhdY7iuU5wG2P/R0mjhkIGw7ugp6eJvzqhgVw1f1LvWMGnudSS0gceR/1wTHw2Q+Ohw+dehfccPpe8OubFsMvb1wAXzxoG/j8AVvCfqfcDXeeOQl+c/OL8NPrn4ThAztg202HwOOL3oBGHWDm9/eG/U+5B9Y2VsM9Z+8LNz30Mnz3krlQqzfgvH/ZAXYeNxo+cPytgv7xm3XBL457P+x/wm3wg89NgO02HQZHnnE3jBzeDTNO3QuOOvdh+Ntzr6uqhiZsNnIg/Ob4SXDxrUtgydK3YPtNOuHIfcfCgSffDj/64o4wfIP+8IVz7odtNx0I//f1PeDr/zMbpu0zCnbdejhcetti+PvrK+ET+20Ob64C+NcLHoB7ztoH7pu3HL7580dFyuTusz8AV93/Mpx52WzBx3t/vB/85p6X4ZdXz4ELv/peeH1FA77x80fgjrP2he9e9ATcMbvgcTyStEu6eC42x/ik/JQGlUYg+V56nMwFtVx6tCGGSmJEiQbtg4aY3HJkKtpw1QK43E/ERLpqp3yuHi/nzSrD7KXYqqIYA2Mca52b4dW+pcnVZwq68Y204aNgzmUnAnR2qvSCTMTS3TxRRtZswgd3GQnf/uREkZf904MvwDX3PQvf/cQEGNS/C1atbcIdj74MI4ashvdsPRpW9dRg1ZoGHPerR+HCf94eurv7Q5H17eoAaPY04NLbn4EbHnoB/vuY3WGjwd3ib6deMhf+Mh+Dgl8tgZVHnbuEqXtuDt+Yti08suQVeO/mI+Cfzrgbnnl1pQTdA7eC/U65B+46cxL86vrn4Zc3PSlPZBWm12hC/4HdMPPf94IPnHQvrG6sgnvP3g9+9qclcPGtT4uw/rJTJ8PoDTeA959wm9hoHNq/AdedNgX2PekW+OFnJsD2m4+Aw39wF4we0Q/+cNIkOOq8x+Fvz/0/9t4DvqoifQN+bk0PhJACodfQQu8QOlaU7iqiKJZF10q3AKIUKbJrV1RsSBUQFEF6770FCBAggUASEgik3Ha+38ycOWfOvee2gPvf7/d9+e1Kcu8pU9553neet8wNGrdNKJMq8RGYP7INVu2+ghK7DSazBYQZnrsyHVOHN0GFyHA8/dFu1KsSge9ea4U3vzuN/h3i0axmBWw9mo0ihw1EM2Tn38HCLVnYPqszvl53DT/+lU6Xx45ZqVi4IwefLE+ju5IdMztj/vYb+Py3k3ihZxLua1MDH688g7ceS8aITw8h41qhFw5dFVcxGoB+qgnilGHUG3+qu6cTaSG9heq2VHT4QS7wZeH//SGgKu9akNeCfWDL2b+C0LbG3/VerUwfCsxnSxW88AOYnL9zN+/+Ju7W3xz9T37Px1KOeMq/SJIjiCNtNkK8xemGxiTg5GIWvcA4XcH7JfSSWLXEqlo5sQOsZisyc0sw6psjaFMvEuMGN6H84A8bMpBfWIJnetSgNMP+czfx/brzGH5/dXSoH0fjsKYtOIXBXZIQG2mBzWHAoKk7kBgTgu9HtaVUxYpdV/H5qjPBWSJUIbiwYXpXmI2AXTKgx5jNlNZ45r5aeLZHDXQdvx3vDK6FdikJ+HjFeZQPlfDyI3Xx6crz+G3PFfz1fge8P/8MTl69jUVjWuDjlZewaGsG5ZDrVLbim9c7Yvay07hZ5MC/HqyNG3eceOXzfZg4JBnJVSti4JTtiK9gxa/j2uP5T4/h9OUbzL6TJFSIDsE3rzbHvrMF2HIsD5XKW5F724kdJ65h+jONERsVgWfm7EHdpHAGut+fQUyoC+MGN8DCrdk4fO4a4qIicKPYhp3Hr2PHR6mYtvQift91ibbvkxEtUL9aNGYsOYMIiwMjBzbGT1uzMXfVSeqE2zK7OwqLbUi7eAejvz2iSWMMVpD9GqqB4ZLf1/oDIvfdT/BuWLcmeGu3V+DxFFFvY+N3zPyOhmYhliGvPZgX3OtrvQsE1c0BOD49rEufTbxHAliGYSBvLiCgS6IXBsyC1b32ghK9QEB3yWgYTTxkTDVTlN/kflSKDcF3r7elTrSlu67gs5Vn8Of7nWCUDEjPLsb4eUfQvE55TJYt4aEz9+JK/m38NLINEiqEw+YAHnh3KyqEG7B8QicYjCbM+e08lm+/iNGD6uHhtknIzC/Fc3P2oqTIrgiXvwXIdiYSkuNNmDs6FQOnHcG1gnxqxT7dszqe610L3cZvh1Oy48uXm6FB1fLUAs2zS3j8vR3Uwbb2g87Evscnq87izb418dkfV/HL5vMsy9AIvNEvGf3ax8Npk1DklPD0rH3Iv12MyUMaon7VWPSfsgOVCOiOb4+XvjqFI+euU8DjOZPdUypgwlMpkOwuuGDElCVnsO3oFcx4pjHKR0Vg2Ed7ULdyOL5/ozXG/HgW249mYfj9VfFMz7pw2J2QzGb0m7QT+XfuYPfsVMxYcQUrtmcQUx21k8rj4xebIMpqwva0AnRpXA7fb7qOr39Po+Py2iN1MLBzNXz2RzoWb2G8uZ4XWm93Q7eaIp2jmptqiRFxayj/zukLd6eIR+SA8Gw9B5w32WfUEguv43LqWflf3QLrPUc/1lx5mhpXLYODu6WtdQ6qDjzxOt2xY4OjAo4YnSLQPu78sUinif0Rx83b+HIDQI3CYf10d6YyJ6lKPbnLhHaOtLsC7zjlGwiF/VVwxpa73vQK4PwNeu1Q+yD2W7tG/KwXoY5JwcU9uLCelXb0OIJdDBmjoCtbuiwNmEW8KNlQ8lZ8ytPJSG2USB1X3cZshsUKrJvSmYZQrdqbjZlLT2Dq0GS0rBuHIxlFWL0nA3dsoM4iq9WEQdP341bhLRTbDPhldGtUrhiBVbuvYvbyNDzavgre7FuXAmC/93biZnGpZ4ENnVlVhpN23CAAHfHO07grFiYlR4oRBHU4XDAbXZBMZhgklgwikaAHA/mPBUbJSbf/SngWE0O2wCUnfa48SjQiziVTL2ToSHKJRF4mb8eVceRr2WmnBeN59gV5kpNcK4dukPYYTSb6fPqRS4IJTrjIPcylCZNE9hxy/wB0bRSH8Agr1u7NQmx0CH6d2AaTfr6A9QczAacTrw+qj/7tqyJ1zFYYSNhcGcLz/Cl+d77QffEGer+/6wL5Xny3Kh/Bc4++3uXPEPDbTlFw/4b58Pt+jwvuvYVYFqej2Cx/Y3zvWxz8qPE7+PJmcbqsyhgFXXJyxGXhYEqeHHFy6RgaQUDoBXfQ5dwniT+d+1pz1E6Kxs07Djw6aQc61rVi4lOtqSn4xIe7kHPHhi3Tu9EY03WH81C/ihk/rM/GO4/VR7HdhaGzD6BX40j8siUbT3avgufur4vNh6/gg8Vn0at5HMYObkStl76TduJWUWkZt8GeU6ECAsc6tZgFB0/R8lNDiASt72aNsMEWN7XytfLnSgaaYvnJ8W9yNAiHcfX9GttF+EPH8tJYIxI6N4zDB8MaovCOk469xQy8/IllZwAAACAASURBVMVRhFoN+ODJBigXEYrJv5zB+sNXNFaMb1DxsYv1xelxx6vskFFS+9ynxe1vfwssqOXgy7CRH+Trff7a4suaVNop9k/43d+zde8PqvMBXPx/jVb/B+/XvFLN2QlgsLjA+AlRluGgIGM3Lqz/DA0HzIa1nK+MNHJGmolxumS7qhYtkUsAAkisEIp/P98MFcuHYtGWTHy1Jh0fPVsfrZMrw+V0oeu4bZCMDmz8oANKbWZ8+ed5PNYtCYu3XsGrfWrj+MVbWLM/C01qVcSMxafwYLtKGN23Pq4VFOOFTw+iaoUwzPlnU4SaTXjpi0M4cbFAbQcFPDW9i/2mDqNe2qsH968t5qaRbfYH2yOo2Weql5ttsdmgK7+L75cHnFlYKrhSHy9PUNCktYkPcmspf4HcKVrqhj6Wu495GhtPzWDb67pVyqFd/fLIvVmMHadu4tadUkSHm/FI+yQcO5+PwxduyTHYnuyniKEU4t1A3Xf0QLAryMv1GiDXoFQZOMxA3uFtvfnRDv8VVAwcC9h0CQkqwZLbvLSiR9C1sNvl2/Z7Sk4H08dgZSyYZwd5rTfRkjE5n4Mupxf0LN2Q8gkgx/Vw0DUIpR3ZAmQ0Q5v65fHO4EZwSRa8+sURZOTewCfP1ETVpEowGc14eNJ2WCwurJ7YCS6XAe/+dAZDu8Th2JU7GNqtOtYeykVKFRcOZ7gwbelpPNQmEeMG1ocTRvR/fydu3i7C/FFtULF8BPak5eGdn4571K5UwFHJa2UN1G6X/U+QyDOS/hGW1eky07ZYjIAJDpqZZiJ0hYGFt9nJKaLkdUYjbE4XLCZCSRjgMjIqwAwJJiNNL6NtIjG55FpCDRAKglAfThehBEyM0qARIiQIxAmH0wWT0ULT1XjxeML7ku/JvSYjaZ8BLoOR0iImSsIodLGmNJEC/GShGFl1MpYJyH54FTk9UdMYZ248rTbRQa+OhGyzC3U5OAepST5QOFxZuJSOqByt2DZvlqFizLrzzSJXKjzI63MUYlY/6YKDGmumkGUoFzpSdZS80+HXKHmHcv6hD4eRhjflD+R8tSY8Uu2QWM2N0ylqSrz3EDu9cdCz3D36K8+TOJeacC+FX9epuxsQrnmuW8+2smsCoS3Ue71sOeQ2seto51R1qtmleW6blPdrlBBrFwHdDGLpDmLJEZoi5to0YAa6yf09ay+wRhnRPrkcJg9tTEPFhs85hIycQvw0qgVqJpSDA0Z0G7URDaqG4avX2lNe9f1F6RjYviIOnc/H411r4M8DOWhe04LDZ29j2q/peLB1LEYPaIQSmwvTFp1AWJgJyVVi8UibBHz613ncKXQgp6AYB9IL6KC0axCL+PKhWLXrMo0PrhwbitbJcTh9qQCnLxcGYA3pTSq7LSTEghnDm+JU1m20rBWBUV8cwpCeNbDnVC72pxdSEH29X10s23YRF2/YsPb9rpiy9AyGdK6IIpuZJk/cLHbhp7Xn6LWVYswYPbgpLl2/jeQq4Xjtq+OY+lQDZOWXwuByonJ8BBZuysQrfWviXx8fxuopnTDxp1PIyi1Cvarl0LJWKCwhEci6UYw7pRL2nsjBK4/WwcnMQnRpFIN56y/hjz1XfFZ608i5R9f9KyaPdVKGWwJaa/8LF6kI7otTuSsnj3s3gzUafSkN7wpRBZSAaQ3d+VBUttdvgzWw/Sn9v10s7pU8y0PDDwSg9MIGmV4goOuN0yWnARtkTpdYW+okqkNJQr4mDUmG02HHC18ewqXrNnz9Sgoqx0Th+g0bnvl4Lzo2qYDpTzeFyWjAI+8dxOiBlZB304FuKYnYcCIf7euGYPexfMz87Tz6tEvAqAEN8PveLDSvEYmECtF4fMYxTH26BkZ+dwIr32lPbYXu4zbBThIppnWG2WjBjxsuYt5f5zCoSzWMeLA2Ckuc6D95B5xOp5958tyyyg5whIVZsXJCe9ikOygsCcXgyTvxap/q2HY8D4cuFFLd+nq/OpRWuZpfij/f64gpS9PxRGos6lWJhd1px7drLmDptmsUdCvHWvF879rIyi3GE92rYcis/Xi2W2V8sISAsgs/jGyJb9dm4fV+1XAs4yZCQkNgdzphsAOrD+Wgd5ModExJooka363LxImM2/hkRHPYnCUINVkw4vNjVNkwDa2VHs3i8rZlL4NEe+UxhfUYDJCUGQQCeUkZF1Qgjy7D0N2zWzzaF2A/Pca6DB31fAbRQfyIjXvWxf/bB3llpbw4YfUs3Qu7kUFAl6QBu3O6YeWS9tCTI2hyhBqnK9ILrAwWW9Yt6sRgyrCGcNgljPjsMC7nFuOTFxuhWZ0K+G1HJmatOI9acSH4YUwHOB1OvLfgFF56qDqWbb+GEQ/XxKr9OWhRIxJnMm5i8tIzaF4/Fh8+nYIl2y7igRbxiIkOxcDphzHhsUQs3ZGLdx5rCLPZjB5jNwNGJzZO6wKj0YyFWzNpHO+AztXwfO/qNHLg0Ynb4HCpJ14EOnMMdA0IDzPj/ja18fXai3hncFW0qBGKoxdv4c/9OTiTaQMkEvtaA3m3XPh+7WWsm9YOY+edwogHK2PF7htYvusqzBLNL6FDVjnGihcfqI+0zBvYdDwfkFyYOKQupi48h2KbDV+/1goTfkpDp+RIPNa9DvpO2oWpzzRAhchQjPj0IF55tBrW7r+B7cfzaftSakehXYM4HD2Xg0fbJWHG8nO4XVSqLT+ps5DUbZjv1akUOhEpBa92nVfJpMNOv/Xqjfe11WOCxu8PEE/8TrU+uOs93fc21OeLygBifhuuZPDJV+qYkhouXlNDmmtCXthIPLJGflCAbeZ0lc8AC3flrlTA8t/LgK8IsL0BP+8eXOhhiJAi5hd2IWPD52rImFdLVy7tSB1psqXLRJAX9DbAaDIgKjwadocNRcXFlFUMDQlBiDUUJSXFcDhsdNsfHhZG42EXjWqMyLAI/LojE99tzEaPRhUwalBdGvnw1Jy9qB4fjfefbICPV57Dc72rolxkGIZ/dBBDUitga/odzH66IeWKO4zcAEuIAWsmdYTRaMXSnZn4YtUZDO5SBSPur4NjGfl485tjlC/1WQHJbZBZkXHmOIsIDcXKifVRar+DUGsU+kw6i2d7x6BPaxLP60RhiQP/mJGBde+3Q6mtAFtOluDDRefw2UtVUT8pDnaHAy6DhIfePQqXwYnYChFoXysKf+y7RllakvTRuW4cJgyrTXnaiT9dwO6066hZOQJfvtYCPUdvw9SnklG5ohHPfHQSEx6vhC4piXA4nYQdxsivr6J3mzjM+fUsxvSricpxRrz21VnadpFn5CF+erwbB0TPYjP3QPru+hFlcSff9Uv/3/uA/0EA+l8fTG/8cDDtFg8mYBaGWJCarbobFHT9Wbq0tOMYGOQ0YG7psufJcQJUcbKHKk50Hj8gKE4K03LI6apJHRFmMWPdwRx8uPw0ejWPxbgBDXC7xIanP9oPh8OBea+3oXUKfnizJSLDzHh81lE80ysB1SsY0bROJZoynDpqAyxWCRundKN88vRf0/Dn7iw81asmht9XE8s3X8LHq8+5HXXifygVW4D+QqJrDTDSko0EvIlrjZAK1HVGfyNXkM/o33RwaJFKehezzgCjRCBWLJAnv0U5ZZaMD9k9MEcYH1biuyR+N+LwIm9g7xHKX5JnkpoVsqeZOOXI76r1cQ/swnvwCF+jruvACUpNap9e1uYqTic3i5x/7q64+FvlTYAaAScvOBZs4ulYpNfrHJTtPkbB4qfiBBZ2Jd6SXfyvAuGKsgzo/xi74D6WgVJYgV7nMZ5uLyR0aP6FncjY+DkLGXPndBV6oTzJSBsDIwHd/tMoIDCwVUO0NN5+eQ+osaYU4JULc7skvHRfFTzesy7W7L+G9xen4aFWCXhrcDKtUDbgg53IK3Rg2fhW+GTlRUwYkgyTyYgH3z+M4T0S0Kl+JMpFhUMyWXHfuPWoEF6KeSO7wOkwYOCUXXAaXVg7pQtCLCYs3nwFX/55hqkACmhBiZrXi/3JoLctOU9r5FqRKSp1tFh0ghhKxiNE1KOFeK1bjZITIsYUwObP0alpG+woiIvZnR7w5fHWAwE+dsEIczDXegCXPOmyStR8rSpXLyUfhTHkkToK0GpWgRu4qpNQhmQTT+nyXlNXGc2AVZTfsVRer7bD1/wzo+7uk0v0tuOqORecUuW0hxi95HXNankYD2cpbRdfbH4WjlbBisd+ydELxNKloMvq6aaJ9IIu6Ar0gm6aqObkND5cTKxVy5jF0D7eJQn/fCgZaRdz8frcE6gSF0GdQRGhRvSdfADXbt7CitHN8NWGLIzsl0xrJwyasR/DusSjZ/NKiI4Iw5WbxRjy4R589mI9pNSpSstBdn5zI1wGB7Z8mAqX04RFW7Iwd+1ZOY5Xb8QC4TO5Pat3Mpw/FHcLzxFMHA9OVZl8uU1KjCRvtzsxwN99L3zD3qXJn4IJetEFar55XyUBA0xAysVfewIZAJ0XBRpREFAb7/KiMnbhLt/qeXtZ2hGoWgn02YFepyrXwMPcNG2V5UqUA0YvEE5XdqQR0L0kZ6S5g65CL3BOV6ErfDD4Qu9UTclMgB4tK2PCY/UBowGDp+xCzs1iLBrXHvHlQrH32DW8+lMaTFYL/tklHgO71sDRjNsY//0JdGwYi4mD69ITHh59byuKbMCqSR0QEWaBy2BCt9EbEBFiwp/vd6ac7Kd/nseSLRkyCRAMq6sKjMck8UXqDpI+7WJRZ+uDpR6vpFFWypgLHKeulmYtvhfWRzCrLpD4yECeR60UIc7Vw3LV+f5e9ZXTBNywCXaBeuufKipy2o5Hxg7rc1nfp/TffUurY6Xx8VULMAYyK76Usm9Q0oypN9P17ppwd3d7Vbr6vgQ9a1YFaBVjtDLJOd0dyNj4hX4asAi6hNPlpR0Jp6k9ysUTdPX5OR4EzoyUlOrR+PDZFFpzYezcI9h7rgBLxrdDxehQmEwSUkeTDDYXds3oDBLuv2xHNmYvO4Unu1bCM73rACYzrcHQLrk8Rg+oR9tEiux8s/ocfp3QEhEhUTTD6r7xWyEJCR1l57fcLVpvyqYMUuVtpeloyruTLnZ3oAubLRZh26gY4Gws/NZo0Gs//cz/GLlvZwNvc2DbXA1H63YAJ++33En2j9uq0lWbIlHrRvIG2n7verusp4R6VQO+dwvegEjuF+1PADUhRMBVpE9RqHI2ZQARLaqdIxzK6ub11R9j7wflBjvWAdETmvUl3sGo1bzzO3BRBN0V7pZuP3IwZaJc2pFxuiRbihaKUZYvbzoTS85/uE+KqollB4LBgJ/HtERiTBQckgM9xmxDhNWAtdNSqbNq2e5stK5tRbWKcfRcsQlLz2L5pkzs/U9HSJIZmw7n4ZNlxzFnRDMkxUWi1GHA49N3onuz8nj5/rpwwITlu3Lx/frTarsCEBIRksSFWXawu+vlFvCr/fFuCm7I4BBIerTfl/vbmjOh8Ewq0BsWPStNaKRoSd9Ly1ZJYFSO0JPgoEmBJpgM9JQ7RVHpdkXRx+6KmcO1VkkpQMTdItwBLWtEMaNbUZJ3IUbB3ernanH3GiDJQ25xuUjWpAUmIymoJHOkAtgqoOptDIShZeOj2chrxJTOlzC23GPJnJqq9lR9I+qzFEUinIjjdw0IF2h3aepgcTzMO78dFzd+yegF7kjToxc8LV1tEXOxUeylLJxM70fd2gBDulbHsB5VaeLFvI1ZWLjxEqYNa4BmNaNhtzthdxpgspiQdvkW1h+5jvED68LhlOByAtOWpGP0gKoICw2lE7DnbB7W7buCx7tWR/WEKNgdxCG3A6Xkl4DA1p8JyLca/q20YCbp/7/WfQS8LyZ3OfNX6lHX+SSsbu5X5REGYl2MupXM+HZkKlJHstNAuJHBSkW6t1EEW3m1a5BcDEVxo4aUTvG6HsKz6aPY50pYrowagViZ3kb2vyVzqnUKVC5vxDdvtscf+6/hs5WsuL7i2NaBCsV7oTGVhYHgdUu4VhLmJNRixBsDG2DagpPKvLFf2P3iHPKqLe6pvpoxCnB3xmVE2ReJOz0jS9vPv8DpBV/JEXLImEovBL99Ey0sHjLGBN2I3yd1QFSElYY8kbhTalmQ8omkOKEE2GzAgBn78eOrDRATHUkHbMvhczh40UWPTnc4DTC4jFiwMwNDu1SCExa4nA78tuca5pGTE2ggtmyFB+TFFzU9+92XQ4ROZQCgLiqbsrq97pV1p+p6b1xc2eNitW3Ubu3U73Q354qcKxZ7APPlPia6BrTGetLWUCDyROTMQepWcCpFcqJmvAU/jE5Fp1FbWDie0QiDfBI0mW9y7BGpmkFirE2Sg1leRnLkCeCUDHR3ZpQccFBkN7GgQ1pkgzWGyAC5joT/mQy0kgaDBAM5G1CC00VqfJhgNDkDT+fWtXJ4Qon2S1+7OM8xZaPqVW697HYUmacnpLhgNIewk6td5ORtpcc0rJKtI5I1KpRflYeLYx5ZymQHYjQbYSIHzCr2DztP0e4ywUKOz3qzLVIqh6PH6M3y6eIG2JyEITXC4CQ7daY2aRtcrH41qalCi3kJiRvB7RBkyNVs6jwt3RvntZxu2oqxuBmYpUuGX9Q6wYWMqFsDoGalKLw7qBYqx0VSwYbBJB8D7kJxqQNzVqajR0ocOjWsSPFz/pYs3Cp24KX7q8IgGXH0wi0s35WD0YOrIcxiwc0iO1bvu45v/jxPBzwQQPSm+d1lSUOgB7G1KivIelgq9yAs579l5dyz98hy687pBTM23iCegFuLmuUx7h/JiIsJg8kAKjc/bbyEGnEm/DimCz1946H2SSBrfNz3x7EvLRd92iRi5KCGFByJ+TJ39Rks2noV7w1piJR6sZBsdtyyGzBneRomP9EIkREW5BeWIv+WDRaTCU/O2kOf8eKDtREdZUVxiQP/+e0c1uy7glGDG6Fb83iUFpcgKiIUvccx4PABeWUa6rIASpleJG/pE6KN+HlcJyzddRVfrDyDddM7Iz23CLEWI62bfSLjFl76/Cie652Ef/Soi55jNtKIped6V8OTveuh1+j1eLp7ZTxxXzIko4TDZwrw5leHaQXD7f/ugQNpuWhTLxZFdglhIaRGthnFNjsGvLcdQ7tVwmO96kMyOLHvVAHGfHMUTqcLO+Z0x45jOUhtGocvVl/CLxvJKd1qrkEwYyTrUsWSZpGfYhgii9fnli49Iy0qHqc8ON2+U9uE0eN6uCNtqlz+T+R0BS6XF+vmLXebJQ8Nykl5gxn1kmIwZUgtVI4lGisck34+ge2nbuDr5+qiXp0YHL3owtjvT6J3syi8+WgNnMoswqufp6FqpVB8+GxjhFuMWLIrFz+sTYfdbvfIxPLnPtJrmydgC5rLBy+qWDOBWMBewNt9wr2BjqgYtHxSWZfI3d3HhM+zMtPdPdX73fpOW9kkcDugVLtlJTsgCZunp2LHqduY+ONRvNSnFh5pVxkTfzmBS1nXMX9cD9w3+i84LKHYMK0zftqQie83nMMHw1sgsVwInp65D9+9loKqieVx/1sbKei2qBOHkd+coAePvvNYbTSrGY9XvzoCGByY90ZLZOaUYOisvdg+uzM+W52FJVsuYfJT9VA1JgLPf7IPIx5NRv82iXj7x2PYlVYAl0u2ovmOSpY7xhEKJCXfzQnbcZUb5muU7+jFLbaQWeojYkScAQ/Z5CaYaOUJypLcGxtlwYJxHfDb7qv4ZNVpbPgwFSEGK3qO34aY0CL8Oqk3uo7chgHdkvDyQ7Xx2Z8XsGBTOrZMS8WU+ccRFx+FEffXxayVGfTcxQ0fdEB2kROPvbcJO2b1hB0m3DduG1wuJ6a/3A4daoai6/itGNq9Ep7uXgtTlpzDrpM5WDK+NXIK7Xhyxi5s/zAVDoMFvcfugJPuVhhukP8TDtrnLtZtEBRSSE/2+VjQ5IgAohcY6I4FzCY06DeVMlpqcsTdLCVh60l3s/TJNIuL5nmRiAMqQDLA0zXCtgJ8V0G3CQqhLghhAGCnEaJ77RgOMlhcvxRcMGMbjE4O5rnylkm+Rc9i545Tt0IP6p5Ww4f5aqe3pRxYe4OiXhR6XsLWmd3x6W/nsWAbCSsELddJ5LBmRQO+H9MNXUZvoqnbW6d1xuKd1/HZqjNoWTcGDatGokqFMDzUrjJcBjO6jlqHSUMbo25CNP7x4W6EWiVMHdYElcqF4/GZe6gDacrTjVG5QjT+9ek2rJ56H7YdvorM3GK0aVABCRXC8MbXR/BI51p4qHk8uo3eRC0znws/sKGhV+lZ+16pmAB3cb5fz6k5dlX5SAsNCV255yo+XXUWG2ekotRuxANvbwLgwPaZvdBx1A4YDTZs+rALft5wBeev3cbEIQ3pHAx/oDqe6lYDy7deRIndjg6N45AUH4WuY7Zgx6xu+HbNZfywkVXx+2FcZ9SqGILOo9bj1Ufr0Hokq3dm0fs6pcQjIsyKhyftxM5Z/IDZ8yRyVT5BRj7CiXO/PneXftadoiB5koRbRlq5eJoc4Ukv0II3KuhSI1lOW2WRP+pS1Gy/fdYH1fq2tNt2VUUqBb7FRS+/jll4vPaD/LvAAQa1CAMSXp0BVpoaGM8d0Gvu4UX+xkATDeCTP/UhXFpTW/Eh8O0w5w7FlFeVIeRQIHaa10NlqpWxb1zN8kgI4W8v46UH4dwCZ8Ygi4ndOqsrvliRgYU7LiApNgRXMgvgsIahXhUT5r3RDZ1HbaRU7capHfHrjmv4efMlLBrbGocvlGL8twcwd1Rr1EmMQrfR6/He0MaoVykag6bvoL6JyUMboUZcNJ6cvRchVgkfvdgC0VYLhv9nA9ZP74N3F52nZTlJBQ2bwwiDrQSjH2+IR1rGoePIDfS9/Iy34Cgqsfd/l0JWbDsBorXvUrIuDQaUj7Bi8bh2+I2C7hmsn56KUpsJD07YBJPJha0f9kT7N7fDbLSjSYU7+GR8H5hMpZi/5iq+/Oscht9fi4Jup3f2ItosoVQyQnJKKLXdxq7Z3fHp8nNYuOMilb+fx3dG1QpW9Bi7BS89VAP3taqCPlMOIMzkQqlkgssuwWEvws5ZnTF14Rn8efCqzFezMrVcZn35ctxrmniKodYvwqWYFryRM9LocT169AKrMiaALvXkqpwuBz/3lwY/1e4LUNkMuj1aFL/g36K7RgN4TACXBLj87yGqegz632Cye22uCIZqCJB/OAzEPtLP1lYlRF/RBzSyqk6nl4/rXxvtUxKwdGsmOjSMRZ3K5fAq5QpLMPfVjkgdvYlWsdsytRMW7szBwi2XsGhcK5zMuI2D6Tfw/IO1qB+C1ACZ+GQjNEyKxsCpO+mxSP98sBYGda6G1fuzYbM50K9jFWReL8HQ2Xsw99WmcLhM2HEyB92aJuLUxTzMWpaOcU+koE/zBHQcvV5TsCigvnm7iFMO2jAI/ageXU+9v12ICDBuYCx/RSzdxZReuILPfj9D6YWiYhMenrQZksGBnTN7ou2onbCQ+qWQsGVGVwqAUxel4c+9mWhROwb/HtECB87cwKFzeejdPBHPztqOEkMIds7shk9+u4DFBHQlCWP6N8ZD7eLw+crTyMgpxcznUrDzVB7OZt6ivqGRX+1DXokBO2Z0xZRFZ7HmwBWZfy2L9LopGvlPKqFK9AKndQzIz9jJMtL4cT16GWkqvUDOSJsiHOnCHWneGhoETPlTzJ4eLS9hYGX3ugcs1LqeWrUDTDvqjYkWpDxz4/xbDt7xT352kLSK5nlBTBe7Tw8C3d2r+i1WKQkhblJXlzJrlF0vVIfRDFVwNiBvkUp9SvhX33p4rH08ipxGDP7gMG4WFyK1hgEfjGiH1DF7KB+7fWpHLNhxFZ//kYEhXavhhftqYEdaHmYuv4DfJ7RA+ze2YuqT9VG3aigGTT9GPeROmPDaAzXxj66VsXB3DqpEmajD+KlZuxEWZsFHLzRF46RQpOXYMOKjw7Q+8sShjdGzaXl0HLmdOva8hzt6Bv2rpZQEA0aZV224lToz7mFUTHbZp1pDSA214vLNvhevVh1+2jVRM8aAb0e1x9LdV/D5qgvYOqMDbtqsePjtrXAZbdg9ozu6vbUXNnspPdHk2Z7VMbxXFXQYu4vGOZB62GEhFqye3JkC89drLuHHTZdplb7dMzrj41XpWLTtKt39hljNWDWhPT1xZeC0XbCarFj8dluEGp34ZCUB56twSk7smdUBUxedxe8HctgprzKfq5Va1o9ArF6fOk8WU42lS45g9wBdmhzBLV0RdD0daUGBFp2psi2WgN+jawWWRZP5f6MvvNJ8J+Ku/8d6XOFXNwUQYlWG1yq3CPS58Bge6ajAWeCvcNvcsD/FQWIyQkSFMa1qpKV3BeRJSDIHI6vSxt/BQJwAl5x6KwftMj+BJwdK75NPk6Y9lp1O5FpWgY5DFIMm8rjXH62FyjHh2HD0GqIiw/FY5yTcKnLh2Y92KRQdl0gl4J/HlbkrGmVstOtGHEL3FSXqJjZeqgTp7yPVOzTH/bgNtrt+VNOJPVcCbZ/cSH6OoWKukSmQK67yflBkUY75I1cS347YelpujykFEn5GX6kqDqWpsheRPUENjVSViXBElSB3vIqcWJiKUzz8M0XSA4wmEuchP2MXMtZ/Dhq9oF/EfEqb0JhEmV4wI7nfFMpVKc4tLwmlvmIn/fG+2lhOb2LkVafIX7D7vIQPBgQK/vhQ8SFqPKKs+QVPshjA7/2ZgZmZTIC1/LESluKGNdzB6E23qdEQ7EbRDtIOkNw29YBkFvss/zAHqOwIVS+l17hhqhukai0vbi1xEOI2FPmbnDRikuxyCCC/IqBp1L+Ib/uEwEdNEToNT632lL1Zli1xoWo+Y9eT+N0QowNrp/Sgv5P4VBs5tmrsFkASY0w1mwYtMHLwCbSrekgqLCFxb6od58Be4P549+d5PEURAC/WhvBAdZ3w3Y8QbqV5sKcNzsqh0sWhqmzlM/lTWhyglwAAIABJREFUQUlqIpnEiCsZz9ia8eRkdc1EvYM7RZFRQseIsiD1dHdqQVfP0g2jpR3H0loHnvSC98kKBrQCm/L/j12l0RjeQfm/Mc6c5iOt6NcxEbFRoRrI4UuKga8+HyuLMZtEWROI8KWBUm7ZyJmNNIXA5cK3a8kR8XbqaVasj7sQC41S8Lrz4vlnvLWiOhBf7rkk2VgY4XIQhSHBbLEwpSlbacrdHmDJDgvlMEK225osJ1/pEiJvKw66B0LqQkhwoyk+U/N8VSIY9nGN7aL8t/bHLYFGVISKlOloE3lJsG+4kSW/V6jt4N4hepucAKFQ3bLhwK9lEbViBqq3YfFnLLHvxQra1NIVOd1lY3HrslhlrN8UWnvh1JJxgImEjH1AM2282UX3AgCC407cO+1vEIKTKb2rA+nj39EKvWfKyj0opiaQ9iuK2s2qJllS80e3wNP/OQeT2clkQd79UUqMbrIZ9eRyE2weLaD4YbWIp4q9/LmLLFYaxgOUuBzYM60Wer2dDqfjlkw3iOm4vudVHDtNLLMkIcRixPKJ7RERwtLF2LXM9OdLXYUnbzsvUe3I1zD2gueZyQ3kyCSx8dH8sKVJ2kfH1WjAm3OPo/ROET5/rQ3LrJIVFpt30XoUB1Nsi6fngLbIF95q5kVooHKPJ9Kqtqf8G4kskBUO+cVoMGHJtsv4dFk6ts3pCicp0k/7L+8blBNOuEJTo1a0b5N3T+5hiHRXpddwta/qmKmmAesSSaCStROlLQy4ftOOx6Yegd3JQlLFeH027GWMVjKQkLFduEBOAyZHsOtyujw5wsPSZQyWqGXuCs78opTfCwJ8vf5zxILj+k6wAB9/Dy/T0jDeQ+x0FcM9ibNUn8wFjfw7f3QzDJ6ZBjPxMsu7Ok4xMOPAQI+T56Iti7PuyFDuU1krKsfBs2XJvBC7iADUjhn10OPtLEhOci6cf25XoU9kgBJDfDRQRN7vIkAHSHQHyCPGCViocMLtKVXq5dBJlwKHiuLgfVfsU5ray4ZAhk66uDXYRwdZjTt3GoyMNyagRRIk5DvFgvfKoMrPFsdcdW9xYRAJHG55ekNY/mRR7cjXKigorCWehcEHiVqTMjARzptYtyScg6hlF/lc7qusAMg4K28SivGrOyzxAALZqpUBUjMGHDz5h0r8v7oDYzwwyyTkpTSp3CpmrxFOA2Ch4x9opm0glczYmmCWrnwasM+DKSnoWmRLl9zKHWmea+lueFRlrMT5lD/kH7nTbd5sD3/4p9dOf9Duz0rU46v9PVPts16hIM+7uXD4Sm/Wb2cgLfF+DV0mLuCn0S3wwfeHaN0AIkVWM6s/wKw0I7VMyf/pk/g6lR1hRiMDN5rjrtAQHNhYjQwCTgygDHC6yGI04o5kwS9j66Hn26fhdNwMStkrsOLu9GAnKgH2SOTEnEPFG7Ughd6Wp0O1wOgHtDPqqSNhZhtSW1bBmt3XlTx+b4SH6HxUI5DVcfYwOvkH/vBQFHDRHNQTfK7PlH7I5TV9vUNsh1DAijslWU0TN5Uqd0sxRAXwMxqMKLC6IBluoNztODhMNpiMJtSrbMapTBu1hmn1MeXoKlWTcEznhp6DKEkjSaJiCl5x3sjvF/UCc3q6c/GsYZqxFxXHXfiDPNYer1ZGCt4Q0D1P4nQ/Y440/SpjMr2wlNALhNMl9IK4MH3tU/zBXlm/DwQ8gn/2PXlqWR5Spnu8xONqnlWWB7tLm/oM7tH/eVQLVE2IormDzBLkjjgu3PykOHXRKLOh2SsKVpQavyWsBNlOpFaIk4YRpY49BocCunzrLqxsBSC1mpq2RDnTj6O9hNt1j+L4iHG0A2anGQ0/nYWwS3WRGGPFQ22r0MNMb91x4E6JE1uP5+IfXarA7nBh+7E8TBjWBPP+TEf9quWQkX0bu9NuYGDnSigudWLR5kwKHq3qxaBJzfLYevQ6rhfYMTC1Copspfh99zXcLnbouN88oMCLIIto6WsNKqaKj71PIHLC3+fvXe6aQCX5Mx76EVd7/kLnNzGtI2p9MQlOox2Du1bFr9uz0a91LMpVCMfhs7fRvFYY5q7NwosP1sD6A9no1jwBh87eQGREKGonhCDEZEbD6tF45YtDeO7B6jh5qRhORyma1IzDnrRcnMgoQKv6FZBSuxx2n8hFemYJhvSqCofDiQWbLoOAtmwvexlfdy12L3COWboFGTtxgXK6s0CTIzyO6+k3tQ1zpI2jFZSS+5PoBVEw2IT5tAAVs91/wwO9VNw6+n+qfwBWow8Ci2RzF1MxgoB7wTVvFczqQERcvDeY692jKOhMuRF47ta4eEKDr3exHZlE6YWhH52EgVaKUvlPJhUMKMnnWvJJ3YLTIjGC1aiavNpTGpXtHgywwYRd0+uh+4TLMNgLFAtFhR5RCgIbMcklIaPPt8ju/qsMSE7UXPYS4nc+gjrxVsx4sT12HsvG4u23MaRbDD5YcJrWff59Ylu8v/QCJj1WH7tP5mLW4jN4/5l6+M+i43i4XQ18vrMAlpJCmI0uTH2qKcZ/n4Ypw+rikzVXUS8uFAV3ihETacXmY9fZSPH1La4rt4WgjoWsk9yEng2p8KEYmqI41twA0f0a3Xt0ninPOpUjJmAenn6q45S6F2RfbMSxKUNQGJbDdLRkQutRv8LlNGNoj+r4ZVMWvh7RFs99cQgvPVQdj7Svhpm/7MX4Ie2waEc65q3JwkfDamPHRTsiJCd+3nIB/+haC092q4TnPzuJH16pi6U7crFwey5yCwoRYnHhvceTMeHnC5g0tC7emncWAzvFo0+7Cvh05QUcPMf8Aowfk6VI7Kq7kmYdCgwcFJ3uVs2OZLoZ5CPYCac7SAZdT0eaHKerONLE5AhfWjkwwfcPh3d7xf9KO+62H//l+zUCJm/qZBpw/qhmeGLWCZho5pA2WoEuP1mYlZEXDF4xiIzt5rSh9LyXmp0eKZUIE7ZOb4juEy7CaC9gC1cTJcHtFtECVOVT9xghCSiofRSn/zUakssAs8uC5M8/RPjFZNSOs+Kjlztg+5ErmLs2H8N6xuPLP07i6V7V0at5Iib8cgbTnmqMXSevY87S83h3aAP8Z9kJ9GiRiAeaJWDsDydQUGTHzOEpePu745g0rDH+vSIDtRNDkJN3B3GxERR0ue+H6yDaJ9E4FVkNjg0yOHgofgUo2CjykEEZ5YRoD/YgLyN/zwWNUw2X+3yDzO5LaORAbH411HlvLiSTE0O6JGHB5qt4+YHq+HzNJbzwQC189ed5bJ/RGZ3H7cGzPRNx+XI+2jSvglX7b6BZtTDM/+scBnerhvb1o3Eu24ZWDeOw++QlzFp1A1bnHVgsRsx6tglGfnkcE4el4P35Z/Bouxg81CYBP268gk1HrykyxHh0vltTkfeukcMNpPmoq5yu7EgLBnTdtau3eFGN1eZVWeh10fvWyPtZXHc9VMJSVjcg7r95SGYQWlC91y0OMMBAa36/akmIFoe44PTr/Gp2JaIFrpx6q+7wNcFSchLA/FFNZdC1KVYteSs9nJ4UJBLCdci4kWqwjO9lngAL5XP5kT3iu0RWlJ3dzSHUCTM2TWuKbhPTYbLddItV1vNcyzU5lDWk1ujQyCOAO1YLbrZagrj9g2Fx2CiYJ0aHoHWjirhyvRins2xIigvFhaxC9G5bEdnZpQgLMyAq2oTrN+w4cvoWmjeMw/6TOUhtXB4RkeH4Y9cl2jFHKfBEz6rYdjIXRSUSYiJI2VIDSJRuZu5t1WJXRF2sbyzvI6hTUtzeuysW1iPSbrKLIOzfA83isPoIsSrlvYdg7XIQFMrGegKtHqL72VLq7XaZEcloJ4fLAnuN3biVmIf4/b1ZYoMTlCY4eyEfbRtFY/vJErROrkDTq3s3jcXaQ3mw210Y0iMJhy6WorQAiI114EB6AZ7oXh0LN19Bv07xWLb1OlrVDcfR84WwyyfbkFoWg1MTcPhSEY6fKkbjehY0qloOp7IKkZ51S+BzVSWkLU6vhpb5wzD9vsvP5XHAsnM5P2M3c6SR6AVOL2jq6XqEjLmnAQenGIOBRDW2j1v1gRMJ7qDMBkW1fBTg8sJ0aQvB6IXdBN5vf863QJ6kq5ICAGlxeeqNHlsTnk/XOKO5B1emDZilexIGlCreX+L4erB5PHJu2bHvHI8uYCLsIp57lxUOGppDo1ZJmXmYab04z/AleZ3SYSGefgJDBHQ3T09Bt4nnYSotUDLGCKfs7lhVIcj7dlD1VDNTklIeSnAXd5ip+36+c+fWo9bKVsdPO8Zs9NWqFCpwau0pNS9fiQ0VLFHCZbPgfy39IqtXOn8UwGRBcjkN+Ob1Vnj+3weoJVkrLgy9WlfAiQvFqBQbjlATEBUZgi//uOAWnRqIJAZ5jSBapIWkGDzZ3XATnxaQd6mqncYji9PG4hBVOkq+lSTtyVOmZQiUXYA86nRQ1NBCVffIIYFK5iGfEfYvK+rF40w0ZpImr0LJWpOF0DdCydELF0lGGole8Mbp9pUz0nRCxoIcfuFyeSZ8WIfeLVm9t2qD17VXBAjzSlv8Xx9I9IDSBi9crpZX9QwH4/cry17UloGArcxTBRLhwL3RaqaVHMYlcIRMATJrcf6Y5hgy+yQgEUuXhXMRy+3nl+uiTo0oDPjwJDJzS1laLDVvTZgzqDKKbYUY/4cBdnsxjJILJgM5d4GdH0BDifi5WZwr5KBLX23ClmlN0GXieRhLbyphV+w+Bppcp9I1yqlGHXFRgJPeINGt6JK32iIq3MwWPL1HWIQs2FbdAXEOgMfZahzLwgKVRcmXsqOXeATNqneM/u44dm7bgEML3pIf7P40BrUNB89GVKWGDORdRnzzeks8P+cgJJMLP77REi9+eRqfv1ANRqcFvx3IQ9/28Rg++wCcBNBl1eBGLnuMXFBrUsMP8/GUYHI6sZYWsuHrjCsU3j0xBY8pQp8/IoZoNCGbM8WvIL9PUU0iSCrntREpZu+8drMUT394DCVOFlqmDdMTVKamSLmeb4v1U6QvbtA04M/QaNAsWKL0HGl9ZU53qV5Gmiic+kOjARcf/lN/AB7UhPt42L2wOr3Bvjbq0h94+/5eAXYFff3t7QIfXK3VL6ECOSrJaEBMKGC1uHAyy446lcKQfrWYLsiYMAMKSpllQawUSi/MPgUD7LCaDBjcJQHZuQ7USIpExzoxePm7s7h+m4AuySIjIT2hCDU7MKCtBd1axuBstgu/bCjEhTwbTe2lh5wSC5jSEgzweZ0FxfIzANumNUTqxItwlNyip0TfV7ccNl64gx41TTidJ+Fink2ph0BAOC4EuGk3oHfj8lh3PN8jfZphDTvA0GEn4K+m5lIDi+gLXghAVgxMyYiGl1qkQXT86UGF1jr2J/FkPo0wm80ozj6AI4s46Lrfx+iIBoM+QlTlhsxydRnx9Rst8NycQ7Qe75zhjfDeL+cx5dlaKGcOwYq9uejbPgpPzDwBKz2jxg+wBdBUf5dwm58QS06HkypdPrd8B6roHvkXKg3ccuV1KEi0suA05JYrj6fl+oPvWzTEk9BNjtU0VloO5aJJPXLIotFMOH5ScDP4JAjuzBZXrKKD5OQIauny5AgPTpdYuiQjjYIuK2JO4yw1P74BQQ8w/UEStyv8QI3uXCsdDByH/MnM/+T3Gk7XR4QCb7wu7wTgsxFNUFQKLNtdgPXHrsFqcOKbl5ORVCECD7x/EDOeboJ3fjoBs9GG1jUiMPIfjTDju30Ij4hAThEQHVMOT3YMRd3qITCaQmE0OrB//zWcvuxERIgJK/cW4aLRDvtt4LUBNbDwkBWLX7iFL5cbEGouwbDe0Vj0ZwnMZm5mEi8vWyFk/kmIVklJCZ77R018/eNlbLhagJM3nDg8xYQ/t5fH26tdsJiLYDQ78OuzFZGYEIvRC67gpZ4RWHPoBl5+pBmtdyCGcyqLk7wn9BaGtFuL37Y8jjuSg37VpEY43n2qOQZN3knP0CLHSHFlVbF8CNo3iMOwnpUx4P198vZW5WIDkndlC8NjgPWxj8hy8dWDOLJ4vIfrkM8r4dIbDJ6NyEoN2YkHDgPub5+ANbuzqTKNjAxBaooJq3eX4uGWcTh3rRD1q0Xiz+1X4KBMPF8ofgyBYNeTsqHl8yqheeY5VMs9g7VN7kOpiaS9qJYtyVIjsby8KA4PKiCP4bUryOUzn2uIkXMJvUWCFsnVpA9iaVEJYWFGPNm1Or5Ze4mFG2ojctX1zAGGd13UPxpq5O4pRsZvktKOMr0wiJwGnIBTy8a4pQFzS/dXEjJmlEGXDoMHEAUCpP819FIGUcvr3VNLN4BJCXpMAnTIcYH0AJIgBpiMBUls6J4ST22dKwXAtWsFyL5tx/AHa+JC5h1sOJqD2nEhuJxfijCLEw+2rYyhXatg/pZMGsOalVuMnacK4SAHLLoM1DJMKh+B6gklqJlghsFowqLtNtyyObBqVA1cLzGhcZVQdHg7HYPaWREbYcbTParii99P0+B4FQG4lUPkjC3EV/sk4tM/cnHwcBauOSLQq2k0dYoYTRG4eKUI110G9K4bjvhyZqw7noe21cKw5mgh3h9WH+/9cFJJfRXphZbJB/DxC29RC8fhMOPNrz/E/rMNUK+SFTNfbI+5a87T+NDGVcph88kcPNo2EeuO3kKXxuUwJLUy5q69hJ0nc3C7lMTcBmoi+LODxe0rUJR9EEcXEdDV/yGQkzxoNrV0GX6qSEKhSKnYxYCdrVy3cC9FxQUhQAFdKm+vDRJe3zgXg478St+cGZOEx4bNg8HpRMt6FRBtAGLjw7Fify7a1Y5A1bhIXM4tQkrtCrh2owRLt1/CKw/WwsnLBejRIgHv/HAKj7RNQmKsFct3XsPATpVxNb8EK3ZloV/rRGTk2tGyTgy+WZsuZM6KDRbnQERefo07GnvpbIDrVbnbYMCN83I9XXIEu25GGnGklUvEKRl0k/tNZaf10s2jEImpebkWau4V0PmKjtB3nAmZKnKv9duipvBx553/qvDaSXC3OunfdAWojh6RCy7LmGh5YH78B9veurdXfZdixghxhpxnYv+qYZZsi08dHsJ2gZW6Y5YcyTSbPyYFT85MA2BTtmPcu0CeSI9QpCfhkvtcNBCd3L3m3XqICI9CeKgFDV8/AJPRgdjI8vhtfFV0efs4TEYSzUnoBZaGS+kMup00QDIasWt6bfR4Nwc2G3HUER6XnKIru0lkBw2tgCeIHy2UI/vFGBXLlTArKPPiw/PwVM+FsucfmLPsX1i6/SHUjjPj3690wtMzt+GbNzph29EcfPPHKbz7VBNMX5aJLo2i8dpD1bBq9zXM/C2dUSluQWxMQrgMcotW+FtzPecDhetkH2fR1YM4Si1d36AbQekFNp+UZuAGJu2/oBA08bVucuzDmtWuMWHNCE5qlWJhMskzyJwmA9b/+Bgic1i4n8sEdH1pBRyGUDzZvRp+3ZaDwV3iMH/zdQy7rwqGdUvC12szEB1mQq1yIXhtaTpe6FgL321MxwdP18fB9EJEmExYsi8Hj7aORbEN+GfPJAz9+hT6NK2EhVvOYEiX2vh2HTm+x6kyKN5iljXRIeqYKHggr2X+jTdjSo3WkLcy9EJBidIz0mTQpZZuPE7pFrwRQJfRC6KlG7QtF5B+/P/ERb6GrqzDquvA8DGaosmsG5Yku1nk6win+8voZhgy+wSt9sWdMBQgNYYeEzqyCAm/Kkkm/DEpBVtPFqF7Sgy6v32QnjsWGxGNFW/VQbd3DtGMM3IEOqvCJbOANEyNgIgZW6c3Rs8JGbDbbzKKS3FscyUiyDf9iFsz4l6eAy8zqhtUu4hvXvsnYJRgs4Xgnx9/grSsKqgVa8IXb3amByBm5ztQIyEMRy/cxID2lTF+wXl0ahCBYV2SsPlYPnYez8H+8wXa/ac4f+5z6b6VdTO0lN2LHPNcdOUQji4mWXPeQbf+oNkgoEusXvY4dYC4smGbW/cEFPd4/zILHmucUuSIKWnuuCJzO3Tnz/jnvp/ovB2r1AAvDv43DC4JAztXQUxUKGpXjsS73x/HsF5VEBcdiuV7ruLJ7jVxNPMWFpLjeu6rh+/WpWPK0Ab4cMU5jB9YB5fzXdhzJAcfjWiCg2cL8MGy03gqtQYyrxagXFQY5q67IIQ5COPClRAXDT60bLBY3eQyghCVOjUiUpELJo0q6DYaJKcBe+V0FXphGtXq2jJFZW1eGXt1D29ztzi9sBKK8eQeuaBHmgfbvKDFXGdLox/87yeDhj6HC6IsKcqCFXuhAiB1pI1ujidnHYXBwPhPBbcpx0bidI0wkagEAriQ4KA4asQ3Q2uhTqNQ6uhJfesUBd1yYVFY8VYyek/YT2XKRB0s8o98UCBV8QYTNk9thl4Tz8JpL5StOU+ckw08BjmKWIpWnmrK8bkvdkWhYexRXLjVHHDly4rCRKvfkFKMktNGOV3i03DYCQtK7HEWj2x0uUihSVjoAZIs/I2Ph54c+PtevUeWCsrpHsKRAECX0AuhFiMebBCLY1eLcSm/CCVk8GWChrG3EpIqhKNV/SjsP1uMulUisfEwOR8sMIeRNvIjOEknU1uxKA9mGHA1IoboObZTAmC2htNTj132UtjtTpgtVP0CRivMRgkuhw12gwFW6r5lytlpNMNqJI45OwwWKw09szltsJpDYZQccLpIdAzje7nqZnsn9uOLVODbJRb0EPQK1eCFEvkg73q5peujiLkcveDB6TK9+b//w7fQ+sHx7u1XwEsGNg9Q9hKupV4nmjH+xyf4qAx9681jsfqZGDE6gj+RW0fMQhGwT+4G2+4Dv4wiIWPHWciYHPBNPMqDOyahtMSG1YdyYXeR6mAEcsk5r0aUs4bihk2iAAWJ8J8kx8yFmLAoLHu7AXq/u1d2iXC6BLCYQhAf6cSlAjtMBHSnNUOvCafhsN2mli63dmlbFYtFjclUeAaRZfKgwdiiMkkmSCSxQ9FD8nNoARZWbUpvjGV1RIKRmQKSUV8EXsXy1Brc7HE8lkjkRBTNYaKPJdELRxd5t3TJfCUPmoXEmk3xxb+a4vfdVxEWAlRPKI/JC07R/j3RpSqiwoDF23IxfVh9HL5YhIdbV8QbXxzBuewihT7Sik3wYCN3ygMbOM1AS386mGOLqlcKIwwIaYguUWRERChNJF8jCyO3IOlNdFBla1oOp1RlVjY2iIxI5I0ybopCLXrpZE3IqDWibE0ghZkcEkuU8Q+6vsZJ/I7JFD2uh9Re8MrpujnSkvtOhYmqKO9VxvTXu7ZhZZ1O5dm+qrWLyyOAmFb/isOt7TrPVDndgNOz/b9W3ekEdC1bw7ycnv88cbHNXIA11J/ilCH9V49FockRM08BNDmC4QbhVwd2roaRfaug/7TDuJxbDKOBsf7EOh7RPRFP9ohF72kXkXenBC6nEyaDC3GUXmiAbu/uBYFii+RCuMWIrg3LY/SgWli87RK+WHsVZoMJW6c1Q/cJZ+AiYRA0Ppe9m/PQzLTlK4tz3jLn616bQBUkWk93wbh2CAvhEQhctvnzVFnXbAw0s8JLMjIw0NK7oiLmpgpXbOwdCngrt1NbGu/8cAZbt23G2RWTIdGMABelYThekXsddhvq9p+B2slNMX5QPbz69QmYDS7MebE53vj6GNo3KI92dSti5+kCtKkbjWKnhC1HcjH5yep4dW46cgvu/H0GlLB0yPRYXBJWTelEla6MuDLvzaxeRrkKN4nFlxXw5WUZ+QSobLoaUs13TMI+32PytPJCTrSj/C9cyL1Ziuc+OoNSUkBaXFduv/MW+PMVsevk5AjO6XoHXbHKmBHUkcY8NzL14d+aCxgx/scu9NiG+Mexe9oDEerd23I3L9I6/YDYyFDqqKoY4kRoqAuHL9mQXDUCaZdJnK6EbikxOHDuNgrvOChVsGBMMzxOQdeOiBAzhnZLoMBlDrGiUWI5vPb9GWTfKqI0FE37DQFcJQa0rBWJF/rEIzPfhL925mDr2QJUiIrAb+ObIPWd3XAaTRjSPg4DWldAkdOCF748gfIWOwqK2ILcPi0FXSekwWkvgcHgQo/k8th09hZ61A5FWq4TWXmlzKEo0xKJUWbqxGtaKwabjueqFdG4Q01wfRELl/oq1GBRoVygPBOyqCsSL8f4ch5DszsQFpnqvNPbG6pKwp0s4dBanH0IRxaN9TrlzNKdjYTqjfH5v5pjx/Hr1FqsEhuNt+efQtPqEejeuAL2nLmJyrHRSKwYhg0HszB1eB288vlpZOeX+Nyz3gvZo2pbVpJEtdGzI+RhJZw/o2wY7CnF7wmLaWTmHavEy4omESXOyBz2AEI1MBKBuQuJjPL6bcRZajBypx97Bg1Uk/GWTzff3bEnMTuc0aiqOtRFOr4j9qq2tJYu6fYN+TTgRgN8nJEWVj4RJ2lpRwOS+05j0Qu0KLNbFR0K5p5N41uuspDTPi3iAMI1yhIlUBZAE7ldpb/ywhMDtz2zj9Qe8umlAuBerV5ulDi6ge4WuEeVS5qSg0SiCgwGfDWiJk1+WLrbifXHriMCpZj7r2RUionAwx8cgdlqwht9kvDd2guYP6YtykeGIvdGIcxmJ05evIH/rJNQp5wNr/SLR1S4RIPNDXYHzCYjjJIVr827iKzrObhtt+D5PrWxeEch5r2UBLvdjCiLDaEh4bh1swjWcAt2ninE+B9PYuzABpi85Cw61zbg7UG1ERkSichykcjNuYPr+Tcw7Kvz2PJ+MpbtLsXM1QVwoRShJjt+eLEqqsdF4rWfsvFSj0g8/+UFTBlYF5OWnYOBbBdl+VS2qgYXmtXajOd6bMb8zf2x+2wKS1Ml15FQDYMRMVFW9OtQCfP+uqg5lZhwiOQyAggkcUm7gOVoD7iQGG1CscuEWc83wotzjnqccMDlw0M2ZDqnKPuQX3qh3qDZiK7UgJwmh4EdYnHsfCFOX7fBIXNCbWtHIjQC2HWsEC2SK+LClUJ0SiZFdwofJULwAAAgAElEQVRRWMwcojxJoSxrRo/rFZUNEd9QlwOvH1yI6JxMzOn5KnLMYRR4n+iehJ82XqFRK0Rb2OWTM+j9kgSLia0HUnt328yO6DRqF+44SZuNdGdEYnjNZhNa1onAuawSpNaPwOJ9N+RaIIDZJNGCRmSinJKEUMID07ljyMsPGHVf90okhuJ7DNbAdF+hAr2wkdELpJ5uWkCONH58Z4CcbqDgUBawC/SeAPBZ2HCKRUc83xBsf4K9PtA+idcF9g52lUpBsALkHRuXo59fv2lBft5NXL5pw/DeVXA+247Nx/MwZlAtLNl+BVeuF6J6fBSmDKuD8fMuw2q24VaRDZfzSlhYFw1sNyLcbECNeKvMuxpx6moh7tgl/PlWY2TekJBSIxqp4/eiVoIV8VFWTH2mMf756SEU251oVDUcbw2ogz0XbJi64BxuFBUiuUoUrEYzvny5Np7/zwXYYcPNIgd6NI7F6cs3YQkvhwuXcnDdZkLXBpGoGGHGltM30bpaCDILgEY1o7B08yVWbFwoN0jWXPvGOzDz2cm0/w6nCWO/nYLdp1IQG2nCgA41cLPEgb8OZmPSEw2xbFcW8m47kNqwPC7lOVHeakPObcBW6kR8bAh+23MNfVrE4/z1YnRoEIPD53Nx9RYwZWhDjPrmBHq0TcLBY1fQun4cnLBj+a5sPN2lCo5dvo3LOUVIv8oL4KiFkMiM+YteYJbuR4isnCxbaZxfViVEPnCXgauy0WXbeV2QDUSgfF0jf8ef7TJIGL3uS/Q//hu1T4tCwtHr5d8g2ex4skdVfL85G0M6VsK1G3aUmBzo1SgKG4/eQscGsTiQnodNh/NgMBux9cNUTF2QhtrVQrHnzB1aRKhVtQisO1eAHvUqIqKCFSU3S4jbAMVOI27fygdMIbhyk8SNh2DZ7hw8160qvl1/UTEatR4M99WncvXe4hl8YovmSw66O5Gx8Qs0HMBCxtJWjMVNseBN/b5T2oTQjDRi6RJ6YRp1gFC7X8fZFMhc+QcVz6cEo33Fa4N3VPlvnTvH4+1vZvgHrh3/b9pqAKkry800JchHJsfITNBC5bTuAtsizh/TGE/MTIdRKmacLv0Pj9pmIsxPZyWJlMwiNGD1pJYIt1opJdH8zR1wGiQkRoVjybjGlF6ww4QhrcLx1mMpNNHi4UknkVtEYnJZptKWac3R4+0TcDhLqHXDQst47r4EQr+xtF22d6VlI3nMqux80ciGBDzX53sM7byEnohBFManf7yIX7c9CKvFhP6dkvBcj5roP3U3Hm5XBX/svoy+7ZIwMDUJWTkFGPnDBbzZpw4mLziOd/6RjO82ZKNx1VCcunwLTaqVw5EL+Whasxz6dY6ldV1nPNUIl/Lu4O0fz+L9x2vh8LliVE60YM3+HFSJCcGWE7nUmccMMDWp4c7VgzjmI05XTQMmlq6622TxzvQDeZ5UnxCjToV15kVMhbBmzUERdKcgRp8JHIQeCLlMEn79+UXE5mZTWTFaXOj2/HK4DBYM6V4V323JxRsP1MKXq0/iqS7V0L97Jaw6nIdnU6vj5005+HTlMSqH26alInXcTmz+sANSJ+7BhL7V0btlDHq9vRd9O1QGbEWANRwvPlADn666jCe6VsG2E9fx7+WXMOKhJGw+eh0tapbH/C2XWX80cbt8EAJDscAwSUsvKI40YumSgjf6Z6R543S5dIvbYzbygUS4yTZX2Qn8YExXDY7qDGgAY+w9tEwn1IZredm7GhiMB3NVAA3We5z7bXwM+eKTnRgUyjTHu/D6AoRLM+CXMSkYMuMMDCiWC5dwmFNfyl0bxMLinN1vE9tg64kb6J5SEfe9vRd2o4TEyHAsHNcI3d/dC7tkwOAWUXjhgTo4fqkUM5deQX5JPiP/JAK6LdDz3eNwOkqYM0kGFR6EL6O93Bj1+G7u7FOpBVlOJaBetSv49rUXYTA6YHNE4vk5n+Dc1QQ81KoSBqTWhlGy419fHsHM4Y0oV1rsMCKhghXVYsMQHRWBjCsFyLlVgorlwvHdukw0rxmOE5dvY0y/WjiTdRtnrhRjYGo8vlydidF9amHprmxUqxSBlGqR+Oz3C+jSKAqr9t1AlfImbDnFqqcpIbYyB3rn6iEc8xEypgFdGbCZVS/MB69rIfv8mVry8iMAqBr7pCozhUehMdT8GFItCou2NhUzowGPnPgDozd9CqPThXnN+2Nu5xcoL0Ms3flbsvHaI3VxJjMHVWKjMHdNJqYPr4/0zAK4DKH49M/zsBgk7JndDUs2ZWBA5+r4eXsWLt8qwcs9k9Bvyj5MHFgH87ZlY2DTWNSsHo0DWbdxLsuBZklWzPo1AxWiJCwc1xYzl53BX4dz5CScsju+3SOddJechiZ0t3QJ6MYjbfk4N0u339Q2IQSNfx1PYzoa9ONxumKhDHXLGhj6Bw4w/p4n4oi/awN/a9mvpO1xA7cyQqTfRviNmVQaIy8IbgNqKiMphqFn4KIcisOMJ4YAJPLxl7EEdE/DIBHQlY0rpbWiN555ounW1mDAxAfqoHXrUGqB3jfpBLV0EyIisGh8E/ScsAsOlxFtqoVi8lP16W6q/7STsLvsDHMNRmye0gI9JxyHy0kcP25lDpWYY74BUz3TTLfo8OTUqjTAIVloilSIyQ6nXPTGJRlhMJnlUySdLErCYgXspbTMpMlkBFx2xuWaLDBJTtidTlrMpWZiBFJqVMDKA7mwSKVwGc2K18hAYkfJMewuFySng4bWmcl7SMU12k/VcOHzq9Ze8CYSBjQc9BGiKzeQqQMSyyph6fjmePWLNOooIzqKOMBpzIBgSTPnlJglp0aE8LljZhRTYlSByrJA5rVr/fKoVTsO361OZ9cYia+HZ+cJQE29mxIkaxTCb15HcUS4UjnITnYohLO1hNADIUGOq6cDTv5nRqnLBaeBOLYMNLggLNSKUqeDrrNQswl3Sm0IIXUczEZINhdI9pvklKgvwm53wOkk56lJCAmV8NuYdug/5QBsNGSRiTzT32rOHpsBxXISKqIJSZ06UQy+1jn7jsksTQOmli5zpKWR43o09IKcBnxSTI6gnK7/kLFgwObv2lr7Ra6/4YIyG+F/Q1sCfqS4j5RNLbGEC+eCie93/pgmeGLmGZikIgWoPXanMhVBQIlYxyRWlxVXkUGZLkwJlSMisHBcc9w3cSut30AC5wlE0R/FWmOpwJuntkKPCccgOQnYc6XvtiXUU3h6EyKANFlg5ORXHhZHfWg83lZOIVaknZfapZFIcso0aSs/iBMGhFstiIkKQdaN2x7mJMc7+njO6pA4YK4YhN0ReT5xKpVe3yeUdhRmVOm6ASS7KTqpIZ7oWgM3ipw4fPY6vn+9Kf7zezZCLU4aQnazUELtatH468BVNEiMwE2bC1XLhyA83ISlu7PxaKtEGM1G7DyVi25NYulW/PSVIsREmjEotTqu5dux7tBVPNGpEo5cvoOYCCtu3XHivlYVcf5qEQ6dy0V+gR2ZBaVanlgYaxK3YCInGxvMMpVCk87leG8JBpOBKjLCExHwZlFSKgyyBA9W6Iab6kxPyVlkPLKBxtyy+5nMGdCsWjRKJRPOZhXS+xnoymUXuXVPquLJDjqXVEqVoMZ57SWCKTCsE0LGNn7u/WDK+nIRc3pGGuV0p7IaqNRpEtir2JjoZ7xorNPAHhcwjvw9F6qN9GZZ3wuLW+8Z2s/EdjDrhRm2ZYlrc+uTYhjL1iL9mr2AZJsRTvfxGemwgAXViz8KqNKyfMRLTMCWgC5rnyILcsZafGQkFo5rgQcmbKHXmA2gIUBKCimt3yCD7rRW6P7uMRicJWrMj06kRyDzLg4TKW/448hWCLPKfCp3Nyn9VjP3+AJmvZbdUxQUeFyo/JmeFtIuX7dmcuDh+oaBzcT56di1czdOrpysYU80N0sG1OszEbXrN8Gbfeti1Ldp1GJf9k4zvPLlGYzuVw8TFpzDaw8n4eG2CRg/7ziy8uxIijUjM9eG6gnhuJxjw5j+NbFqVx7q14xCq7pReGL6PhoW2KtlAk6dv43GNcuhZvXyqJdgxZRf0jCse3VsOXkbjapY0Tc1AT/9lUnTovMKWdwv5/XVbkswuQxYPqkttbkZLcTJSIGUVPwgPAhMK2OKFSpUVdaOh3i9Gq/LOH4lME2USPl3NRsy95YDL32cgVKnHJzGHxlwejBfUyKoeUYv0NoLepZuCKm9oDjS1Dhd96hDXYOCU1S6WFAGlC3DLYEswr/jmrttapnw00dHtA5GmTr0OKJHkS7tk2SyUQRdM8ji0vth1kX1SqEY3KkS3RrKepeG+TCvDgNxAni9mlbClEXHseZQHi1gQ2M4hXQB8mpm6bZE93ePw+ASQVfREDrrzndqK1NS8ukULjOMRqfCp8q7YWZwEwudWjzCYpZ/5bGnij+GsxoKu6Fz2oOXIRaMN4ZT8juVtypF01lXFfmicyMhzGrEv//ZBH/su44DZ2/jPy/UxktfnMGYfvUQEw0cv1iK+1vFYtKCM8jNK0FMtBk9U+JQvlwYPl+Zjlf71qGRKCt25GHqMzXx2NR9xM5CzYQIOo9kH756Xw6eu78KJs9Pw3M9amD98SKkVDfB4bAhvlwsPl6dRktxirIvQqCTOuAJE0DCuIQUcg5mgtDTXsk3y9V3ZaXN+i8f+qSddxlvaC4BPdCUXMcyChU6gdMKsi2hwr5wqgWhM6ilzU0FNdNR5au1mtU9MkZprBD7rXWkyQVvVrjRC/X6TW0TSjhdDeiqHBkn9fQtM9UC018absKjs37/btrhrp7vBxX1QE7sYuAWcRnhW26fpxNQIA6EExc4haDMlSbyQk7LNBB6oTH+MfMsLJJ30CWOr3aNw5FSPQmfrbtKwSwELoQ4GdFAemQzmVChnBUfD0/B3rTrmL38LL2OFXJkEEfaTu1IAroaS9e7RCnC78dNSxe00YlHOy3EqH4L8dnykVi8PVUuUSlh0/SuyMm7hW82X8aaPbkwGYw0zlN0eIdZJfTtVBO/bMyQgfLeqW998XK3oFTZYONlgslsguSwo8jugpVsHYwmyhebzUaU2Mn4EmbehUoVw+GCiUZcnL9SjIu5xbSPDpcDpTYJoRYG7QTwTCYr7bfTYYNTMlLlSEJfSU0Ngp7JCeHo0ToRX61OZ7QJnR413Or/Ye47oKMqt7af6em9N0hCQu9VOggizUYTUVCuXnuhelUEFQGVYperYkEFURSQ3nuvUpIA6RWSkF6n/+stp8xkJjNR77d+17oXmDlzznve8uy9n93IP72MBny7YRa0jVV46bFPUaALpOscHaRExh3AQ0m6iTDemMR4G01mVslQqaI1jQleE8uJ7gmeBk4iVii9TnlbKWFLqbQgOdwTV2+TVF4WKkiAWEOpIzYulZBQwZ2MNisnq6HhJLCj2YW2XRXhDuzPcpKRxuN0HWq6TUGXJEcwE0pwUPxz28xJzOA/+YB/5F7OQdCh8LGJYnAfQCWBYKcauX8Lp2/rLBrDRoMSworEVHcFpRfWz++Mh5dnQG0l6bh24EcPhAIKqxLdO3igd3wwDp2rwqUSE1TQ07AuShcogFZBOjw3uhVW7ynHE0N9sOL3LN4zTdrmQqIJOeiHl/XA8AVyTfdvLqbVisHdj2LZ9KWMCjGr8Pq3b+N4Sg+EBKixfvZg7LmUjx0XihEX4k3jeA2mBlzOqsTQblGIDfaA3mhCdIgPlv6cwrjIJnqX/WeSg88xOyf7Xvwpnw8JzexiD2xLmAocKA/CtSE1hM/I+dVqFejZJgj1BuBqVjksJBlEkrhcy5SnlXMeWgBULhDVSmBQ1wgc/rPEaUyERWHBa3u+wH2p2+kj9B5aDHtuJxQmA6YNjcWJfCOCNUZ4eXjBamnEPZ2CcS2/Hq0ifZBbrsfpywVIaB2C0ioDkkM1+PV4Lqbd0xFxgWacTClDvzaR2HExH2P7xKKwrB47z5ZgzkNtsfjna+iVHIBLmTXoleSPe7r5Yv+FKnRMCkRVnREF+SU4ntkoFqi3XS2Z2SIoMG4IcmdRoowd5rUXCKcrZKTZ0wu2oKtCuweX8DQ6ydhyS2NzUivBMUjZExd/83D9X/7cASA21aad2Zf/m4G6E9pCwdau35MwGvp7OmTC0zJNd8ryDGhE0OVXypr8EZO8a3sNXr0/CZ46Der1enipqjF8Mck8MqNViBe+fq4T5n2fgcziBsy5LxIrNmVzfwG7H30kvyfTdHti2JspUJpZfHATwHdn+mTaP7n88dHr8NSIHxnbYVFg5eZXsOXkPdCqNdiyoC/W7c/CuZxqLJveCxOWHMNrUxPwxfZ8vHBPHHq1D6GHv8aoxY4TOZxzbU4vkpIepNJs8mK//IVbENvt6JXZvLE9xjRO4f/YZ7bKkhRaJkKMzHklv78QAeLomcIjWNNJgaXhVdfIByrg5/XPIfZWNltUAtTPb4FC6YmpQ6Pw0/FKfP5kAs6cL4HK34onhrXBiHfO48h7A/HxlgzcPyQGR1Iq8cXGa3hyYgcMjlGi/I4Jca18ceBSAQ5faUBBeS0eGNoKj/aNwuT3z2LMgFhsPZmPcb0jsO3CHYzvEYIn7onB6Dcv4sCyHvhqYy7uGxmBRz/4kzvdhG0ldZJ2K/yVC8PmrpWtBqun22ycrlDEnNILAujSwDuHW9ze+HF2Dty9ztU5sudRmoD4P02MuhrQ/yffN6cMOxeSzoSBFKdLQrfWzeuMKSsyoLHUOpSOtMS9VYkeHTToHR+FD7fl4q5Eb+QUm1FQ04jkCF88NyYcX++7TTPKtJ5azB0XhxUkVZc6aaVJJMsn0Qsy0KUn+68YftK9ya9D/KqxccEMqNV66A3emPr+lygu94daq8PWN/rgl0O5uJZThonDk3EuowwRAV7IzqvG0O6hNFPux4N56NU2AG/+kAKDyTmHbK+/OtJnXW0dGy+6TOTYK9juzIog0ASvvxAgLDhkpSBf+7tJe0S6VhCR7K0YOMtVQqbjDco4hXf3LIHabMLSkS9jW9vRlOEnyRH1BgWiIrxwOqsC3iYT3pnWBqMWnMfBD/rjk61FmDE8GhvP30ZN8R2ER4bjcnoR+veIh0ZhQlbeHRy/WIrOyWGYOjSe1uZ4fvUVLJyWjEUbbmDhlLZogArXblbgyXvDcc+bV7H5jc7Yd70Cl6/rcSa1mIbs2f/nzjy6WjP598LM0XY9B5rVdHnnCBvQFYP9mijbbmGcwI7LvJTN6bYtsabd0rqdzpQjNdXdaAD22+beX344bA6Qw8iOpmOx/0QwI1uS9dbcJrHhoB3G8nJNd15HTFmRaQO6gn5DA4BoOT0lenZUo19sNN7fmcvCsQBER/jjq6da45Xv8nAjv4xybJ6eWsweG4eVHHTlnVcl0FXi8Hs9MWzBNa7pCimsrrd98/uH+NFVNP5TrSHaLokRJXyKGo16M7RaUvKRdUpRqNU03Im2a1cQRpCUgrRCyTlURzJArlyISif/iwhMso1hp5TagVfTd5WDt9sg0QLEl8+dYDFJf9oKsObsNxrjazbDRELFVCroTHqGHUrC4SphUSmhIvyMSgmF2YSGBgM0Oi2tB+xJ4m3NBjzzYHt8vS0basLdmvQwQc04WiuP46Wx1Rr6HOo+IzVAzGZYVDwuGiqYrCTKmlBgpOmnBmZaw4FkPEq6KD/JzcZmOfIFyc++Yz8Ki/hiPdJIyNgKaBxmpNlpuu0fXCLrHNESOJRtmL/4M3cBw9F1Lh8pu+DvALdg2jkCwpbc1y3hJdmKzUyNvH0NO5auxuFwrjhCMHqhI6MXLHVNlE3yWwl0legTE43lu3Jp0HtCRCBeHBOOL/fcwo38GqrVaqCAp6car4yLxYpNpO2NrQJLQZdGGBDQ7Y5hC9KgNEvxwX+ViBJC3ciMkMiE7gl+8NaYWYUruoiCJ0WAEj4rIioKwXFSeA67ghHgUs0rWWYYp9jYYtnrp7bnQ0UC/aHG1fxGmE0mdIkjxWFIdAU3YuXWAP2pIPaEJwvp2PLvZHMrKD7C17IKiCJ4iuAs7Qhp1LZwbCNQxPGQdydheEoaYkq6NWcV6zGknTdLKRdbUMqCRngDUL5RmUVNC2wpkBzri8wiPXXmMQerMBdE2WGJLmwFpEgDOtM0NI3MJxGqJGqCFden6SJ0fwmxEWwcxNIymNW4lE1S0IU5a6Ly2CicNueVX9pUKWJrROrpZh8k3YBXQusbhrSm0Qs8DZjG6TJ6wWmcrktkc4AN4gDZRmyp1vZXHmk/ChsJ1QxRLl3XFMike7oekesrXGtvwhU2vpXmoddxkLcLdLc5bjRmlsXpipouP20CBtCNTba9VYGeHVXoHRuDlbtyERnhgy+faIPZP2WisNyAHkEkE4w4pszIqbDihXFRnF5gm1w47xQbRNDtgWFvpkFhkoO92/qdk9kh1asUmD2pM6ICdULuFdN2eaSCcPCYQOGwI8Xmi/flZ14GgeIqcZzlv5WFEMkBWHgTATJIjOjn29Jpd985E9pRZYcZ6lx48ttL/2puLpiYIe8lvILgxbedGA5l/FaijJE9i84B/8JGabYLaeOIxvvSAQf+vIWdZ25h5TO9qTOeTQPPFLQBS0k4SLJBxj2TDiNi3zdpRuzFmKAA0cr0dBORXmmytybgSyMlrATaRFqElAMtqmnE0l+yGSCL5R0Fwebc/2FzLu2WQ3KknUaOALrN9kiT0ws2PdL4Y9w9/e7jSQuu/CdhzJ3H/t3n/d3f/1+MUYADWUaODHQnrcyGxsza5ghvQw+gKI8U6NVeh26tw/HjxQq8OjoC3+wpwo3Cerw/3hdjhneiB27T6WJ8tKUQL46PwPuy6AUJxHmJRFJ74f2uGLrgJlQmxiULYWXOZkOQJ85mW9T4ZTJUjhvNrZLz7yRN0+m4ZIKdAQWDLimxRNCU5fDKNDUOUwysBC+jOBfu7ytbPBB+J/3J/iZAqqS3y9/J9hrhG7n4bToDTGjxYuX8/tKopeeJlgD9kn1ua76L0yZTk2UGBJ8TWTSzOBhh3PK3lr7kz1KwdlNyTUVIBuNXOKwxY78CTa1KBcpJ5wgCukLBG4eNKUmVMZmmSzuwih5O+fLJHyn7OxdXbP7kEyvXBP6uxuIOEP3D19jMsP3G5RvgH3ot94+TpDuJj5Y5zaXNxe/o9vhYnK7gSHtoZRY8zLWiViqX8CygUIn+HbwxqEskOsV4Y876AmQWlNFvtAoFPAiNSkxlswU6nQ4vjgvHe7/lsFrNdpudaM0kVO3Ie50w9M0sKI3VMlrD7Rdo8eJLFATXJVvchUSCSblGK51ke91M9i425RC4X8H+coeso+0znZxIF3PheLe5EkKC+LC9uXzQTc9+S/d1U9CXiJqW7ASHgCsKNSlyhrNFdoDt/layjdVnJlxFFnGkfU5Tt0k93SYZack8DdgWdIUhS69p64SReC77otGCZWU7mJYxcwzDpSpSLaUkHEk/CTRaQHH8nR3j7rrxZ7jieFs6FHnUhy2tw+5kK6EZahNdjHCr6+d1xbVsPTQavagNUa2Ic5YUrMxARIgPusYHILWoAlklNZTXo/2naLESUpTExJo/qjVIivbChfQqmqVE6QXaukXIXzOj3gRMHh6CAa/fhIJ2Axa4O9cTKddobYNW+W+bTJ49WDpXDpqui+y3oqptqzFJfLGg8sq1Q0eaYvPaoy2IO4KeJmjdlERzxrE53HgtUTDsQdfVejnbyU10SIdEoA3dQR/laC3ln9m/i4N3E+/jHNYdO87shYyQBuwOveBA07WHSdGjKQrlpoXAXQKHvBNF07iIZthWVwv5P/zeKdq5AYN2EyLNoSvgt723G09qZgIEs60JASVbYs6nkWIiCgXWze1JQfn7I2nUo0+RUsmMUZJRpCZASrzDUNEqUKRoS73ZhBfvbY1rOQ34I7MYD3SKw5nUIpisRlhMShgtehiUFmi4Nq0ikQIqDQVnnVKDTrGeGNElHP3nX4XFWEGdHa7oBVd2FLd06WU2hq2wh+2Eu6jJOY9+58ezacSLzewKD+YPpesuZG/xGsHigsnNFdG5xzVvceAyHtYGT/jOkCORM0zmn9ua8Oz3vKiYfbivuD/EebTpJGPvEJW/o6xWiBg3bLdF7bDSpeB0stjCqzeBbHGsAk/OFTmbnSCAtns6tH1EA4t6kTzD7JV4C3Z5RppDekGsvSCP0yW3c0QV/O8ATiLVHTxDVv+1xeGbrqQBnXtXoWMyiS5bYQkYHEn8vwOX8t864g+caXF/ZX0EJwbTdNfN7Y7bZUbM/v4GDcGR2Tsi18i0Ysl5Q6Lh970WiM2nffDRoVy8PSkJizeSZAgTdYoQjYS15GZsJa/QwP9UYOqQKLx4fysMnE/q6TLQZf+5dyCcvTV9JFHMzRYoVSpeEEUub0j2HO1hy4u1Cw0veaoyd7axQu6yPcIPnMlMsnAFDtMeGeRaFXWz2x0pB4qL7Ba0GhoZu8kCNUn3FQ44PyhNtL4mad2cJqRzIJApnAIkTUUtzNpoAib8PND7i6YrTRYWC/+w3wnMs23agK2ws7BUYhGbZPuaz6fIAwtaKwk/I9XArGZWzN6eIyfTKHd0ikvDZoSstVrFQwFlwo4Vv2QOPvs9Ld8/LqHAyWaTQJdzuiR6wR1HGg0ZIy/PkyNchx813TgtOfYClcBPo1NmoMnRE2fm7wCbq5HKDg0vZSjbF03cJaLfg4m/pqRvM0N1ttCu3o55mh3nygiOGHt6xj7Uha0x83wT8PxxXjcU3zFi3trrMJF6t7yFtuBEI2Mi/2PxrLwWl1WDvQuiseWoGp8fzcOCSW3x9kZSCJ30iyBxktLhoY0I5QVKrCpMGxaDZ8fHYfD8qzCZKkXPt6sVcqWrCKLw+fFt8OuhfNSZzNA3mhEW6IGKOgOeG5eAH/bdwosPtMJHmzNoqiyppVvXaESgrweNKCgub4SPlxqNBjP0BjOtGxAWoEN5tQFLZnbGsovd0H8AACAASURBVA3XaVsjUj8gLNALRWUNCPLV0ZoBlXUGhPh6wGix0OtD/bUoqTIgyFdLd0h5DUudlmg5VmsgzN8D1Y0W9Gnjjbax3vjtxB1qcVTUGen3Ad4eKK/V0y4deoOJ1ozwI2M0WuHnqUFxlR6B3mrcqdYjxFcHg9lCiw+V1xjogv00vzde/OwCFBot1CoFSqsa4O+lRWWNHgE+WrHVDRl/ZJAXDAYTnhuXjCUbUhHsp6Xj9tSp4OuppfNI5obLVhtZqVKY8fKDXbBy8w3EBmuRW1qPiEAdGhpJdUczqust8PfWoLJWj/BAHWoagX5tA/HGgx3wr/+ehslgRUmVHhGBWjQYrLSLL9mPUYHeqKo3QKtWocFgQaCvBtV1Rmg9FBjQNhhje0dgwQ+p0Bst0GlUsFjNmNA/EdvP5qG4sqFJ9TxR1rnJ69ucS77J6PFREE2XxOl+jg6T3ARdmgYsgoZsywtSyWm3BDvNzE5Dsa0zIJMzfMCCl5z+00KiP4TScCqoVEJVI35w/8cKuKOsNwFoRJ8vr2ROnUL2GhmXvExIO4NNR5/L7yXXkuQvLP3OwZPdwSjH1/C4SPJ+TwyNBim/8d2xIqptCJ3PiX5qJhQECXYXdR4OvAoVDrwejM1HffDFkTy8MaUNFm/MAmlmxUIQmRgi80UKTpMKT8SpxnUg9G8bjNGd/PDm5kJYLaTrrzDMlmi6srmxm95nx7fB6atluH9gNNbsyENStAbj74pGZZ0Ju8+WYerwOGw4moU2ET5QaBRQmw0Y0y8Ovx7NQ1igJ+0L982+fJTXNOKNSUnIKDYgLFiBhPAA7DtbgnqDEZV1eiRHBiA82APhQd7YeioPPRP9UFhhxrTBIVizrwgBXkpEBXsgOsQX6w4U4GZRJfSkapdkw6NdtBe6JQUjp8wEDYzUUdmrXQi2nixCZqkew7sE4UaBHklRGoT46XAjvx4Xcmowc0gIdlyuQFKEHw5fKcczY2KwemsWnhiTBINJj5sFDTj8ZzFKqhqxdlZv/HAwF5MGtca59DvYdvo2Zo6KRXZRPaLCvGkPuZT8auw6X4H/TEzATweyMXNUEtbszsaoXqHw87bgSqYBFTUWXC0oQ1llvU04KNubVngqFFg4vQeW/JKO16a0xqtr0nD/gGBMHBiNg3+W44c9RXj6vkis3pqLOZPjkXLLjFg/UvhGh7KaStQ0KOGrU2H2fTFY8FM6jqdV0kpqVoUOZQ0WWOqMiI1W4blRbbD1TBF+PVWKwe188e97WuGpL9Iw76HWKKmsw/qjtzG2RwLSiypQWVeFMzdreESJK7XGjSPFb0HfWQBd4kgjjSlJnC6pvZD/ZySA2wpP/+gztPZCQDjSNr4KqNSQkiMEeoHDxl/VuR2MWQALEY8oolnROswTrzzUBt3bBEGloJ3a6MQYzVYs+SkFF7MqUVln5KZKSw6jNIjmNXc7c1AGplKwthKh3jo0NupRYWKZLmymWHykn6cOHkolbtfXU/7T1oyRG0o2Bk0zVI57m0L06TgxyJtfPn5ERPOXlJIWWh0KNUgVCAvywMOdfVFtNEGr0cBDo4GJ9x6zmIyYMDIEmVkmnEqtwdB+ITh3uQwKJTNjqbYLLSyEblCZcDStGhcK6xkY87RSIc5RoCAEI1BaM/fmQqABhH2mUSrw1JhEfLE1E/OmJOHQ5SI8PKgVOrYKxP5LhXhnXQ4WTGuPb/amY928HjR280JGNRJjA/HosrPYsagXTt1sxJKfL9N13jC/Fx7+4DJiwjzx/PhEfPlHCrrEByHEF0hOikK4nwpFpQYs+O4qlj7eDks23MCnT7dFcYMZCWE6VNUpcKfWitfXpMCqIM5GqYGkRqFAXKQfFj3SBmXVBmw/XYa4cDWGdovE55vTYFVp8cH09iitr0VBsRF+3uToeONcViMiAsyICVHB28Mbb/9wDW0ivfGfqW0x/5sULJzWDnpDPWZ/eQM5pfVYP6sPvjuUi8E9o3DkQhGuZNRgTP8wTBsWifc3ZGP+5CTUNdTgmS8yMH1YBD74LQNzH0xGlwQfBPmp4aMDPt1Whn0XC1FdX8+5YVv/AZkrYg09dU8S1u4vwr/GhOPXQzn4Zk5vhAX44MtdOfh25y08MT4WP+xKxfr/9EFsmArf7y3A9RtG9OsVgh4JSlzIqsS4HvEY9eYZ6E16dIgJxBuPJqK2xog5a25g9bOd8daearw4zBeL1l7ByC7BmD4qFDOWpeHH1+/ClGXn4eetwsgusdh+qQaD2pqx/VwxV4jc3FMOsVeGtkLODUmOyDlNoxdocoRTeoE60hjoMk2X3Yz9vy24NafP2oOpK4VUUBK1amDWg0kY0yemaSKP7IH5pTX4ckcWjqaWsVBrlw9gCCQ8x54Lln9Oxy5q3XZaJq/JSg7HO9OTaTPC2V+k42ZpBa+aRUwlJSb0C8fYvlE4cLEaa49ksPAovljSs9gncv5aeA9Rc5XRh3KfjM26O0BRR5qvQ31aRknYf28bRsXuyDRUJd56Oh7GWjUOX6ui5QQVRiPtPUauIrYIyfZiha1ZBpBAKJDygqTE4ttT4rD412qYTfXonRSAjzenixybuHdEWsaZgJIJ0Oa8Djwjioxl8YyuuFVhRJi/FWW1CqRk11DwuKdHKDYezUeAL9G+fShvWl/fgLbRgTh1sxj39Y/FpMWnMX1IDKoardh6poC+3+g+cRjS3g/7/qzEqL5h+GLTNfRODkK4vzeKKy24965A5BXr8dbaFEwfGYfYUB1igzyx9kgBxvcJwvmbJgzo6IH5X6fDopBz5sDToyKx5UwdHhsZBg+1FudSytA2zgO92gfj8003KFXg5eODuzp4Y+2e2+jSygudkwIQ7K/Cm99l450ZSahvNOFMSiluFuvx4gNt8OTKc1g0vR1q6k1YvTMPldWN+HFuL/x0KA8j+0Zj1+kipGXXoHOCH7omheG/267j/SfaIafEgNU78vHM2Ei8/2s6Pn26A77YWoqn749CdqkJBaW1OHihFJV1pECRHVJYrRjSJQgn02rxweOt8dJHRXhucii2nyvH+0+0ReswFb7aVYQfD5Rg2sg4/LTnJuZOjkdUAGn8WYtoXx0OkX57PX1x5noD5k2MxJg3rlKBnxDqjxn3hqG8VomvtqTjwyc74LV12Xjhgdb47I9MjOgaQHvZbT9bifv6h0OtsuC/OwoxonsoNp+pxl1tFdh+ppwrb7YnoMl5kDldRQpIZtvaR2lRR1oupxdIN2D/ZkPG7DVd23YpDnORRa1KDtL2JrVzScI4QiteGJuAyUNa8wNuRUWtATX1tSTzHVboEBngCQ8t6zdA+Kx531ylLUeEY0mfwAHYvtwDV6L597ZRA3LgkwMeva+Iu6zeKMlzmf1gG0zoH0OdMY8tTcXNO3eoqUwuTQoPxo9zO9CQqa923MF3R1JZXVOBqhFRlztUuBbPLBIpi0icPQcCxR2t2Ta0r6l3VbyHSBfJA5JkiRI24EfmQ4UlL8Yj/SbQJd6I0ABPnDhRgI+P8bJ5fDHEjC4BEGn9VCXu6RWEpdPaYPP+TLzxRx3enhyOTzZnUdClPaxELG3OgpESS9n6NG/tMO8y0dnZZDJYkDR3gXcXq/vSkDeWbkrLICqU8FZZ8drDHfDTsSLcyCNNNAXCiN2L6O8kyJ46nIQ5JXUtSXYrrJj9YDzySwz0378dLeK+NC7M6HsLgo29i5k6t5jzidW5II4+TsKQvysBFX0esUaYN0nsAcb3ERV8ZAhU+LF3Z0OTNpUozPm42SjI+SBzQHrGCU42MnuCA01KwGXKjEJ8tj3oCpah0H+GJozx+SWkEtGAxZ5s/MBZoAapsKuyAkYViZLhHZ/JLJN5UbG1I6Mg2Y7kkJIzRuZKTeszkJGytVBSq43bTrQUKZlT/k50bujsynwHf0fjFTYFiXNnacCipuuUXqBFzAnoqtCetOsREeevmfAONXH7D7n2eHenELw1g2Uvkad9tSMdB1PKUVBKWsUwMOrZxh8rZnaGTkuMVAXyS+vxxIfnYDDylD+y2cQuKoxjFLaXoOoKpqvguZRRaCx9UqAIxGXlsZd84Unx6DkPJeDBu6Lo4k/+IA3ZRdVQgjiaVIgLC8Rvr7ajfvkvdxbh24NZUFMthjX6owKGLjo5zLaCScBlGQ7bZO7zY8M0TnmKmAwC3JpzlxfZafh8FHTcUGDlK/G4eM2K7w8U0iLZtOA3hR3hMMhUAP5XckdSUps0huzbIQhnUytRa1Lirckx+GhzJhNnNtus5XvO2XFx+LkTnkXaL5K9IPCsVDAIlp8IXEI0ghDjLBOe9LxLaoreAuioo0TaabJK4HarIo2aAZcQ9CDFSQsRB4xs55aILDiCB12LdSKaHD17Z5HITTmI4HE8iTwVnOdwyeekmWgTYWbpn4KA4kJDbLrDqkLymswsS09poUhgw/MzP4PUAoln8oqRCfJdZPMK/B9SIBm/khdOd6fUo0M/jTgWBSpyTtKCN9SR5hh0hSpjAugug1JsTPnX0d8Zh8gmnG8DJbD5jT4I8vWiWsuZtAq8vvYq7VtEpoJ6vJWkD5cV3joF9i0eJNIe/1p5Hjdu19LF6JnggyGdI+jR332hENcLG8XOq2q1Cs+MjKbmf/atemy7WMJ3MQkTsiAu3AuP3x2H4d3DxKLOJ6/dwRd7inCrrBb1Biuttv/SqGD0ah+NhEh/KJRW7DiXjvJqJa6mVkPnp0D/5CCM7hdHvf/XsiuQVliHSxl3qIk0poc/OseG0H4KG4/fpu293/93R9Q2mLDwm6u4mFvDzDMrEOKvwYAOQZh2dxzC/D1hMAFf/nETpzOqafFmQXtztLfF1frry+YAALiOaFXg49mtcf6KAt/tZ3VxhV44JORKjJQg8byCU07UKBg0EE2EJFXoLRosmBSHjzdn0N9RoeRSIPyFC8SDLdmINpEc8k0qHEZZ7CX9mgOAeBiFWCV53K3wd6EjBv2dbXiZhBguFkdO/XAgYOOQwIH9lf2bK3TsUMkEMsMk55Etwmw2z/VLcy5qwrKmRs3aJHY3pgoDHxOzCuyCfziIyu/JSCoh3Ixp/cJ9xHeV34iHkokal3gz+zl374C4itxyoEcyRxrpBnzgC4nTdVjwhsbpOtN0bQfoiGZwdBwcv5YkX8iatG8ViI+e6gJPLdOkPvg9A1vP5LFsJZEyYAeSVIV7Z0pbjOgZQTdaeWUN7ltygYbpTBseh+fGJFNT9fWvz+J4RgNLNSUQqFXh8LsMrPeeyMG7W0mRCyZJ7+8dhvlTOvCWJEwaSKa+Bd/szsGXh/JhNWlwaVUfWKwq1uKaXsek7+e/Z6FVa3+M6xnKYgupY4htld+OlmDltptYODUeo7ozWuLj327iX2Pj4e2ho7swp7ge05efhVVhweTB0ZgyMAZhAV6iBkPfQqFAvd6E9UcKsXZflkzq28WOyhai5RmBDlZMiO2kAkGBT2Yn4NwVK77fn8WsIZ7FRuaElE8khURUakoC0eIjRDsUtGBazIVr+40mNRZMjseHpH2PnQbTHLRKWXaukkukoBERzMV4W8kUlOoqyiBfFgMqpsJzJVWe4GBrSxF9n7SS10jtvMkeIM5gUoRFtFBsnyMRO+yt5REMol5Ml4UJMmbBsfhosh7MpFdAbzLSfashsamcTKHyzUSpd1vrSLbMtlQU27c2Y7IRSo7IzaaasQCM7E0lOoPsBKPFCLWS8i7sFHH6h1xLHsX2CO9MQrc2+beSNA6GFmY0mNlvGT5IWjZtbc+FN59I2+wM9qHtu/0FGe7wJ7I5Et6ZFjGXg67D6AUbekHSdB3zuPK43L8OyOQFxvUOx9yJ7ekaqBUKDJxzAialnoassTRQoewf4dismDg4BrPGJ1KujWib/WYdIfoTHrk7Ds/dm0Q1r3e+v4z9aZV0k5KNp9KpcPDtgZTn2XUkB+/tzKEB5zqNGoeWDaBAWV5jRHpJI86lFWFsnzDEhwVQuCBxhL1mH4dVo8SGlzohxEcNX19vuuB5JRUwGCy4cCIH9WHhGNFWg9jIcDo2EhtZWVOHnWeK8fOpUiyamoBRPYgWzA4O5blMJlqnddVvN7DxdBHaxvjhyxe6QaMiTcqBGwVVOHG9HAM7hCI2RAdPnZau+ZINKdh9oUSkKFjUhJybatluYrKJa0SCaieq0bKAeqsSH89OwPkrVqw9wIBfAF2T2hMH5sbi4a/zMTJZh0ltvPHS/irGyVmAgjsNFHyY2aiA3qjG601AVzqgrt7AmQbCdqO0J+WaXqCvFhqlEg1GM2rqDIgK9kRFnYk2eyyrNiIyyAO3KxvhrVPS2NcGgxl1jSQawBO3K/UI9tWA0LwkPjU21Bu3KxpZK59g8r0Rr09KwNKfbyAowIvylRqVEm/NaIdnP75EGznaxkoLYxRAmOvTTMLCQ6uisaVeWiVuVTQiPJCUfVSgql4PH50Kag1rl0SWi4StLn40EcE+Gjyx6hKiQz1pGNzDA8NR3aDExhO5fHklekIUAgKjzPleKV6brYDz9HvnACYJRoZxGoUFsx/qiuVbMjDn/lhsOFqIqrpGqJUsOonUziXRSZW1BkQFeqBWb0FFvZ76bmJCvKBRqFBUoce2t7rgyY/TUFpphNFsQqsQb5RU61FvMCEuyBO5dxppz7fIIE/klzbARIOfHe8ktuXlgtt2zzh6b0ZHOspJkM8F53QFTdcRveDlH30m6cElfTwDIpBKoxcIpyunF5oO2qk54mQdmij2IoEOjO8TinkTO9LV0SjM6DP7OOVLacdYDk5EwyXMLYkPnTQoErPHJ3GHmoUCIqkI/9iwGDw/Oon2sH9/XQp2XiGFV5gpotIpcfCdQdRBsPNoFpZuz6Wgq7Ao8NiIeAxoF4gT10uw9kA+k7ZKJT6Y0REDO4VQmmXA/AtoIN1pYcXc+xPwcP9oWBVmPPrRVaQXNUCpINQ/kBiqw89zelJwX73zFr4/nA211QirUoFFUxIxsns0rzdgxU+H8/FnejmUai1OptyhtMPalzuhXWwwnfAfD+Tjs91ZXFdQYkCSP1Y91QkWhQq3yhvw4uqLNGDcLg/or0vyZpQAMZECSnw0KwEXrlqxdj8ZGwMMyupavHD43WSkFTWgW5wfakrrYfDUQaUxYdf5SvxwsAjVDSZR8TGYVDT286Mtck3XudbeZBc23VQMamXksPzwk4+fHdcWBy6W4NGRsfjtcDr6to9EQoQHikob8fu5O1j9bAc8suISXhkXB71FhZpaPTaeKMeUgWHYeDwfHVv7YuY9cTiWUoYb+UqUN9Sib6IvrBYzUm4ZMKaLH/67uwiDOgUjq6QeCrMBL09IwlMfnqfB+/T8O+XcJHcauaRLoj9ahQXAW2fB2fRKtIvxxugewfh+fyEGtQ/B6cwSNBjVGNjeH3uv1uPp4SEI9vPA+79noHWEN9qEecFsNqG0yozfTxLLkc+gTWJjUxBu4oTlRa+cUjJOpKOosZMC9goFFjzaFYs23MT8B+IwtGsQftibibF94vHL0Ry0iwlCaW01vtpfjJfGtEKvJD8qPJQqC7Yv6I/FG28g3N8Tz42NwYLvr+OJUa3w4R85iAn2QHCABzrH+2DPxWrU6fXoGO2JwjsN1El26Oodp6DrSqg3UYwd0FA29+CyU0yOkNMLJHpBngYsgK6HDb1gD7ryHf73VXTG/VEDHeP7hmLehA7MNIIRfeechFXJvNlCmih5oolqc0pMGRCOWfcTjZbU27SgOwFpmPHY8Bi8yEF3xYZr2PpnBd/ggEarwMF3BtM52k3ohW05NLaUGmpkMgkCK5Xw0aoQ6KeBp1aHWeNboWubQOoJ7TP/IhSoozG3pIX1lH7h1Gc985NUXC+spP5WMp7W4QH4YVYX+hwSCvPD0WyozAZYlEoseDgZI7tF0SS/4jI9Hlt1CbUGA/Uuk4XSKj1w9P2+lL+qrjHgudV/4nopaUCigIJU3jdZcGxJH3h4kO6uwNyvr+Bs+h2HpefYZmi6To4OlDubT/ydFfjw5SRcTDFj7QHeB4t406luSUdKi0ezcA3ucbcq0C8JOJ9BiodLGUtmkxLzJydyTlequ+rOeBh22dUycBDFIPqGAKrhPjUuGf/dchPzprRDhL8FH27Oo9TS+iN5mNQ/FF0TArBuRwVCI00Y0CEESpUBT3yUg95tNDh3swIr/t0J3holvttfjIf6B+FKRiU2HCvHspkJIHHA2bfr8cnmfMydkghfrRWf7LiFOZPj8NSKCy60RjkgWqnF1761P9TEHlIqoNHq8O7UWChVarz+XQrqGyyoNFiwYGIbGFTAd3tv4dHB4TTDbc2uXLzwQAxtf37kz0rcrgY2ncj568LY3QWRXyfbesRaJf6Yf49qg28OFuHJEeGYNjgaPx4ugMFAA30woX8soGzAxBVXsWluVwT4KDDu9VOoNQGfPNsLL3xxHjOGJWDSkGCMf+sq9i3rgx/252NouwDsuVaO8mozpg4LRWaxnnZJTgy24mhaLb7dlSdy2n/lNcTf2NAxDgJmHNILJ5BzYLXE6crpBQa6vAX7xvmkhzPTdMnRpmEqcvPHwdDdZeHtfipwOON7R2DepPZUEqsVFtw15wwMaGSgy0NZTKTsH8eR6UOi8Mp9bShgk+97zjlMQ3ymD4/BCxx0P/rlGn67WM41CwvUOjUOLx5I32fXsWws3pZNzUT6DKsSL4yJQ2yED4K8PBAbpoWPl5anw7JM7b7zLsGqICUOFXj5gURM7Us4ZQv+9XkqrudXQmU10dz9uAg/rH+5O5UW/91ZhB+P5XDQVeDNyckY2YNoukBBcR2m0IPIEivIuwxrH4wlj3em5kvWrVo8/OEVmK2kuy4L4SEm+vIZ7TCkUxh91vw1aTh983YT68kVGMmN2uacIPYrLXBvy5/vhKycRmw+Xizy1uw+hGgjoVOMECVcLiff6KHjvaX5diImvhWP3hOGj7fcFON03VFLRI61JafIasXSmV1pYfUIPwtuVVqw+0IpnhsXhdKyRqzckoc/3uqHT367jufuT8Yzn17C4sfa40JGFTaeqkCfRB3O3izDksc7QatW0gyqEX0CcCOvEVvOVeI/E8JQVqeGn8aIjzblYdrIGIT5arB6dyE+e6EDnv/0T2qdNO8Vl07282MjcfymBf0TfRASqMD6w+VY/mQSzEYjvt5+AxXVCtyqt+DZMVGoNWix++wtTB0ejgAvNRb+kIOnx4ah0aBEYYkejVZg4xHmIxH+kwtRVsBAXoigWZPHRYgeJ3cEgWi1Yni3YBxNqcLyJxLw2neVmD5Sh2l3t8YvBwoQGuqHNTszsGhKEq7k1eDTbXlY8lgb6HRazP3qCi08vv71fsgqLMORK7V46cEojF14BdsX98a6vQXo0sYPhjojNl+qxeRBQdh+thy+OgsGd/LHzvMVOHa1xFVEoSTtHPAQ9paSe1uOMc2kBXuuALr2mq6YkUY4XRF0l3JHjdCY0lGVKseL4+jTJpYg18LI551aEbO5Czw1ahrvSoLlvztWSItcEMYnIdgLNY0WFFUb6OFcNLEdJvSPpBu4oKgU961KoYJh+rAYvDymDaUXvtp0Dd+cLqcvT+L9SHzvoXcH0qfuPJ5DQZfICq1ShTUvdkXb2ABROaxtMKKgrB6hAToEeuvoGPq9egkmkE4GSrxyXwKm3UVA14ynPr+Oq7kVxH1EKYXoMG9snNWLjuG/u4qw9lguTSW1KpV4c3ISoxeUQGFJPSZ/cIalwvIY0jHdQvDGVEKzAFm3azFl1VVYYGBJKjReE1g0oQ3G9Y2mrc3nfZWGMxnFzQTnONsif81S4S4LjO0WhgeHhXMnBg/y4bfkopFDMHPyCKFLzM0hHHz2uz2XavHroULmvGHcgNN9LYTAut74tu9H/ABEOBNtfOrQOGw4ks/idKmywILAaBwsjTcVWsuT73mGGHPP8Ow8JkqYGkL+xsr90N5qpP4ElSzs+Wy8wn3si+E4fwsyLEJFto/zoU6xy7nV1Boi4xdAmzrR+BhY9KzgeaHRr2y8ND+FJHyIHsCm+pPdVnBjGWwG7mon0bY5vJAQbezAPGCcYeEOOAux9Fi8LbFYaWEcvtgapRWLZ3TEq99ep25a5kKU1oMqI3REwkjYLLG146vEOB0bTd8ZRgmr6nqP2d9SfkfmUajIPoGcg6vRQUiOaFplbGkfz4BwpP4qabp0m4rdgB0MU+h/5NCsE6o02eou9k45cleS6vvr6z0R6k+cU8C5G8V4/rsb0ButtCHdscW9UVlrwZ4rpVi39zYOvt+bmbIK4JElp5FSTprfWTBzWCu8PCaBAt7Z09fx9G+ljMSHGR4KK45+cDfVtnYczcKS7bl06VbOaI+BHSMou7D7fAn2Xr6NshoT0gpqMOehtpjSP4Ju4n6v/gkDamko2Oz7E/BYv3BYlVY899FNnC68Q59BNldkuA/+mN2dHok1e27h68PZUJEmiArC6Sbhnu5RVL0uLK7E5OWXoOKgSw6at6cWu965i2rexRV6PPp5CkqqakFiJdhRV2LPwi4I8gugB3De11dw5ibhrJrqT3LbpKUhL020IUFACk0sedw0PcrNgCS7jxxEbTUqtjUZ4MkD+11veAn2HF/bVMTTcVCM5QkPnPsVnUbiYeZjduSxl/vhxe/5TAtOKLsYKHaZK3tCWC3JqKSuGv6aJA5a+IcAOdLcS0LNPuBOtD4IBCtZIgKbazYXNMqEl+q00mwLJohcj9f1CtlfQVdEyA6kUyxLIqHPJA5BnqggKzMpRBKxTjzMUUyupUWW+FwT7tZoIo5FFlzGqrERUWTv9HIlItx7L0fnyfYzmabLQVfjH4brrkFXruk6H6xtSFJTr56r16TbzaqgoVavTiWZXAqq/a3bX4DvjhVAZdHiw3/Fon1MCKvlyrN0yHyXVtTjweXnKe+jtJgxc0RrvHxvPNUClapydHzlKpV2tg8NwQAAIABJREFUWlgxpGsIVjzWhS7T7uNZeGdrLnWinf7wLljMOhrg/9n2bFr8g4SmEO52xYzOGNA5kBLy/V69Ar21mm7Y2fcl4LH+kZReeOmLTOzLYqBLfpcY5onf5/SgoPvN/mJ8diATSjPLSHv74TYY1Z1wugrkF1dgyoo/eYowM8OJhN+7uA+8PUhVKwve+iUL68/ehpZ2NrUgPtgPm97oAotVg+p6M1756hJuFpJWOq4OdXObqfkVagJfYoQEc545hj8n95SFOzHdQxINNtD8Pzr49Jk8hFCelSWfHUGbZ8qTFAplKzr4+wlCSBRG0v53pkkJ89VkxWQ/kExaK42QaDSaUVrRiKhQT9TrrdDrDfDQauDjpaEx29FBHlCpVMgrqYOXVoFAXx0K7tTDS6dCWIAnyqv1WPlcD8xZfZF+RyIy4oO1GNojloYeRgaqMapva3z0eyoignTIuVUnrYyTveXqXNvOKZvLYD8dfDzVyL1dh5AADTRqDYrK6hAR4AE/Hy3ySxppqnRdo4VGhWjVCsSFeiHrdj1MZjMSInyQXVqP16e2xadbMuGjU0OrVSPU24yl/+qLGSvOorK+HlMHReHbvQWIC/NEXpkeVrN91IhrcJW/n1vsqYOLygi94ErTpQVvRE1XyEgT6AXuuGBBgi7/c61dSUYBuaHFosJrE+Mx/q5YHlFlRdGdemQV11J+tG9yCJQk2JCbEsTknrjqJq4XlVBznaT/zRwaiZfHJjPti4SNrbuK30+UYvaEZEwfHsVSKq3A3pPZWLg5h77GqeVDaacDYrhkFpZhygd/IiEsAPMnR6FPchhIviUB7l5zrsGkIDUWgHkPxGPagCiqNV/MKMX8daXo4VeKHbe0iA/SYOdrvWjKa1pBFf71WRZiAoy4WdmIJZMTMaYHiXpQIP92JaasFEBXsMCVGNw5DMtmJNN027p6IzYey8LHe8sxunMQ5kyIQaCPN51/0vxv0fqbNoauw0VxtWPsTk9zh0niAR1kLIkPl2ltNgOyh2c3NpHdCzncU/z9bHlsQZGyS/eW6d2iZ50/Q05dyL38olRpZriis87ZtNhTpvbvJWjQwuQzTQQJUT5oG+WPnkl+SMurRHSQH0ICVNh2+hb6tA1GcbkBF3Oq8dLYeBz+swyhwSpEB+twOacW59Mr8cjgKKTl6pHUSoOOsYFY+st1+HpqcG/PMJy7UYXhPQkHDBy7WoGgIF80NtTjZr4BMaFK/HxYiHZo+ToJ8krACXIHM6x4ckQrDOoShPNZdYgO9KCx6V/tzMZbj3TA9pMliI7ywEvjYjF/TSamDg/DubQ7yChpQJivFkM6BWL3uXKM7BsAlVKNDzdlICHCD6/cl4xfjuXi6bFJ2HUuH3+cyEX/DqEIDPTDzfxqDOoUhDfXprjJ6zo4Qc4OhPi5JIClh7A5K8s+jtyDX6LjhBVQ+4fhxqZXUeWwylhL6AUXh8I18ErZMvRWJguW/7sz7mofwoh9bhLSP/hGFLYAAcL0gmp8sDkXacV1qNEbEO2pxraFfaDRaCTGS0nqQyqRmleDhCgvaFUq7DuZhdc3k5AxK1r567B5QT+S6c0epyCpnizXm8RiBvvq6FzO+TId+9KLqdb78r1RmHl3a+5kJN44M0qKSjB0ZQ6ivNXYs6gnVAoNF04W7Dldgrm/ZWDZ1HiM60H4WCXyisoxZdUVmjMuJWIQLV+FV8bFY9LgSMrjsilgvCDhvUgtgPTblXj8wytiQz0KZ83hoAsRaWtJOzcvXTnopMfI0UPqSNB0GOw6uWb317R225PhbN9Jn9v6J5o83+lBE1PTbLlnnjxi46gSAN5+YZwslP2Yyb+7JhIrS4Gc0ka8OikBPx28hQf7BiG/woKCW9WoNihQpzdhxvBYGuf9zszO8PdSwWzW49v9xRjROQRv/JBKwful+1vhyx2ZmDkqGRqtCrtPFaJ1lC8a6w1IahWAnGI9xvUNQHF5LTJv6bF0AxPo0js5npSmc82VKS57hd8TZeXJMQn47fgtPDIkHFtPFmNw5wDsu1iJ0b1isPZgLqaPjMUTIyIwfP5JHFwxBAcv5CM6TIfTGQY8PCAMo/5zCglx/nhocDRWbkjFp892QoCfN3aeuY1HhrXCuoM34alUoNFixqN3J+B2RQNC/VQYt+iiLM3cmRBxR3eXrrHbcXY0mkAvnEDuwf8yTtcvDNc324BuzBnWI81W02UZV5Km28RkaC4IhZtxzkWM/AX44SPLbFGid3IwHugVjKE9AqBSqCmXScDHoDfivd+z8djQKCRE+nBS3oKFa69j85U7lPe8q20wZo2LQ9so8j1NfcJnW3Pww9FCHFvWm4Lu8YtFmP1LLtVuSRbLo8Nj8fKoCChUHhTrS8sNWPBbLiKURiycEQOFVYuy0mqMWJVBnSkhPhrMHd0Go/v48dAoJYorqzHsnRRoVQrMGhOFGcNJpTQydyo01BjRY+FZLJ8WjdGdQwGFGrlldXh4xTXqpJN8TQoaHmSxqjGwUzBevicUcVH+LAAeQFWtAe/8koU/cyrQ0Egyn9jOZpqZU8PVOeTaAYA7QpJpMc3wfk73rpN2QS5tpr9xQTOSSBTizVEz8jAgQeg3578Q6QamqbL/JAcai/5gCyZpx8IaMuEjNyODAzzx7JgYaFQe+OlALl58oDUtpL7vzzKq/d2pNdAU8hkjIvHxply8MCEBuUUNaB2hxUebczGkUxAGdAyhDt25E+Nw9mY1EsM0KK9V49L1Qjw+LgkqqwJf7MhC/y7hVJse1NYb3+65hSu5FS4iLZpfF/omYm1m5kz794h4jOgVhhWbbuLxUZEoqzZj0U9ZeHIYqTFcgpn3tsaMESG4e+457P5gIJb9fB2jewVgy6kqmEzAlEHB+OVEJXq398XZG6V4ZGAUUrOUiI/Wo3vbUNyqqMWcz6/hkeHBOHHDjGlDg7H5VBWOX+HlG3kRfncjSGyMN3usFvUKB9l43D9Qli0DXc7pyjTdmDNtOehKjjT76AWZHiOPj2xh9F9z2rqwVVmgPUuEIB1kTUbyKwOtPGQhHk6lGqunJ6JDQgCNXR311jmYaOUiK8zke4sCHmoPmIkr2WqCkXpEScqkknK1tPYt/R8BcyuN1zVb1VAptRSU9UZSy4F4i0mleSXNliFcMiUhiAOCjkYLaD2hsWqhNNTCqiRVtlgXBVrcW6GDp9YLMDXCaKlnnllaOUpJoymgJLWUWCyy4D1nnl2eaEB6LVgI2DLuS2k1w2RppOFjQtublsCRu4Da0ns6cuI5ig92977/xDj/1j2aNRkcadSCwJOEkeQslikWDnhfGyVGxg+Tz2m0BS+yRHwFxNoh9BgT0LJUXLEGAnuWhA0y0KflNm18VywsnRqTrJoYzY/kldXkRP1fyUYT3st+Ksn7sM4hVnq+mfxikRZ06wvh8hQcWbQIKw5F3oV9Rs4ufRcyKRYWqSC8mxRNomTVxGjTU0H+Oaea7Pemu/vHuW4s13S/5C3Y7ZIjPP0Z6Opkmm47UmXMgaZr6zhrht512961HzrbsnSaeU6/uJH4paScHQG+thEE1BqQXsoqXAl52Mzzy4tp8LazwhakoMuDbwT9mmXFs0WXM4+8eBMN+WdhOEwboT5SagGwEB5SYo9sHsJbse1B/keiK4TvGKfFzDXWYcqxA4qNQxgreyP52OQVloStwmfHyQ6Qf9zcZrJVsuQuMimh1hGYuAWmLvaCu5vcrWf9kxeJ43Y2uXLwExbKBQfqiG4Ql1K2K8RHOvhMwlM5S20Xctf0XDk/reyGwh4QymWydZGESrNT64LYtn9t9la2YYLOqAqbcdusiYOx2TyIn3C797CZPjf3i1PKyhGNxDP4yrNOIPdQM6DblF5YxqJHxeSIv0aoi1KvWQPYBhoYzydOBlse+dN5gTcKg1QrIOhIan8KkSh0LbjU57UeBQwmQMjgUmjCKICktLS2z2KfUwEkbEwCsbzoiASTbCyswA7hX4UYVV6wQ/Y+jK1uepCld2YX86TRZp1l9Df8h/bB7/LNyhxFXNq7KRCdS3IXniH+rmwqbCNahHvyY96sCeuam3XzxPwvL3M+SS55dneEjTzEsin3LBV7YaBpXyfaMQ0kroFd9IV8mtzaIk2Prc1MNzM1bqyI7a8p9WJz5mxGK0i8JvcV50yItXHrxaTbyH9PY39p3KFABbHrmIInpxmYxVqWebw50GXtemzjdJtGL4hDkTsOxLnhhYbdwGa76RQdZvQg8s6ngrlBQZW+gwRBTK9lPCdbCxZ/KKiPrJGPULeB5UEJFYnE8HKhC4QM0llSMpfuHMjIH1Lxa5aWTEGbIzDVekm/MNEAYt8x7VjSfOn3JKuOB38Q44k9j10vThs3K4nJxOZDus4Wp7lgEtZCWHyZYJDMfBGVZQAthE8x+0DgGvmekpbaBX3kGDj+3nETHu4uiLg6wc5G4875Y/uqeRbQ1fP/t99LYowN1RG3Lxd1bKcxflkoOC0L3hPKa8qk+V9zbgragOx5jmo42E2OMN8yrYuH9LJ3sKfU5WsoDNkRTd9knzpZ/CaCTVAg5DaF3CzkSoXt7xhdwkCXO9L8Q3F9039cRS84j9N1S0K7KXWFpZGfcmbGE22RSzcryUWnEMt1RAJyQrA3Md0ZsJL43t2zuuKzg8XYeqkMGprFY2JmPq9tRTlhrl8RYCMgSOeQ0AQKQgpIT2FQD9AUZIWK0LCciyXsEoNjwjuTTCZakIfyY4QbJnG5hI2lrDD9PS1jThVE8kAVa8bIK96z8pCMrBAECbkf6wpAWkiTCAciZoSV5x0meNV+JhbY5hY0emHT8q1q0ylBCo8S5pNLbD6/NuFTwjPdQSj5AbJLMOOwLwkXF5v+nwAq5pgS3k2wvu2D8t3QElwMxvV5cFSnT7qp69/LrpW9D0fPJll8TYWVdMoclqVsTqhwvHamaToFqZZQE66cs060eAGEGdgK5VjttXtHIte1UuBquwt7SxRIdpouLTsr03Q1HHQdN6Z0GKcrU/v+ViC+/e7lh55nqmiVwMxhUeiQHEzKfyH3lgmfbMtCo4m075ZUewJyNL1XocTTQyNgtZqw+uhtmMzArlndUKfxop5dpcKE+Z+exIDeCXigbzh2nyvG5vPEk8m0gSFtAtG5lTcMrPINNCoFNBo1jqWU4EI+qSgGqFVqzBobhtbRAYDRhP+sT0dlA4mosEBhNVOwtUKNFwd7o0vnCFgtKvx4pBLHrpdCZSXjZo1hiEPuoS4+uHdQBAXd3KxqLN9fCqvFwJxjotnCwMFkBQZ28scjg+Ow8cAtHLpZxmowyKbwnm4hGNMvCn+cuY2Dl0rF7wjrHOanw/P3JYKUMiTCZf2BXJxLJy3NOfhzjX768Fj0TA6m16zemo4bhSTVmaE3sTD6tQ3FhYw7NDvQoQbRjCbsemv/E9Da9B6ONGTRlrAh0wVOlgNzC/FXVHjklmULX9ohJNg5vVyBcnMAId5ffoRFxYLxqmKWG19gAcREceVGaL79b4S9IvLEgsYoU7pFyk8+HlFQOtBqXVhdbu0mV2hqdxNbesGugp3NeOQryUo7MtBlmq6Gh4y1AHSFkbjYUS19IT5ocuBJEZHVL3RHcrSfyLlSs85Si4feu4qCMlIAh+0c6mCyAnMfbIWHB7YmdbIxZMFxNBqN2PJcR3x/oho7rhIQUkJvMmB83wgsmpKM7/fk4fN92TT7jNRB/v6pruieFMi1S1LJi2kEH25Lx3eHCxET6Ikdr7WDQuUnbBlan3P2d5k4nFZMpatVpcAnjydieKcwquXSnuVQYMWmXHx3PJe+C9Fyx3WPxQePRgNWUrScnCorfjlZiSWbUqGykNLfvDY+516NUGBsjxC8O60Dlnybha2phSIdQcbordPgk2e7ICnKD6u35eLnYzm8foEVHWJ98eXLPWEmiR2iy86K1bty8MvhXGpaenko8d+XeqBVCAmtY1EcZKzLN6Xgj5OkkI0CP8zticp6C0ruVOFd0kb9n9j0bpwMl04LJ/cQ9Vq7KB77bSlTgOmcSWY5W3/B8hFf2M7BKrcE5ES/LacuATnTiiRLhCtmNm9hb6HYcPB2dIAjykPUvKg/QXLUMhZM0gIFqkTUDgX3s+Awk4GeEKcrH78waBtQFbRvO5+uiK+2sk1kvQQZJwG27BP5A9yid5rHJmlPuXud403mSqay5zBisSzrBPJE0A3F9S3/QXWeoxbsv84D1FoHLdilx0no39Qf6koqy19FuCMB3fcfb4eBnSJpp4G532eistGEb59rRw30Lcfy8P4fmTxshmmOgWov7F7SA2qlhv5m4MJTqDWY0DNGh7wKK8rrjRjbJQhHLpZgSO9ILH6kA77ZW4DP92bCZLVAqVLi4nt9oVR4wWLQA6QFNiVXrVi1MxffHinC3LGJmDm8FfQNwLM/pGBqvzCM7BaCwrIG3LP4HKU1AoPDceKNNrCYVPhoRzaKasxY9WgSGg0mPPPVFZzOqoXW0x+Xl5DSlVpsPH4Lp7JqsGo6KU0JLPjsAjZl1tMwMg2hNxQqDGutwfYcPR7oEYgl0zrirW+ysfM6B10LaX7pjTemJSMx0p8e5k//yMHGkzk0TIZotp8+2x2xId44l1mFdfuzcU+vKIzpFUrB5OWvruByZjl6Jwfigye6gIT7frTlJiICtZg5KoG2+372swu0ItZP83rh6U8vY/FjnTHn64s0fZn+18I03Sb1NjgIyTVn+Z4SnBL2imdL9hYbpq2pqVIp8FD/SPxy9Bala3wUBowZkIBfjrLuvkRg6tRqavnQMXN/ocily+ooCCCnUivx6MAI7LtSjlvljeKBoFQSeb5SahwpUixc26b7X2A7BG++RBQhLEBLvy+tMcFiZjE2ciATHjaorR/u1FmQWlAr9jUkz48K1tLOv3WNJtzXKxwnMqpRWqnHuJ5hOJxShpoGM+7vE4ZbVSacvVHGSqsqrejUOhAXMyuQHOWF3OJ6GMxkwJzCkvGydA4EzptzwUFeSpTXk7njhZBsnE4K+GgacHfPBGw5cwttQzXomBSOTSfyEO2vQniwDy5nV6NTKz9cya1GnzYBOEOsMxHUHfHVbkhx2SUt1AvF1kByM68JtWAn2ATQZdELXNMlcbqktKMj0E39dR4UHHSZU4mxjfLYS4eb34EIEDeZ4PCSnSL5PUhCxJcvd0RUgBe2nryNj/fmU61ryqBYzL8/Ab8dysbKnbkwES3SakWkvwd++083qJSetGAHiVwYsOAEqg0WWiCH9FwgLVIeHxiGH04WY0TXELz7SHt8syefarpGiwlajQcuvNcXRr0S8a+eh1rJSiiSvgwKmGi75p+e6UFLx723KQfrTuSjc6Qn1s/tQaej6+yz0FsasOu1dogPi0BxRR0GvXMZfp7ALy92RmKkL+b/nI4/zhVh7phoPDUiEWaDBV3+cxpGqwK/vtgR3RL8kFVShzHvXUWvVh7oEeuLZ8dH02ydhX/k48FeQVj2SDss+iYLO68X0ciIcd0DsWBaF+iNrKKVVqPCx1uyWJFqWJAc44O3Hu0EnUqJN39KRWpuFa1YdWrVEBo/vPlUET7cdB2vTe6I0b3CcSq1DK+tvYIAbxVWP98TkSHemLnyAtJvVeONh5MQEaCjNSUIO75kfQZKqw0t2+U2Ulam8si1opbyu8L1Dn8nVw4kC41o/B1jvbHy6V4Ys/A4WodqMXtiW6QWVqNVsDfmf3MVQX4qPD4iAR9uzkGH1t64UdiIdtEe1DKqrtMjwMsTCqUFNwqq0S7GDyazFcG+wFNjOmHB2qvw9tTgdnkNIgJJFqMKablVVIh3iQ+g3H9mUQ0SIv1gMJlptwk/Tx3tfJJRUI34SH8aV55ZVI2OrfygN1hR3qCHVuWBxQ/HYeG6bDQYjQjwUaG0yghvDw1uldchwEOFicNaoXeiL17+Kg3B/hpolSRZR4+VMzti2W/ZiA3ToLDciH+PiEFaXhVMVh26J3rTdf92dm8UlTTgzZ9SaAEc0i1j8oBwfLu/AKN7h+FYSi3iQrWk5yoqa4wI9NEhv7Qawb4+qGtsRFSIF26S8Uf4o0FvxJcvdsPUDy7QOajTG5F7S48Orb2QmlMNowX4+NluOJN6B7tOZGHUoNYY3C4ce65U4rWJrbF2Xx5W78jCS/e1xmc7MqmwX/QjqSAodDN2b+s1p426RcXYUwyunMk89E2ydJhvpizruKTpkjRgkpHmXNPVyLoBO85IkzQJmdFp90Y2/3TwtpLVpUCIrw6eGiXyyxtgIEQprHhscGu8eH8Cfj9eiOWbb9LECAK68+9PxJTBrVDd2AhfD09aGHvgmydoi4/PJwTANzyEGuvhfp54YMUVjOwciKXTOuGbPQX4bF82TFYTdDpPnH/3LhitJrzy1QUMahuFNSfuoKi8ltbm9fZQ4PTS3hTY39+STjPatAoVLq28iwaUP7T4Im6U1eHqqh5UWy6+U4IBy25CZ9XgnUkJmNAvHCu35mLNsTy8+3A8JvSKwd4TxZj1+3WYlGr0SIzEz8/EI+tOPSZ+kI6TS5Kwak8JHukahImf30SNQY8Hegbgvcfa4601WdiVdosagq+Mj8PkQQl4c0MGHuwXii6t/fHxlmxsOpVHYzpUSiUtaqJTAaW1Ruj1xJEIHFsxBGazCis2Z2Dr6TwcWjYIKpUGh6+VYeHayzQUfc3L3dEmOgBLf0nFrgu38cpD7RDu58EKjyst+HgTAV09lb+OPdqujC/3Ds0/dZVEI7Bx/bGoD5b+fBNTh8UjvbAKPx0oQkU9oa2YJhfoq8HjIxOw7kgRJg2Iwuc783Fv9yA8MzoWJ1LKcDUPGNbVG6s2puPt6Yn4YOsdJAcbMG5Aa9ypqMeB83cQHqrEuF6htMj54aslGNwxEOP6JeJ8Tjk2HcrFoM7B+Pe9rZBT3IjUfD0GtPfC7C+vomubIDwzNhaHL5bAy1OL4jozUrMq4aFR4MX7ErF4QwZm3B2J0AAPvPZNCjw9VSgua6TO5tgQL3z2fFdM/+AS3p3ZEY0GIxb/mIZ7ekfi/I1qxEboUHi7HvMnxyHC3wOPrkjD17O6YNWmNGitKnRI8MP2syW4XdlAy6s+PDgc3+4rwJg+YTh8rQYLJybhl1PFuLtbMAZ38MaXuwqQU2HGiLZ+OHqjGne198P4fjF44bOL+O+L3bFmXzYyU8vRo1c41h8ox6wJkXh3XRpdVlIH+u0pSVi1KQu1RguWPtIWl/Nq8NJDyfhqZzq+2VmEWZOj8dHGIjxxbwwrlM9NAjlVYr9H/umd16xV5RDL5I485mYvz5JHL4QhzZGmy0LGCL3AQJd51e0K3jjwpsjH4NIE5BcL3lAeF8VDxaQ21vHhvvj51W6ARYMPt6Rj/fF8emn/xEB89nwXpOZVY/u5asx/KI7WI+i/4DjqGq2I9QV8vbxZIzuNAuml9binozeWPdYNa/YW4vN9mTDBjA1Pd0THxDCuxJNi7WRJzVi1rQjfHcqhPcouLu9Dedr3Nqfhp+O34a1Q4cyqPmxMa6/i25R6XF3RkzrG/th3A/N3lUILNRZOjMeku6Lw7YECLN+Vi8VT22Bir3Ba6X7F7iyYrCq0i/LDptmdUFCux30ryIbU47XxoYgL98Wh83ew5kw5Jvbmmu6abOy+XkRrqo7uEYRL2Ubkl9fhk6c6oXfbEKzalIktp/J592YeQ0jb0VuhVikxdWA4/j2+PWr1Zox78zjMMOHEB4NghhYbjuTh823pdGN/P7snEqMCcDGrAi+vvoylj7cDoENZHelBpcCG/Vmoami0ceb9UwDZ5BBxxGwaAym3FV2TzHQ/QkE1wN8WDMCVrBIkRQTSOgR6kxUFlXpoLSZcyK2Fv7cS9/eJxLYL1RjcwQ/HLpdi0rBEjO7pjZMpVfj9TCMm9/fCx5uz8dS4VhjY1g//3Z6Fh0clo+B2Hc6ml9Eolwn9grDop0zaRXpk9xDEhPlh/8ViaNU6DO0WhmGd/XC73IBjqVUY1N4L64+Vo0cbPySEalFvtCLzdj1OppTCx1sLlcWEZ8fG4t+fpeG7Wd1wMaMOa/dnwNtTjZIKPXV2fvJMd3y4uQBF5WX48JluKK0y4K0fUtC/YwDySiyICVOjrMKEmaPCoFDosO5ICZ4c0xr7LxRidM8w2mH7s215OH3jDrQqJaYNicS3+/Mxpk84jlyrwcv3xmL5lly8MiEeOQUVaJcUiU83peK9J7rhdEYlcstMeGlsJB5cdBJ7lw7Ep1sz0Dk+HLcq67H5QCEeuTeCzhOhER8fHk3tyR8O5SIpyhsN9SaM6heJf91DKoMV4psdBXhidBRGdCXa/VVkFlWKdVcELuavh7DJCRrbHefI+fp3nkN2nQC6HYkjzXERc1J7IQJpMtBljiupiHlTBlcauFzSNAe8tllN/Pc8lIr9DugUF4Alj7VFSKAXckqqMfX9SzDCii6xAfjqhY5QWdUY/vZpjOkWhlcnJMJitqDfm8dQq7fCUwOseboTbYZotBrx+BdZuK+7N959tDvW7C3C5/vSKRhdWE60WA9YjVbsvViCrokaRIQGwWJS4vVf0rH/yh2cX9YHFosab21IxaaLxfCCEmdX9QUsauzYnYL5B6uRsrwfLUazYn0Kvr1YCZVFiUWT4jGxXzS+3p2NVQeK8M7UNpjUMxy/HrmFd7enU3O/Q6Q3Ns7tTkvYTVudiXuTTVhz2gBflRrtopQ4l1eH+3sG4f1H22Lhmizsu840XYqOFkKAAB891Rm9k0OwclMG/jhTIHbcpTEOPH53RJdQvDqlPS3i/tb6NBy8dJuavMfeGwSLUkNL+63ZQ5p0WvDDnF5IiAzAxfQyzPr6Cjx0asSH6PD43THokhSGJz+8gKKKOicJDf+crtHE6dFSIk7clpKTjERo6I1mXMmswAND2uPPGwUI8dciPtwHqQU1SM0up1TVoC4ROHO9Gm3Q+6HoAAAgAElEQVRjPJGWXYY24T6ICvOBl5cWR67cQf8OITh4oQjdkgNRV29AZb0ZA7rF4OTlPMTHBONmTin6tA/DgYu3UNdoZJ1NSLq6UkmpnnZxAbQl1H39wnAl34S07BJcy61Ct+QQmtmYW1qPmEAdjV4prGiAwmyl3OyNojpaV4Tsl5IaPcICPHA5swLhflqM65+AnNJqZORWwt/XA14eaqTmVCDYX4uaOjMtDdk9ORRFt6tQXGVEr8RA5JTVoUdyCPaeLYBOo8CQXrHYRPr5Ka14dEgUvt2Xjw7xAcgurMddnUJx9EophveMokVoRvaOwb7zBegaH0Q7VqfmVeLuXjH4ftcNjOkZgbxKE3xJDWtfD5y8VoY+HYNw7HIRtcKeGZuEnFIDjvyZj/atghAbrMWx1DJE+GkREOCNo5eLEBfqjfGDYrB6czrvKNJyLtcRBrlUCFuiQdhtd/HedK9yTZfWXliNZkB3KS94I2m6tqDrakRNRmFXicmZVsJ+9//Y+w5wvYoy/9/33XvTk5sE0gskEAgt1IRmRQVdcYUFhEVwpaoo6vpHUBd1G0ERXBcEFQTpVQms0ntNAiEhCZBCwk276b3nlu/7P9PfmTNzZs53b9B9ns0Wku+cM+Wdd35vnXdUBPOA4X3w8/MPQv8+XTBv6VZ886ZZ2N7axpnwX780FicfMxhPvbUOD77WjJMO2xOnf2QoUGnFt2+Zg4VrduK7nxqEqU3t+Mu0VTjnk3viz2+uxPEH9sG/nX0obn2qGb9+diEvnjGwewlHjumGh2e1o7XUjq7t9fi3s4biH48ZgbtfXI4bHm/G1GsO45ruxElzcMerq9CtWo+Zv2KgW4ffPDAFN06v4p1rjmKJZfjDA3NwzRsbeZGbfztjFL509GDc8twy/PLJRfj3M/fDGRMG4d4XluOqxxbyrIJ9h/TCXy4bh2XrduAfrnsXV54+AEP6lzB1ZgWvLtyEt5u34gtH9Mc15zLQXYhn5q5Ux0F4kk9bpYJfXXQoB91r2ZX1bzDQFUWg2f8yADlx3J740ZcP4tei3/PCMtzy+PsccJmH7LVrPgJW/eG+F5bgN48vRHt7FXd+70iMHtYXb87fiMt+P50H0thtq0+/tx5/fqkZ85q3YBcjXuBPfjZqjH/iz7ObJgT0kqdU1J4fzhcuEWVhmduTSaEZFfVnZ/rLoqg2z9+uK3NrykSxlI9RFgzgQ9cJ3zzg6Lo2RFaESl5mGt9IzFiylQsB1Y97roEmEuw3pDdO+9hQ3PA/Tdi6vcXMxYq3yFOT/BpycXDdHDJQhzzUledmyFSjqy+VccJhffHUdHapq/jDxsdun1AxGvvgghUJVJ4Az2k8eUhf3sZh3JNyPKz9dnkfhrqmS1eg82moiUKeWNYd0VwlJeKmlTkgCn4FOylinlPa0Qe6/gn6frUCZAlDFGAr8gWPGrMHrjr3APTqUY9HJq/Bbx5bgC07WnghDnbw4M1fHscLjovrUNglh2wjNYh7xqrtuO3ZFdijcRPeWVLGpKnrceEnB+CR11fhuIP74V/PZj5dBrof8BtS2yosJ7cO29rY4YM2fv/Y//vCSHzzhL3w7NTVuHLSArz286N4icb/ePhd3P7KejRUu2LufzGQLeOL176LuSs2Ye4vj0Kp2oBFKzbg09exK0Xq8LOz98HpR+yJn0xqxj2vLcbEs0bhzPFD8PRzS/Ctx5fygMW+w0bg6ctGclPyMz9/jwPpZw4bjOvP3hMfLN6CM256Hycf0Q8/O2csrrzlfTw3f5XRZKsltFWr+K+LDsGE/QbgFw8vwJ+nLpNHkEXRnc8dMQTfO20MLxXJqjo9OW05OcIIvHbdJ7jG/fLs9bjyjlmc/rd/90jsM6wR379lJt54fwMOHN4dXbuwsjxsw5Qxb8lWtLSr836k7ooKtRbOavDbTiGNJJsFYUK8HPbIaUydDeE9pCNBUqOom+lgc7YAaxmNV86VXO3bHDFXQG9teFm/Q6RDUy3OERayQAzHanWPDlekTDlMS1TpMekch/wdSF19UnCwdDMWUFbwLdoPaZpZBDC0oglh4QTojKDWYzLBM/8pu7Doz7PI46KdwGskwEsFuJIyNAtnA7sN+AVxXU/g5gh5BbvlXlAEzxlqDvPF1HkDuEBDfR3+8O0jsfeQbnhyxhZc89BcVmeLB7Va2ytoby/hhksO4JonS9ViLoIBjd2w90CRQzt74To8Nn0NXpu3BT/48mhU21vQgC649OZ3cMqR/fFTCbo3PbsQ7FaPKb88AkA3fPU37+GlOZvAKvBe9aVROOO44fjt0ytw8zOL8NDlh2CfAb3w7/+zBLc8vxQHDeiJJ/9F3PQ7+p/fQn15F+775kE4clQfrNrUgqP+4x30bqjigYsOxCH79MT37/8Af3pzFX56yhD800dHAtUW7HX5bH7I4rHvjcbBew3CwubN+OwN8/D4pSOwek0LfvE/K7FkU4sAzsP3xMRzxuJffj8fz89joGusAgbc/3XROK7p/nLSAjw6pVmm6VRxxD798Kuvj0O1WodfPTofj09p5u0x5m1ld1ZVS9wt83fHjMSU99biittmYQ92ieK3jsTA/j3w9f+ezm84ZqfnenUpY9/hffDJA/vh/leXY+VG5tM1myhR33AYyICLAMu0UwlekzFBsLtaikr5Uadgw6BSZIsqrVDClDMlpSWKYJCZsz0n+ZYMHOlxEhrRdCWf1k5HrNx13JJUZSWVdFLHxdWA5IdGSNh73xZi6vi9jnFJa1Vo1mI5Deha89X3jdi0zQpJwiNOzQXRHqWoaotwo2t4qxHV7KrK8gJdC/upvCNtkbwN+LRr0dBnkEgZs4uY+0CX+nRTGZC8lwDIyuL6xYUH4Nj9xV1lbGNv3cHuPRMG87PTVuHeV1bIQBErwyjOip9x/Ah875R9Ua204zNXvoZtrVV876Qe2PeAobj3lTa8MHUl2ks7cPbxe+KHZxwkshee/YAXS59yzbHo2tAN1coOPDZtPYb1q8PY4f3QvXs9fj5pIf7w8kpc/vcjcP4nR2LFxp14Y9YqjB/bD0MHNGL2nPU485Y5qJRL2GtgLzz1/QPQ2l7FazNXo3+fBozbd09s3tGOs294F/PWbMegnl3x6r8eyucztWktWrZW8NFxe7AzcDjvxnmY3LQeg3qUsWsbMxtFRTJGl08duieu/sqB+OEtc/Hi/DWWpstooED3vx5diEmvLeMpY3v0acANlxyOof178oVYsGwLp6G8qhCvzd2A259ZiOMO2ANXf3Uctu5sx3PTm3HA6P4YM7gX1m1uwyU3vYVV63fgJ+cciJ71Jby9ZAsG9e2OGx5h/mh1VXpxfogJ4eItRr7wSAT3JwNsRpszefliYwv4UDXslJsic/rWugqIgogapToNaA4dsCfk4IIEV+Vqyxy2MKUS5JjIKRBy/5h2oxANVSnUpsqCoR09GmwfE3agxKmd4NvePkHBZ0ktjoik9s0/tNLGl+pIX3dwHQFbLQsT7o9j2CQZaEPTZCx6/iYcdPp1qO8t83RrB910/Sb2JiNa1/oyHvrRBPTr1U37d1V2MOObP7+6HNc8uoDnitKDKl86fgS+fcooZk/jhB9Pxo5dbWgosWscGzDxK0PxqUMaceT3ZuK0Y/viR18ah9ueWoabnm9CWxurZVCPP/9gHIYPYODEaiaIs2MvvLMRl/xhDgew3uV63POdg7Hv8B46oNhWacP3bp+HF95bz4GxS309Lj95X5x1fCMvTs4FRXsb/jJ9JX7w4CKuEjD/2iXHD8VXPjsUPbuxTGDmb2vH9Plr8LVb2KGPNl5bgn3Nk5ekUPnowQPw868eiB/dMg8vzl+tQZcF7jjoXnwIxo/ZE//9lyb88WV2vUoVh47qww9HiGNJJAufqyDgBbD/457Z/ATg5WeMxYlHDJYXBgphdtszi3H3c8wFA1x66n4YM6grmlZuQZcGlkXC/NHasxfFSC+f5zBEqk9YN0EOLyQqy5kxx/gzNsmgtqPyIT1KfBHho2ioNdWEojEC5JS7RVWW85sEwm8shYs8FkeBmQN4wJroCI7F6Fr0eVaYOiGljJvJ1CmhS1QLP2StFanpKtA97TrU+48BC033XX44gqWMXc1P7QhTMss5Yb+b/bY52y3WlmoRakFZ0GfUkD4o16uAmvDx8oS1ahVbtuzgKTa8TKAsk8va6terCwb27845bO6yrdzvVq50xXXnjUTvvm14alo7Hnp1KU4evyd+fNYhuO2ppfgdA91KG5/XgMYe/Jr1T43ugU1b2jF99U7MWrxFX2jNIs99unXHgIG9cN64nnireRfeXb0V85u3ch8wu8mXabtdunTByKG98bHBPdCl0o6Xm7dg9rKtqGNFobmxwMbdgJGDe2Ovnt0xbhDw4pLtWLxqG3buauN6KK+rIMGWfcLmfuyBe+AX5x+Mf3FAlxcDAjBiYE+ezM7yKzdtEYcWunUpY+/BfdDOijhTq0uKs2272rF8DauvUOIunX0G98Tx44Zh244WzHh/DeYu3Uy0L6BrQx1GDuqOMYMa8eb7a7BmS4vRsjJ8UQvLOoOUGmVn1vWyju0W3c3kfdf7mt9UHi3S6aTqIqQMW40v5V2tfVM3Q5EP/0beTadk4oCJJFFBaX9RG7c9kZqo3HhsXFrTVSljmTzdU0TK2HsPMdCtxwGn/kya82kpY0H1P+hzk+SiAVZtyFnn3xwbx5Sv4vSR9p/yG/309B64/40GzF28lWvGrKVTjx2My08bizueWobfPbeQn2ATsCXKmTMtlx1b5D5TeSeZyA8VCqOoPcbeEccbWVCD/Y+qgi/eYVXP6riQYPm0DG35O3J8TFrwwjdMn2VV07iKoUSLurJHmLCqXvDRY/vjugsOwY+ZT3c+y14wwRyh+UhhSGvlGsWFBEAkCUkZOhVsdwM8Wqo5V5vYzF2M1YtodrGtkSrsY+34nqtZGWFlisEI/68/oFRkfjHtUJnWnG2cbAs65vQVyH8z1booQk91hNocnRW6M6WfayHE5pPR3KmsTgsJeKcQ69fXDfWV8+2mbwUhEqzEQFdkL7CUMa7pPuIeA9age5k8Bny1A7phsrtMlzoRMWDt4bbSbjR/S9DiC0ZQ1g6GkMCOLtQtjaYScOpHRuCyL+6D259qxi3PStAlC6WGoH/SJpe8PkftQrnnVOEdidA6W0jdNCGwm9Tlleq9qZGrrAEJnGS3S0OPM+nRB+2Ja887CD/5/Xy8MH8lDyoqDDfWqz1384LZtG4E3ayXC6WqipnNxWJM/mLkQWFLmg7GvuUktPUSCYpl+Ez24e45OqsYyBUBk7y5uhYc3Yyd0UdeG0FAkusmXAi+gKVh7BTBkUdLy4ctTQvtH5YbnfJhSn9ewZhQMrYI/lBQNZa4aIFue7EDZMhVWuzC0ybch+SppLoB3QNPFxdTZk+kdQB0U5iKSgOxSVzSOMjmaVRhoXBLaH0kqIGIXqoYv29fnP6R4Xju7fV4euYK7gPWPkAHHHS38nc/o9lgKQSAs0gmeCs5XgoBM2y5EUgqpUZM8dt+Q3vj/JOG48FnV2D60k0S+GRf9BYIRU3pwzVTCnur9Lz4yy57payokvBKDMS/CW3aTMwjOSNB9MnpTyLcthZlDkikbvSiSgR93xdAo5RRkX3tSyUARYNQ2h8vt4qdEeCFI4tqdBzqVB9fap1WRxmU3Mhs7tFWkJ05DGOb3URjUEqUHJ4blDN+97CfOMZFrv9UWbip39mHs4qqyGZn6W3MrGRtIbOaL4KWzGW4Xl5MyQJpDb0l6FqBtFMmTujejx0DNpou8+maE2mxabnP/fImbM44YFK4O+UwtplApMsoM5zc/ZWgAolsGlLXT6tsxnumTCalTdgaugt6Gh0VWkhA9iA0D6ipQBipVlWULiSoQj/1AlCiihDSlNM4oIYJFPwkYWkLtpjwOqFdHhl9YysK8gmj+fBfiRA9tO+DgtDWCrzzSWHXVEGbe7eSUsAsa4/lwg/A6Z8Yhr+8vghTP6jiP8/ZH8AO/PrhuXhzcQUbWe0FdTjCG0g7ZeKEbhx0v4+yDKSxUnfeQNpu5GrtqwxEfblelRjBLcZ5uaqtaSqz0vQH57qEuELivEEkqSNDssyjhBSJ0iasS+aAQUGtshhNa3w7ZTfV2LR3SZz6u+qdDg/DZ8wFlKtkcEidd4cHbzIgrC6pTlNUUUwde0feS9gDxZu3icm66N+7Af9y2oH4zl2L8I0Te+DpWS0Yt99QLF5bh4ULl2Dbjk1Y/8FL/I40ruky98LDbp4uA11W8IYF0uoacMA/qOwFWvCGZh+YjKS8CiiW6VVkg9fANA5pQokukuYhjslqyoUXyRl7xtQLQm22p5iGYHUlGa6W4Einb/oiRAusdS1j8jlKhLUi015M7NEKgGhbw5GhehqkMDgX/J75aZNT+/5kY8Jk0odA+HvGEZtRIpS7Smdd0PxcexpJVBb9ZfOKtXBxyFML3WMDqWE7x5os9NwXDxAsYccqQo1KFUcuWxljBnfDScfug5//aR4aqnU4eGQ9xo0biiFdy3hi8nIsWLkF6z54GYtfvDmn9gLJXvBpumrhSMA8OOl8Anc2+TurvdDOj0uK7ILGk6hjjE2DI4rQ9smt4vOuVQlw3QlGLKUxrM0oLqpZZ3fDyBACOenXSTnV5go/v3+vOF0FhspDDoRddLpkYIxKGIQVRr3V9ZU6nAyZ0ppU1Jjx5/GYZxW8+zlGjdBzX98xnnfjPDF+zQKmifRQt5+KAaWkIcbcHWrNenfvgp99dTR+89JmfPmo7vjd8xtx5H59MH95Bds3bMcHq9dh7fsvYslLt/gPR/RoHDZ1zKlXTejWKFLGLNDlF0QK8coFNolAKZ+niVLWsgkLCawP7+UYt5GR+F4NMgzRcJj2FWOszIS9ncXC/uHnPk1Za0B5WkDhgX94S5elWcjf7/GxawTsDNs5Z7EcPlBgmmc17hYKxvjcfa6CF7HTKH9t/ghaTwG5njJePndV66+E3j27o3ejuHlm44YdGDG0Gy8MtHFzK9ZsbMWaBc9j6Yu/B8teCN+R1ijdC9KnK1KjzM2zI/pWcczINjT2rMNbS8uYvrSsj+Yqac+z8bz8Glvd3cJSHns9x87KG0LB4aesYWfPWGugNU5xd41HKmdRPClMMznhoKWhnseNlc6eeofaCwtsmVWpEk46QS74sL+mwRfcH24fPmx3PEKdI5c6Ok553HqPHlUcuzcwpnEX3ljeHa8sEsdY2GW5/N49AGsWvIilL/3efzEl03T3O3XihK4adMXhCJ5rKi/L2HcP4Iwjyti0YS3WbdyI/cbsixlL2/HYOwxkQ5mYgrS1KGehhY+bKDWxzO79qGY0zFIu3wcV46gMa3cKHAnjNmvlUKOXMoLrYg2tafpa+83r3buondG6ZgzLKWGyuDvTcvT1ZeYgaM3+rRI6Td+pfs9OoQjNFsrkFhv+FWa+6NF2GyhFUbn4YnsiZdSmTUaVob0r+PJRQPeu7XjltVfxseM/gfmrqrhnRllcqsvGVQLWLXgZS168xfh06Yk0BbrdOOheJi+mvJrXH2A3R7DEsW8e345u5R146fnn8OprU3DJN7+BHv1H4I43gK27GPDmLypZ3k7Z6D5S5W5SecQ2xfcXXIaiqljIFOsMPkjhFS+REsmfN8aOjL8oDWudJ5cD8iQUNb1UsJEGttySlESDVt37+CYDRkXmFnq36O8WfejCRBapyFhJHx0XkM6C1jiOjrCF/9sEhq+y6izAOYe3Ya/+FaxcuQj/+Z+/xJVXfh9Dho7GHW+W0MyuxZOKprg54ndc0+3Cb474ATYvnTEEwMqS8OlOnKBAt1zfBWNV7YVqGdVSGV8/roJprz2Ju26/FTt27ETPnr1x130P4uZXK1i9lR2rzUrIPMLYWQ3yuGXBeqwphPexYZ7kzmfVhIVJGZRH9w9FVwV2JATmVMTc+W/ScAq+1BlUKILbOiDVCfKi4FT166kqhfpg99gU6aMPjbcI3WlvypYwurA51JPn5UgVA65VFBtnLCsq9r3f/rbpS3GCj08GMM86vILyloX48ZVXYsuWLejVuxEPPnAP7n2rjHmr5ExKkIcjGOheGwBdnjI2UAbSBOiW5eEIJoy+enQ7Ru5Rj/fnzsPzL7yIr339IqzaUoc736hiR4uq/uUnP1X4OupD0sT2ScgEqRkFsEAbJvJdKMCeBJiZreTjGDIuwQA2EMeZTPRiCxxzJl4aUImwJjkwUPqGGIE68OAeE7E4xaG5TyiG5+f2lgZM/mWOU9ECEY/v3Lt00vUSb12tkZuSlgpdZu6pfWUyBjJuokBLkb1GBaUA6vQRpa0g5cHOaFu24bWIze5g0/jcAW2YMKoB9aU2TPzZDbj8iu9g644Kbplcj807ZfF1Vnth0etY9By7gv1aWcTc0nSHy+wFA7qqypgKpPXsWocrT2rHjl0V7NrVgp6N3fCrZxuwfjsrNC4PLDhb1s+A2RzHTiRZ+nr9jb/ZGTQJTtF1qqbSosZBmfN7no4KtJnbTuocEt8rMKzEFv/vtd2Cu4lkpZq6+sTHT3nRKdVG17oSLv1kBX0aKti2bTt69+yJm6f0xJL1O0RsQ5bD3LBoMhY9x26OEJru3Id/gE3GvTB86hiWp9tvELmYkmm6oswWr6LF/dYl7NW3Dd27ldG0tsxvU+V/iNoi88Bzf6OTdTUgU1XCf/jCq+BGwF5sILdeA6mFkGMf6aR5Yjf6CrRQHFMkkRkmljJhz53e2eWUzLDrUweT8fNDmFmOVGaSqFVgNCvrTYU4lFPJ+z4+t9o1SoNV/1jFaWJrqOgW4pNQ/7nadMLmpFaYRRwdsAlUDEnVeEnmGi93HJFBLv9Y66Xr5Yb3CV3jTPWWxAC3u1aaJeQa+/YvLeNsCgHlW4h0zTlZiNTz6QiUNnQ/WuVjPS431a4eN+FVvm8pkZ0F0jzODc0yRvRpR6+ewJIN9WAlU0XxG/VRCeu5pktAd9IPsGmJ9ulKTbcvA10RSBv7DxP19TBqJMJNEI+oBrUEesQmWPAmYXfkvaL7kPJAlcfLbTauQ5lq/LIheSchn6uUbNapI+VT0QgsV5T+rkWuudTQqt1gCTT7HSVExH/tSiO6IJAr3nW1E0oM0q71cw6cq4MAZC6aBnQsdPfpuThzJcLMueRMopIcB7GmRFPS5NO+K48EcXjBVhDc3WUujZScY6jh+sQ8a0jLMOoPBXPIJaW7wpFmkmbWulHyq9e9iCAfWpuOHDjRCKYUD4lo+n3SkcWzThvymb0PqOQmUkDztQRPaw/YD9UFoXbBfWezWtI3MF66V1zyavqJdt3lC+pc7gNyyl+3IYejX1Vptqhiw8LXyDHgAZjLQfdtEUjr3jh86n6nsiLmg/Dug5ehbdd2DBl/ltB0ffKY9qguzKMAQhba+qtLPKE+22W2aHKe1riIqmHvHLI6LlPHgdRZWrMahoKZV2y4Ei/a2Kb06mygwa0qKlnAE/py0dLu1R1U8Zn6VNm8qTpcqyZt0ckZc0jy0q4zapIcQ2YXBAAx0wct/0lA2LN5gknDQY0hu9IZcKYkzG0nQOu8b/QzlxaKAckkgyiSQ5PMmubwg1Z/fXwqO/eBurVTcrg2xjvZjWt+sfotQue8Pee2E3tXqATbVi/Ahnkv4sDTmXthEOY+fAU2mSpjEnQbB+Hdhy5D2/Z1GHzACSI/giWOVfhfJNyVxTXelQq/qUGQTvw37K01VNSamZcelFuynJOvY/sPx/PbGJS2wWkVIpgcWaZb0677pSqZl10SAlJErGbLUarAFoVf+y1bLKuDJ77SlmYUsT2XB6/2syz3x4NcrvDz9xYSVP63fWof5TfRp2gzxCW+dbfn5xEtuaQy73u0ZrJjsjRNX4Hibxowo7sudQyh9bXp6kdF8y2lh0GOgHMmeYo+bqSYw/qnu4cxhOIJzhkZC4VqAAYa9LoS+cG5jdXN5bVzWTKtequKKsNCllirfyqhrgy0bVmGTaubJOhKn67RdIdN3e8UeTEly9Ot64r9ZfaCSQVToOv4HndHqlJx1S154Qq/qMdC/AlKAPHT0dLQd9bPZ9km9R2Ye8ZIUPLjb4lWSROs/SXql/+rTDtPE619Wv8rvuwovcP7wdNyRzsrRFEq0H1KmV/gmyvqjYoj3jRMsmnx62h67iZ+DLhLnwEykKbdCwZ035W1F/Y/dSJ3LwhGl7UXSuy6GVnskR11cySH7Wf06Q0ernVMFf+dUCFNx5xGcUtdCPKp8SsvBtV2fNKYaotCmwwJHSV6qF5Bc5WFHkZukA38nb7nm7tLU7dNNU86ciIKHPazoJvEivxoYpjIx8Xumrg7JbZz7LGIHvxWCF0DsWqGt8wahyyYIjswO6YsDcQvrk/d3XBmPj46ZH/L43vzjPqHDX8Z69Hwe5aeLji4Uju7H2i//vnkrblvfUWfarymR6qxqDmGtQqbVqYfsyaUk2J8qPgj/F62P7Fr2c0RijfZ4TBta8mJbVr8Bj545oYc0NUFby7jBW9Enq4y20S3x44CPrZ/A0rtbXhpfgVvLy9hR6tZTKrM0185+YKVkeik1d9VtX+XIATirIhxaIHpwpm2adzeHpe9+PR6oKxp5LQnhQetyKVc1vqmIRpDUrdfEKygVf3VMUdORz4sCeDW++Q3umfILQp6lCQQItbDNKSOf+qjlQn4ZQJHth/VbBkJjzQAY+w92xOlSwvKr33BRh2wFDajdfWLC4JugI8E/tyTZYoOlibmwxK1iGK/6TXR7h/pwuKi3l0jErvI3qYgM1iIbNARf9VV3nrIsdCiU1amgkMrtfZWQIzIT7FqUoQ48xCsSH50x0WChloQkOPF/FsHBwyfK3EqdUinbYtuIXwkv4fmp4Zv+IdkSmjdw98BH1JVnL49ei/gmNFV9GyoYNriEqYtrce6beZGGvbupiVT8b4RLs4AACAASURBVMEzN8p6unt6NN1TJ07obhW8mcgbL1VLqJRK+LsDWjFh7y5Ys24dVqxYhnEHHYpZyyuYNCtb4DN6AIEqH1rT9Wgkec+KKDC74V3rREzg3iY/Hcym1D5hGeVnN1zYJ1azNVhDx5h1Co3yrNMk74xAsE+55ZXhE4xmrvHmmiUZJF0iLbIckDMHWsTgzEETsbN8QGhvMqVP2AuZOcUnH2v5Y41DgUn2hJ8GXjEY3gpvW/1bX/UupIOlUASMNzEUKthcNcQZh26HXrwqb7/2AGdRlvYVBbLlh5vxYHpwT39ZaVluaqNj4Lrkyfyb7h2aJSJpT3mFAqn4O1lwX5EnFz98/yZrTgWSWT+yblVm6QPHjwZOGgtsb9mJl194GSeedCKaN7Tj1ini0llxUU0Vm5a8iQ+e+bUEXZa9cAXNXmDuBVHEfM5D3wfobcA8T7cOXz+2HTs3LsaTT/wFs2fPwamnfRHHfvyzuPX1KjZsS1CN8rjEWSjvqxmCFTg8VZRD/2bf9+zwjo7VIGWxo3aBfi0QTji+rLEpi0kdnVltpwEVVloGnNjRHaX+h1k4JkM8LXjdZe7orIotUyGFrFjTkbdtkEkbh6SNFgbCvfrlI9oxuOdWTHn9Zdx99wM495++go99/JO4d1o9Fm8wuGRrusyna2UvCJ9u9gp2MVB2BfnXjm1Dl8pmvPzSs5gy5U187evfwJDh++C2KVWs2dKe0VY6lV41NBZjpVyJm9Nf2mIRLcFzcENpGG43RcdcA1msTzTe5uSdiPWP52arhuPZDR0d9d/K97HVCvGA/V1ME4zPVrSQMpqO9JXSvk9exce/+9/wWUSFZLzSXrklWsKZh1cwss9OrFy1FD+7+he47Ic/wL57j8YD02XtBe3TnYwPnv1NjntBgq7RdG2f7ufHVjFhVAnLmpdh2rTp+Pu//wIWrK7i/umsClnqknQugf86vdLNlA5GnTvz4q11Jq3y3BFUc7XcCMQlYVyIsVFFntfofsoTNsUoGxu/aC3tLRoeLDYK/XZBcvleTx1rdoTkS9vcMUfmAsfwqA5ae/9+msWVpECPDm8J37NA0wkj2/H5g+pQ31DCbbfdg3POPQsbtwM3v1aPHa3twgXFay9MRlM66DaA1V6ghyPY3e4f36eCj49pQ6VSxvrWMm59pYTtkWI3lBSZPaJMHqpJuQvG1UJvZMOmco0bMM7eoS1qFkv5/zgEOwGtePuRN8i81MLnSukAHeLM59lGUfdAwV2e6SJti9Uy9g7T3W1A+sjF0dq8FaD8wpnXaakGmllrSr8318vnzpdGdIsQpsY91anrVUPMx/UDu9ez+PzEsZKvXDBw0rM4VxkH7NGGL02oolKtoLXUgBuf64LNLS0iZ0kGvTcy0H2OaLr2iTTpXug3mNReECljJumc+Yjr+P+x6mOifm67N4pbZF1337tpGzq5f0lwFYCPLVKyfpM0TKELCP4rZBglDyOPDr5gmXo/aYMlzVFP0ChuPtAPDKZGfEhefutFGcHh06rlyiW7Mb8DKlScQRPepDYoTVFsePcFzxSDASVHSBQAawNkAp0K86mrnZkK5cWEltkozpLVVpVPYa0KJqtsC1Z7oVStQ6W9DXX1DBfbwCqY0/S9jYum2KDLC97QPF2WMtZ3MN578HKU6upxAKu9IMK3cvCOZqeivCRdx5cOoiPACeydkVC652yqid0cNVASOvLxYTAul4IYKe/UNq6iX32o4KOi/EUFQdFJ/Q2+nyRsPuRxF157mi3Q4TUk+LA7Y9w1brVQJpG/7JB/4YS2S2/YMMoQtYDkr9i4aCo/HMGuYK/vsyfmeUG3cTDmPHS5zF4wmq5C+6yORRL8AgwWo1Hec9uQktmDAZPXbSeVAWNwrY3FnFzPD3lv/U1197cIPrufQNSFUNDy6PTBxXZYaoe1tlP0u6Lvp44//70OB9OI6qm877abyRY67HWh6bITadcGTqRpTfcKlOrrcIA8kcZ15lQ6yfe49SXxmJZ2M0nlHk+XRD+fwM0zbztnScKtZP3Q5l0+ZDJPaXXyF0KKQ0g40G1MmqUkswbJ309dF3UYws0xdSx6HSzwXCfuo5DOb03QkkjWjUyQd2wVXfYw8VZNeUGgm7sZ4wdXyArtRf4/Qh9qLouDE2kms/Ue1SStOovO3NU/I+U8zfrI/WMSkgUjFsT/jJfBQzxXrRLxi1BdysS1iy2S77xC1vukW8msTWRfZHggoYwqVTyD2TyaoOLQkvLpimPA3sMRV03ozq9gvwKwQJeR3U4QDi2uxcAWXIQ0A30UKbgMlOE1qDmALrV+WRnQU2JOt05dJW6X7jPRiUnCFnPQRdCshfWvst64HTS3Qhu+AOZm6JsBf4M7CVuCCJ4EMFJC2LuBtZtKtBm3nQoNL+nlPEBNobEd+00D56SBdeClVCGR0kUeDWL9iOdqZfN7E/iRpZ+lkOTxW4J563slPSXS0WYDMkaB+samyWh6XgbSeu8pSju6Pl0bdM11PVrVJdT3Dl6pXwZ9M0qyGhAnf2A1/QLb8yvV3PRBHnlQkYxB7GZxgkVVQ3DzISg7mI1PIcAMVv8qz46qKmYpDOx7J8i4SsokaJK19i343D35FjsnQQqLRjq22w6n2KWAW0fm6M4zdqzb1eKza7R7R2wBQUpXCYATol9QqCe68vLWJQbKHV3T6Pe5UeBUbSi2APZzhXEbmiZj0fO/0e6FOZN+gM1WlTFWT1drumUnZcwGvDwNrm3bCqxdOF1aO/Q7OTAdEZXkslA4T9WxNdFyXR32POCzMptMipwSsHrWE6hUZa6cpTup6L8Ae8vEINhqky8L9FVu01cx6KDPyyOhdF7iHH2HIrcOFxVrL8YcYRb1awBG+4wyd+oLxC2Q+ol6rxgtih3qiI0lXRuKtVTrc7G2ta9wsX5ztdtUrCrWpdDDYvvHGVjRdYm2X8OYvYoLABd0xXU9TvYCB90/XgHUMZ+u0nQd94JcdkuDUefUAWxpeh7rmpsw+IgzBfjw88qi3i7/N3UHyTPtCtp8VogyOYThKUCtsvkDvPvoz3HE1+4Fq5crvmMNlzD1+s/jsPPvF6eoZMPKxFHtm+IgWVBxTSGhbEqG5+OtYukrt2GfT32bl9a007h215aItyuMjBp8apb10rkCIz0YUBun764NVHQ0tZA92kd8yTsZgGnOr+k8dxhy4glD1dMt8i6lUSqNvT71HGIX5yG6YfzSh0MGOxzxwetY9PxvuabbIEs7bqaguz+7gr3vILz3YJ5PV0lb8V8ud1UPvABPFVsXv4yNK5Zi+NFfFj7RkHTOs+/loDVXabVUFOXYuXou5jz6rzj0ogdEWptakRIw9fqTMf7SJ1BmeXPqj9uX333rXxrHtK9US2h66XcY/fGLbS07uotCL9TKhjlaaydrIsUZU4xNb5TUHVMzDe0Pd0934XWqlT4f3gp2gD6dRExbKegAzwfG47qDLMDu5P1gJIj/cjxR8MZougdJ0PW7F3iergFdUSPS1XQDrCLNxi1LX8GG5sUYecw5UgMV0Gv+yDal1miDsqV2STU0G1phoPveI/+Kwy6+n+VWWLHOqTd8AUd963HU8evjzTMHt7lWyHuTd6jZdz+Z3zn+SxWZOxYs0NWt1gwX+Wac7QNNyeIozs6pXzBNiAQSa56xxQpJEfdaA5L5WprYiUFMSSCLD2wVR9BKXEEAIJ0LUHLPSRgeVW3QVzyvd+BgglSodBxaXKVl0qI8BLF+srVjvm9yeCSBvEFDKenbCJuF190G0rwdzp95UknVN8q9IEB3IOY8fAUsTZfdkdaN+3QvR4lXGaN5umHyUVKziWxZ+hqWTZ2EYcd8GX2GH4bty6dh84omtGxeirYdG1EuA/32PxmNo4/F5uY5WPX2JIz5/A+9C0QJw0awc3Mzlr16D4Ye9UXMeeSnOOyi++Ttm1KjLpfwxn9/HgPGfAojT/w285Lgg7/8O/odcALWv/e0gOByN+z7uZ9wrXzdnMew5wGfz4cPNcFda7Fo8t3otsdYbFm7FPt+4iKhw2vSiL+o131X84g1EksiXBxF2ccdake/7wzkTG+jqP8tnT709rn4eMQKdEbdjL8N+odGkTo633up36ZyZK3thVYz1l5MQY99H+7XzzdaMSANqyvYGejW9xngOxwxcUI3Xk/3cpQ56F4NXsiMg4MNEBw49L1jqtaqAKC1TS+h+ZX70bZzGw67+E68c9fX0G+fT2Pt/Mcw6MB/QFvbLvTd6zA0Dt0Pq+a9hkUvXI/x33wIpfZ2NNQzGCtzIK1WqmirVtC9WwN27mT1HipY+OcfYm3Tuxh39rWYO+nfcNjF94obi/lEhbP4jetPxoijv4whE07DpiWzMeeRf8OQY/4RJXRFta2NtY7hx57BN13z5Jsx4qMXo72d9VlBt4Z67GhpQ5e6OrRWROU01n5bBXjr5jPRd8iBWL9sNnrsfTwOPOm7XICYP3lyPQYEWRaolSl8GpG/95Qe8t5J+T4279pG1vnmfHycrsAQe4Bqgmmym75FKZhGaSPSbT0y9Ls9ptiK1f489mWYNp35ZUeFesr3mtKhdDGC9hsWTcEifiLtWtT3Hoh5rJ6uFUg7ZSK/DZiBrqinSwNpXDfzUE4OQagO3D5a1/QyNi9bhM0LXsTYf7oVc+48Hwefcwtm33khBhx2Gm9lyKGfRbmuC1bNfw2Lnv45qm2tGLDPMegx6lj07jMIWzY2Y33zHPQfMABbN21GQ303DPvoV7Fh+n1Y8sajOOjMqzHnTz/GYRffh7IEXH4pcRl48/qTsceEi9G99yC0bWlCZfsuVLt3RUOXXiiVKqiytg45iWucyybfguXTnkQVO3HE1x/G7D+ci3EX3o937roQh5xzM+Y9ciW69xmAxn1PwNblszDi2HM4+PYZ/TGM+cyl8pi0Io2O2sXyreI7/P/e+D8K/G+kQEy9/N84p5wx28LfYKH26SrQPe1a1DcOxLxMPV12cwQPpBnQZSAldD0ZFeHAKhxhtLK/KfpRxeZFr2Dj6mVYP+cF9Bh6BLY0vYlDL7gJs++4GLs2r+Kfj//6/6DUtStWz3sNTU/+DIdcfC/m3XURBh93Efr2HYpN65uwcc1SDOnbFYtnvYgDz7oe5W69Udq+HNPvuBQHn/lzvPenK4VPV4Eu08tLwFvXn4yBx1yMla//FiM/+mUMPPRMNE97EM2T7xByo9wDx1z6CJ/TstdvwZBDv4wlb96LwWM/hjmPXomDL7wX7911IfY/81bMvvWL2Odz30f/0R/l425+834sf/s59BtzDPb9+AVG/1cJ/rF0F2HV5vsSfaKNuCSUe0Ktg61pu7oT8U3LdSvK9/bhkLyv8yKj9Fksgur2IYUZyXrRNNAroMK6SvqrNoiFprsl7xSiSZHoqx0TEAoJuatJ/GAO81hT9kV9zZhN7MEdD52zYjQfLW0aubEMqT2RIVMtWilX7lw886Vd67mLuVl3r2ldjuRxetksn2/88xB0962cSyFXpXQ18LB15bzJBQ/DzCo2Lp6CpmdvwkGnXYuGxoBPV+TpspsjRGlHdtGwcS/kb1c+KH4v0KvYsHwhunbti+bJt2OvT12BfmMOx+w7L8Yh508CqrtQX24HKu1YNedVLH3xehx6yQN455azMey484GWCip1FTTPn4kDPn0+Vs9+DLtWzMbef/+fqG/dgOl3fgsHn3kN5vzpShx68f2okzzEiV4Cpl1/Mg7+5uOY/evPoXGf4zDmc/+CpW/ei0FHX4g6tKOuroRS+y6u6TZPvgVDj7sES1+/GYP2+QTenfR9HHrRQ5h569k49KL7sG7Os9i+cj669R2CweNORNMLv8PIz1yOxS/9Bvt87EKzkawMB7/BVLtJLCaobx91cSWGoorhQ3s0+r06Jht7sROeS3Ndme5KOlH/twHcDvQXA1uyv72vFpUbrgwoMHTav32F0Ye4Ll456ACvj1CaTn6CaaBU604T6GM08vSXBd68qmuBfer4+vV2E5qnc1VVOMWSva5qLyjQzd4coTVdA7qsPLk592pkgcpdtQ4B8GyAKti1wxtXLMCwo7+Ct274O4z7yq3o1jgAs+64CG07NnNS7jH2BIw64VKsevcVLH7matR16YL21hYMP+HbaH7hBn6/fP1en0T99gXoP+owNL/1OA6/4F6gZQNm3HUpDj5jIuZM+qnOXlAZFiw4Nu2GkzHuksfx9q8/h+FHnI4hx38Vy968HyunPaiXcfw3H+U+4+Ypt2LFjD+j2t6Cw77+R8z/43exY8MqVNpbMf4bf8HMu89HpdKKQYefjtXT/4i2HZtQ160RvUYchv0+8/9QEvlqJmmdrGPQV5URjOqosYTViJ/QvqE1pNklCMgaTrmFrcd0FMrkdyePQ2pJMtvEN8PoKAo4EIOak+442lsMNjLP/YJZqvjS2jH4LZQM6xbMQI/0NlubBHQOBYhTYGbpdCxCT//dyb5hKWXQepbCc/QAVUANtrKJqlURi5Idsf9uaJqCRc8LTbe+j8+ny06k8ZQxc0earenmLIpMF2P9bVz6Oras/gDDjvoKVky+C0MOPxWlLl3Q/NbDaNu5lad49Ry4H/bY76PYuqYJGxdPR2XHBgw/5myU6hqw/M0H0Fapoq6hJ3qPHIdN77+EvkMPQuOoY9DeugXN0/6EAfsegzmTfoJDL34AdXySonAwO4Qx7YYv4IhLH8fmeS+h3LU7Gvc6EhuWzsSmxW9xgjDFf6+PXYxStYINTdOwbfMq1KEBg8edhHVNU7F1xbvoPXA0Gvf9BFa//Qhatm/E4CP+ESveulMUaqnvil1bN2LMpy+Vkk/0v1v/fMi+MhOJ7ezDEgnCQB7UFgdrajjs0WkLsXtAqNOG9yE2FC7w4rL+X4NmPvO+hv1YM68FNOZSSZxIe+5GHHjadejSyO5Ic0+k6et6VMqYcC9w/0TmtlsaK5KdynuENix7A1tXLMCI8WdbxyL4W6pWgQRK9p/2aoUDsahcZKQd65PdVuGmDbHfd62ehzmP/ATjLn4QdcrlxzWgCt5kebqXPo4SK7Au+zG6qNET+CFR/kDceCwQtcwrwTM/tijSbk6cKRqw7N+mF9nhiK8R0DXAW7sbweyi2tsgPkwxerI1i2gS4jPvOJKO8dJx2GMQLBD3kYST3Q2TZ8eXN8f4M9++E1alv2iLGkl8HG7f/nXK1QppXjnBOp2aKEmadgTdtz7G/xTTI8N50wKeacwnnesoUCr+yP86tE8o78T3UicJCsU88r9G070RB512Hc/T5bcB29kLooi5qadLfbpZbc5iOKVSl4DNK9/CpmULsRcDXXVNckmwRqUiiMnJy/+fJK7gbDflVYMme1V8I8rVbF81H3Mn/YRnL4ijr7LBUhVTr/8Cjv72k+CuEdaqWjfp/rCy38yRKXG3MjmmLNhHBBFV/6ywTXu1hA+evwljPvE1fjdc5+TbfohqS41dxc3EGhsmwTBjMdigbPkya+0m+p3tvogBT7S5Dr4QA6vY8w52n/x5rePw+V9tJSF/CCF+jLnrkydW9EXnoAv7XKSM3SgupuwdAV1xOELk6TJtM18voZKiih1r3sPM+76PUrleACxTYJUUVtjoxgB09S8h7Ux/AvpUCoZ5WEG5rjuO/PpDKreCd8Rw840bTuY+YUdx5mMQF2imOwO0GHCEcLXShuO+/RjaC16fE5e64ZX2yWNXY+SMqJogJ2WykXP7JJ74RGr+0iLJczF4NULr0IdTucyn2fKosrRBMlkfaXd/UX1I8Q0HASfbI+m0IdFmXVpzlcHSJO034mvjALryS7sI4VGIOZU82SuuRms0crmH6PprtrLHoX72AhgZi52pJHdQjjluIYJnHKo/xa+iK5nV4PAR3RG+XGnaRnb3hEVCaM0ydHXGT58LljDjdp+JE2ny5gh/nu5VE7r3k9f18Hq6P5PZCyL9IQRVNpBUeWmbarWBgyE76MA+Zalcu9pKWPXCzzD80z/gfljGb2vfewK99joWXXv2BlCHJS9ch5EnfI/31Y4q1s5+AgPGfBSlrj1NPE9uqvpSO3cnKA1YEby1UkZZn1oQ25qB7a5Zd2DjznqMOOYcrq2yO42WPv4jjPj8L4BqO2b+7hSMu+AB1Hfpzt0OrW3bsXnafeh39PkOUAtTk9V2yJhZnWSpFBGydOFD37mbQAhDUhFNmUSa4XNEU8C9kDU5aTUj8XdRhMhIMAVm9qY2IKPG6c5LBXJDz8Ve8PuDfeBElW3hAjNpfcLtlH4IwgIJLUyyJ+aowKCBaZW5QW8loMI1zX1gU0waknatEO4OzF6xSYWtj74ht48atzj+nK22F3ZJ+M8d2oLGTn236CEWx/snRcnJALk6Cha4KSa0xXU7ku3ZgCjoNvQe4Kmne4ooeDNHFzE37gXDv7YUVRoSNQv9vF5Fa6WKJU9fh71Ougz10h2w+t2n0WvYBPTo04hWlLHkhV9h1Ke+w328bHLNM5/C4P2PRX23PooUkrhSNlqncG11VDOnrPGw7u0/YfvOFow8+my++ZmrY+FjP8a+X5jI/z39N6fisPPv4aDL9l1Lyw6sefN+DD3+Ag7b4o+SnLIv6trwLbtaIdsYsJjEjoA6zEXSV/KY3QIybxFot4aDAL+wiWYDXxb0pMVAAdS5UcAws/Kd274+gYsKhNXaCduCeaGkp8exsiyo8lZ4C/uCJbcqjZZc/CjGYQsarWHyUEOcHhnB4R4z9uxWe8P7w1XUzeEfh2mYgowFOE41v+y+dUDaw0P0wsUgPRTgePL47fXObhbpDfbucyXyxExVRexQbranbRG80QYfkatCPjsqZSjmYO8zlTFKso9kw3bBG6Hp+t0LsvaCAF1WT9douqEz8MpqVHuPL3RGSRJA1doGLH72Fxh90uXC31oqY9W7T6Fx+NHo0rsP14aXPn899j7hO1qrXfb2kxi6/3Go46Ar1WOLRMLs40TTmGs2sBiKWKR1sx7Bjp27MHzCWbwpdqz4g8euxKiTr+J+4Rk3n47DLrgHdfXdOCi2tu7Eumn3YfCxFHTdBQ2IWL/g9Sxv8MUOP3DXRjGXWcvAGXJJ36IzKzJgoRVJU1cLs/jGL9IHfTcv4OLTyqxvC7ijah4fOTAg6G5T3ycUau1LfWcBtG7MPrjg44Ec/aGjQzKjCLgkfB24LqbOGkRH2lXf2gVvfNkLGnTJiTTp060QM8lmCMe3FSSWAN0lz1yDUZ+9goMuM23WME139MdQ6toFpfoqVjz9a4z+9HdFzVyu6T6Bofsfj3L3PpIN86EgbE5UsXbmw9i5qxXDxos6vyxLoenpf8fwE3/Cayi8fdMZGH/x3bwgDnve2rId6966D4OOuUBnMkjkd9Z1d/gUsqzt1+D8fetfHQ1HYJ14aoKtpo6G+J39W3woJLvUaomGkWK2WURyXBK+uYR/ownu9imumFbrbkBqxvNnPu1Tu1hYBosQzkLeKziUbhJJj6zpn9GbZCqtmYdr3bhJ92bcVIuV3Ce3gBvoo26BsAvCGZv+p9LkVR0VG/fd9bZbodafcURmeCRnm7jWsTYQ3awpYvorzVXRSghPsahSsRVsXPQ6+BxfdQbQ81xYpLTjwew2YO91PTplTJV2dN0LBXUfvatFnV0GukufvQajThKgyzh60+qF2LhgCvcDs7zZ3gNGo/+Y4wSzA1j+9hMYwkC3mwTdSFKzARu5+PJ9ruky0N3ZgmETztLHL9fOexY7N6wUS1kBRhx9JlDXwAN3rS07sJ6D7oUidU7svM4SpL59FWhbgmRCVSzbRHMCStrhb8wi2qECWMWw1K4PRYRTN7ftnzPF5RXIh3yAZkMpfKRBJemGkC8Zd5LRom2CKj+jCdSKTZk9Kk1dBakLLixL4iPNBRn3GL3RbpWWpEw4SpuQ2Wuvo0zZoQafl22N24dnAEn+9pnaeT73XPo412mZjKWsJq8Em8srYlwyo1MHIGWvhlhy/HaE3stXHbBc8oS8FjLKxcLydHkR88gdaay0Y9anm83T5fIkWGdAaVI0aFJFS1sVS5/9hQZdThDWUIVDLgc68aVYkEqphOUzH8eQ/ZSmG74Kh39H8hhdRmDP1779EHa1tGHYeAa6wr+oAzLa1FW5wsKnu37avRh0bDroagmtgMAZiK2/xksLWu+H7qtyUDLmfyQFI+RpJukfd5nRrSJnrXk2HzPPD2YCZia+JYYtVls8Vzsru3F868n1zUDQRvFnELSNAk+UXfKji2JSgXCxK6vlZiFIuQboWM24RG45v3FbKiKMItyydJuSPOsTdDbtqWVgtHl3HDRbxTg75frk8K1be4W+atFDgrh+LpmZZikYP7q9lnz9CD8GYw+KVXICncaiMzpTjjw0w82to6IUITFSxcUqDsCsePZHuxfOuA4NvQIXU/pBlzVgWEAAnPGj+sA3q3U7oMsLjJM2iaNbzZpB8fKZT2DIfsdxTVdJwlzJaj0kphmANdMfxK72CoYfdaadqqsBUr4vAZiD7lv3C/dCUNO1l08J3pA+nLLY6fMTb1KXgfo21k92zZx5aBNbzMT2/4lZunFvseHUhvcJ3tjMSJoY78K2Vnxf+3lPRld1wXXBrEWi/q6/k16DxJ8JAkg3jaSHFVSUm1EqFkF+CJjPobmq312t2gV/V1irIIkVe4lZbQEmEstsFAZj0LppddkEEjdbhSKrK/IyLg2HJyX3axyh7hUJFtYhDb03UopSeRbAprFmgOybMiuEg+4idiJNBtLY4QhflTFWTzem6Ub9eVrjlAOTJ9Va20pY+szPsbf06VqbQKOVYU8WwV4+i4Eucy/0tqLLWqOkUVKJQEqL1a4AqUStfPNesGq6CnSNq4BApQQO7g5p2YG10+/HkKOZT7fiRutiCGIQMSelJa2R1LdiUGu3Y5lxPLmPnht3Kj45Wq/hASLYAqe2YqPn4yCFblxwphe0UAAAIABJREFUpM/dtkKgq6wo5YWlwcPw5jNpXa5/1NbOjMWVfU9gsYoZ2IIpoEk7GkrWFUMhm9pSttISDgjafME1aecuFyXifIJUu5Yy2qS99lISC6vVC2yCvkZcK9+4s6qEHnnmvAJd19rJp1+YG33uWVf4WmmIKn5lGMpY0ErTJfV0I4cjjE9XZRkUutPE1eelZGytlLD4qZ9jn89ebo4Haz4kjCX/ykB3xawnMWT/41DqyvJ4zZ+g1uLDHVlnd8nj/45y/zEYPkFemCk1baFUOdpKtYqW1h1Y/PSvsM/nf2QdwIiBSNLzYvgomwwfGBDAJI0czQwe94UyU7SVYSJtPveAFwDVBD05nsRbmt14LrgQWyezUah56dPI5DyMKzLP16483f7k+9Bmc9fRpoUR1MpsF+87FiFN+nfcN9q1pXzKHp+9tSZKvXbSsXivmkZiXHTltVtBG8HGHKY+dfGd2At2e9l0OTe9TtNKClBf4qwWXBkqCbpZmqqca2ZVdWDMdVMZKI8qhUkbVG+5hBzg7GZW3EFvjgjk6apjwFnQDZpxMrakpI1YcV9SehXtqGDRE9fylDEVQTdAIScpT68x9x67AHLF7KcwaJ8JqOvR1zj6vJs9j5KCKDN/fxr6HXwqv1VCrCkDKZPzp7FE/mVXy3a8e/f3cNj5v+NBPrGnbCnuz6y0x9KpTBCYpjLthd/ECBDNyM5mMr/buocxnW12dzUO7xJ7xuZqgmIYvlrMSts1G9CAiatN5wGsGIQWpA6v0Pm5QK/zFM3RM1PBy6rJamimQF+yhqYA9UGqtREao53T6dIxxCsGfIWWQtvXQa4MYJIAoSpI5aOH9jkINHTdBzz24ZbclP53N8DmB27DGC6oG3rYOa+uDzdsaRA/rcdiEv3prSvhKa+IE7UklORXmiH9L5mTe4hCuhdYSxt5lTF1DNh3OILdBuy4F3Rpx9CRjxys0wwkiVGptuODJ6/D6M+yPF0FsmQDWVpYVYDuO89g0KijUN+rn2RYsSmT/yiNiIHub89A/8NOwYij2dU9qg1j8qmUEwbDLGe4tWUnZt/+bRx+0e9JXWG1igljqEmb9c/MNXPU8VnCU0Z3zWxsh8kiiCm05qzPlo4sPDVydjHjofAzbWwt88jo1VJJ4rYKrmquifkx5WCMHktAPIfzck1TOQHXkrDdaznV1GTjVIAmcJ8mK81oMSBEZkj8s7pMZA6dMsZSbAE1TVlhKamlSeFrYMCdUXzzdLoy42emdLghFr4OpMV9uuJiytiJNB854iQC2qptWPTU9RjyqcvQra7CA7aWJBJGBl8Hple2lIA1s57G0FHj0dCrvzewQjXNXC2hXMKM356L/od/HkPGnynKQXLnm7zhlrAoEwjs8vadrTsw/47LcMQFv9XFc/JSxhwZaQXr8viS6HHBbe1qh8H2Qrld5APt+7OTBKwm6XqG1lbxGPVUqq2jtjTdVAp0RHv+WxMy/ZL5sGe8XilVL+m8Eufj1qHwRcZT+NlXz0KxFc/EUcG7wHiza5j1+brgH8M3M25/WyliL6/QTxJdnEGK6oF2ZTndDnGZ0M90ZlMy7ULHt8SKUBmi9ynxybp0cbEkY+lxbSe/gDl7hRa8CdyRlq0yFipiHlt8/tySHOySSeC9ey8VhyGsJFC7NZEZIcz+HavmYP+Tvoc6GUiz3Bjks0xU1Bkg2wTLH7sKG7dvQ6/hh+neVflGWghaLQorXt66YRnG/N2PxAWdfP1c90JYENINk2qOp9A1T8L7THdTRyBSG7fAjorRm86DmobuBvDNN+ayyevbBm2TtaD8p27+bTSjIZcmRFwmRsTdcYht4lsXE9TLgxNBP5+4D1BWCwJXvtP+ZKuJc1I9pWmeYqy25eY/ou62a/gin1GpOyfEXwQAtHKkNEDKExY/OW47NyPE5nnxL7vKmLf2wlUTuvUbjDn8jjRa8IarhNb4vZs7M0N7C7A83SXPXou9T7oc9aKOovxC/FebQVL6tVerWD7zSQzb/3iUIqArLMo8yVPFpmkPYnNbG0ZM+Ecj+bQ/S/nKBOCz/921cxs2z5qEPcefK1PG/EZdZwGq14JwU4rIwtMNaySxSb3VGouF/oLkIi9a5f05KqIU+zQarlwOViEEx9UltBPSJg2UEWyg41KKbOa/ZEiWZk4UOFepd3U7azyK02QuuEghE5TQYTZi4bsWmC4PKj4x8UICevkHSGg6nHDfKCUu6581dgIdh5D59uEQ3YaxAz3jk2su2ZfGuqx5ugcP5JrJDEqCU05BIloLIXt1WgYVNNvo7aQGJg5R0apq6mOXF13vB7HsPf1lCy1pvCDB9ETPk2nfs2END4gMkU2LpqBJlnZM0HTzQdcnQUK/CYAG2ivtWPA4y174LhrYPWV85tTxxxizyq/RqVTa0YoKmmc+j70OOdEOpAV8uq6GpPeGdGxvX/A41q1ajRFHn466Mk3KF9oG/59KRfy9WsXOXTuwc+Hr6H+4uK49GLENEqOocZhPVduspr5oBR6OaJQ7UgOGAlOFGQ6AGc1CwrI8LmxzGcEbAlxGaDpRaAoUvD9S51MBMQFEewwGGAlmC5gL7DI7bYpme9hrQbXlrK9VEEif1VAmsBycUTjsFDMFinoOgROEaj+IeUhAJGtiF3SRSgBJttICkKK/489RQMnBnZ/2lIDGgcIuFanp6bKfSAbWEoYKFaENCiKJIJufvhZoKoHsZFsYpcUvUOiw6JDCVopMTZOgKEB8Nxwmle37NHxFjY2LJqPpOXYijV3BPgDzJpGbI7o1Dpu6v64yJmsv/MPVKLPSiboQud8jFJ2QFK2t7a2Y9esvomu5zH2q/F4Hua6UZ9jfmSOafdZaqeCIC+9FXfdGb7m4GPizEfPTPeUS5j/0I2xtnoH6cpkH8tqNgNUsw/vmjYrClPWNo3DouTfy0o8+94LoP2DuFDDXY/PIe67Xx4lqm28cldSggsc3Yt5V0XbzEi2GoreT7S/jKGIEGhWERksjAi84sYw6qaCZuFIN1/ANqOU3+d2TnZKdtINYekzZcdI5qMQslX1KXSfaFSk3h5iNrcGKvGibXn5yKJXQN05loWW1T8GZ9jeUV7L8Ea+mRnnBHqschy8biK6NxAKfnzeoovOObH4Ib63wOMx46dfi7ykuOyosFXAJ61oBmUF2TvVSCRubXkeTOhyRX8T8+2BFzMfKKmMieKFsRdvENgOxf1cLrrIE2ODa2huw4OF/xt5fvApdG+oliFG1y5JpaEMJS578MUZ84jI0OIcjBNaJSaa4Olj/20oN2DD5Lgw95ixxbbsLllILUFrOzvYKNs/4IwaP/5IXWKPCpiNISr4NpcsIEuT7afWWS/DP+YIHMZ9niPl5W5LxKMbnBR9C5Mr18WYGYP9A+VPzcIFTYGbsgpKCy7O8HltqNxCTsnaxNvOeKypk18f8Yq13UWZWmnMNtMgddx6fKs3ScVsJgywMw7E9Qsej3k0lh82bDu+xm9EXT8EH7Ap2n6bbvXHY1DGnTJzQndfT9V1MaZgtqsC5L0jpxlLAZv/hXIw+5b/QvU9f4k0zgG5SoVjgrYzZt3wZh553K+q7ispfVDr7QELsc48AYPeqoQErX74Vg445B13Yve3Ux+WakEzLLbWgecYTGHrEqfKkibSOXf92TdtQzCRIyyiRHdZVeZjO/A0TSdCQtKHNuzql3rBqAxAO1DR36ly4gk+tgzbdLVcGcUFI4RlaM9tdkA9Drv5i2+7UHUP7V9p7HErTg2DZXGQ1cnc+1E1iLEr/WELKRXBNFIOF8nqdwJAVZEwo2q7GrvVwnaooQFA6EL15slp2KUVH6bIJyoEWhMqqcgBXsyvZEyFcoAoBtScoghhPltlDlK/dU3ya7CxPd/EUND0r8nQDPl1RxPy9h4Smy+rplnWNBDMMpT0ly3upVbLc19Vv/wlrZz+N9rYWlCosMUtcqyP0IjPtKrsiqFSHHn2GY8zf/xilemaMUS0jjko2KFfRXi3j7Rs+h4b+ewGtO4CKcBmwfrj/jgOS9KiV67Fr4zKM+MjXMPiIU7TPSvTqn7mrkYXopDSuZPpJzojP2ICSJalTxXYOpqVYE77Ps9qUrSnmpSe57elAa43alTUHR1AmZNpJIak0Xns/hNbSEgTa+gzroZk556XvJlSdSxdTkTdzfaJiPkU0Sp92mT+C4k+NhZj15+btJXd1MjqkwzsCgElaGqm9sDEaSNOHI0w9XXM4wt4sFgksFAlMhw2kXMby2S+i59Dx6NmXXb8TrrLFIn87y2Wsffa/MepT3yI6oc+9oVRWv8qpvmhDFQsf+Ab2PvP3/KodMSPPdqlW0c7yem/4Asb94+/QbY9BUnvOgcnMtCMbK7HOJwVyr4lKil/ziLzMvBAKZOzSzOxa0eg41ZJV4EQJEhH9F/TIaLlCkmVSmsOb0jHLnGPM/u+yG93nhihiLkZT1TJaGL1TLnv0Vrkhs5F3l4/8e0YJguy41CYXQBeiq9BEbS6vFRijApWKJM0kxkfs45UYjOp5e8hDXW55Wmxmz/gQVA1EL0sR9ca4OWm0TpFAa7qnXYf6PgMxL3MbsAZd417waboxYtnPZfcyGrx2zgvYvnkVRhxzLhqYhktTZ8iH7H601bMfxrbVyzDqE5fI7AGqDaePQhiWrCh6GcvevA9Djv4qGqptqOMHI1Q77C9yI7PTaJUSZtx4Mo762h+51i/+BEC34BqljzztTb6RrLSdrGByGdNmRgNg9D1tQkkjgJOKzFWZj1kIsc/2+wSA2Pz2+XntAJBXXpm1kdQPgLxpxzMSp7qYBiJdElJNiiwxAY3oCsgutY3mqWYWEgZeWmuz3l4TPQ5jDGp25HSTY873wZPSgLJBF5Tomgv5TTs06YiCD/SZYR1+1vEu+czKeaXuKjF5PS3bdSPnLvRnE23nN4oTpiHZEHp7OvwZXb/ICzFB7P3c0nRZ9kLudT3qGDAFXcqBNpEEzUzBFLMnycyNQ4Tn4G1e9Abm//k/UCp3kX4fMWx9XZXBaLS17MSgw8/A3h8/3zo+WISQJsdQgO7i1+/D2un38tuCeVeBO+1YjVNWd+uoSybxU1DmjxhgXiXcFG3C946W3gV8xPwbfeGjpCXdKgEfmVgWDXMZbSkmR6hGrGijNo7aT1Wu7TJwLfvrwxZZSOfd2Phc+sbWhHpghHBxA5SGVoWG7Qn22kIo3JrPsinUN+Vatz4AAV2Vz5wRosTnEqNf6rh8imZRNxvtK2uNpY6E7GhPgR+1k0zWhLTqdHW2fGtFa7o8ZSzvNmBL023gV7CzFF8OUJkkfX/em2YUF82kqVOttGD27RfigAsfRn21VblROZML4SlMJnaJ5aybT8chX7oJXfr2M6BrRHrSNtRbRTJ/85v3oX3NUgz5/JXickwlOBSUSmVg3fvPoumZG3DU1/9kpG3x9az9ixiqOJsm2JGkK38uiVE83zhxGj4zkGx23QrBr1h2RGLP+jU1BL9Qk4XuafEaEkwKRzWLjiLBtaPWhRaScRYpCEY1+OhpappQGiQ70GAaybVVS2SNIYcnYxqhXg9yAzED+Yq4MyYTUi4qNNNWKHFTpTWWfYvqmvKp8elei4begzDX615g2QsPMk03BLpU9Y+PzkQSxbIzT+q8P5yHvc+6Gd0bgHKd1Dh1vqK4G42VdZx16zk44qIHgVI71+Z8dQ8sf2Kuhihkz/oFL2DpX67BgZf+BfXsJ5E7JrlQ5HqyGyuWvHobqvV9Meq4M4JnrDPakSRHRyS3GYtnTWl0OPHeJ2FOh0J/5jy8AT+i/UY0buXWsL0utkZIDJ28shU6ozQ80jCv+beSGIern8Y0tiBYk+5jbcR3RU7WiqJEYtF15aaJ5174NfUYDNU616Jywc9LlJLhsqZUiLi0VxpnaE9q4RPgdUofZQEpRqYKXdZvL/L8E2ovTJzQrZ8CXSd7QaihGY0iM8nAOXIlWhmYzrz9PDT0Goyejb148gK7+K9aaReeivZ2fhqt0taOzc1zMeFbj4purf5jrBIGrFIZmPLLk9B/7Ef5qTh2OSWYK0GehKtW21lSA7atW4pxZ96I+h69pOMx36WQstE69o5f2ClQzR5tMr11tjapWs5oS8azZ09Va9jmQsdaaRECAUodyy/pdkRclMKs9rkSEkYnNUR2iId6PflUtTUWIoho312XWgDOO1ePJp83I+VeCOfl5NNDuLjUFg2rHBZdFFIS61YH2/RdfqqEZbHTZHpPhE4EFnDfCfbwKy7ujnQVQPYtzV5gRcznTLoCm5e+PQTAylKPxuFTx/CLKVWeLtV01eVl1KcbKZ7iiZ6rwW995z6sWL4aw064jC9W2VoncTHOujl/xsb3nsBBX/qVKCDO3+mADikJ11YpY8b1J2LsJU+iS5kd0CAALptnlX/XvH4Dhn/sOwDPcvAaWwk7M/UV1/hL/U6+V1StUJ/RQAVZL/cwRsHREHoV/1IzuQalmK5SYx8FuMlspjyPpMNHatgEVGobqVlj5X5z9eSOptLFx+VTcsxvxvfs7tGwckRjArHzidpa8vArFV5F+LYWARelE9mHavndPF3mXrBBl1/Bbh+O0NkLjqYbHYDvBenX3bJ9E1a/chv2PvH/oa7EDwPLPwL1mJdnxcwn0HfgwegxeAS5/rwD4Cf7Zpm5b//6Cxj5mSuwB7t7zQJyoYm1t7Xivfu+gUO+cps4/svUY/6nuIZdE52CtCsudPxGZaeNKrchf99/zREpUCCI+OGQItOLPjjgHNP96wznw18Tah1kVmU3bzM/4HZGp7INFTyNH44YPnU/Brpeny4jkV/LTQuw2VKxpdKA9++/CH1HHY6uDSqfs8TrIbA3W9vbsXllM0af8M+o69VPaKO+U2YFtBV9ZBhVLHjwCuwsV7HH8APQwKNprLAv06+F32hXWwVr3nsLh1/4Owm66WZxKKCQsqTC1M0JUJLreNyz6LY2rjTnIlvYt/FcIUfByhUANpClzNcWtjEgdMbnnmZIPd1QhCTed106BQDLGU8ePexnpr00Gqq6xGqw1DJwaZoHrrsTeLV/yeS2kfRWOvJCalXOmmtN2nH/UPWuVhvKdSvo8RPXqmp7w+LJWMSOAfvzdIdP3f/UqyZ01ZqucC+kHI5IYw5D2kq1jOk3nYoBR52Fhi49zHFcuRCVUhWbZj2A/U77Nbr0YIVubE2YY1PouGBwMOpBFS27NmPhE79Cn72OkOlgAqSEls2CeO3o2roTA8efSVLK/OyQEigqRh93p9NcYpobadLduAtxd+4Zp9siuKWHFRmfCURY+1J0xTeOydG0sy8c+gQGl9mfQaz0F0m3UuRoHrFye7lJxTlE6hT58GHiZ0jeaSwlgkLyIv9Fbio3nVetnwieieJWIkXPKmrmp2CMzzNjlevp+LlN4R//aTXX6+gNsJK5WoNVFeocn27mGDDz6SpN9z1eT5cF0mTKGE//cjWbhK3n+hqlic+OA696+Vr0OvRc9Oi1J+rKIoNBpJCI47ozf3smxn31VnTp3lN2VEP/5EsFqmzrtlRLWDnlDgw/+lzjT5aLwvpva92M1W8/jWFHnU6CHf7+aW6qMJM8tTspqXTeZjGSFvVBxYC+aHudierpGScuj6k1CJ/CSuBK/UrhccSIWkDyBd3wuo+QRh1AnejYilAmR6mJSIzifJUdl26jk+dkFj4hVUG+LPzV2dOVVLsVeoGLDyJatGHR6/wK9gNPuw5d2BXsNGVMga7QdB3Q5Q3WDno2WVlKWAkrZjyBXWvmoNSltzDtedEKEQKtVOtQ3bYG+/zdD3mUreN5pWb1eJYCSph1+3not/dxaOc+jQrYXVpK09218m00jvk0hh55ukg7igicbM2F7ImsYizvfzsaL9tdTNoZg++kNvIUnY5M33fYw5aVgg+ovRNziHTSlP+qzcQUy8zgLCbtyIrUPu3CY669K+dLgjPyiUoZ46DbOBBzH74Cm1T2Qnem6Z5y1YTu/QYho+nqQFLe6HwEdo4dSk2XAenqd15A6/r3Ude9N8qlOh2sYq1sq2wGNm7FqBMuNUncOmOto+AvXAkzfn82+o39LLp37QrUlXn/zKvMRMIHL9+KfU/8EfYc+5Eo4HbaesXEcBRxhZ7t+yOUk3SIMNFoUvON1HEQQ8lbB6ORivGEtDb1NHsjM3vCRxw4SaU1jUxaUExDFM+NeZlGF5qaZ1KbyAEDT1UuasKK8dJbkNUMXVqZFfSf+lM2u53gRddXjU/O1Mlbo2LDEivem7F9/GROTtoXTeo1ob5Nb4xCjUzMXTn3tIvJWwPZv9P4txx6asnwlm1691YNAkO3Y/JJ7Ot6HE2Xge7+p1w1oStPGXM1XX13bxxj8saqN34Vq+Y8hzVv/BFj/ul3qOeF0sXmZHm862b9EVvXr8boT35TMqp41hmmi1rk5VPuxJBjLgAq8lScZM1KqYy3fv0FHPPNSWB/F2xRI9AnAWWcpAZg/CPpLLqkj8RvfuaOQwncZFoG9BU3QOUpQlPzejkEoL7HGG06ZQ1q2Oc2bJJaBeRBfGypHefrkHbKlrtv8g83xOhby3M71SzLs3EXjxSVBcpNuuuhNd3Tr0OXbBFzAbrscISl6ZZYxQJ1akzJazuh3F2y+BJW0dKyEe/cdQn2P/NGNMhqYwziWlHGu/d8DSMnnIU9D/2igLxa/MnBVRL+wKbX70P/A5mmW0FdVcyPnUQrlVow49aLMeGSR0XVSSlFLWLWuAimjSyF4hvD0N4nAlzt1Jp+4CiuuMbEdp/QdriAkpyZInaMNihroRBxFdS0A3VbRVvkUEwizelG01WfLG1ZFdnJuVXYKYyvCyFJpcHHj/5Ai9GijdYqrivi8YtqNXu7sRIqcu5aq3Y0xhR+UVxm055q+mJ8gsXty83swGG4tJH4PqtlCivFjluoMSs/qaoUELPCNEnIuljfSIWN8igF1BC4+mqdBOx1cwDGqYAXghm18vaJNOe6Hq7pyjzd9xI03dhZa7VhbQY196FVqm1YO+81VHZsxtIpt6OtZRsf/+DDz0b3PgMx8MBPoMQKl2tN0/bLuiZeviTMioUtaxZi26oPsG7B69i8aLLopVyP0Z/8LqrVNgw85LNBwE+Zu3/+MXmdI67ikizTuAug6gXzuwEg/Uyba8XPJwWBR0WnPdWFhHmoEcZibvN6CuSH06jNuPzalmuaq+AozaioVXu2vHweAa5Bjx5O8YC7z30Q46bYc3u9jJmuQVFeRUPdSVSbLfOiUWnumdhY6H6h4GwdojBHU4NW74fhzxXjY3vHCbCRPWqDrrg5ooEF0qhPNz+Q5j8cENpkFGi9AKWyGFjQbFcLZt51Hlq2rePrcvg/3YmujXuaguJ6vyVuPN/q2uqP3j/MlbFs8t1ofuNu/lW5rgvGf1MeO+YRy/w+jQvHvjbIZZoUhgtKTOpLpRqFtcBGmIkxOwLKAjvxjK6Lr5B4OLAkv6fAILvTwCBTvJSvjfoAhfaTsJayzdQAl00/WufW35dPw3cDtm65zDyNjLan15/WOpaZLWKcag1cPdEvWUnCnL6eis7X7ZsrEInXWFFBbNbFFU7GB+v6X804zDdGw85quoIV/a5COntl6Zi5m3WMAatvLYjr144TEULy/l1e9mzMMP9aIpZ/uaFpMhY9HyztKDVddnOEThmbKI/gsmkmbBQ5QEMwvvzufpA/seWror2lFTPvPA8tWwXoHnnefWjgV/nQNLVUNS/+npJSahGWTLkTy6fea0CX1XpQGyQA+LFevKafzVHF8sU6gtrOt3pDCNXCmxliDdVZwSJHLcXm9+TdUkZXuZoeN1JIU6daUUdJY5m8gWCMARHxN7/MiHFF/kjtPkiBeOqiIU3k7sYOxBKsIBk9EOVBgJjFZ+2DGFISQUHXV2RsCWvIpbuySBRZMla1Gn+GHsXWivK8f/2z7WlNl4JunwGY+zC5DVi7FxzQZTqRmEx4mf3+pZyJydy3aqmCamsrZtxBQPf8+9HQmx2IENp1/sIWI57WAHX/wJLJdxDQ7Yrx33qUCBqP0OjoLk/+3miUluWQ4Nu01sO5oSLo3/L4dvOi4P41d+QrrdmbGUe2iIjaYMpD6OuDar5Zi0KpKbmyPqo/2Fwl0CLEaYXM/hxpFuZkoj05a2T8vWKLG0vD1Sbt1m19zN7XIUHntwyU809dwO6MIxCP8VrIrnDnwlj4v9WCyW1rIRHvUfqOXYuNaq7uttNjIBkHNmPUFvjj3MLblFXGOOiKK9gbeg/AXHoFu8+nO/bUiajjMyqQvZAMKoKVK60teJuA7lEXPID6Xn14+pahbiK4SgK6b3u/lq7EpVPuQPMUpekq0JWTSHUvuNpkAjAWIJPXHFXWBNUAqC/S0gZpKotzzQ4dBwc0aQIkUjxaNjLrk1M9+sHE0jxDRApoTRSEhNBm5wslqHjwWCX20KxqN0Ut5FLIc3tkzU+PJkQClC5wG1BS+lI46OcjURH3ja3FidY4eCks1taQeJK0PpZGbm4JMEAXFop6TfTNHjTQq+0BGiPN30o57gz9YaJlEFY0fLtF7CXhXpCg69V0newFBroMr42m60gdZT5q31VUiZDaq8KRKqqtLZamy0CXabrKH+ilaIBI7s+5wCHdoBx0tXuhG8Z/6xFeA0JwX1YLcH1lWQgxI07RBmPg65q/+rik544yV/OjDBzsR0Z+yb1F+lUbxAQtqGahYmDGD6bcCQosbP+CBcD8+KeTQkoG6a6dCyTKTSTeY2BglssLDDpWlwdgQTTPqalssixCYOdbw9zUZeWPDSyauy75ZrbNjxJVtV+1wCE60xDxGfnWxWyfrHUs+EflSQuhqOIQ6qYRIYRo/T/n/ibPMiUJGoeeQesl4cJPvaZUfujYUVUcbWbHgJsmo0n7dAtpuop4hoiWpZR7U2iWc8yW9IMu13Rr0K4pyEU1Nak+adKwAAAgAElEQVTp2u6FfNB1ATZjcmlUyqZMqUeUDU18L+/ynxxYloTU+pBkRnYtUihYEQP51OdZ0175buWGkhDdgZR1aygmbYjVXzYXbtLIutjPhruEeZpzpDVxspYwJ4Bj8Vsg9Y7Lbqlt0yBUYteFXstzDRBJqp3stvsovasgWDmpiRlA1huIHhIxf09w+yYN0ujDjsMgEadqVZZclwUbx4ZFk7HouTz3gnM4wrgXDOgKs9beSjQ5ID3cJj1lrS2YTtwL4y94AHU1gm7SihDkZETxabrcj20F8sItxyyT0EYoNFYrG8Fokz5NtEi7ykVBAdr40JVPS+5RcmGiuhwwEyHPPR2WLwb9WrrSrkVhFJp1EfIxsjExUFa5sK6gzKcPicBnTsLZGRHUBWC0f2MNKN8ezYiwsiF4ni47FBSI5Ou0JH8mAqeGKhCjo+7GPRQMKinLgKR6+QSokJkKpYRZyFdQanDK0vDZtuY8lt8CUWvg0kOnnzmbSvGk8ZdaqoscZtb14cZCwkHQvP0thLjrTqLrluFscjGlfSItoOnatRcmoqwd2bZvrMjmzhRd1h7xKtC6C9PvOF9nLwjQZYG0IvBdYDSWGCxhyeTbM+6FaPAwhrSB4US17+B3RhP2tqF82QFfst4Ell9TO+20y0DAmnQhyH9QLY0GuBQj2kM2Pki+Z1V7VANS6yo1UrPO9Mi4BDiVekaj6CGN0qoilRVMYpzEPaYv9FTRcZLKxq0gkj9sUMJorQ4oB7VMiVY+cFWBQ3Erq5i/xfd8XaWwIRo8pb3W6zU9s7nXAj/lm+QwihWkloFOlW7Cx2H7bCx3kG9/2kFvs4banUBS6GgVCxv07cMrmX44oBnflBI8qj0zZGKVd2KMxdp/NrtbW0E92tA0BYuevxEHnX5dOJBGQZdruhboki4DCEKlXAgKLbOMg67JXtCabqKmWQBuM6+yBQpqupGMjY70W+jbWgDes0xazsnOXUYXPxNtQak2RMq7moO9ITTbm+mRjAXXFKfag9aeyM3GGudCfvVgPo0RG8o3SJsQWqnyKQpCCXxRbhFz9QzNd+OgSfoMadru2ipgdTMyRFsMmLSzWTvMRV+2i4iCOnVLiVUTGqUSLHRdqIbmc4fYwkI04o7Joo9UfkPzCvG2GkfIdCfuUG/97IwlRN1IMjddrqYkg/El+PqkVp7FsG5uhFDvpSQQ1FZCTMhDW+uW/izt0xXuBXkbcJ8BmGenjA2buv+pE2U9XVV7wcnTLQIADii7DMsHx8brBd3dqOnSkz/MvTCZBtJE9gIbVpagZGlqOJJZCGg9L+f5mczGUcDJ2ULn4NrfOkWIfH05GmqtY7f8qz4zOsBPbppgHtsFrQfykQJaOo+YJcXWX+c+KEsiCPRqnztHqh13i8AJ+Q65/bpW+qZ+x2lEXQWqoIxSfumBGnJbb6j9oDuCfGCvixQxOX5vJYRT56SBL+CeKdaOxE4XszIuJn+rWXookap8uupwRMa9MGzqfvoKdgG6RtPNpoxZlgfVABzGVClIlpYkeE8IkKCmG04ZswA8shGCxJcSzHYvxEGXaowuqMhpCRM9x6QxmopjzsvB+hwrPuBQc1MSXmkkwc1CfHKWT8EyvHW5cN2MD9jUHFxfl9IFtOKVw/2+b4MgmmnYaKiiC9+5OiIo6dzFjtWco+kWPMlRe4jHN8dcQJBjiOs32THZtDOWRy5NLYeSaLPwmCX9JePb07MCj8p9IjVquneNn8DKFKF7TK0zcYB5SamsEquKugcnLM3fxS1t+fgzsoxlZJ5TP7/KvojfBsxAl1/XYzRd4d/s3DvCtGXANd2dtk/3/PtRRw5HuP7gIhIs+65td7N/2e6FMOjmgqhvQQsIg/gGI+CR559yG5LTVRqWDoDm7MK8DappIFSnwAzVQQKP2ZW4eHkHYoxZqFA4v9GQVubzwdIgYij5kUK7aNseh4JCL3W0m9iO3hstz/1K/Tu8KhqUPIWDQma1AFWxfDT054JQhsIRRvW5L/jqeIYfdDPID/KyXsy3UkiEMw9zmcPnIsp8EDulKAW4azkppUOArqi9kLk5onsj03TZxZSDrdKO4mLKGg5HZFR1O4/SuBcCoJvo082X4n6am40ILJmSPZHG3QvOZtJaZYpTnu4VxXEmbpWWzOwZetAnR5QeqqxpjYW6DSU3hLQZqj/RWIpWDD0qLIlr6FFn2rfGaK5QEcEalVZlX72jPrEixY4vz7I2nM3nKq408q4BhRxTdmJ81grE9MrQ7tZtKvAhbkA1Fe9aqNia03FQGU8QaMqLQJfQ5pdM7ExXH1PfpPGEbUVow0KOUW0tgeF2wI4KSTol6gHRpOSso25qIcfNMzQjGSJU70pMIcuQVrmbck5xKnqJK9hlwZtsaUcf6LrZC7VAnBiy/lKlUyhtyc1eyGi6AVFpUSKuEfh4kn3lOwacB7rZdmqniQbyTKqVv00fQ7qARDcwZWjq9zWbnW4yUkic7EoV1FEZRplNT6Phso6CirjzpEBrY5iDCT7wUBYmdz0pniGBCq/QcQN+6sSGbMTOuFDmc349CD02MkilHZZKRDDoQXpULecZBXwtpAgQC203Oy61hgb0jAVhTFyT+ZA1x22OFeOg6W9C/Gj+sKaipDVNRRHt0cCi0vgViIYEobW+vgCURAoiV/2ihCgwIf43CofShqnllSChYq94tX4Z/CQ0FKCrshcyRcyzoDtWXkxpH1QQgOA1DzISQLOK9b7tXrCzF446/37UM/dCQNNNMQFz6eUEWLyHI8yOj5E++jx5vEV8DKRXcwBA7mDlEyRAnu/tFJtO+cn879LMBFuNsJneCEjlJ6V8Qscqt37+UsmROT0G/Y6uZqzBIbOLDSLScfiXIKvjChpJ8BEQpueRzcUVLoiY7zvuRw2NQ/Sdv8Y0+u4jeZ70CL+fHREBZGqRkEMqqjWvgCFcGPbbdlzJIcmMEuaNUMm6NQiGeU6q2Thoj439a+PiKWh6VoCu371wivTpknq6wr2gpERRaeF15mg/A2dW53CEAN2+uXm6NeKT4R4lHAKabllPs+h8oxgckQfx+9jiPVCaU6HnKWwW4F/bO2JOfxknQHwU3jeUdUPScvTG9bFKchZFltmJPmjSfAhQmo0Xgo6sKzLPr+/O1+cvzGRMWIwcGEdHmN123AqA0daIObhAf7PmkdN3UejL0MMTuFJCMoW7iq1FlvczVlPgQlnvPB26+CrvafdCHuj2aBw2dYyTvaBvA+aBNNO9O5AsAdKWJAy6rqabt6nsJUrrWUyHvesLpIVqL2Q3Vm0VGn2BIg10tfqZrAR46qhUeZySDaRta1l3AS6PMbb/ub+uqkr+t5Lvvf36wSc6FtWWziMlPhLHdLe084S6IaEAkTcQQ3yUfCY+W1lKBOskIPH5pIh6a0wyrsnPWAhk5YzJKUCi8G59DcVzlB75gGevTXavmZNrRqMNFcmRZj87QShv0NBCIYU5aeqn61ul2VS2SaJP8eXR2FJbPPvRuHUMfd351gy62ZSxdPCji5fJu9QPQ5pu2L0Qk4LJI9S1F1g93Xt4s+U6kr1gabthgRMbj28DRL8p+EIGpjqgHfkgL+XAi2/IGeFMzDN3iGF9U7TMgKFSEcdmCb5aqewFyUZej/XuCHZPMDUmFEIaZPJS5QzRCGyx1TWNUjWQlKwE0bCHxKIT0bO/hohq3kyhGL2LrisFRSX4MlZGoFEfVlHhafmy5Zy1Baj4ghwD3rhosgykedwLPk03r8pYMUL4V19ouvYx4KPOux/1jbKIeaSTDKOHmMzHVKq04+Q70ZwBXU/thVQG7nxEcPZrNt1IbbTQxo8BQpaOUlOKHHXVzJ0TxS3GJ37o1lFuArf0N9/81JLHrLC07S8hxT2mKzcdVWa9vlvnbi8dVAtVs4rwWp6FoUhEA2Ymwm98t7amLDq0z9zlrZwE2tCx893KDykcRZQkuTgW6NKDKRQbiu7x0FAs0JWBtNOuQ32fgZg3iVzB7ncvuDdHBPTInMGGJKD63Qu6fdSJNClZk9WBhAWRY1XuLvtEWheM/9b/cObLLXjj+nQsJgsTg5ua3osYlbYgNZWA/uYHF3Mu02xmkrDtOc5rUSkNdcQntMKeNKMtzZNESEWkmtSMoIEVCULZ1fIPxor8S23LBXyvALAKp9vpaK6gUm4AN63MLkaRoxw79Ij5dI3bgR3yyI7Nx8l5gE7B1m7btGTP0QCn+63bj50RY8p7Juw2U7aREZLuE71NbICkGTc6y8Kkk+Rm5FopcToHufNuEY/OV+MCm5MoYm6yF1SeLrk5Igi6odoLuYLQFOrw6i6U4G4gjWm6HHTDucEx7SUvuZ6Nh0ObHIOdvaBAN/8YsFFmwyUZY2Ow6RI/muunozEnzYbyFzzRqKki7UWkuufdULSdz5tPRzsYPXfFhpnHS7c8oesJg4v1tYtfu9py7KhxzDqIbkDlz6VCltAxbJQRSyahrmvKOAQ5TMlN6iTI+IZlg4xe5bJJJesUepDiP3kcQBPZlQ6ushkyrFCEj9XcBHdGjjTZF3Xy991kYWcSjEZl6UsXOxMEdAu7FzzHgPNOXEV9RHJEbHdmQPc+1LM70mqop1uEAZXatmQy9em6mq5vYUxuqztNo22FqlyljjD9vSzPub9kNRrBP2rrxWzZAkfrAsOmGpatkfrpmz777JsaHJzaBgaIPTm6gVNHVpUtzwbL8xNSqlrApoVBtlSkvS7FqeBbSX/fbhaDv74tHwFhcq8byhxrKzxg4dCg2VGewKPvpF0u9piHoTXQA+1k1rdpLcZha7qDbPeCPpHWd7B1DNgt7WgkpkkETom20hUxVqjHp6vydHcj6BKLG0unUJ9uF0xg7gXt+orPTEm0+Jt+nlTrniqws1pcYV63PkjVYFwGFkeK/aP25WDG+ok9V4MOaojORnQ1cU3nyInC1HG4VE9dPz2PnCwVKiBUkMrPX2GRm+qRi8039tzHfR3dEyGOdrGnKOeHrM+MmuK5hYTLHyKEvCFF+p0cnAbd065FfR8HdLl7wcnTZYcj6nSert2Nb/NnNL8c80gsTA7oBg9H1HyK1gg45Qblebo+TZe6F/zbqbMZqyhzU40xxnxZrbYoRCjz1GimQnDaFbPSxmHBd4fVaLUOfCzqJnof6quhmw+cgtzFxKbPh2xceioQqRON6fkTQabcq8jTbhKhIKAyB4wQV8Swi6Abf292tXy+89ia2spUOM+c9xs6EaERzT5+r/Nfa3CzqJiN5UrJ5ba4QzC2a1xXDVvkjYsnW4cj5k66ApuXvj0EwMpSKE+XHY5gpj6N0GYWwruPIjqcKhTtZi+w24D79HVTpzu8OTOaidx84gp2lTIm3Av8cAQffqIJLhsvCpxFGDpfT463FGMYIQP9WQux1kMmbOy7/xXPAyqjBjzLVZM+IxoyDMkIP6CZlVRAlp51EB5fRtvL2XFivY0AVq3Wwv9F4riiHzJSVdCc5F4o4etPb8tZH2+pzaRdoxulri2VJ53rXsgDXSGmicwoNpbsTOX33pSx8x9AfW/3jrSOdugZggbdu7B86t38hXKdBF31esRxnr7FOuPNNBrYTFycpYMjTeuefN6JfSuFsQYydu4oyACS6ZEdgUncihUprGHCOZ+4/caPh3du/7Q1Kmh22xrtvuE7LTvMoJSX2DHgUJ6uuDmCBNKkRBC92lX3M5IoMGmZOcWvRGH1dGeQ63qOZLcBZ65gz2vICINUSUsDXkun3IVmArrMp6tleOBkTPJ+yxWsAVMs5IzL6VRbblITUCed+DxUepYkk3u23PjJ1IqSSHfA7xgaimXwaPuOFGOR45OcI/4V8J+JZ0Iypia282+kJiQ2sjGxTQUdY8VYIKRMOZqepFPksuNwNV1qzhqrUHwn6JKFliQ+Im6I4hjiGtcpLeRBYOAZrWRDujB+dfFdvL6EO77QWPJ+pwOQXp0CecNSF/MmbXoNetJd1r1Aai8E83S1T/f7QH0DTMEbsXiGeSS8ZibjOeMsB8VbUBquriJVRbVtF2bcfj5atq3jbx51wYNo6N3HMe/txdCOi5Qyi846csKIncw3vAu6Ik9XAlDicUQfK4cyG/LYPmkT2gZWyi7KgFvsI+p+I6daY5/lBfu93wbliwXEhoEsCCFrr/nB3m+ZMJ/rh807aWcJA8m7ih0UlPqEmwUsPu8UHayDHeJbxpqyB4UASnjycZgfi4OYIZDl0vBgcwBHveuYGQfJWc7zIeu8b1OgUab62Rkm0XlKOmrDVJ6NE3JOBfwlejm3Q1sKiyetzvUN+0DZ4BEpXyspRauMsYI3lk+XZS/4ruvZXUXMVfK8q+kedcED4FewM+2aMkNnoJUjldg/l0xh7gXHp6ve04jDUVp/bXw3SpIQ/6/jFw0O20EcF+gEUpL0F1frI5tXXLNlb0axP7MbVCSfZ9t1x6kAQDGuIUn+ooQCfOL4ZDZA5AtIsblo5i4s+JyavOR7qjm7VlHoWeY9CXzKp5lqXan1iGntRdqja5b3nc+N4FMKOJfn0DsKflGxbL8QziZICyQW7K7w6yGlwLc3MyfeOB1L8gr2G3HgadehwT2RpkGX3Bxhshc6cHOEZ+RC2xSbsNreghm304spH0Rdr97FQLcwORUglSTo2j5dQS4FpLb+af4V0Eu9KxXRYXNX10FfsuLWRvPkpVLrogYS/W19EqWRM9yMUDPmre/kXnayaXZHrSDpblwq1HK1w9CqkPkWH1PaXGMM8WH5Zt1+Pqx+zfxje9/YUOo24AP5bcDOMWAOusy90G8Q3tPX9VyNElSRkTQNJ39hXACTPl3iXjC3AStNNwR6MRaIkohrgkun3G35dDvLvZA+Ov+b8QSWjvbwf98nUyAH8AVAitiGBk7PYVWjbVJPshCoRQJaGpCdAx2uVUPnZur/En9F1sktP6HvBHiT00NMMnMM3PN7thUDk246o6KnPNNoWTyuMCokXLRSYlMmzANFBJH/XfaruiONabpd+niKmMfdCwTIOlxpCSKQ1taCGX84T/t0x5//AOoy2Qs2aQoRO2dnhXy6qaUdkzctYecUj0lRpa7oOOj7NOhj8jTFG15LM2OXktQCx19WbFwexvX9VIMfP3kcjmuo0LYrdOjCPo3Gx+ecBLdNeY8uF6CNWDebyzprv6TSMdRfEXrm9ZWq2RIPnCx56c+Dy4zX56TVa5QNgPvmq0QXvZiSabrMp7tJ5el2bxw+df9TrrI0XV7aUYgze2c5Uec8AgVrx8o83WqrdC/IQNr48x5AfWMjQ2SvT9fnyFb9u4uat8gisl3yBtJc0M36v/4/e+8BZ9dRpIvXvXeipNHMSBMUrWAr2pacJEs24AjGBtuSbeIuLLuAWf6AvQGw9+3bXXiLDfueAZuwvLfAEh4PBxkDtgkGnGWsYGVb0ZJGeRRGcUYT773/X3Ws7tN9Tp87Vw6LtD/W0sw5faq7q7/6uqq6OqyObrmULEnZI/0eRE3epG9Ffn+KOvmaGp5BZIE7AzEGWYwesWWMjTBCg8ERRDFYJMoojYKnhgH7rIsMiZ+rbCPJrr1V5Bh065gA97UJ975V5S7h4kbTwNv9FuclJLqQcZHv2Qc2aMFw+xnjW4lzSvNc+Jsaa+UCErsQEnBx+bzpe9R1hW0atwGjT/cRG3TxYsqGVnjloc9DhmUv3CVA16y9wJGdT0TSH6cVUCfCBNOlPt2/fAByCQVvkr4Z8nu5jXFlL4QyXYU3gwr8uKUNxTLXc753fUBmzlHol4WiRhZ5vKmTOhPHvkphZmkMrmvE038zbJzsSmuSwSqXgnXHHJdNpmLSaLjIuhFb+mQngOilAHEqLe2rPvUlv0xTBvlXTPAXP3MmwYWsvPBnpJwy9c92Zci4izPAl9pq65niRjHuPuKENcve51XGjrS9KG4DRp9uM2z8OakyxpjuwrvmVte3ituAK2HGwrt4mUPFdKPbIG4ixJQGbi81O8BjwP2w8kcfgb5OnjI2ZzCgm2Kg40DXDKSFK8ngngxbxP5v8PfT+ILdX0wvR9ywJ7aWYs5Sja+r3VhB020PbJA2gMxgkBxEfYbNu7Uleb0UVLKZLBSKWCQmRhNU6hMprakSPqMzYoKwplJxhsidEUErpJntuHzA7tIdQo+NMpASBLV+y/wWl6vBTy70SeSkpBjbf2yOtvbhu+adZd+IDxzZ/iK0PYW3AfNAWtS9IEB3/SLOdBF0Ea8RtY08IyFB4oLyPMcERUV0VBlLAt1YHhXi7xNOTNZOJgM7XzQPR8hAms5eYFbFnTKWAgWSxsrrBwvpU8ACTBSVaqrc5gXsZBLbFalretsVVygpaZRCvmbW8XW94R7rkG+7+DQHVecfx/leLyBYW36n3IrgnAK/reiaa6tsyyI35pJwJaXByRFysnMypBRA5W5a7+wz7Hg+bUMBo7NGtZY6/S7GXPHsmxGbrK+l8s4VuhcM0PUy3RbYsOgOcThCuhcU9wvT+oSnpE+LDfJAP6z8IWG68gr2NHm6JUmFg8ZBd+8yR8pYoPukpE+/QV8qRTmTuuJ1dQQ5p5JaL8fvQ8A2/jt8UTq24ikMpj/4xI0UqmOBiRpTw9khQ6zkwrjSFvmm1ZFPbeVYe+eV+D8Z2BqUMmasI7+SOzddKyjZmWn2NtGAJEx9KeuBYVqE6X4Hzr7lHqgc3gwbH/G5Fx7+PECO+3SR6ZoDN/hK7Cpijkx3oA9WUp+uBF1HaUdp5dIOfsRSy1NprMrYT2CPC3S5xvBXvZMz+AUbDhuhvS9dJskc4plLuvbTKm4a90j42A3myfj+UkZGL92U4CXdAfz0GpcjwtgEaNPdFd3eKj+w98YNs3/8IErUTeByceifuTIq9CEVuRw4ppIgG6Wx1l5fn2bk60jjcTRnmjbD9io65sY7hz5WFjshN204fAu+AxyxOu11OyWhssUcEFeyWBysoMqkBzJd06dr19OV06usSABj0aKb1otNBKsyRg5HxDDddMs9ZqGRQd75x/8bAV3lTPHVXkjn/vMKEu1P+h6W0yWa/uuDAbNT967LPEXBvFy9jd5+rHomPmH4ByPAZAEYRxhHpq8Au8hhfMELON1WJSON0SVyKFCSn5BHdl1fdLhHjHYdNZVtY2HLIU9Puu5tk8gs54/OUNxpOGlk3Jkbcbe7hKQCuPXU1B6Ba3Jn4/Pp+pguzV7QgbQynUgTCKEBO3pzxJwI0y3X4ogOHorjy15gEx9TqPvUQYbVstV903Eflrp2SmQtF9oHTm/I51xEQP3MtdXXEd3SV58CK3Nxc1bL4cNOI5I7NQ2tgYPgmUgd5bfcHHK9WW4H344m7a7EFkfJ4XFzRL9r9tsPrKGZudIAmbtzf2DNlXPL5y3ET+1AFG4w2QdF9gLz6aJ7AQNpTf7sBRlIYyljdpUx8iVbyaWFkrbat9j54KP3O8a94CliHgIgScqjlUPWXijNp+uMXJLAkVx40Qks7U402vcQEAoZK/lM0piFtBUkk4N1uRXcYg9JAgwOt5Jaj/zeP15UkCShXGZCgDX7lXTl6XvvNHBJkax8WuuUGGstkuJpg5h7rKPuCL2yaQW3SJDU48uOjBlh0nGn8sxdCqFsBHCoC4aPoM6xtd0tqSdbvGAbUmP984FWrhf5TeNwhN+nqwNpzpQxnUKsk1DITQwh/tZ0TLfUIdLvOf2Ewj/EC94Q0P3Mo8wW8D/m8c7BSyIscQmV8JO+7QKBcgCpAuUAN1KSjGl+T9lbiE7ZbQcZgDQCeZ81AYtke7I3pB/X8MtatyQr0CIM0XBJONwNMs6r4iOWU8IOYFE5fMXqXa4BTtgpnRJ8yZGeaDNdtoJowSFPhoZNXvh79IJVPcZqGhxuGrW6SC4zf2zwGTMufdIbJcuFQd0LbUug7clvC6abOk9XW7nB6qokumz7ZV1M6XIvSOd9+HfjGYaa5CLADht08eYI1dU0yz2J1YRLX8qTpQBsKe8kylYmtEsjm1iSr7FZEEtcKHPE/U9YnISsiDaR7T8FXs6SLKamgI/DCN2KU/dFVGMFOlmbKwqQvC3pqjJHU4OuKi6scU90WufM+oPslMm6XGT4HbxJt1CQtV5MTWPvSIeN5Wvm/SfGT9aMFE24dSl8vbpKgMbpJzNeYmyOtr0I25+UeboR0JWlHVtg/aI7VJ6uPhyh2V/iwkt4wLCbA71m9oI6HMHT1NwMjiQWBKTleIfXAbrsYkrVVR/ohk/YYMcq3fsJxuZ1gaV0PSj56TgqEtBoGr8fJ3/mFe8up7Ctu2oxenyefjJtXqMU0B3jEXunZzNSgxWfQtVmcgi3CR1DybD5le8BvdO0nT2cxkCbA+O+nkoCvATO0PbxuegV7BR0Yw5HbFj0eZGn+yXIqXxVP+vj42QFElwLnGg2JwjRiynn/OX9kMMr2B0+XeWWCADauKmTPi6Wp+thulw30jBdZVbLFt2KtaaBLgpfGzbT8Y+XSCUq9VgkWcRuXLSDHu50Iilf0gIwgE3Mn6xZQPuY1E5kPCwwov80XQFmSlV4BTFx9JejSALykL213ocHvCfYuVibrsCVzm4Q+3vNa50ZFezXTAbp30iQ3ZURITMoVCqayebNMUwIqlE/sUids7MaymFX3GTQPJGHQ2MyXR/oqnq6ovYCN02xHMm7ffKoDt+ypAHdcgxTVBjUbR/o+i62c0oyCPGSXnV/b/A5a2m9AElyBvCTU/qIsWVV+uU6SVRuMdwjY/9UGTlPsRrDICiDKrfMgtQYJIDmPlCfZcJux6s6MSesRJOSrISleoRpTMhTyncaQLacBbYcfVaGUjnHpR/ZTBAOIV5U96TRkpho1l4IYLrsGLDKXggZnjCFNhTQug14zkd+Crn6EcEFddKxF6U9yjrbPl3nHWlpESpsGAb1FCUWpRDyQX38DfRyasZaJtkjoCprMxopYmL3J1gGz1GlrjEujAqyyeeWlU8AACAASURBVKPxJDBtnHslASZFMJNIseivzos1MyEoUdbuPC6nudsjN3LY97bFkU/FYn3fpS5EkvNsBRW115YXIJTjYvjCSXCPHutgz9hrmPVP7qrkPCQoR3TShf1xYSP3y9vX9WyKlHa0Ct5EU8YGB7z0ba4rUffCRX/xU6hoGEFubtADMbivk3ZkCo1wL9CLKd1XsJuTYUeoleW3AiPuLXxMMn1kzqPsI9ZdIFei3OtRRZPXVQtDTsLDMZqm9zD6u5J90Upz6WbGVXlLChHxg75J/NC2v9ZOOIhL7k9lByjAxYKd3xtgHL6Ixsfc4khPGwF5dWBTGolEAyAFRt3Bk1vWC0SWuHMZ9Hc0y8Eo+yiDa+oTNBMpnb6mmh/xsPzs0R1LYPsfePYC3pEWAd2porTjBnZzhF3wRi0LesCQB7sM/yINk+pF68ATfRswvZjyL/4fB137GDD1BwcuRO+RUmLldr74Y9hD7kib+5nHWI94v6QhS7edP/VT6lCDQQaSSlGs0+8MdgQS/JOJzQvfJ+fL/PortTYMbpjY0uAe0P1w+7DT9jP++fKvLzdOpd1FJQXSIqCLV7BPXXj33GrDpysDaeYV7D5/Z+jEsUETI1fo7zGuYL9Igm5JhyPCp4Pv+PC6HqwyFr2YUm+tQtr0PHNK3BIh8rgMJJ2dNG34ZjXGoIYqwql8zrb9JcREQ8VzLk4x94rbkVuoDVavdif4JJZsDBU0OoeuWY0Pxlon2AhLY1IYDYp/qN1cfLw47Y5FrkfpLjBh19Ez60ex/fScRuRNmJcl2H5rycaNPGvSnnfnKcby2I4lsM3PdDno4jHgDQ/hFexVvLRjSCAtHRE0dLnY3wMrf/RXqp4ugm5l40jpUArV+/DnJMsVg71r6f2w+8UfsvezuSqY86lHIZulidlkm+ZwDTkZvHLE6Sgsx3ipKfS/VgslZAnQRcy7ZS5c2zVgPE8+b2+B4/M/9YuJtkV1VzAx6oTWURLeoL1ntYYnNKiinhPgIQPsrDkCiHRe+FY1JnsijW2VGCW/59BQ+xRVqBJLNVI7frVNF1toh5tLuhT0HMsdKvEpW8GBJNPMgTIGfBVO06i+aQ3lNfbaN+tOB42TJQLwg8GjJLMnuAYrS1uUxeYdx4nFZMb6dJHpTkHQJUXMWZUxVeYt1AIHqo66rqfXYLoXfuSnUFnf6EwZC2zZ/RhdhWTnNXBiPyz//ofVgj/z7Z+FlhlX6fiFWK22j8nwKxFSIPlfVIio2lB8oXhD3zVSEiMJ7mZpFN+mzP65qy8cjKIap77PBOSSUZx0ZSwpTbH8gHz3YLaRNKe0/4ngThqzu2JnN1Bt1oFdk2eavmfTJhhzlLRQkzoZ8/sok4r0zMp1oIMgq15xrQxPX9MnwryiJZNP56v4Gstlpf7cJHQPHD/fPAa+HtRV/+ibr0scoClj6F7AIubH9R1pgukm3RzhEi3NajAWBt4G3AerSJWxC//yfqga3ii0n/qlwpKg9aD4Z5JNjkC5AmThpW+9C/IDfUyypimXwVnX3inq70nmIIDCAg3nLImSEgp8HUhoxEJkYWYPWruCBr7vctbB6bgX/MXHvQBN0jNdRsEAXDtWQxqleJuUXSEZkzQ8kfgKaYwC92AXU/r3ozpFM3Eka5PtGkzWwfr09+XpMw9602wGRy0Fnf6kJ891Yo0bzLhiLlzIqGtA5+DzKSbPWdtz+VuaXSCDjAZtS4MZaux0WpdxvFj1ybXm5c/8c5deD5Lf0KC7BLbjMeCb74GK4a3JgbTpCx2HI3yDlWYQ2ezL24B7YRUG0sR1PQi6lXg4gq3UEHZNBzPEZJIZFKv8SPtO2PjAx9VI1o2aDtNv/BJka4dDBq9GSUKNuDkIESl5DsOf8A1HnBylyuh4z8umrPocEaOgIuC8UeUO8IGENCxOd0xIh0Keoew/+Xm1vIkViRzvNfoppjU+bhQ/9553tWuIb48USEnXgzrLYM+EhyXI6lnhmii/oKuseVw3fLhMOdwHNwLOf1jih+TZpuqSazvoaCACuqyIeStspBdTDqkft3SKkb2APt0vJfp000KesrYiJ7E4YIHuh38MlY3NZvZCWkA3BsGzWOSoZLAifxHanr4P9q/9jXqTwX2uBsbMmA/FTLW4skhYCxYIRGXWidRschUx18ZCcGrebgx4WyonqDVN1JYtkSfF93WBHrmILWPF/imqBAsZ7KWm5cSjmniVkqSxEXgkmi/zzyzXhGUwjTFQNNDSVOmHw/8O9Cimzr5eUQOQy8GQ4aOgYvhoGDJyItTUjxa5mnx+7VlOG3lOt/Bi6tpbusexJHqnls/PbstRjn5wGaivWsofQmpUVYNEEmS4YxxPO10lnlu/xYKJ5L3xNmTF69B5CGNFdhCNJCuT9eivL6H6RwreJObpOlPGPKUdkwY4UYkF04U8gu5HoffEYQZas9/3bahtnaQPR4QArvVMutsH+HLt6zkBB1feDzuX/SxR9NMPvL4jUDWsCYaOvwCmX/P3Cu1D1CSV1GVqkEa/FeEgPk33NjlB0mTSrRrwPSrrICiTqgKwKRr3iOlqwfCpe6L/CvQiBzNIIMHjIinFOBkBSRLzUfghAqucL4m6EGayg+GKoaDLynLSY8Be98KCu+bWNLqyF8wr2FMpr+NhGtPCQN2K730Iek8cZERx3PwPwdiL/4w4FghrlMxSBQX8gQ+XjHQbwwZR8ClZhAN/f+jlJ+DQ5qfh6K7VAXuZwY7E6fcHMwJNUy+Hs9713yBTwOtRorUyFKBYLookWHEu4AQQTovRSSBhBv78tx/4xi9UnsSxSOS31E+sW0tqN3TejZ20dctxKLkKHQu+H7AwhZ4gVA4TN+6o78Qw3cRAmtOnGzhaEeFJZ+ggoDqt/P6fQd+Jg6zllnOvh8lXfors1DWd5w553NrTrbxpBa3dndstTFwLionIF7G83EAfnDzazsrMVWLlo3wf+zvefUSzwTLZisDR0K+pzyRkPDg8FWoEtVdDBwS5XA5XAJVQZQ6ELQkj4MfMvZ2OJr5HP2umBbCvUweAZDMmjEj6wJPdMniJmPhTLOCpvAJ07t8KRzY/AUf2bDDGfPS8j8CEee9Xfkua8iXdOfYm2s/+iIcoiWxKXfTEHWh0PuKfpAFH6u5xXJ3OxfDPlyQSrI+yLdVONA/XyBqw+hjr/4zxO/PpN33HrvXvqstLVTbq/44vfuQmVoIme4ywqZ5hN0zY3zH7Rk+N2r8B0CfS7oGKutaw7AUzTzdssQYhEXHo73jhJ7Bv+f9lr1UPa4IZ77kPauqbuN80krxMihpJcYhYTgnFD6WvXgdpSAoT89MK5ZFFk+T37Q7FnVEM6vyf4EP2sUyyiG1ToQwOsVA8QJeBCsjASz/+GHQf3sF+i8+e+6HvwdAR48hNC2G+ytdqFlx4JX8WtqK0cVN8wQBYCc12hvZr1UP5/bhi4eWTxXZVcHtDfK2JuxIBtmGDHy44+a6cp4RjwCRljN0GXAHTF94NORb6jJ5IS9oehUnKrVIeKuCl+65m53HwT83w0TD1XV+AIa0TOY8QaOnmcXEqTfJY7fynMAHNpyRwlBTJDf9grC4MJtItRHCyEMFW1LKVB0FcYvsC3OY5EutNnYwvTJvgiNLNY0rlYtmywf6eTljxf96jcj3Hz/8wjJ37AZGHmrIkZ+DCC3zM6LNPM2n/E/Ym4UqT8klt2LSbLWUTg37cliFNHvGgP04bSNr6hH7Mji1lMry0Y/yJtLvm1tSPgg0CdGcsuBuyWZSIX7IWPevkliZYQQnbPbJ9FWx5/J+hkOf5svit5nOugcYJF0AhV8G3j2ILw3/L4rHiv6SqvBKJsx32jnkcSW3WCLEVkEP6w/dr+gcWeaJsLLm/YUtLfUIGGdlr4kuyDx45pKzy17raPe8ClcBmkoo92dPJOobbJx094M9GmaRu39jAqblUiRskg6PA3DVZyBbzANlqGDHxPMhkKsjmxq7rwQ1wMZOB7c9+F/avepi13zBxPky/8QuQYbIK1qO+bDtdzBsZZJcjhiigjCAbV9f2ybks3NYyWXeIDoQuftn3yJXt8RZbyzJYy26/L3U4JrFb6VXIWvHJp7WfN8eZA4/fSFTxO2tCsJc+E31e/CSdT1eALitiXgEzFt7N4JYzXbPsmu3/UcEx8RdxSk4tTzuKy5FAp0QhSBzZ/CRs+s09hmpVVFazgwtxvqiUunj68TfQCCDIFosDeAYbahtGw7jzb4SR595g6I15XJYfv+zNDoWVX38L60kuk4E5f/Nb7Y4SCfyStesDDFzn7OO3NLDrNimuARNhWGGQ1HIn7bveinhZxIvSWOh3dCnFqE+YgIkEfS/QRqXQpwg5eClDJarvKTsiMdLedsTgovEo2fK71q+ZO8zl1DjiOJ5sHfpx+cpVUFz1RdAzT7oml0sQtCiXEKESszi56qN13NgMfnJN4vV08XDEV6FiuHUijR8Dlkz3DpYXiaCrr+ux+VH6lWu7WpiQMkwgUjKO7lwBO5/7Lpzs2M4+UFFVDfn+06CbfrTfHG9ks1VQKMjdDZe5cfJ8mHLdf4NcRZW3E/lMDSz/xlWAgbZsLgtzPv04Jwi+AzVpQtgxQxfGTMPG3r4HLeyt9E+5Dho4zUggu4+XYPAjFJrDnH4kHG8kiZv0e5LCZrtcEd0k6M685atQJY4BHzOOAS+4a25twyhY/7AAXXQvoOmQychMAH3MNBrtdEkYJLUReUWf3ck9a6F73yo4vGcznDi4B4oFkjkgxw4RG08kYYWaAJsQ2ZQI0VwbYvUJ3Fm7rKR4KRq60DRA9tw+lOuUw9YHwibU1siWgwgubLVoxaYi8Vs29tu4R3RAmLWvGKTxnhoQtYFRR0KlVPRD+HcEwmI//5/y6POHaxrGwPl/8ROAjHY38d/wUR2Aalh+7+Vq1Obe/gSPPzABHZTFu0ID9DNmrZoLTbflj3nEf8/l1wwCzbIYFcr6rPoIZUE4dyNpnRlpn/eLHmekha4pXbKeFaybY4N2K3Dd4/82QPfme6AKT6SZRcwxkHbX3Np6AroLvwxZXAzqBAhR5qBJLk2hqddFsX+NYNYYRsvsUx+O04OjtmR26plu2pbc/HzSwklM3hLg5U8lo52M82DFw2npKyXilbMrrEk9Y6ql96FYfUkbImUuiDGgSil8tJCDqnwPvPzYF+DYzlU8NQ8ARp+/ECZe9gkne80Xq2DZN65QA8hAl/h0Zc91SqCV1V760BhvKrYac2edNlLxWlV6IEkscg9TDa1xa4J7PLTFBdLt30W/r2Mx2ohLoDJvOo6bJqfL0sU8nVhl62YahfDMo+kbMUAXi5hX+phuTQMG0rR7gVcZE1XeY1luGqHps64O8KmgzIazJj599hbS3qbJfF4VQ6OV7VmzQqGsegB6oZqfl9aMxkzs3qp5pShoFY/xvW8zTZWRJsmjxTTlt5VcDlhio2QZYPkdFZOT7dq3BxgM2mQ8RracUelfL1Kq49TlyEmDC715jwYG+mHtj/4cek8cY//OVQ2FC299IOpmKBahkKmCpfddGQFdqRtuUCiVBER12779gvVMZchojm/nnpothclDwZCPf8KxgCBClFDGkgkalS8uW9LrLrGJoAcqjK+FDY2zJdfcGz+ji4N1U5ccjc3KcsnkGWsJA0falkAbu4Id83QjN0dwpsuzFyTofhkygPfQmyfSQuaUyhc3fvFjK0RnD1EEiwF4ZcCkNZXKY4Kt0YLLgU5qASTX3bFYQakKI99zTq7HXRl5NmTzRZ7xyWovlLgJJYbG23XD/UOAVyo8Ry3IQy0su/dtanrm3/4YFDOVmj2rjJdKWOICXaErvsUTHWK3xFFY808qNyz0vi0XW+MDIHdh7F+OoJsCWFHIx37GjsTHM0GSuKO+RWQVgCMNhi9YHT2qTA5rOuo3u+FaUyhNhszxKBSwFKVc57xcn+LEMivFCoTqWQlfdC6TZau3zo2yzaT/EEjUpwvAQZdf11NZ1wwbf34nmD5ddC+gT3eRBl3uXpCo5PeVMVtBqhnpxAR3tFgqoEtpjAEg9ND19UhHg4MBeuhp9DrEG2jK53chRmUzS9MpALArT6kFl9I9aQ0mbd+14I2rszX/J8l4IiWKpN7ELfJSf0fHKV8EaF/8Tdi54nHW3LCWmXDOB76manHoTAQH6MrERtunSyYsNQEIYBihy53Lbl/QaJ24JIMoj6ob7hphVKgNIzZPhTZC5kJH7unJrOjlkLwtXbDbPpkYYuZD5JHP6F26abxs8JfGIsjnHShAwHSrlpJ0CcfpyHbMXkCm+1WoHN4MGx9xgC5jugi6FZi9IH26OKwh1ya4e5aklLGU3tFkmoHxj3Ucc+Fq7DqWSNItIulHLmXRbQiGQU7YURbjDNZJVkf26DrdSfuDOWsSS8NO06G5itIgGTehxh+1NGQkmSbGuFJQE4JwT0KICaMtFaFQBDiw6kHY/twP2C+yVUNh7icfYTm4yq2E8merYMm9UZ+uKMKgc49sBbCm3XLDGTtqn8+QzaSHpZq9wYptfBy8ATfLF8yn0T4kTeqEiLvQ9Hck5NJ4i7krUgw2yHjq9mxGSH2zUaClnJP3m/WC3sbBXF5hW0jlIhS441wfBlEgI+JJ5UqDG2o9ifRDOq9x6bJqvYsXGOg+JUDXm73QKJluFmYs/IrI01WrLdBeDO4xyQi86T+R5pNgXQISrWET9s7gesLflgrkO6RJF3fcQi+HLBEMMnYG5GqKUD+XU6jo2GrWLepn2MWyxVrH0jUHVj4M25//Hm85WwXz8LJQ6qBmZUGjTJenjPGV6M4qiRqBJLZC30hyOaRZ1NFh45K45p8CdlLwyACHhKQU+ayLqdpr0JCBKzUfasuwpllV9nexLTwwo6/w4cBtf0vvdgjbiMhCjEDKgke+dRZCDmWfpOkyQdfjXrB9uqZ7ATspTgmJvNrUZCYEOQanvQnV8WMESKMxIf0o8Rm1DbWg47UUj4Kkm2VYzCbi+C5NWsxb2P/Sg9C2+D816N72qGBOZPcBJuhefPsTPL1RMEth7Upg2+kmjbrV4oDKxRNMUUnxIgKWNHAcFz6TciggjbBrLUFsO0yoaFUzezbjAEgz69AzrA4TZLNVT0gjabZKJjFGSljSV8Tvzc0Y+yEH3e+wQFq8e4EE0hToigY5HnL7b0ap3ZbPeMh6SU+cOaVJA1XacvZxC/eEay+AJVvEd63gyXBHsPxhORfBfubkyWWjHHd5otz6+lwByZ9w4YMzlhhZeGWYGHQvtL/0EOx44fsEdB8TWSuMW3Hdc4EuPysu/qR1bbgHJqlLHOx0kXLaig1u9noxinGzg0LkuLUxx6Yf2DuFyn2gx4mri1X4W7SNI4QF/Kkbjb1JmJRdN5vqXtKISXdExE3nyENysnnhSlFZL6ovkvyS4CRNk2GC+S+NdModSPSS2G6E6ZLshUo8kUZvjqhlV7D7sxeSPubqiO8dV26jDW2GayFJ80sAEvVKOdo2VhNxPRoKretA2EYlycik6l6EknCIir21wlJYg9l6xsc5twmKG/dr2R5nug9B22IKuo8S0BeHczJVZvbCbb8FDHzrBSq26wSCaVd80x7yjAGs1jbbBFYaOBVAoSJpvBVJzu05jgtOudLQFLt0bfkFe3UegBF3+gktMUIW0t1hj5UOXEWNTaIcwmQ62yB6KLfnYpRElqf4qZW3Fp+WF+zeJzVZwuoX67k2GKmqD4KyG0zXl73gSxmjfhSa7qItqWS/7ovv+HBx4QwOouQVvysDQQktbpwMZnrhOsXitNMJaAYokYBYSIApyoj0122wS9r2eY2llCkZk/nMici7MB0JWXRRSJOLyDu9YiwLmQy0L6dMtxrm3/aoyNLm7i3m5kOf7r0kT1eCLqdqxtS6xsCQ0CVcgjE2GaA7jUgDEJeHBpWSdU8fsox7lrFVGVDy+VnFXEsgT7vE0mYHRIBXjC8bM74ANOchrNsE2mivSz884h5Bw8BGUtHCgNc2wMwAsPHmRcKObF8CbU/FpYwZx4AxkIbZC6IB2xldwpY5To/dv7P4r6oYlH5AJOTLmH9c5VEXWUyrqCGLyn6mlN2E7zuDJfChsnjB1ENrnT8mxosx3eUPQRtxL8y/7THDy8nn0gqkRZhuKTPgfydpPP0s3v+me4zjtY8Blxp0M8ynWKF1rCFpLt1uPksOdRGopE267qAiZBS4AoxfFMw9Y2UMrvTbc/Cmu8SkfoZoRITUWO4XnT1EUv2I0YtkL7CCN8Kn62S6eF2PcSJNH44wfC6c+rhrEoT0LOEZ279jW8cyfMJsgrBtX2qK65tpJ9nrbiHbqjTflzINyj1B9JzJR/yKZRlne8EkcGSMXbcvfwB2vCACablqmP+ZXxJRpE+3Apbcd5U+kXbbbyGX1b5Pg4GIf8g3kwp1pDO6stqYgDzqD1XM05RL6YGqmmU6E+JdC9G2VF8plWXubbErICVRaWYHBUv5c5/ry6kLJEuEsluaLBzJrRUy8p/LkXaRq5h+OoSx/b46pkJvdiAvJllRxzeigGxuqox5FXqQfDjCAF2ZMsYPR9AAWjxDC+lNyDPpl7yxXQiIdoZK4VuEfIsp1j17KEPyENPLX8ob0WAN2cI56FdSn5N+T4FeMRUaNEwYd7XMHEYbxUXvQfuyB2HHHynoPmrG81m90kpYSkD3YmS66uCkZIChveHcOTxFMTpT8S4tchBHsSLrkKVIiTOnTMukQI2Clsi3ltIkGWz76DKfPy2HgYOiUQ3MRHBpxCwDk/R9N3HxAJf1sItN2/32sd6YvYbT1eFm/ilWJ3HdsSLm8nBEsk+Xg648BsxZkBx4GmU9tVk5admkuXziOEPYIGqlHByzD/UzSyAPBQC+M3fJNjgQiRuduDkxFVYqTOhYI5hmoX3ZAxp0s9yny6oZCPbG+pxxM1334QhK57kOG30w2H5KfTaG2cXYTP8lEz2SZxmdK5sHcrLq1sEkLXdtmUOBWi15OoU0RpEiZ9QeKrFHEOORTl9LwYVYssh2JWJnEPGNR10tNG6g+bp9rULgMWAaSJu+8MuQE8eAo0w3FEb8Cy7UAoUtWWsheV9KntyEILzBiaxlNii2VMpIBY9NmSULVnrfYLp+XgRggTQKusy9YDJdblijoGtmL1g5jWqgkvVWsSrLoPm23tQ3KdljbJ05UldBieX6mZyzyA0QKirnmf4IZKvC7e4XLPeG63vkRfW0kUVg7y6o64DKa5kI0gb/jfj/7Oe0zJUGRZ2FEa0wSMdTGYyYwxHJaMBbjOx2E1xxjBiwK9iXwHZReyFS8MZVxBzvSMNAmlak6NFY36KPE1KyM7fVd7ToGJnQwQoFJW8/XNtgB4BF+mttI13tO8fIwRx8MEHBISnQlzRert/TZcOWQoIfP8lYRZiGMwCRgb3LHoCd0r3AmO4vSbo372kBKiz3whOQyYrdmOU3jvRDflesJjnkdNcgF43st5SdrYUAA6afiZplecyXj6fbD22v9KRv+n4f93O6Q3LNrVsnSgtiR+ZeBcWjezr+3SRKpn9vZZA5lzIzmMQN5lyPhOHa7gzf+lV6Ya0PDbrUvcBvjogUvOFM907AqIRxMWXaFVUK2iVoVtKiL+WTJb1T4vYq9lviXqUk8CxJ3tCXKNJY5r3U6U8CC1s0zF4wfLrEvcCfleEwT/YCt+RhljtgXJL7ra/V0Z82v+8GNHpXGz2eTnvJ+yu34TLhn1PA6FaYBrNcBx4MF6GVtsW/JE+bypxi/TPOLjVLValRIouPllGlw6qi/aptEfWnh3e430j6fcT8keuKjF/ZpUalPujxlHIKssyzOuMCxFRJg/4uHhLT7AJoN9Nthk3RKmN3z61paIUNixB0MyxlDKchy3LO9J+oErl4nl4gUd0OX4qvJdDGfitQ5Ij/zMOK6HP0CGeaYEQY0w0U3ANAkUBdTLHuAAyzHonKhktnn+HTrRFMl/gzmRsCA2lWni6/yq8kH2F62eUbJujSyL0dxTdBMQq0xrsegWSU3gZYyeRU5SNfhxy00J2H69EbI5CnzYGyhxQoKJA65Im6ZczymOqVGKc1zYKgY2KAuGhIr63BrYkQXXGDbmw9XZPp4nFFOpYhH3U/QzqbTCG8n3lNgFhsNWSlpMT+lD4op98U7ldJvvbR7AXBdPE2CX09PIZ3HaBrnEgr57CWc5Ha24kEOWU6ocXefThUTknLOYKqrVgBo77oeBmSQojaMLoC02bQV7flil9pOQL2omwjwtvjPt1URczpbcBm951bJqZP5lluk7mVRyUMlhiJNFI5y/M93itPloDvE3TLZPM7mnAd4B/0KZ7BQiNGrHx9L3XxBRtHkmKD39q3/EGdp5slTJcIUkw8BlyC1KUQATHMKstF1hWQJ61EUMrWWb3tFqmGkZKNJcgf8Iq5e45eRx8KY3JNeH2v1liG7ADpM045rMp3Rs5xzA4sbkfI2bE4zuwocpOENUa/iJ9amtZjO5bAtj/IE2lOn+7dc2vqW5VPN+424LgF5Vru8mdxv0vSmaRFzH+vnEVJzbHfU92wLV/S94I+EGoDHANT9u+nFjjshTh4D8Ix0gDz6RqgK1LGDL8fBtIqYek3oseAUWIz8d4ReRbdCuAssQMQMj9yy0uLv9gLNW3dYa+dlwotxsAAWEpOSExCjpd0TwxmTNQaVyVz+V/o2neVhMSiO1nB5A05lJxuN70C08hp2ejzofsLP4ei7i1xGi8mXU65F3Ysge0CdIOu62GBNJa0bV7Xw+c2OW91MFwrBNQH035QCDoMc/hTpQjj8baEjG3IHIiNh3dNR0S2WJvsfpI8Sb93DqM6jcVBUsrCjwE/CG3yRJrIXlBtsAfxeXcgTYOu/qor+8O3cympL0nTn4Y+WoOVJI+MByQVfeEZE7weQCl/5PwY/l9Df5PxQH635OFwWHDnDiJgIDONwAAAIABJREFU95hmucaTSD6ezPVlyMeDkrEpY64qY0b2QkplUDQyzbFS1bs0QxKgQiHN6YBwpMHI1ijA4ARIFc39C1AWF9gmZ57GS+NTKq5M9sRHfxgyvFEJzLekvkZrL+jDEergA0sZc/t0NeiWJpV3pFI0x/SFC6KuU7WtchKY+uSwQZY+p1i1lQlgvGMDV6qtiD1nNtDy30s5QufCW4NBkQDXdzSEx61PPSYeDl8GzPGyYwA41rYEtsk70tylHWX2ArkNWBS8iVOaUAUqBRxiGa/KjbZyBz2Je/Z2JHFCQpBTsdwUq9KZt49RcF0qz7DgZcoYcLECVxeVfzLQuKTsuUgN0uDNQUrWCUD3Ai14I6qMkSpnfMgTUsZsn2KgQQubcneP9foV22qSGyrjYRyNPdc7h33cX37Mc5mlBD+q73wbT05XKwwTPyyNEEd6EMm2UGvTVxZSpkdYsgXSY7sgjc2uzQwGm1bIGUyn0S5CITPGKdN1X8GuLqbk2Qvo0+VVxqSV0NYiDt3lUxJk04FylF/5fDdOwBjE4ooH+JDtU4mTFcQ2QlfkqX1usKL6xlgHogDs7IV5t/1SXSev83Sxni65I00UvOG9T9ZT50IhBfrLMYouP2miLlsqFLZ24vXOuZMhBiGkr6bBxiF2HZJIkCMS9BbPI74URI2XhPUbIeqO55PGLJT8qbmSld30SRb3kFF3i3giyL1g3gZ8N4upcusgkpAp+7EVxJeTSpiabW1VkrV1oaLcntnbJ+W7GgS4Mq4RzOKSTuBYWy4HK41+S2/DjCpMMe/SLRtlLnr8osaK95MGFTyLgmyxOMHhc83IhV1nlPxbymHOkb92gddQW0zXlTKm2KEMuGD2Ar2YUpR25DL5xoJm1rDRUact3ecpkgMmPsDS427uYNjzhj9b5+umy9F2BItia9WLfGJRGUy6QPR8a2rrkyPUzeaF3oArcJgUgoXLFEHqromOdyAF9k6Uw11mlHMUZlzY8VjSQdYGSxnLABzdLo8B43U9rY6bI4x6ujnzRFqIOUz5jD05vn9Hfh4ImCnFIUBcImMVH3Qyi0EaibR9eT2eDzVkLtnimC4eAxaqz//jug34Nn5HmrF9FKe20owFda3I97hhi5/AwfQ9jXxJzw5Ocz2tJ/W9DLp9SuSW6zH+4pSkqVWDQmWMXeMiPoQvHlXZC/dARV0rbPIfA9Y+Xc50edSTFv4+FUrmSt9yWZbBbnGVMR1MfkwMwNqqW/axEjMeqwR0qyONVFrNTlpsZTJ+dHzcx4A56HICJG+OqIYl915O6uk+AVlP7YUkoIrMl2T5EkxSK5zYyfh8t5ScSRdmzEWSPvmE/TF3JBYA2jskr0NYbJ1DTm0ZeufY+bhcKPTUpd0fVduFb62MbBb9rFsZVaUydTxc+8uTdg4ukqfqYtg6IK29p64H10+ykxKC26CLtReO71o9GjMjMyx7IVLEXBa8kSfS0q7atOpO1Yi++1p8txRZ3xjvOK1ugnXXKDZ4yxPqI4sdLdGJaJ4uXsH+aPSaF497gQZukhZdOWfPqaFlU1uzIRPUsBdp5lC6EdK84xgpw1UQk/oTMMjmNTxJg0ZqMshqaFYAMeCTr8kj2BMJujPxNuC6VlbwxgRdFkgbDesXfR4glyOBNFWS3ymsQvgQL3c5aWakraQJG+RYk6TyU7WgbfZ6Km/oCAHBNCM2WDcQDi8rYm4cjqCgqwGmmIkyXZ5TLlK1ysTC0/S/bM+mUOO0JDyVBzSFHGXr++vRUNpBTJJR4gR1L9z8VajAlLF4psvvSJOBNC2XCKhRwPMouJyztHOXtB23U5o06Ccb/aS244pFJ4116b/3bZ3ScZjSv/86vml1nTFdvIJd3QZcCfNue5zdyIHBCbEDBchaoHv7E6IMKe8L1xGSxTAIEHbpjGab5s0LvmBTNBCKMmoItI14XOCU+r9lsFPPIE071ME2c+srjJP0eZMGVZlL9ohkxdGxpN/jhk47LuQc0bb0380SizSwzueNp7LZdxiKkKbi9MY4S3ebugXDfzmuj9+7XA22gbLfja5aKYgYOQykMZ/uv8PMmzGQ5gJd4wr2LMxY8GXIsOAEdy/oj8pL2eIXq1NxXH4yNWjmYBmKEkk3kRPET4LIU02aC/llMzIolO/GzJ2M5Ps5FUEQK6ksjGS5p5VuCV11PQ2ZIornAWVPZkEShPoMjz3efEzd2RuuZ+Uy1SmDcUbDvWWOXsFOQJeMbyFTDUttny7T1dBj4OmoQLqn9QyU+p4xh45bI0zQIaURYye/dGkGQwZL/6q7MwIKjJOWPoKnCZraBCmjrKOj1OViZrjQ5azsEDEwFG8ixhAywK/r+TbMvPmrHtCVPt1FdwBUaNDlpR2ldSRmLWl1l+v3jlkzg24pr1gpl1yyHXlBKcXbcmuaT2aqLyH9eq3kCpGFPiMmtFAE2L/iIWhzMF21ylj2QpTp5njhVEIPEhQnrYwhz3vQKWJUI21RU2VeFmCySs0+ZaEWDkL855QsSOZoM376nDwgoU+FRQ8tmAZA7zhcYf+4nSQX08NCCUslVIbU+CW374oTf8YtE0JISvRkgC6mREJiVkrilDvXk7x0C0H3j+qONKy94HcvLLoDMhVYxJzfkZbNZgGLUkSvLXeteA8rS3WqKi2SEPRLDCqkQZ00z3IZTGboe5//XCtomu8kP8tkYI/5mWqiMpEH/AspWZaQ7xjZCwx0F0Hb4u/xV7Oc6QKWdsyIGiDoasjWwpJ7L9PZC4Z7IXo1txOQrIpgfAIDIpBOLI+CiQ20URdCiWQhBtgTYw0h/QuZtP8izyiGTOhz6SFGa11nMnB42x+h7Sl0L/iYrnQvKNCVPl2SMhY7aWWJY0ub5XTQepc58/lxg+/d4gtY5FxIu0h4m/Qee7eBkYQiTrHttJG4CbT9bKoSlaAfUi4J56bXTGu9wfrVoQb8iyjdJygJHx7SNxa44jQ9tk8pDGaizzxhsTKmu3IRtD0vQDdTCfNuf9y8vsXFdG97QhRn4sE4u0+Dleu/CMac+m6UAdR9TZTHxA9mCAIlEPEH/NKR7S9y0L3lqyCPAUeyF9h1PRJ0qU9XnH13BSikjzLNeDsrPwlUM0+ppTh5Q8ckQBjX49Rf5PIdKdxOaQ6pbyl2u0MZpu+Enyqdlxw4jMhLOu3tH9XLAD2zA5tBam23S90LFHQF08VAmnYdoIGtiebpCp+u7pdd+SmMyCbJb/jnY/z4Se2oWx7IRZDKPcCpuZn7KTsmGtYuAf2liPF0WWSPjvF+cUpi79nUPty5rlz+NV/vkxVKuiFkC15C4GoqYN0nzkuKB7zxEdEGB93vqEBa9HCEytP9PGRyeCKNMF27ZqWceDqB3sTmFL3wPJo8VQHfILpRlvaSSvrFcvYAef8LPUIdRsbYWxOB/2xH94Jkugp08Wy+LjHqShljhyNE1f6w6yNP/QDTLAf2NWGsU9rsUy/oIL5Qzv3tIMRI/ao0Mhqno7NC7ZwRVFNBbEIK2cO6cBMKFA66iz4PmQoEXeLTLYQUfOH9VuhPrE7S9q4UEExqM24WQiL4qWdxsC+ksNKxAYtBpEcld0HMFPuP8GH5GHkMEefEVSup/C7LXljxMLQ9/13+IwTd2x9nBVE44xEszMF0aZ5uJEJijO1rAxNh01mK5ifPEn2itNhB9Bunes2kHwn/G5ItGyzZwiNmAx3bzqRgoBEvd9Si4b58Dr5H2l6Etie/A2fffA/L0/UzXSuQpqOAZt6jjJ5KoPV1Qi6A9IOaTrles6fDVlOCOIZzI9BP8Jr1MOhDtnIOxggq0LV9upLpyiO1og5CJHsBfbpZkvYX6sMJ6mnMQ6+RUkfGmi86BRrlGHvdS8f2oxzUvCzrJnzCwqfGfNLOgEj6ou1eY+8L/ZNMNwB0kelWsMMRWC6a5elG3AvuWgwS5flRbisR2uujDGfRBpMOrBYWPvhkeGMUpLwKTlTdM8aD/V5J/fdommwr7fqJMzGsf8h7RV2ZCNMVhyNo/ddiNurTNZlu0lI5Nb8f7FwlSUVZlMpPl+tMFloJ2enEuGFDjCn1a0fZYjk1zj8i5Rhr6vZyfcnJmClMGEFmsfNTiyMDR7Zj9kIQ0xXuhUggLdzcKfS3gFZakcTUFmMEyj2J5W4vaamU//fOHgyqW/FbNTXzdIuWIquBjUASUuPV6uheiATSHhPZCGwvxYM8rkCa8On67ifiJIBkqqhzFBiw4nNkEGTpSSGOPV9BGBcAKMYj3pfv0md9f+fS6DlxrhshM3OWvFbM3gs45ddxX4uDUnPRqHO+rN3DYHuEcqrsBZEy5nQv8Hq6nOnidT2qypjPesaMQKQymb0lomns3qRpffWJqYaEIb7Gm/NkC5ukFoEA5531pPatF71gF20nCRfDFDFQPsfHnD5dyXQ5LDJfsgt0jdoL8Uck+GGflEXLiasuMgx6SyqPK0kOxZFcHX2warWqixQE4LtYJjcG9HCAaRwINBPjUe5QYnQLXhrQ84I1pb3r1r64XZTzDaV35E3L52+epaR8WFli47Y523fMr2DXPl15DDghe6ECpjOmS5LSifUlKpV4HMEHlmEL+E/4qUDsetOOUDDoPiayEuSZfAfoysMRhL2mGZdkQ5qmtTf2s+VSq7h23Cmh8Yw8NoAVcGYlzagnjYF752IZu5gdjMQ8fgz43+FsZLr1Le4i5jUNo2DDwzJljGcvyJNAqRXTuWdzDI0jqiitu2sgU8vh/GTpCpBmcoOe5Y6j9MeTHKBVijIFyageSvoC2YHQLsVRaEIhOdO1U8YQdGVjnEE4q4xhIE2yYatTlA1KFmNv7anOuYIjNC/W93cXq7X9n3agxvV7JxOURX/ouhKC6r6Ez0+aeVftx+1sI2lU9sOnRragflifpu6aeBdPUOvGQ8qthFXG2sTNEQJ0NzziqKfL3AsO0A0BOt0Rpr58cZSAJUndfB2njvdJnfoq3ZcWMi6vdz+T5iG45H5iQwSonXm6jxnFlvjNEY7aC+J0Hcfd+PhDiD47DX5SMDhg0riNjRZ3oqAfNGSspq1O/GXebmHAzJzSxOEI+tyb7aF4Jo5eKmGkHQXkmX6k3TUpz4MGPV3EXJ9IO+YsYr7oc8Kn+xXIYmhDZC/Y1bEU+BhHT7U3RIGwU/gA7bTZSkKxjMEoBQXBUMlSLVw/CXMesTD8VEYuYPTerlRykEGK+g/DFmeUIZIiKSHWxOQFho/Pz3Ql2nmY7u2/g1wG3xYG3+W3G4yCxL37Wn7rVPUhtn+BQZPQhfMa9oEaOHuHUYoYhu47kgRUsFQ0fmTHEmj7w7fh7Fu+CgkFb+ThCH4ijVcZoxwvXtyQrUgpHY68U/IkO15UPyq50dK6lBqkSvuM8y3W1UH0N6XssV8Sv4xzL7DEMhF5slPG5tz2BFRY7gXT6MdXzxKJDaqaXtzRUyaqIJjehexwrRmGXf5eJuiL8o3cZIhgnLGViNvXB4JiGVXnT66pNMtEunzsIub1LbDpkTsghulWskBaFtkDO35Jea1gEwkjn5aBpX2+HBMf+00vqITNgPTtmBUf1YYwYaV4vmHJFCaJHqkIu3XdQFziGg6avwSg5vV07SpjPJDGSazfp8suphTPaMOvt3o++UzmzslFtCKY+BnxP4foH33cGVyKHeu0s+uf5xBZ7WfiyFOIvQ3SB/XR8KyGsFFx3MLszOsPay12/CI7HWyTH1k/suNF2I5MF2+OcIHutAV3z61uaHUE0ngeo6bOIpk9JAk7cLapYzvwlSjxLaM8pcpw+r0SRoAk6vObIxbBDqO0owBdVYwlGkhDpospY8rAKSpaogUJ7IbTsxCCSIHt88fKAAypvud72C1H2bvr+Dx1E5TalSCCZXWRf9fldjMcgCp/nDlXxa/wP4ZPd3gL+ANpzKdbyQrecJ+uBl3DUZ9Ixkzrlc7ylTq0pb5XumK7GG2pUsS/lyzja1NVwA8Epc6xXLjuPF0LdB2BNOZeQDpMgFlKaR+XlQcsbBIRYXq+oFlAfnncPJ6qOZJjHzcHoQCZrGmmOSh13k/NOvG3St1B8ilvKVjlArJcUyRjRH+JXpOkb7JRF1OK7AWne4EfjuCgy+5Ik0VNzH2S+pZmFqSjoTMWa8VTNcJbOtVMl/hqzNh4ellTKxuZ6HImlqeWo4wvsPnC9qTLQKREuVPGxIeT3AsW6CaJa+pMCX5TPxVK+vSb4vfaNV0OHS9HG4MfNluKUqTicChKh5qqqVAN/yLvSDsbbwPGO9K8Pt2HPweZHNZe+IqovcDOpenb1oTPC2+TyIoaCxQIota0lG7FW6tTATwhUqYF9pA2XT0N+U5w28EPDk6hQ2R291Vv35DpHljxMGxXVcaqYN5tj/IUKxZgEj5dqIYl911Obo74HWQhT4JQ4UfWQ3odyhBfD4YbJL831c0MCp6KdaXlK10RyzP+7jv70kjFdDybhWJBXGBWBMhmAQrFDPsv88NS94LM08Ui5i7QnbbgrrnVeDhCpYzx7AV+9JIfQ5wyMg9nNAIMqc5AZ28FPL01I/LdZOm9EBUIf4YvZEaHIi+dqm2aT7pSQSW8t39KT3r8g6K0owZdvK5H5umqlAHHdT2/40Ffqa5B5yTfGOOdZtG/MSSOl2LQ66REhC3xtVRDKjc2+N/x9QWY2lqAhposnOjJwhOvZiFbQNpA3AvsRNp3IJbpSvcCiCpjGBHG8k/Y1JQmgA9dlIV8pgj5Yj9Apgbaj/TA916s4IxXZBPTc+L6GmcO3/RP0nl0leAtLYd1+y1tSwfiNEAnTb5ra2lEsq1DELE+M8eMJ30/abbNxSj/Zf/X4VYpk/Z5o/3SBNI0J1elGNHBOMNpj0GU6VbCvM88ps86CCUqZGpgKWW6t3HQFZUfOeNl48C/wEeNGG7LXRPvBzUNP194juR5Y9yj8+Q15iqDxHpHya9WikE+NOng7w06GO3Um+SsgkiNFQ9RCvE5J64JWrtCzgPRPTqCkQMoVr2NKGkT42j57BWiiO/kC0VorSvAJy/NQTGTh57eLqiqboRjXT3wreermHdAlr3FPF2WveBjulPx5ojGUbDhIX04gtVeQNDNZOGv5+WhCo7D0089BcuWLIe/uvVj0Dx6EvxwGSK9LErNwTd6iWXScMaopFUgw8cMQkHOPfmiLp46hkI2RY7TQ5HiyHpm9DG8iBJbMKpuQI0/0+0fOT8Qlzraoe952Vki4EvFtkuD8jFwgi4yXfVBUWUMapzuBV3j2UzUc28slVXgoBw5xVYODkqpRpzLIxykQ+fo1D3nGRfDkGnyQ6we/6tNnhJ0JnRdq/5SY0uzruLqD7PTfSQJQfxd4RjpG2rue2cXYXx9N+zY8Src9/V/h8/d+XcwfvwU+OnKHOw+oo3/0Z1LYfvvvxUDuupiSh5ImyayF7gvrQJunTcALz77K/jxD74HAwN5qKmtgwcX/RT+92KAg53kJgCTgjryLaxinvagk3+7rbdr0tMuELkYyuv7C1N0W9akBZe2b2FSpHuKyuA1ew43kNqmOI+7KRbMLTUH3ZUPw/bnyM0RyHSpsOyWY7dPl4Ou8PuegiPo6cbsVD19CvXBw3aFVZJW6tTm4aUcNiueFcNRSlQIOiYIXUWA914AUNm1Df7hjjuh+2QnDB3WAA899BN4cE0VrN/Tx25QR11E0N32+2+yiymrnIG0hXfNra3X2QsqZYxfxA4fmtsHExoroW3rFli6fCW8933vhf2dAD9ZloPevAhiCMqfdPY9dFzjrZwDrBKZVuiXY55LgzmKTPnqNAxmAel3jXGKaZKbGv6ALv6nt6fqcIG1kTVHw9ym2ywxfqvuPmospy0KuhUw7zOPcz+ZlDiD+lhtuhdux0BawciGiFNFw4RYa1FpldyJ+E2JWd4vpWr5zJiPG1Ntl7mjlDokcepSNS3uvTjqYqRnYXlL4i7hWRHC96myWDigMZJp7Tr449F6Ffax2/QUykfgLKau1jG/svO6swEuGodBtCL87//zn/Cxj/8ldPZm4Pt/rIDOvjwvxQkAx3Yth22/+4YbdIfUj106ZeHdc2vrW0XKGNbTxdoLgnZDBvLFCvjna/rYYPX1F6AyB/DDl4ZB+7FewEwGXXmJ56yx7tDLINWAysIcYnDFz6WPRVQXsE7B0X2/rV5kqyqzKeil3Y4jm/b64I9Iv3P09JECEuHHpAWp7bxPerOM/R2pd7JUiYY/2ifZIvmvHFC34MZlrfIRI/5ImlcLRWW8EGUmOshTunBMLIMhEZKigMMtQ/A9GY5EW3gF+4FVhOlmcnDxbb9meihWIw8QZ2zQ/T3PXmB6R+rXii/bi9EW3SdgqUDlbc9OayzxA9Tdm8gzHHMq1N0QM7Ed+rRHbsMNLdcKWVeutUKinyIERKygihsITJGorGgDxR2hIlJnSTEguu70qtJuUKrj1FjwY+fc6koMYFgHObjtsi4YVlUBAwNFqMxl4f41Q2H7wV5dMiGTheO7lsFWH+jW1o9dOnXh3XNr8ETaQ7qIOQbS5DmfIqZFZLIwtakAuYoMbDmQhb78gDV/9Ny4wE1huWThaGOmjSrOqjKO6Rc1XzAr6qfZ6Ehg8K0IH66r562lSuMbtM2k71BUjKM1yVDlf0LIZnTJxHX9LpU3zhXqe986MeVmP2SVuuiINLwZ62JKyMLFt/+aLR+tKni1j5vpymVHr/ZRHbXnhf2bzKmvMpmmX7wpexx8ejCY+bP1iX3XRjrPv209NuTTVyPZpR3k+Br23Z5M+kk1Di4Edvwssi5McNVzVoJJjCi6+IERjbcO97HPEKECu8HGjbnDsjBpRBEahhRhQ3sGTvZzXy4mFXA1ycDxXcsZ6AYG0vBE2t2QzWIajlzBMkKq0R8bF1woKElHDacILBuYYy1GOt90GpTmS7mIgvJxpPLJ1Ww5ya0FYbQvTL5zq6LmMvpbZSEt5YreoCFzTrkSSGZvtuiDLjMApVFAv60LpkRXPZcxDjUstA4ADtaa70YEkf1CSEdMi1yT2lcugh3Pf188l4GLb/+t2nHx3RRAMVcNS7+u83Tn3GZVGVNzQPqqUJv2kYwzBWGyZuVWmKdOKlhXW2Gl+BFAEm0rFPNaLdXX6NzYFloLxsUVHyXA6rMd/oG3BY+zvO5WtF7pd6leu/AsQLXsle19heo8zWRyryLSDDVIzgXvOoXNMzoYGRX6LV/lh8m0fTy68yXY/rtvstuAK+tbYw5HLPosFPq6YPSFNwMUCxzYrQAFFAagmMlCLifSxQjtdzJahs7KBBCGrwHI9R5+u+vIfqisHgJVtcOYLAN9vdB78gS7lttQUrmHyOcBsjmxOuQemqwW9hubDoiJKBZ4u7kKkZ9MJyjLTujVDKmDXAWmhqjNkvhWkSVNd3cdh2Ihr2oJ60WL2SR5Qdn0AjZWstd0CT9Nvo/IJo8e4n95gY1cZSVUVQ9RKSu88IZ2EfX3dMHAQC+Tk/5h/0LZsO8sCEAWOwUwCdocaYV2CdmKeTEfYuyNL3AKMKSxCXK5Sm4YiZJLhwD++EjbCti/4Wn2dhayMPXav4cizgsx77jr2vzE/1JfmHbN5wAy+H3hIhLRaMP+ObFF3yAcgUTKgu3lLtrSai/HOIoLFMvN33JygDrFPyX/LZ+KkY3OkAMsZG47+5UN+vyHpijs+wlGQchouzaw/a6jHVDE+XfZc7lOM2RNsiuM5NVGEU3UW3R8ZkDofAbXHyEX2Ab7XxZqhtYJnc9AZ8deGNY0BjJM97XLMDozXIfVHErWq843mEl5ys8gVhQrJJofYAfJ8FvIcJlaC6Vj2HWoDTo2PQczb7kHqupaYcPPHUXM2c0Riz4L+UwGKhsnAPQPMJaBpzAwIpfL5iBbkYOT+1ZDdeNEKFbWQSE/wECmQBYyHwz+dWWM5UIVAK7XAAcP6XzGhYYKwAqc1VbD/rW/gkJ/73oAWCEGbuHESZOH4aQVCgW2IOX3UM627dtg4qQzIc/k0rmaKA33xwjGLnGYnObLZTOwc+dOGD/+DBjIY5+Q6UvrhaBagAMHD3QBZB+JTiKbhvNbW1vPGTp0mJBNsx383KFDB2HosGFQU1OjxktjWlTplZ0qAuRyOThwYD+MbGqB/EC/uG1ZYh/PJe3o6Mj39fX9lMsmwVPWmYVKALjmzLOmNA4MDAgfFV9rOG69fb1wuOMwtLa2Qr4gxpTs043ACKozAWcc066uEzCsbjhg2/mBvLqHDN/D//X0dsPxY8eeAYAnAeAPDsrtXhenf/oGHIHsp7RQhdqGhoZbRoxs4ie1kKiJNYOYgVp99MgRqG9oYGtCxgl4zEDHfkgpOeX5wHW9Z89uqKurY+sGMYYZYH3wC9rb96GP85cAcBIA6gAyC+rPmA3DRp7Bns3nC5yfiVO1jESypSbwiWEvWXvUb2xwM/4MJwxZqK5C98FLMGzKFVDoOQnFgX4mXxaNS7aSY092AI7vWA4zb/lfUFnXAht/ficcdxUx3/jwZ6FhypUwavZ13JdGphw/i8C1+Wd3wMS3fxZq6pu1INxwkBfCNhWquxYTwX/mi3lY890PQn/3sTsB4N+EKNv/7M/+fCIDXGRnYszQLuF4/exnD8MtN9/CgAN/IH+urRoHAU7a+O9lI/0DA/D73/8errnmWigUBkTqBxJADu5Hjx6DpUuX7gKAMzwr4cuXXHrpnRPOmKCVj91yiwpWhKVLl8HESZOgGRVUuhaUjFyTlLwyd5BRCy7v8uXL4aKL5nDlFYwlPzAAmSw3QCtWrOju6OhAquv6Uw+Qef6DH/zguWxhsKOMnK3KhbFp82aYc9Eca8y00eGPy/e0rPiz3bt3QWvrKGYcuHIC9Pb2QWVlBVPGXbt3wYb1628CgJ+/AVHktEilj8D4qVOn7bzgwvOZTmWzOUCdlOdTBgoFeGXdOpg161y97thalSzT+m+xKALzfN29sHgxtI4aDWdhbykIAAAgAElEQVSddSYnKphamOdEoggF+N0Tv0OwnQEAOwGgGgC6J17xqcyo2deLQD4HFp/3wOg2Yal6l2S59MQvEHnaHv8fMP7d/wqV0Cfap+4VzrNX/eCjMPOWf4PKYc2wwQe6yHRHTLkKRp13rSp4QwXLFzKw+ZE7YNqNX4JsJW7DBWYpvOW+OdcfaeV0MNrYAIpXOPVEl22h6wCs/PEnYaC36woAQJaEf56aMmXK286dNStXXVXJwVWw3kIhD7/4+S/g3e9+N5ugysqcqhtBAYa1L7bK+FwBLeJAnoH8M089A+945zXQ3XkSqqpxK8wZYyGfh3Uvv9zb3t7+LQD4rEdHP1lbW/u1a6+9roaDTYGB0AAGHIsAy5YtgzFjRkNzUzNkczkG6hzExBgKhinZIbcLBRjoH4B8Pg+rV6+GuXPnQF8fGoQMVFVVQV8fzwts37+/sHrVqpUAMMcjG+7BfnXpJfPfOmbsOMhV5CCfZ19gcnaeOA4b1m+EWbNnMWteUVnJ50EsAmmYmLKLnzMjnM/DQH8/7N23D5qam6Gmupq1V1FRAceOHYeRI0ZAT28PPPP0M539A/3zAOCV0tf36TffgCMwavjwus2XX3FVXVVlJWOlR44cZvOP+nGypxs2b9gI06fPgIoK1Hk0yhJ0BdNibkzcgXKWjP+H6xHXzUsvLYdRLaNh4qSJbE3X1NYw0O3sPA4nT56EZcuW7wUA1CskQ/jnxPi3fWrYuAuu15kHdND05tMKAVucMW6gi0VA0N3x6y9B44V/AQ2t40ndD/0ifmr1D/4KZt70b4zpet0LGx/+HDSedaUA3eiX85kcvPrLf4Kp139BB/+83nvBkgzGbHJn6maQrEv6otrX/Ra2P3kvThIySzmo+OtPt7Q0fWHosOEjhg0dAsPrh8P+9v1w8mQPtLQ0Q3dPNxzuOALV1VVQycCDQUXUFIjKVn29vQy8GhoboKuziykM/g//3d11Enr7+nBrv/3kyW4EW4drwRind9YNG/bfW0aNurSqsgJGjBjBwKerq4spFMp6YP8B9vchQwQpJcCrjJhwnqGidZ88yZStuqoaOjtPQE1NLTQ1NTGlw/91dnYe7+jo+BoAfANrJ8foS1MW4LOjx4799JAhQ4bW1w9n/ezoOAw9PT1MNvzvsSNHYVhdHb81hPlTibuOTZi4wjybhe7uk2y71TRyBGzfvgMaGxthxIhG5oo5euwYGoTC7t27n83n818AgOdPuxXegLA5eJHmZDKZr06aPOktQ2uHZqpqKtlJF5x/NMZTp0yBjsOHYaC/D2pryUbM1ntBtlD1O0+cgOHDh8OQIbVw8OAhqKmthbq6YVBZUcl0/kTnicKB/Qd+UigU/gVJJ+nCyvFv/fj5Yy+4meRtS5Shx5qtrbUR51GrkCCXfl66Tw6s+hn0dB6E8W/9a+7MU9CmXRerkene9BWorLOYrszTrcEI28OfhcazONNl7ZAAGHeF9MDGR78C06/Hvso8ORknC8xlEINLU/QNY4Sjns3A/rW/hu1PfgP9BK7oDL5yPQA8NGTI0BoWvMJA28AAjGptZSA1euwYGDmiEfoLAAcPHYbOY8eht7cXKioroLFpBIxsHAH5/j7YvWs35Pt7oX3/AThxopOxQGwMt0kD+fxBALgRAF5MqZvnAcDXq6trLpdDiAxw6NCh0NQ8kgE6Ggj0AR0/0QWHDx+B7p4eyGWAAR6yxopcFg4fPgwdBw9CT3c3slnFvNFA9Q8MFAqFwp8BwGPot08hH2r+BwHgniG1Q+qR6TN3RyEPo0aPgrrhdTB69CgYMnQY9PUP8LE7foKxbTRkza3NUDdsGJw82QX79uxjY7ivfT90d3czZo9Kic8ODAz8CgBuA4BtKWQ7/eibdwTOyGazd2az2U+iMcc/qPO1NTXQOqoFhtfXQ2tLC1RUVUFn10noONgBPb29TF9qa2ugpbUFamuqYf/+A3D40CHo7e2BPXv2KZcV6mh/f1+hWCyiq/F/orvYMVT/Y/yc9/zT2Es/Ko6Pm5gk823VuQBRK0I6IdTPKdxG8qs5mTzRsQN2/u5/wowPfNsPuj8UoGu7Fzjo3jW3pp4H0rR7wYBv9qHDr/4BOravh7PefptxysQk1UEeFL9qMVDOwr61v4UdT30NwWSY/+HMsYULFwzPZbPM1XD8+AnG1pBZqtil9F8KmmUGhXQEc+iQIUwhGurrWVtt27bBps1b1hSLBQTQUv58c/68+Z8eO3YMMwgoE8p2/PhxHqQTEQHqYpBsX31MbOXRlVA7ZAjUDR/OlBC3WC+9tDx/8OBB7eNJJ+FYgOxzt9x802R8DbdyJ06cgJNdJ9lOgQYQ8fd8s2DtFkgCPAJ1dXUNYybYn127dsG6dev+Dg1POrFOP/1mHoHp02dPzedPbmJuKsio3Rju9ljQW7ineFDbrVcSGCsrKmDI0KFsR1hVVc2C408/9VR/T2/v1QDwnGeczslV1a276JMP80M1KhfXxCT5jfRjrbNK+gFgy08/DdM/iKDLL3zgf3jPcIWv+eHHYObCL0fdCybofg5GTr0CWjGQZqWXoKXZ9NDtMHLG9dB07lXk95q+K47NtsclgK9wBWAGxYEV90Pb8z9cAgDzYwbn2MKbbhqeJZWWkLmp+JjwH8kgEPUn0SAe8ySJDIx8gbE02L1rF7y6ddvgQPeSSz89alSrcOVz/ynL1FCBLBmQ0kEtaRS4j0v0XASxsG9Y+wKDZ6tXrcp3dHQMAnThuYU33TQ5i0drWeCRf0t/XwQiZRaI9OUaQUDzHWS42Na+9n2w/pX1p0E3/ap+U78xe/bcqSe7Dm86d9YspUsqbZJUpuOkw6FvKt4iYwc8roF6hetm8eLF/T09PXGgOyoLsHfO3/4+k2VpjFEMUinbqUaaYxzNA+4rVMCW+2+Fme//NtuZ80xIEdMSNbRWK9Btho0//wc4tmvVaLyVKoOgiyfSqsUx4CYBugyzJfAK/+e6n34aZt50D+Sqq4TrIQ5YtaDBBZIFfuM63/DgJ+F4+7YFIiWEDhG6GzBi+QEMap155plVuFUfObIJchWYOyxADYNAItNYgZwMBKFhEp5eyeJYGloRjzn3wJHDR6CtrQ0zFg4BwJcAAFOx8O/uKKE5gQ0A8D4A+GRLS8vs0aNHw4iRI6CxoZG1LwNUKiBF0tIkq9SpMcJ/ympgsNAVHDxwEA4cOAiHDh0q9PT04FbrQQB4GRM+AvQIk4wxMHkzyjht2vThjQ310DpqFANy2TuenqMzHLhcIsNCgS8plYbZilmArpNdzF1z7OgxONTRgT5crF7zC9yNBch2+pE37wjgmnxvZWXVO2traz58xhlnQGtri0gVK7KtPndjycMFAnQFmZDGnmbHcNLIYezgoUNwuKMDduzYWcjn84sA4AciuN5rDVlDBmDP3L/5w5BMcUClrpq5+eRgiWTDlCQKDPIim4i3IFff8NNPwaR3fxFq6kaaHFOB7sdh5sK7mU8XU8bUbcDUp4tFzJumXg4ts99lMF25BV53/6fh3Pf9O2Sy3PLIBGRbQG0RuHUw6+y6NYu6thF0l973TlzqMwFgA3mjprKy8usVFRV/fe7s2XDi2FHo7DwJ+/e3M2uI23AJELgFRx/RyKaRLKCGtTDZGIuzeugnPXTwEMvJlalO+C66ADCXtqmpGVpHtcKunTvQbTHQ09Nzq5jsuKVxYXV19W+aW1qam5tboLenB7a3bWfBMJSNfwd9npjZkIWmppFsS46ysWyHbI6NFTJtVLKukydZxFcaLZQN28EtV0NjI1TkcrBv3z50XWAq1ocSfLvNFRUVjw4ZMmTetGnTWD/RDYDujkwmB1VVnDRjEAyNQ92wodA4opHJjPLhbkJu104cPwEdhzEpPsP6IRdNf38/VFdVwaQzJ0NtTS2072/HwGGhv78fsypWBRqtNy/0/GlKflFlZeXvWlpaGmeefTbs2rUTdu3cBd3dqKviMAwyAsZWAUaOHAHD6+tgYABTF/E8Ds/rx+wjzBU/0dnFMnKkzuNaQBJQX18PY8eNY/q2aeNGbO+F/v5+jLd0kGEflgFYe97HHpxUPazeLO0kfbOEcbvIoBOvBChTposkqO3Je6H+rMthxBnnE9AVGVjoXvjxrTBjwV1JoPt5aJp6GQFdTpnxA/m+E/DyA38Psz78Xe4vYShJctNS3FOmfSoybYQzKV05KAtL7n07msMxeKGAGFRc3Q/Ov+SSWzBCjpFMbKemphqOHD4KbW3bYMb0mZCrzMHSl5ZDdxdmMRyGKVPOYiAl08TYfzMZOH7sBOzc2Qb19Y0wYdIEaG1phfUb1kNfbx/MnnUu28ZLa5vLZGDV6tU9HR0d/wwA+jiUuchurKyqevDqq66qHjZsKFMUTPdCkN+yZQt0n+xiKVnt+w+yfx8/dgxaWkexyL/2M3OGiTmuCIhV1VUsA2LatOlwYP9+2LhxE1x44flQWVklUtI44G3duq2wY8eOR4rF4ns8674FIPP4W9/2ljkjGkewHQFmjaNy79mzF9a9vA7e8pZLAKF1/fpXGFOtqKhkBgsDIfIPnzeAvfvaoburC6pqamHKWZOhoXEEbHjlFWYImpubmVHBlD00fN09vbB586Y9HR0dyLC3/Gni0n/ZXo9saGhYMW/evAkIiph1gLEHTCNs27EDDnZ0wJwLL4ADB7nOo7HGrIQxY8ao1EO5vUKQ3r9/PwPf2qHDYPq0aVBTXQMvrVgBEydMgMbGBl14ppCH3p5eeHHJkk0AcAmGm8QII+v6+Zjzr79u/Ns+bRVL8lT7C3WFEuBF1ENw6mhbAZWQh/qJc0W2hEqWYuR6zY9uhRkLBeg+YrgXxolAWiu7rqd56uXQPPtdAm8EqBaLcPLwNtjx3I9g2oIvMspP760qXaWkC0LhmzhPV4QXv3YNpj+daaVBtd10880TaquroOtkN9TW1jJnPXZ1585dsGrVKsZShzeMhPnzLoT8gNzGyO2y2FqQwwc93T2wdPlLUMj3M9Z75VVX8u2Q8PMiA0WXxZGjR2DlylXewxFZgC9ffMn8O1uaW1hn0BggcKOFx9ZWrlgF+/bvZ6lfl77lEgac7Kg1DoE4usd9yzxvkTnji3nYuGETHDhwADC17cqrrgY8OZdH+dmhDX0KaPXqNd1Hjx71HY5ogEz2+VtuvuUcBEMEdQRP7h8Gxpa3bd2G6WcwaeJEmHzWmVx7LP+tdIlwg1uEzs4uWLNmNWM1aNjmzZ/H/NXSr84PlhRh7769sHnTZperqHTVOf3mG2EExk6aNGn3Oeeey3QFdR7nW556fOqppyCf72c7qfPPP58ZZXEyyDico328yBLz0LZjJ3PvTZgwgenS5EmTGcnAeAu+j2sKd4BPP/00BtqnA8BuMhjfqKkd+ZnZt/7UqNthDBbdVmtGEYlD0YCbzYBxrXYeeBV6jx6DEVMuVMVuBJKxUNrqH90KMxfcDZXDhXth52rp0zVB13QvYBPcOXx421LoP9IBrRfy02rSsWwH3PjhBvsUiKuXehhsY9N7vA1W/ucnNgLAXMsfuPWWW26ZLLcqmEva14+TyouhPP74Y3D11VezLa6KQUk/qkrsZ5thPvcyD1XkBi5bvgwuuxyLqfC3Fcgg8h85AmvWrMGTLxNc2o6gO++SS+5EKy5PimEzDHgAYOWKFSy/dvz48ZzZysCVkSwujQJn/lIZsb8rV66Eiy68iAOa+CMDDNjemrVru48eOeID3TrIZBe/973vmdXfhyU6uX4hI8U/eER5w4ZNcMmll6iTPGZATWQvOMYFx2rHrp3QNLIJqqurmTHAwx/I8rlHIgN79+6FzZtPg+4bASXLLMOYyZMn77nwwgtZOia68XB3w2IXwMF348aNMHPmTKXzYmWRgC1fj1LXZQAZM4heXLwYxow/AyacMY7vuDFOI4LRqFvPPP2MC3S/XjWk/m8uuPUhyIi6HXYWQ1L2QhxaKfBloLsVOvduhNbZ7yKgKw94FU3QfYT4dGvrxy2diiljorSjdC/whcnBs4DFSLYug8rqJhg2ehLvg8pu0CLKYEtS4MzutLYivN11P/oodB3Zfb/wU9IA0dabbr5lMjsCLEBTEDL2bwTd6971LivlSQKsBlKZ/kSDWfj3p595Bi677DKV2iJZaDFTZIccVq9aFQu6F8+ff+eo0aPZ99G9wCOlnGUjaCLgjhw5krgTdLaADLJRsOc1Lfj7a9asgdmzZnECGgG/Iqxdu677SBzoQmbxTTfdNIuej5eG59ixo7Bt+w6YPXuWCvRJOTQRkCycDy+CPz8nUYQ9e/fAiIZGqKqpYamEMgaA/8V+7W9vPw26ZUa7N0hzYyZNnrRn9uzZqn421U006hs2boSzZ87QGTtCcA6yfKPO9VCsU/w53sVYKMLSF1+A1lFjYcLECU4i9Oyzz7pA9/NVtfX/dsGtD5IDEkqLnRkNaiw9rgYDr+SuNFOAk4d3w5F1j8KYy4grQ3pMiwCrf3wrzFTuBRfo1qN7wfbp8ughnhg90rYEqmubYdgo3PHLPzLbTl4GGJYm5mX3aPEyWVj53fdBf9eRb+PpM0u5tt50082T0e9DQUFO9OOPPw7XXoegy4trFNDzIiOkxIFug63gvvD008/AZW+7TAGdSncBYAGnVUmge8kld+LhDMqQJatduWolnDF+HIwY0WSwVZoVYLNruT3Hn0vQRRBTPmBVr6GIebGJoLvwpoWzpEGQYI5tHz9+DLZtb4NzzzmHD7c9ViRzgcoos0L27dsL6CuurK5mvmJtCLms6L7YsmXLaffCGwQpyygGA93zZs9W6Y2UKCDobty0EWZMRw+AWGVWaiJ7XmTKyLXCdnnFIixbugSaW0bBxAl4KNUkT9iaB3TfWVlT95vZH/kRVFQP0dyQpI/FM10bnSRZE4W5ZOEsNAx9nbDpF/8E0265D3LiclS6flb/+BMwEwNp6F5wMl0CuujTRZbG8l8F6O578T+h/qwrYFjzRFJmzQ2ySfSd+wTlPOi7UWQJmpXffT/0nzyKZ4D/1gbdhQtvmqzOaVvpVr/61a/g2uuuc7I1GwglY+S+Ue6jfObpZ+FtDHRljqx0UoSDbmtzMy/MwZiuyIHNAKxauYoz3REjxPZLqCFlrXZalsjnRdnXrl0Ls85FpquZAQXAdS+/HO9egMzihQsWzOJFdcRBB/Ht48eR6SLocqbL5Rc5xSRFjLIYluDOGC+C6l5oGjmSlZfUtS04i8Fx2NfeDq+eBt0yYt0bpqkxkyYh05V5uXIXxgESayhs3LwJZs6YrisRWgZd9kQSDEqIli1bCi0towBT0ETSorG2n3vuORfTnQSZ7LZJV98BrTP5rtU8ostljOzGCctNxi+xRjIZ2PbYF2HSdf8ibqSWMTBeinz1jz6ufbohoMtqRArQLWAN00c+BxOv/jzU1I8UvYgCbrznViuKq1Oyz4V8D6z83oexutgnAOA/bNBdsGDhZLa1ZccMyRYeAH6NoHvtdcRXq0GTTqbB1iRzZD6iZ+Gtb3sbY8rSly2tMEZeV69enehewPKIHNTMvFYsWDN+3DgYQdwLpiEgPmYWUJPAx/u5du0aAbqa6er3i7Du5VcSQBcWL1iwkLsX+AAoxnwCmW4bgi6vBmXvImyQZm4DkeCOjyPoYipQrgIrSBJ/tXAvtO/bB6+++upppvuGwcqyCaJAV7kIpG6xkrN52LR5E8yYMV2UfnSsR0sXKfgi6GL1Oiy3KoMgnA3zoljPP/e8C3RRCbsnXfmZXOusdxF+m7wLpztbDcri1Kp10zlbE5kibH30i3Dm9V+CDPQbdYLxd0YgzQW6eEfaK4s+D80iZQzHgh00YEw3C6/+8h9h2g3/qku1qnlzdSYKv/InYk3rbDOJtuKB7sM7YN0Dfwv5vq63AMALNujeeOOCybLAugIHdhAC4De//jW889prY5kumzT0hogTaCpyKkH3rW/lpkb5ZvhmGY8YJ4PuJXfiQQ0KWrJ9BN1xCLojZIoY/4A0HJJZysAbdwOIgjOU6UrQFEZHugleRqbrz17AKmOLb1ywgLkXKLDi30+cOA7bt7fBOeheIMd97ecMpktka29vh6YRI3nlOXKSThoF/P1p0C0b0L2RGmKgOwtjDYbbi++kONPdDDNnTDNqbqtnpYEnQWt2iEKszSVLXoRRo8ZopisAlzsqAJ5/3gm6+OvOMy77zNAx5xHQtU7YegfR8ut63LwqBbXtV3dBw7kLoP6McxjA61riRWDuhTifbm1DK7zy0OehZepl0CyElUw3X8zBlkf/O0y74Yuk5KP254Yy3BBtaV/HCt3gsI4DgD026N5w442T0SUg/9DJ/s1vfgPXvBNBV4OVDRz0PZnaJIH42Weeg7cg6MpbM0QUFsERgWn16vjshTnz5t/ZiqBLgEuC6erVq2DcuPEwolGcTBOCGMpKDidQNo4atnbdWs5EleuDZlcU4WVkurGgm1l84403MqbLo8XEdXLiOLRt3w5nn819ujZLdzJfciy4vX0fdy+oQiciACj6g/mXp0E3RPvfdM+MmThp4h4M8Ep94rso7gJjTHfLFpg+bapzvbqMesS90DoKzhg/3nhfsBp4fvFiF9PFX68fd+lHZ4y96D2iGE0yy3WOvOEGFU8Qtyiy7f1rHoOTB16FiVf/rQBd/hz2Y82PP+E+HCGzFyTouphuodAJmx67B6bf8C8kIkiCaIPVFbn+MwD71v0a2p68DyvC4zbB/rP1hhtumMy3GMrLw55B3+JvEXSvucbB1kwnPGWQcuKxY88+8yy85S1vVYE0CtDoXlizNh50586bz5iuVBzm02Wh/gK+y0AXyx/KbQz/tmS8LDNYp5IRXyq28fK6dQx05XFKGwhfeSUJdIGBbqTvRYATncdZXiSCrhoPK2VOFilh77Oj1vqWAMzDlaCLLEVuzRhrLxTZybStW7eedi8Mdp288d4fM3HiRA/TxZSxAmzespkddJAuKnkkOEqa9BqVAdqXXloGTU2tcMYZIs1SUAK5TBb7QffDLee++0eTr/qMVZjLQQ99VFboP/X9mm5RDlr9XR2w5bEvwvT3fVMU2ZGgS06k2Xm6NugqpiviW+g97XjlMTh+qB0mve1jZiGcGIFt/XCyYcYIybXZDHR/Czue/DqWbWt0ge71N9yAmdLR1CkAeOK3v4V3SNB1BKgUUAkmSgEIB/fZZ5+FSy9Fr0bUr4lVuNauXRvr051z8cV3trTwwxESvOQ31q5B0B3HE8QdaV++LAYJ4C+/vA7OORuZrl15n/97/fr1iUz3hhuuZ0yXbxR0H/EkEZ4gwnxKWzb5bwrGdtADU8KwvgTem0cXE34CjQTWO9667TTovvEwc9ASMdA991w01iKrC286kcWjBNOdMR3dC/4iNzQzgTLdl5YvgyYMpI3HTa+ZKon/fuGFF3xMdwZkK9bP/cyvWQUwO2hmgqc5BvR3/ud4cQVci33FLGx94FMw4wPfZA2Rarj8RJrrGLACXeHTbZl2GTTNehe/2g0T6LGwwwO3Q+usW2DkjEvdJ9FciGr8LMwBUcgUYe+LP4RdSx66H6CANV/tP1uvv/6GycyDy7LB+EwzNpnJMNB9+zveYeXpSsvDlYGDlvyZPNVVhGwuy5jupZdearBoVvwFitDViaC7LhZ0L5o7986W1lbj+8y9ABnBdMdCQ0OjqkVhA7M25PxUF/eScLnxqO45Z58j0s1EuR7lR0PQ3ZAIuu++/t2z2Jvi1Js8HHLi+HFo27kTzhZJ7DSgQN0f9O8yNQinAKuKIYPnReO5P49uHdGnu22bs3jRoFf96QZe1xEQoCuv45FrixMBdC9sfvVV5l6g+mAach401mSC7/5Qv/DmiOaWVuZecL3/xz/+0Qe6WG1sz0V/8/tsjlUbo+cKJOGIdzlIwI2yW3KxYiYD/cUcbPrpJ+Ds938DIJNjJzzlFxB0p0vQ/cWdcFyeSIswXQRdPGEhcBJBd/0Dt8HZt9wLmQp54xAXmPLUMFiNVxD0kaz5wYeh++h+rCHwsPU0VovZe9VVV7VgkXJc2XhqBWvpcitahCee+B28/R1vV5bWNVF0wvnuHrN58X6nLDz37HNwySWXKhbI71rjt7ZiFfy27W1xd6R9ddTo0X+Hp3Okzxnb5MeA2eEFGDcOQRcv6ePZAyygJxk5SQ+jVl0G1l55+WUOilI6dQihCHiU+ZVXXunt6+vThRLMwRuFNUivueaaKVinlF8+KW4LLhSwEj/s2LUbkJGovGbxPmUeplzSgBVZwSEWSEOmq0BX+NULBdi5axfs2bMHC/L85HWFiNMfL/cITBs7ZszG8y68AIqsoA1fi7J8ItZp3rLlVXZ7BNUd/Lsy2sSNxXWNZ/Ggnq94aQU0tzSzHSIjC+R3eBx+8eIXsAYAbs92WB0bgSVJLr79yQaWVRASRFOR/vjzE7IfvAwCD+BvXvS3MOEd/wDVw/FiAomNovbCgrugQlQZIxdT8hNpMntBMV2RuTCAZRYfuA3Oef+3IJPJQwaRURW6MaE2jrb7Zlu9gyAKWVh23ztweHGWXnW880pVZeXMi+fNY6wKK24xi5ofYIcX1qxZCxdfPJed9cZ7yuQfCr4un2Vffx87cbZxwwY4/4ILAO97YhXBMsDqCuAdYqg8hUIBi2v4bpG4I5PJfGX6jGnQ0joaasV9YShDT/dJLIgOw9mtDGNUNTSufOJkjork6rKKPBjRD13d3fDqZgxITINMNsfub8N+4JHevr5+ePnllxHc1wEAT5iM/mHZC83NTbOmTp0OQ4bW8vuq8Jx8fx+WYYTNm1+FCy+4AKprqnXhIeKiMY2VdE0U2Ph0dHRALpOF4Q0N7Pw9/kFj09fXC1tf3YrV0ooDAwN4fFpeu1TuxX+6vddnBLLZbLZ30sRJFeMnTgC8txBZK7uYtK+XXQTQP5CHCRMnsmp66teZhacAABNUSURBVDZuEYNRx+3F7outB+GnwJtIVqxYCaNGjYLRY8ZANdN5fi8fHjlua9sBR48eOSaKYiH40j/DMwAvnf9XP5lSNbwp9mrKUFeDAlujTjgnHm3PfAvqJl4CIydcYLgyME+XM93IbcACdDF7YRHPXpDuBQSd/p7j8Mqiz8HsP/8PkbmAn4+j5uk4r+40L6Oz5N63Y3EATMyT1cXoYF7d3NLy+/HjxsCWLdvYvUk4SVg6EatbYbGZA4cOQHv7flaAZfSoFpZcLRmrPoWVgYF8Pxzcvx868KqckyeBXdiYy8KxY8fYXWRYrR7/4Plx9NPu3LnzWE9PTxP+yKPfLVXV1e3nnTc7gzVl8T0Ebrx/raq6ml0jhJZ/75697G4yvKOMWfAsv+JGpnKJGCGcOHYEdu3ewxQMr/cZNmwYq6yExW9YjYMiMFBD2XDEt23d+pcA8EOPbDhhD5x9zjnvRVfF3r17WLEgOXZYMg/rVWDBGzReKDcGBJuweA+tnyvcOGiksEAOlnLEIkHYNxxbrPNLS/LhNSy4PXx1y5aN3d3ddh2N1wcmTn+1rCNQUVH16Dnnnn39saNHoaurk/n1pc8fj8Sj4u3YsYPpLNZKmTh5IgwdguuW39gt6zTg1VWHDh2AffvamXy4ZobX1bG29uzeyy+KzWYZ0cAbJXCt7tm95zcAcJ2jQxiEf6j1nLcvmHT1Z8UtMhSzNEYFEUUjdsXZuK6ICHB49zrI9ndD/cQ5IluC+wDW/OjjMGPB3TFMt6EV1j/0OWiedrkBup37N0H7skdg8rv/wSzqYDgX4ucx1poQCM9l+mDx169H63WWKBoeabi1tXXnhRfNGY9pXb39CGg1kO/vF3Eh6U8ssDJyL7/yitjG85NhuG3BLb80GpXVNTD1rDMZ4PDJ53/wmYGBflaFC7fjeKvp6lWrsZj5P8X1NJfL/eL888+7EQ9IsHerqpiSSCspk7oH+vpg48YtcKITuypkEyfAULGYWctkYNKkScwdIZOG+fFIuW3njBgBfNWqVYe6urquBABku74/ZzaOGLFp/vz5OcAMA6xjms1Afx8fOxnIw/bxunksxYcsm/tneRZCJpdT5hbvURszdqzIYuDySjcP2yYydwkw988Lf/wj3qKM96XpQS7r0j/d2Os4Ah+96KIL/qN11Bi8yZQRHEkimN6L+iGoGzt37WYGX64HPM6fwXOvWJNZXOEzfcYMRgho/EBnKmm92rt3b9/OnTvRjeC7H/BbVUNGfOr8j98PWUyZ4KvKGKYgwPUNrATiTBFOtG+FvuPHoPGsCzjo4mrKZGDNDz/OSjtWxDFdDrpXQPMsUUksA9Cx/SXInzgBzbOuEJe9aeHTcVqVHaW7IRY7qxIGGejctQxe/tk/rQYoYt5Wp6e//zhp8uR/PeecszMYda+qrGanU7jDh4OHXTwG20HGiUCIF1OyQx8yCCV9q8KZj8rBLlhE5clkWMWwNWvWdPf29uL54OUJyj1hzJgxq8477/zGQoEXX5YF3BXwSpeCqnKGrHsA+vvxavWsuBhTHGBwHJmkUWAEyPZ97cgkXMWBIqJWVlZ+f+bMs/9q4qQJzA8syo0Yflya0cH9sxk2djim7Bptcr2POExMMjW4x5kGCFetWoVFzPHw/elauq8jMp7CT+Pub/MVl1/R2NBYzy93FReUMsAlRZ9omifWZegf4BUCcU0WRcU7HuQlEKGutpKsGGM5eVi+bDnu6nB35/tzX+WQxtsu/Pj9jsI38aPBwdgB0hK2BWYw4GGguwWO734FRl+4QF1SiX3AO9JmLPyyj+nePbe2oYUz3alXQNPs69jLhWwGDm9bAdUVw2HYuLOcxSOo+KVYDmkwcHGv/t4Hoafz0I/FYOocE3OM0D+57tprr52A3+N5oxzQ6WK3g2hmfioHaRs0eHucBWIhZvQb79m9u7hj506U6SMBiovDds/8eXP/tq4eGao2sPpeNPwGZ48y05lv4bk/i9sP7TOlmQDK/ysaRhfG+vXr93d1dWEVopAbgWeNGzPuD5PPmtSM12HL+VIpYNwyRE6sCeNtpP0oxi3ekQtKyo6LaefOXYXdu3fhXWn3BYzd6UfevCNwaWtr69Nnn3NOJe4M+RoSWTKqgphOUbTXJlMhcoGsmUImmKNYE0gAVqxY0S2unVoaM2R3VA5p/AqCroJP695Gqqu8nQAaqQCLP1vMFKD78B44sOJBGP/2v4cc6yZnuvyONHQvxPh0Nzz0ORg57UponnUt84MgLBze/keoZdXFzrJuvDTgNjnkF6dQODHZLKz4j/djsvF3AOD/S9C/c+vq6p699K1va0TPPfpk0bpiAfOurpNQU1PFrg+XjnoFuA5Qwd+h5eTZwuyANXPWI+DiDb4bNmz4ZW9v7y0xvlxb1BEVFRVPXnTRRedhNX1xHTnbMmF71TU1zN9rgxsXTaTckKpLyLRxHrlbhAeo8LlsNlvctGlT19GjRzG1Dq9hD/mDnfzA6NGj/t+sWbOZNe/p6WPXqmCRdKyDK90EXHdIRTMr4owLC7eHOHboq0P52FiK64/27dtb3LFjJ/rcbgIA+y6rEFlPP/PmGoGvjR077m9mz57FCsJ2dZ9kV6t3nuiEuro6dj0Uy9umlf9E/7jey0JOqEPcRYF6JYsvSYKwZcuWwuHDh98PAHhXWtyfKytq6p4870Pfh8qhwwU+CVAVwGlDrI/hxkIXyj7QDRt/8Y8w9eZ7IYfJBgyMAVbjFezqNuA7IZq90NAKG9kV7FdCM94GjP6ZTAb2L/0u1E++Eoa14G3ddgBNnYkTctF/R4NtRidZwQgOdcwzkAFY+d0PQH/X4a/ihZMB+vbBbDb7n/MvuaQag1Lom8S8wNohtSwgJEFKOuulgaKMF+9nwgmWR3WltcMrezBAtHr16jYAQF/p9gB56CMjsR7HJZe+ZcbQoUPY3Wc9Pd0wZNhQ6ELZMjmVlyi88kzJmGxSL/7/9q4FOKqzCn/3sbshCSEkZFNCKOTBJuFhIIAVlWqhDGUcMVSmVbE6Wq2VSlsbSkt11NoC1RkldKb4YESsIwNBQDrDtIww0xm1g45AgbSRJA0kLYRHQrvZbMgme/c653/cvdlsSELAac3/DzPZZe+9+9/v3v3u+c/5zjkCbS45EzOjxpk9vcyKqK+v7+kIdmwC8OwN+EqrSkpKNkzMy/NROx76QdBDgbtgeEM/7q0RindXCUn5cJByOJozvab5EwFTcC3cGSafcF0sFqNOzuS4VuP/HwGSKx66fXL+wqLigEZKhu7uCNLHpuPKlctITU3rl+0o7yUpM6P3vEcgv+ela663t4fdj+fPn4+1trZSy6wNQ4CTujRcKFj8KHJnxt2lrvKG3FJNqDjW731fuk4SyeI81njgxyj4/LMwRDIG/Yzf/P2DmH7vC6xHWt3+JKRLRczP1KzF+MBi+MuXsd+xBRONu7+HgmU/EtXFGBSDnO9QTHR3aUfxOhrGse3fRE9X6OuARcv5wQZNZEl6WtrLZaWluRlUSIZagDvFtYVezl2HgV9l5+JzK41L4IiwaVBUlHqRdUe6T4c7w6QXpj5MNzJKTNP8XeHUgk9NKSpkwT4ieCJ6ebMl/nUHDyQJs8aQrLU5JXBorD3RubPnwsFgkB5Mv76RiVE3IQCrsrOyfjN95kyDpHcU8KPaCawIeYJ2Us5TWr/0Xqoz5DxZwXtdwzsNjWi/evVQNBolXe6VG5yf2u2jiYBXB36RnZPzyJw5FRq1myJjiDWGpRWaTCF3SREdl6BwrfFWPOIhLrS/hqHh5MnTvZ2dIWoOu4tUmEOAh5aGkYLFj5m5s+5hAbuB3AfDdosmqBnIC91w4CcoWv5TTrrS0nVI14+6/U/FLd3UcbxdD9Ve+E9NFbJK7ob/Y5x0e+DBe39Zj+LK51kZMz4GI904HG76HYiKGegaEDp/GnX7f4hYNDKPdNFDAFVuQpreP0zOz5+Tl5+fkprCpVBEALKVOW3otD8XhJJ4FnRz0JKopbm5vaOj43UipZuwLCbd2c/HeL1fnVFenjU2PZ1FdyXRu4N5/D6M+70S/dRkvYdCHdGmprNvG4axwbKsmmFgNNCmFLDcWlpaOt3v9+tEnCxQJh5OckZynm5/s3RD0F/SZJJV09T0Ttu1zvDBGPBtSku/CfNTh/hoIrDaYxjryivmTqGO3ESikkid36I4L9l9WiZU0P0n21B1dV1DMPi+1dR0tgnAcwD+OEw4rk6567HxE8XKPU5dFN3jq+uhs1niN0tG4y5BqjY2rmwpxhfOdUriMsnYCrJ0J/S1dCXppozLxRlyLwQWwV9O0jcbPboPzfueQqDyORalo6fFcDU/UoqUWDiC5baJMybz/PLpg2g6vIUOTzIQqr0wnEHZagsNw0hfsGAhfD4vLJDlarF/cWFttJ/Kli3fDQOh0AeoPVlL30kC/pPD+fJBtqWznA1gUkVFBTJE7QUIt4EzN/aivwRYuhcoASIUCpH+jIIHN3PJTtHn+ZNyc41pZWW85TpNpc/8+uPmPmeqSyESNAg7kq0NFAS9ibCqQ33IEaBkmDvy8/PNPFeVMHlfOfcYJSG5XGjs1qMVJ3WbfK8Zly61UYD46AC6/cEgODBp/qrl+Z/8mihGI0PXyag2bhZyzQ6N61Ny3AcMXDx1EKHWt1G0ZK1T3pHUC+Re4BlpyboBZ/q5e2HaIuTO5t2AI5FLaH5tKwJfkCUdZWKxqIbT55SH4FZIsr30516uPYSzhzdHAHugVNbBAFafKwQUAgoBNwIrsovv2jftc+uhabIn240D5KiNEnmMlSToRMOeHyBwfzVXfmk2Tm3/Fsq++AI8Gf6+7XrI0i29d2OFl/l0q/TswGfs28orbds0cOlfO/Subku/fcED8cxf0U1i4GdAfGpxOZis2UCzFUto5yWv1nOx9lU0H9lCymleUkgNhYBCQCEwMgSmQ9Pfmr/mNZishxnnmvjoS6NxszG5Rey2bB0rWPinu20PztWstsu+/CIFlhCNxVC740Fjxn2/tDzjJlC2rx5898QkABe1NNYNeON8X2YOGvas03I++4SdMYHSOnU01jyuZVU8gJziueI7uC/EsboTfQ3JHgVCHJ3YlD0uUuVPhYtHt6L56Cs7hS91ZFCrvRUCCgGFAEBEduHjjx/SDaFSYPEJRmHcoSsTUZmr0x22SnydyMOuDFaySKO2gfqd30Xp/dU2DA224UH9ript5n3VtmX34K39z2gdLcdJUcFJd1rlxgrf+Gy833JC66p73chf8n3Ymo663U8gsLIapsErBxERSx+tmzRHdnW5euDYtpXoDXdQYOfvIzue2lshoBBQCDAEqKFj/Sce/WsW9Cgv1iW5NbmvYEiwue1OdhjS9ttA0ytPY/Kda+DLvA2Xj+9FsK05Fli6NkbBwdq9641gy4k8TroZE/9ZvGLjvJTMHNs2U9H4p0e07FnLor7AIqv5z1W+ki+9qJsa1f/igl85pL6WvU88gaS+h/5nSSCQpyUKA8eql9CDhjKrKFKphkJAIaAQGCkCVG3s6IyvvFSW5i+CUMc7SV6MpoSKQa7g3dSV6IhInIz8nGnUbQ2X/vZbeCffESGibD+xxyyo3KCl6D224fHiVM3TerDlBLlOL2heX8ahosqffXps7lTqqa139/TGLr+xwxO50mSG2xv0zJK7oZljKGWMm+OSZZnSS2guBlWTCcKVEg3ZMcLWoOuUxmui9d8vR2yAIp7JqouNFHy1v0JAITD6EPBowM4xuYGV4yfPY+n3rtaALjSInxL8C0wiKxRW8S5arn34fzKZv0jp7zp/DDFbi3nT02O5i5+JUKVDVmNY1+36vU/6OlreJEu3TfMA35lauWlL5tSKKBMQky2se9BzzUL47BtGb3e7rtkW5RjbtqjCToFAd7aSOzjmMuCdVjxMgMGyzwRlk4WrQbcZ6Zo2PIbdfLi6TdSDbR9994Y6Y4WAQuBWIKADL5kpaQ/nLPhG1KTODLYVD0y5kjR4xhR38jrdwB0qdmxaR1DAmwDQ9sRt1BSISk8CGYUL7TFp2bauRZlegj7uvRaM1e9dd7Wr7RwTCWgpQKGWVXCkeNW2nBSD1QTQuEieDil8uByN/hLdPs5mTvtujZtmE7G6nRIiBic92ewBoyES063jW5YcB7AUQGJB4ltxLdQxFQIKgVGAgA5sNlKz18x+aGe3ySxCdxczAYBseTaAz1SqdtnecqVPf2MxkhP3icCxHoSc1zTLsmEYXpx7dROunjmy2gK2O8cwgXs8aVmb8+58uNDM8GsakybzOu8sea5PiE+Y4a4Mqvi1c7GwxisruCfsvsacnvmRqXtBw74nd4tKXkpYPwp+DOoUFQL/IwQeMlMyfjVt+fMWGZIkECDzk1VdEHTFuViIyfqYlu438Qw0J5GNGZly8NU8yzvgRrNtR7u11n9s+yB8sX6XBVTJLE3Hb5wKTOwBZunAWBjwWox448VWeI5I8uHeavhA8qwxijIOM/13+F+l9lAIKARGGwIkG1tEiW8Dj+t+6OyWjOeS7Sn/z7KsTh14t5dnuDr8fP08t9F2edT5KgQUAgqBW4yAIt1bDLA6vEJAIaAQcCPwXz81p52H2sfeAAAAAElFTkSuQmCC;" vertex="1" parent="-SmzEimIzvcL1KyQb9cA-1">
          <mxGeometry width="86" height="128.14" as="geometry" />
        </mxCell>
        <mxCell id="-SmzEimIzvcL1KyQb9cA-3" value="" style="rounded=0;whiteSpace=wrap;html=1;strokeColor=none;fillColor=none;" vertex="1" parent="-SmzEimIzvcL1KyQb9cA-1">
          <mxGeometry y="1.0699999999999932" width="85.4" height="116.2" as="geometry" />
        </mxCell>
      </root>
    </mxGraphModel>
  </diagram>
</mxfile>
